<svg class="pb-2" id="Grid" style="overflow: visible; z-index: 90;" xmlns="http://www.w3.org/2000/svg" xmlns:xlink="http://www.w3.org/1999/xlink" height="624.9425" width="728" viewBox="0 0 728 624.9425">
  К сожалению, ваш браузер не поддерживается. Постарайтесь обновить версию.
<desc>Created with Snap</desc><defs><filter id="Smh3e8w6h9m" filterUnits="userSpaceOnUse"><feColorMatrix type="matrix" values="1 0 0 0 0 0 1 0 0 0 0 0 1 0 0 0 0 0 0.7 0"></feColorMatrix></filter><filter id="Smh3e8w6h9o" filterUnits="userSpaceOnUse"><feColorMatrix type="matrix" values="-.17 -.17 -.17 0 1 -.22 -.22 -.22 0 1 -.33 -.33 -.33 0 1 0 0 0 1 0"></feColorMatrix></filter></defs><g><polygon points="75.565,16.024166666666666,139.66166666666666,16.024166666666666,139.66166666666666,80.12083333333334,75.565,80.12083333333334" fill="#ffffff" stroke="#000000" style="fill-opacity: 1; stroke-width: 1;"></polygon></g><g><polygon points="139.66166666666666,16.024166666666666,203.75833333333333,16.024166666666666,203.75833333333333,80.12083333333334,139.66166666666666,80.12083333333334" fill="#ffffff" stroke="#000000" style="fill-opacity: 1; stroke-width: 1;"></polygon></g><g><polygon points="203.75833333333333,16.024166666666666,267.855,16.024166666666666,267.855,80.12083333333334,203.75833333333333,80.12083333333334" fill="#ffffff" stroke="#000000" style="fill-opacity: 1; stroke-width: 1;"></polygon></g><g><polygon points="267.855,16.024166666666666,331.9516666666667,16.024166666666666,331.9516666666667,80.12083333333334,267.855,80.12083333333334" fill="#ffffff" stroke="#000000" style="fill-opacity: 1; stroke-width: 1;"></polygon></g><g><polygon points="331.95166666666665,16.024166666666666,396.0483333333333,16.024166666666666,396.0483333333333,80.12083333333334,331.95166666666665,80.12083333333334" fill="#ffffff" stroke="#000000" style="fill-opacity: 1; stroke-width: 1;"></polygon></g><g><polygon points="396.04833333333335,16.024166666666666,460.145,16.024166666666666,460.145,80.12083333333334,396.04833333333335,80.12083333333334" fill="#ffffff" stroke="#000000" style="fill-opacity: 1; stroke-width: 1;"></polygon></g><g><polygon points="460.145,16.024166666666666,524.2416666666667,16.024166666666666,524.2416666666667,80.12083333333334,460.145,80.12083333333334" fill="#ffffff" stroke="#000000" style="fill-opacity: 1; stroke-width: 1;"></polygon></g><g><polygon points="524.2416666666666,16.024166666666666,588.3383333333333,16.024166666666666,588.3383333333333,80.12083333333334,524.2416666666666,80.12083333333334" fill="#ffffff" stroke="#000000" style="fill-opacity: 1; stroke-width: 1;"></polygon></g><g><polygon points="75.565,80.12083333333334,139.66166666666666,80.12083333333334,139.66166666666666,144.2175,75.565,144.2175" fill="#ffffff" stroke="#000000" style="fill-opacity: 1; stroke-width: 1;"></polygon></g><g><polygon points="139.66166666666666,80.12083333333334,203.75833333333333,80.12083333333334,203.75833333333333,144.2175,139.66166666666666,144.2175" fill="#ffffff" stroke="#000000" style="fill-opacity: 1; stroke-width: 1;"></polygon></g><g><polygon points="203.75833333333333,80.12083333333334,267.855,80.12083333333334,267.855,144.2175,203.75833333333333,144.2175" fill="#ffffff" stroke="#000000" style="fill-opacity: 1; stroke-width: 1;"></polygon></g><g><polygon points="267.855,80.12083333333334,331.9516666666667,80.12083333333334,331.9516666666667,144.2175,267.855,144.2175" fill="#ffffff" stroke="#000000" style="fill-opacity: 1; stroke-width: 1;"></polygon></g><g><polygon points="331.95166666666665,80.12083333333334,396.0483333333333,80.12083333333334,396.0483333333333,144.2175,331.95166666666665,144.2175" fill="#ffffff" stroke="#000000" style="fill-opacity: 1; stroke-width: 1;"></polygon></g><g><polygon points="396.04833333333335,80.12083333333334,460.145,80.12083333333334,460.145,144.2175,396.04833333333335,144.2175" fill="#ffffff" stroke="#000000" style="fill-opacity: 1; stroke-width: 1;"></polygon></g><g><polygon points="460.145,80.12083333333334,524.2416666666667,80.12083333333334,524.2416666666667,144.2175,460.145,144.2175" fill="#ffffff" stroke="#000000" style="fill-opacity: 1; stroke-width: 1;"></polygon></g><g><polygon points="524.2416666666666,80.12083333333334,588.3383333333333,80.12083333333334,588.3383333333333,144.2175,524.2416666666666,144.2175" fill="#ffffff" stroke="#000000" style="fill-opacity: 1; stroke-width: 1;"></polygon></g><g><polygon points="75.565,144.2175,139.66166666666666,144.2175,139.66166666666666,208.31416666666667,75.565,208.31416666666667" fill="#ffffff" stroke="#000000" style="fill-opacity: 1; stroke-width: 1;"></polygon></g><g><polygon points="139.66166666666666,144.2175,203.75833333333333,144.2175,203.75833333333333,208.31416666666667,139.66166666666666,208.31416666666667" fill="#ffffff" stroke="#000000" style="fill-opacity: 1; stroke-width: 1;"></polygon></g><g><polygon points="203.75833333333333,144.2175,267.855,144.2175,267.855,208.31416666666667,203.75833333333333,208.31416666666667" fill="#ffffff" stroke="#000000" style="fill-opacity: 1; stroke-width: 1;"></polygon></g><g><polygon points="267.855,144.2175,331.9516666666667,144.2175,331.9516666666667,208.31416666666667,267.855,208.31416666666667" fill="#ffffff" stroke="#000000" style="fill-opacity: 1; stroke-width: 1;"></polygon></g><g><polygon points="331.95166666666665,144.2175,396.0483333333333,144.2175,396.0483333333333,208.31416666666667,331.95166666666665,208.31416666666667" fill="#ffffff" stroke="#000000" style="fill-opacity: 1; stroke-width: 1;"></polygon></g><g><polygon points="396.04833333333335,144.2175,460.145,144.2175,460.145,208.31416666666667,396.04833333333335,208.31416666666667" fill="#ffffff" stroke="#000000" style="fill-opacity: 1; stroke-width: 1;"></polygon></g><g><polygon points="460.145,144.2175,524.2416666666667,144.2175,524.2416666666667,208.31416666666667,460.145,208.31416666666667" fill="#ffffff" stroke="#000000" style="fill-opacity: 1; stroke-width: 1;"></polygon></g><g><polygon points="524.2416666666666,144.2175,588.3383333333333,144.2175,588.3383333333333,208.31416666666667,524.2416666666666,208.31416666666667" fill="#ffffff" stroke="#000000" style="fill-opacity: 1; stroke-width: 1;"></polygon></g><g><polygon points="75.565,208.31416666666667,139.66166666666666,208.31416666666667,139.66166666666666,272.41083333333336,75.565,272.41083333333336" fill="#ffffff" stroke="#000000" style="fill-opacity: 1; stroke-width: 1;"></polygon></g><g><polygon points="139.66166666666666,208.31416666666667,203.75833333333333,208.31416666666667,203.75833333333333,272.41083333333336,139.66166666666666,272.41083333333336" fill="#ffffff" stroke="#000000" style="fill-opacity: 1; stroke-width: 1;"></polygon></g><g><polygon points="203.75833333333333,208.31416666666667,267.855,208.31416666666667,267.855,272.41083333333336,203.75833333333333,272.41083333333336" fill="#ffffff" stroke="#000000" style="fill-opacity: 1; stroke-width: 1;"></polygon></g><g><polygon points="267.855,208.31416666666667,331.9516666666667,208.31416666666667,331.9516666666667,272.41083333333336,267.855,272.41083333333336" fill="#ffffff" stroke="#000000" style="fill-opacity: 1; stroke-width: 1;"></polygon></g><g><polygon points="331.95166666666665,208.31416666666667,396.0483333333333,208.31416666666667,396.0483333333333,272.41083333333336,331.95166666666665,272.41083333333336" fill="#ffffff" stroke="#000000" style="fill-opacity: 1; stroke-width: 1;"></polygon></g><g><polygon points="396.04833333333335,208.31416666666667,460.145,208.31416666666667,460.145,272.41083333333336,396.04833333333335,272.41083333333336" fill="#ffffff" stroke="#000000" style="fill-opacity: 1; stroke-width: 1;"></polygon></g><g><polygon points="460.145,208.31416666666667,524.2416666666667,208.31416666666667,524.2416666666667,272.41083333333336,460.145,272.41083333333336" fill="#ffffff" stroke="#000000" style="fill-opacity: 1; stroke-width: 1;"></polygon></g><g><polygon points="524.2416666666666,208.31416666666667,588.3383333333333,208.31416666666667,588.3383333333333,272.41083333333336,524.2416666666666,272.41083333333336" fill="#ffffff" stroke="#000000" style="fill-opacity: 1; stroke-width: 1;"></polygon></g><g><polygon points="75.565,272.4108333333333,139.66166666666666,272.4108333333333,139.66166666666666,336.50749999999994,75.565,336.50749999999994" fill="#ffffff" stroke="#000000" style="fill-opacity: 1; stroke-width: 1;"></polygon></g><g><polygon points="139.66166666666666,272.4108333333333,203.75833333333333,272.4108333333333,203.75833333333333,336.50749999999994,139.66166666666666,336.50749999999994" fill="#ffffff" stroke="#000000" style="fill-opacity: 1; stroke-width: 1;"></polygon></g><g><polygon points="203.75833333333333,272.4108333333333,267.855,272.4108333333333,267.855,336.50749999999994,203.75833333333333,336.50749999999994" fill="#ffffff" stroke="#000000" style="fill-opacity: 1; stroke-width: 1;"></polygon></g><g><polygon points="267.855,272.4108333333333,331.9516666666667,272.4108333333333,331.9516666666667,336.50749999999994,267.855,336.50749999999994" fill="#075466" stroke="#000000" style="fill-opacity: 1; stroke-width: 1;"></polygon></g><g><polygon points="331.95166666666665,272.4108333333333,396.0483333333333,272.4108333333333,396.0483333333333,336.50749999999994,331.95166666666665,336.50749999999994" fill="#ffffff" stroke="#000000" style="fill-opacity: 1; stroke-width: 1;"></polygon></g><g><polygon points="396.04833333333335,272.4108333333333,460.145,272.4108333333333,460.145,336.50749999999994,396.04833333333335,336.50749999999994" fill="#ffffff" stroke="#000000" style="fill-opacity: 1; stroke-width: 1;"></polygon></g><g><polygon points="460.145,272.4108333333333,524.2416666666667,272.4108333333333,524.2416666666667,336.50749999999994,460.145,336.50749999999994" fill="#075466" stroke="#000000" style="fill-opacity: 1; stroke-width: 1;"></polygon></g><g><polygon points="524.2416666666666,272.4108333333333,588.3383333333333,272.4108333333333,588.3383333333333,336.50749999999994,524.2416666666666,336.50749999999994" fill="#ffffff" stroke="#000000" style="fill-opacity: 1; stroke-width: 1;"></polygon></g><g><polygon points="75.565,336.5075,139.66166666666666,336.5075,139.66166666666666,400.60416666666663,75.565,400.60416666666663" fill="#ffffff" stroke="#000000" style="fill-opacity: 1; stroke-width: 1;"></polygon></g><g><polygon points="139.66166666666666,336.5075,203.75833333333333,336.5075,203.75833333333333,400.60416666666663,139.66166666666666,400.60416666666663" fill="#ffffff" stroke="#000000" style="fill-opacity: 1; stroke-width: 1;"></polygon></g><g><polygon points="203.75833333333333,336.5075,267.855,336.5075,267.855,400.60416666666663,203.75833333333333,400.60416666666663" fill="#ffffff" stroke="#000000" style="fill-opacity: 1; stroke-width: 1;"></polygon></g><g><polygon points="267.855,336.5075,331.9516666666667,336.5075,331.9516666666667,400.60416666666663,267.855,400.60416666666663" fill="#ffffff" stroke="#000000" style="fill-opacity: 1; stroke-width: 1;"></polygon></g><g><polygon points="331.95166666666665,336.5075,396.0483333333333,336.5075,396.0483333333333,400.60416666666663,331.95166666666665,400.60416666666663" fill="#ffffff" stroke="#000000" style="fill-opacity: 1; stroke-width: 1;"></polygon></g><g><polygon points="396.04833333333335,336.5075,460.145,336.5075,460.145,400.60416666666663,396.04833333333335,400.60416666666663" fill="#ffffff" stroke="#000000" style="fill-opacity: 1; stroke-width: 1;"></polygon></g><g><polygon points="460.145,336.5075,524.2416666666667,336.5075,524.2416666666667,400.60416666666663,460.145,400.60416666666663" fill="#ffffff" stroke="#000000" style="fill-opacity: 1; stroke-width: 1;"></polygon></g><g><polygon points="524.2416666666666,336.5075,588.3383333333333,336.5075,588.3383333333333,400.60416666666663,524.2416666666666,400.60416666666663" fill="#ffffff" stroke="#000000" style="fill-opacity: 1; stroke-width: 1;"></polygon></g><g><polygon points="75.565,400.60416666666663,139.66166666666666,400.60416666666663,139.66166666666666,464.7008333333333,75.565,464.7008333333333" fill="#ffffff" stroke="#000000" style="fill-opacity: 1; stroke-width: 1;"></polygon></g><g><polygon points="139.66166666666666,400.60416666666663,203.75833333333333,400.60416666666663,203.75833333333333,464.7008333333333,139.66166666666666,464.7008333333333" fill="#ffffff" stroke="#000000" style="fill-opacity: 1; stroke-width: 1;"></polygon></g><g><polygon points="203.75833333333333,400.60416666666663,267.855,400.60416666666663,267.855,464.7008333333333,203.75833333333333,464.7008333333333" fill="#ffffff" stroke="#000000" style="fill-opacity: 1; stroke-width: 1;"></polygon></g><g><polygon points="267.855,400.60416666666663,331.9516666666667,400.60416666666663,331.9516666666667,464.7008333333333,267.855,464.7008333333333" fill="#ffffff" stroke="#000000" style="fill-opacity: 1; stroke-width: 1;"></polygon></g><g><polygon points="331.95166666666665,400.60416666666663,396.0483333333333,400.60416666666663,396.0483333333333,464.7008333333333,331.95166666666665,464.7008333333333" fill="#ffffff" stroke="#000000" style="fill-opacity: 1; stroke-width: 1;"></polygon></g><g><polygon points="396.04833333333335,400.60416666666663,460.145,400.60416666666663,460.145,464.7008333333333,396.04833333333335,464.7008333333333" fill="#ffffff" stroke="#000000" style="fill-opacity: 1; stroke-width: 1;"></polygon></g><g><polygon points="460.145,400.60416666666663,524.2416666666667,400.60416666666663,524.2416666666667,464.7008333333333,460.145,464.7008333333333" fill="#ffffff" stroke="#000000" style="fill-opacity: 1; stroke-width: 1;"></polygon></g><g><polygon points="524.2416666666666,400.60416666666663,588.3383333333333,400.60416666666663,588.3383333333333,464.7008333333333,524.2416666666666,464.7008333333333" fill="#ffffff" stroke="#000000" style="fill-opacity: 1; stroke-width: 1;"></polygon></g><g><polygon points="75.565,464.70083333333326,139.66166666666666,464.70083333333326,139.66166666666666,528.7974999999999,75.565,528.7974999999999" fill="#ffffff" stroke="#000000" style="fill-opacity: 1; stroke-width: 1;"></polygon></g><g><polygon points="139.66166666666666,464.70083333333326,203.75833333333333,464.70083333333326,203.75833333333333,528.7974999999999,139.66166666666666,528.7974999999999" fill="#ffffff" stroke="#000000" style="fill-opacity: 1; stroke-width: 1;"></polygon></g><g><polygon points="203.75833333333333,464.70083333333326,267.855,464.70083333333326,267.855,528.7974999999999,203.75833333333333,528.7974999999999" fill="#ffffff" stroke="#000000" style="fill-opacity: 1; stroke-width: 1;"></polygon></g><g><polygon points="267.855,464.70083333333326,331.9516666666667,464.70083333333326,331.9516666666667,528.7974999999999,267.855,528.7974999999999" fill="#ffffff" stroke="#000000" style="fill-opacity: 1; stroke-width: 1;"></polygon></g><g><polygon points="331.95166666666665,464.70083333333326,396.0483333333333,464.70083333333326,396.0483333333333,528.7974999999999,331.95166666666665,528.7974999999999" fill="#ffffff" stroke="#000000" style="fill-opacity: 1; stroke-width: 1;"></polygon></g><g><polygon points="396.04833333333335,464.70083333333326,460.145,464.70083333333326,460.145,528.7974999999999,396.04833333333335,528.7974999999999" fill="#ffffff" stroke="#000000" style="fill-opacity: 1; stroke-width: 1;"></polygon></g><g><polygon points="460.145,464.70083333333326,524.2416666666667,464.70083333333326,524.2416666666667,528.7974999999999,460.145,528.7974999999999" fill="#ffffff" stroke="#000000" style="fill-opacity: 1; stroke-width: 1;"></polygon></g><g><polygon points="524.2416666666666,464.70083333333326,588.3383333333333,464.70083333333326,588.3383333333333,528.7974999999999,524.2416666666666,528.7974999999999" fill="#ffffff" stroke="#000000" style="fill-opacity: 1; stroke-width: 1;"></polygon></g><g><polygon points="75.565,528.7975,139.66166666666666,528.7975,139.66166666666666,592.8941666666667,75.565,592.8941666666667" stroke="#000000" fill="#ffffff" style="fill-opacity: 0; stroke-width: 1;"></polygon><text x="95.27472499999999" y="576.5495166666666" lengthAdjust="spacingAndGlyphs" textLength="24.677216666666666" fill="#88ddbb" style="font-family: sans-serif; font-weight: bold; font-size: 44.8677px;">5</text></g><g><polygon points="139.66166666666666,528.7975,203.75833333333333,528.7975,203.75833333333333,592.8941666666667,139.66166666666666,592.8941666666667" stroke="#000000" fill="#ffffff" style="fill-opacity: 0; stroke-width: 1;"></polygon><text x="159.37139166666665" y="576.5495166666666" lengthAdjust="spacingAndGlyphs" textLength="24.677216666666666" fill="#88ddbb" style="font-family: sans-serif; font-weight: bold; font-size: 44.8677px;">3</text></g><g><polygon points="203.75833333333333,528.7975,267.855,528.7975,267.855,592.8941666666667,203.75833333333333,592.8941666666667" stroke="#000000" fill="#ffffff" style="fill-opacity: 0; stroke-width: 1;"></polygon></g><g><polygon points="267.855,528.7975,331.9516666666667,528.7975,331.9516666666667,592.8941666666667,267.855,592.8941666666667" stroke="#000000" fill="#ffffff" style="fill-opacity: 0; stroke-width: 1;"></polygon></g><g><polygon points="331.95166666666665,528.7975,396.0483333333333,528.7975,396.0483333333333,592.8941666666667,331.95166666666665,592.8941666666667" stroke="#000000" fill="#ffffff" style="fill-opacity: 0; stroke-width: 1;"></polygon></g><g><polygon points="396.04833333333335,528.7975,460.145,528.7975,460.145,592.8941666666667,396.04833333333335,592.8941666666667" stroke="#000000" fill="#ffffff" style="fill-opacity: 0; stroke-width: 1;"></polygon></g><g><polygon points="460.145,528.7975,524.2416666666667,528.7975,524.2416666666667,592.8941666666667,460.145,592.8941666666667" stroke="#000000" fill="#ffffff" style="fill-opacity: 0; stroke-width: 1;"></polygon><text x="479.854725" y="576.5495166666666" lengthAdjust="spacingAndGlyphs" textLength="24.677216666666666" fill="#88ddbb" style="font-family: sans-serif; font-weight: bold; font-size: 44.8677px;">3</text></g><g><polygon points="524.2416666666666,528.7975,588.3383333333333,528.7975,588.3383333333333,592.8941666666667,524.2416666666666,592.8941666666667" stroke="#000000" fill="#ffffff" style="fill-opacity: 0; stroke-width: 1;"></polygon><text x="543.9513916666665" y="576.5495166666666" lengthAdjust="spacingAndGlyphs" textLength="24.677216666666666" fill="#88ddbb" style="font-family: sans-serif; font-weight: bold; font-size: 44.8677px;">3</text></g><g><polygon points="588.3383333333334,16.024166666666666,652.4350000000001,16.024166666666666,652.4350000000001,80.12083333333334,588.3383333333334,80.12083333333334" stroke="#000000" fill="#ffffff" style="fill-opacity: 0; stroke-width: 1;"></polygon><text x="608.0480583333333" y="63.77618333333333" lengthAdjust="spacingAndGlyphs" textLength="24.677216666666666" fill="#88ddbb" style="font-family: sans-serif; font-weight: bold; font-size: 44.8677px;">6</text></g><g><polygon points="588.3383333333334,80.12083333333334,652.4350000000001,80.12083333333334,652.4350000000001,144.2175,588.3383333333334,144.2175" stroke="#000000" fill="#ffffff" style="fill-opacity: 0; stroke-width: 1;"></polygon><text x="608.0480583333333" y="127.87285" lengthAdjust="spacingAndGlyphs" textLength="24.677216666666666" fill="#88ddbb" style="font-family: sans-serif; font-weight: bold; font-size: 44.8677px;">2</text></g><g><polygon points="588.3383333333334,144.2175,652.4350000000001,144.2175,652.4350000000001,208.31416666666667,588.3383333333334,208.31416666666667" stroke="#000000" fill="#ffffff" style="fill-opacity: 0; stroke-width: 1;"></polygon><text x="608.0480583333333" y="191.96951666666666" lengthAdjust="spacingAndGlyphs" textLength="24.677216666666666" fill="#88ddbb" style="font-family: sans-serif; font-weight: bold; font-size: 44.8677px;">5</text></g><g><polygon points="588.3383333333334,208.31416666666667,652.4350000000001,208.31416666666667,652.4350000000001,272.41083333333336,588.3383333333334,272.41083333333336" stroke="#000000" fill="#ffffff" style="fill-opacity: 0; stroke-width: 1;"></polygon></g><g><polygon points="588.3383333333334,272.4108333333333,652.4350000000001,272.4108333333333,652.4350000000001,336.50749999999994,588.3383333333334,336.50749999999994" stroke="#000000" fill="#ffffff" style="fill-opacity: 0; stroke-width: 1;"></polygon></g><g><polygon points="588.3383333333334,336.5075,652.4350000000001,336.5075,652.4350000000001,400.60416666666663,588.3383333333334,400.60416666666663" stroke="#000000" fill="#ffffff" style="fill-opacity: 0; stroke-width: 1;"></polygon></g><g><polygon points="588.3383333333334,400.60416666666663,652.4350000000001,400.60416666666663,652.4350000000001,464.7008333333333,588.3383333333334,464.7008333333333" stroke="#000000" fill="#ffffff" style="fill-opacity: 0; stroke-width: 1;"></polygon><text x="608.0480583333333" y="448.3561833333333" lengthAdjust="spacingAndGlyphs" textLength="24.677216666666666" fill="#88ddbb" style="font-family: sans-serif; font-weight: bold; font-size: 44.8677px;">3</text></g><g><polygon points="588.3383333333334,464.70083333333326,652.4350000000001,464.70083333333326,652.4350000000001,528.7974999999999,588.3383333333334,528.7974999999999" stroke="#000000" fill="#ffffff" style="fill-opacity: 0; stroke-width: 1;"></polygon><text x="608.0480583333333" y="512.4528499999999" lengthAdjust="spacingAndGlyphs" textLength="24.677216666666666" fill="#88ddbb" style="font-family: sans-serif; font-weight: bold; font-size: 44.8677px;">3</text></g><g><line x1="75.565" x2="139.66166666666666" y1="16.024166666666666" y2="16.024166666666666" stroke="#000000" style="stroke-width: 7; stroke-linecap: round;"></line></g><g></g><g></g><g><line x1="75.565" x2="75.565" y1="80.12083333333334" y2="16.024166666666666" stroke="#000000" style="stroke-width: 7; stroke-linecap: round;"></line></g><g><line x1="139.66166666666666" x2="203.75833333333333" y1="16.024166666666666" y2="16.024166666666666" stroke="#000000" style="stroke-width: 7; stroke-linecap: round;"></line></g><g></g><g></g><g><line x1="203.75833333333333" x2="267.855" y1="16.024166666666666" y2="16.024166666666666" stroke="#000000" style="stroke-width: 7; stroke-linecap: round;"></line></g><g></g><g></g><g><line x1="267.855" x2="331.9516666666667" y1="16.024166666666666" y2="16.024166666666666" stroke="#000000" style="stroke-width: 7; stroke-linecap: round;"></line></g><g></g><g></g><g><line x1="331.95166666666665" x2="396.0483333333333" y1="16.024166666666666" y2="16.024166666666666" stroke="#000000" style="stroke-width: 7; stroke-linecap: round;"></line></g><g></g><g></g><g><line x1="396.04833333333335" x2="460.145" y1="16.024166666666666" y2="16.024166666666666" stroke="#000000" style="stroke-width: 7; stroke-linecap: round;"></line></g><g></g><g></g><g><line x1="460.145" x2="524.2416666666667" y1="16.024166666666666" y2="16.024166666666666" stroke="#000000" style="stroke-width: 7; stroke-linecap: round;"></line></g><g></g><g></g><g><line x1="524.2416666666666" x2="588.3383333333333" y1="16.024166666666666" y2="16.024166666666666" stroke="#000000" style="stroke-width: 7; stroke-linecap: round;"></line></g><g><line x1="588.3383333333333" x2="588.3383333333333" y1="16.024166666666666" y2="80.12083333333334" stroke="#000000" style="stroke-width: 7; stroke-linecap: round;"></line></g><g></g><g></g><g></g><g><line x1="75.565" x2="75.565" y1="144.2175" y2="80.12083333333334" stroke="#000000" style="stroke-width: 7; stroke-linecap: round;"></line></g><g></g><g></g><g></g><g></g><g></g><g></g><g></g><g></g><g></g><g></g><g></g><g></g><g><line x1="588.3383333333333" x2="588.3383333333333" y1="80.12083333333334" y2="144.2175" stroke="#000000" style="stroke-width: 7; stroke-linecap: round;"></line></g><g></g><g></g><g></g><g><line x1="75.565" x2="75.565" y1="208.31416666666667" y2="144.2175" stroke="#000000" style="stroke-width: 7; stroke-linecap: round;"></line></g><g></g><g></g><g></g><g></g><g></g><g></g><g></g><g></g><g></g><g></g><g></g><g></g><g><line x1="588.3383333333333" x2="588.3383333333333" y1="144.2175" y2="208.31416666666667" stroke="#000000" style="stroke-width: 7; stroke-linecap: round;"></line></g><g></g><g></g><g></g><g><line x1="75.565" x2="75.565" y1="272.41083333333336" y2="208.31416666666667" stroke="#000000" style="stroke-width: 7; stroke-linecap: round;"></line></g><g></g><g></g><g></g><g></g><g></g><g></g><g></g><g></g><g></g><g></g><g></g><g></g><g><line x1="588.3383333333333" x2="588.3383333333333" y1="208.31416666666667" y2="272.41083333333336" stroke="#000000" style="stroke-width: 7; stroke-linecap: round;"></line></g><g></g><g></g><g></g><g><line x1="75.565" x2="75.565" y1="336.50749999999994" y2="272.4108333333333" stroke="#000000" style="stroke-width: 7; stroke-linecap: round;"></line></g><g></g><g></g><g></g><g></g><g></g><g></g><g></g><g></g><g></g><g></g><g></g><g></g><g><line x1="588.3383333333333" x2="588.3383333333333" y1="272.4108333333333" y2="336.50749999999994" stroke="#000000" style="stroke-width: 7; stroke-linecap: round;"></line></g><g></g><g></g><g></g><g><line x1="75.565" x2="75.565" y1="400.60416666666663" y2="336.5075" stroke="#000000" style="stroke-width: 7; stroke-linecap: round;"></line></g><g></g><g></g><g></g><g></g><g></g><g></g><g></g><g></g><g></g><g></g><g></g><g></g><g><line x1="588.3383333333333" x2="588.3383333333333" y1="336.5075" y2="400.60416666666663" stroke="#000000" style="stroke-width: 7; stroke-linecap: round;"></line></g><g></g><g></g><g></g><g><line x1="75.565" x2="75.565" y1="464.7008333333333" y2="400.60416666666663" stroke="#000000" style="stroke-width: 7; stroke-linecap: round;"></line></g><g></g><g></g><g></g><g></g><g></g><g></g><g></g><g></g><g></g><g></g><g></g><g></g><g><line x1="588.3383333333333" x2="588.3383333333333" y1="400.60416666666663" y2="464.7008333333333" stroke="#000000" style="stroke-width: 7; stroke-linecap: round;"></line></g><g></g><g></g><g><line x1="139.66166666666666" x2="75.565" y1="528.7974999999999" y2="528.7974999999999" stroke="#000000" style="stroke-width: 7; stroke-linecap: round;"></line></g><g><line x1="75.565" x2="75.565" y1="528.7974999999999" y2="464.70083333333326" stroke="#000000" style="stroke-width: 7; stroke-linecap: round;"></line></g><g></g><g><line x1="203.75833333333333" x2="139.66166666666666" y1="528.7974999999999" y2="528.7974999999999" stroke="#000000" style="stroke-width: 7; stroke-linecap: round;"></line></g><g></g><g><line x1="267.855" x2="203.75833333333333" y1="528.7974999999999" y2="528.7974999999999" stroke="#000000" style="stroke-width: 7; stroke-linecap: round;"></line></g><g></g><g><line x1="331.9516666666667" x2="267.855" y1="528.7974999999999" y2="528.7974999999999" stroke="#000000" style="stroke-width: 7; stroke-linecap: round;"></line></g><g></g><g><line x1="396.0483333333333" x2="331.95166666666665" y1="528.7974999999999" y2="528.7974999999999" stroke="#000000" style="stroke-width: 7; stroke-linecap: round;"></line></g><g></g><g><line x1="460.145" x2="396.04833333333335" y1="528.7974999999999" y2="528.7974999999999" stroke="#000000" style="stroke-width: 7; stroke-linecap: round;"></line></g><g></g><g><line x1="524.2416666666667" x2="460.145" y1="528.7974999999999" y2="528.7974999999999" stroke="#000000" style="stroke-width: 7; stroke-linecap: round;"></line></g><g><line x1="588.3383333333333" x2="588.3383333333333" y1="464.70083333333326" y2="528.7974999999999" stroke="#000000" style="stroke-width: 7; stroke-linecap: round;"></line></g><g><line x1="588.3383333333333" x2="524.2416666666666" y1="528.7974999999999" y2="528.7974999999999" stroke="#000000" style="stroke-width: 7; stroke-linecap: round;"></line></g></svg>