<svg class="pb-2" id="Grid" style="overflow: visible; z-index: 90;" xmlns="http://www.w3.org/2000/svg" xmlns:xlink="http://www.w3.org/1999/xlink" height="562.6499999999999" width="726" viewBox="0 0 726 562.6499999999999">
  Sorry, but your browser is not supported. Try to setup the new version.
<desc>Created with Snap</desc><defs><filter id="Smhdlma5ocs" filterUnits="userSpaceOnUse"><feColorMatrix type="matrix" values="1 0 0 0 0 0 1 0 0 0 0 0 1 0 0 0 0 0 0.7 0"></feColorMatrix></filter><filter id="Smhdlma5ocu" filterUnits="userSpaceOnUse"><feColorMatrix type="matrix" values="-.17 -.17 -.17 0 1 -.22 -.22 -.22 0 1 -.33 -.33 -.33 0 1 0 0 0 1 0"></feColorMatrix></filter></defs><g><polygon points="36.30000000000001,18.15,108.9,18.15,108.9,90.75,36.30000000000001,90.75" fill="#000000" stroke="#000000" style="fill-opacity: 1; stroke-width: 1;"></polygon></g><g><polygon points="108.9,18.15,181.5,18.15,181.5,90.75,108.9,90.75" fill="#000000" stroke="#000000" style="fill-opacity: 1; stroke-width: 1;"></polygon></g><g><polygon points="181.5,18.15,254.1,18.15,254.1,90.75,181.5,90.75" fill="#ffffff" stroke="#000000" style="fill-opacity: 1; stroke-width: 1;"></polygon></g><g><polygon points="254.1,18.15,326.7,18.15,326.7,90.75,254.1,90.75" fill="#000000" stroke="#000000" style="fill-opacity: 1; stroke-width: 1;"></polygon></g><g><polygon points="326.7,18.15,399.29999999999995,18.15,399.29999999999995,90.75,326.7,90.75" fill="#000000" stroke="#000000" style="fill-opacity: 1; stroke-width: 1;"></polygon></g><g><polygon points="399.3,18.15,471.9,18.15,471.9,90.75,399.3,90.75" fill="#ffffff" stroke="#000000" style="fill-opacity: 1; stroke-width: 1;"></polygon></g><g><polygon points="471.9,18.15,544.5,18.15,544.5,90.75,471.9,90.75" fill="#000000" stroke="#000000" style="fill-opacity: 1; stroke-width: 1;"></polygon></g><g><polygon points="544.5,18.15,617.1,18.15,617.1,90.75,544.5,90.75" fill="#000000" stroke="#000000" style="fill-opacity: 1; stroke-width: 1;"></polygon></g><g><polygon points="36.30000000000001,90.75,108.9,90.75,108.9,163.35,36.30000000000001,163.35" fill="#ffffff" stroke="#000000" style="fill-opacity: 1; stroke-width: 1;"></polygon></g><g><polygon points="108.9,90.75,181.5,90.75,181.5,163.35,108.9,163.35" fill="#000000" stroke="#000000" style="fill-opacity: 1; stroke-width: 1;"></polygon></g><g><polygon points="181.5,90.75,254.1,90.75,254.1,163.35,181.5,163.35" fill="#ffffff" stroke="#000000" style="fill-opacity: 1; stroke-width: 1;"></polygon></g><g><polygon points="254.1,90.75,326.7,90.75,326.7,163.35,254.1,163.35" fill="#000000" stroke="#000000" style="fill-opacity: 1; stroke-width: 1;"></polygon></g><g><polygon points="326.7,90.75,399.29999999999995,90.75,399.29999999999995,163.35,326.7,163.35" fill="#000000" stroke="#000000" style="fill-opacity: 1; stroke-width: 1;"></polygon></g><g><polygon points="399.3,90.75,471.9,90.75,471.9,163.35,399.3,163.35" fill="#ffffff" stroke="#000000" style="fill-opacity: 1; stroke-width: 1;"></polygon></g><g><polygon points="471.9,90.75,544.5,90.75,544.5,163.35,471.9,163.35" fill="#000000" stroke="#000000" style="fill-opacity: 1; stroke-width: 1;"></polygon></g><g><polygon points="544.5,90.75,617.1,90.75,617.1,163.35,544.5,163.35" fill="#ffffff" stroke="#000000" style="fill-opacity: 1; stroke-width: 1;"></polygon></g><g><polygon points="36.30000000000001,163.35,108.9,163.35,108.9,235.95,36.30000000000001,235.95" fill="#ffffff" stroke="#000000" style="fill-opacity: 1; stroke-width: 1;"></polygon></g><g><polygon points="108.9,163.35,181.5,163.35,181.5,235.95,108.9,235.95" fill="#ffffff" stroke="#000000" style="fill-opacity: 1; stroke-width: 1;"></polygon></g><g><polygon points="181.5,163.35,254.1,163.35,254.1,235.95,181.5,235.95" fill="#ffffff" stroke="#000000" style="fill-opacity: 1; stroke-width: 1;"></polygon></g><g><polygon points="254.1,163.35,326.7,163.35,326.7,235.95,254.1,235.95" fill="#000000" stroke="#000000" style="fill-opacity: 1; stroke-width: 1;"></polygon></g><g><polygon points="326.7,163.35,399.29999999999995,163.35,399.29999999999995,235.95,326.7,235.95" fill="#000000" stroke="#000000" style="fill-opacity: 1; stroke-width: 1;"></polygon></g><g><polygon points="399.3,163.35,471.9,163.35,471.9,235.95,399.3,235.95" fill="#ffffff" stroke="#000000" style="fill-opacity: 1; stroke-width: 1;"></polygon></g><g><polygon points="471.9,163.35,544.5,163.35,544.5,235.95,471.9,235.95" fill="#ffffff" stroke="#000000" style="fill-opacity: 1; stroke-width: 1;"></polygon></g><g><polygon points="544.5,163.35,617.1,163.35,617.1,235.95,544.5,235.95" fill="#ffffff" stroke="#000000" style="fill-opacity: 1; stroke-width: 1;"></polygon></g><g><polygon points="36.30000000000001,235.95,108.9,235.95,108.9,308.54999999999995,36.30000000000001,308.54999999999995" fill="#ffffff" stroke="#000000" style="fill-opacity: 1; stroke-width: 1;"></polygon></g><g><polygon points="108.9,235.95,181.5,235.95,181.5,308.54999999999995,108.9,308.54999999999995" fill="#000000" stroke="#000000" style="fill-opacity: 1; stroke-width: 1;"></polygon></g><g><polygon points="181.5,235.95,254.1,235.95,254.1,308.54999999999995,181.5,308.54999999999995" fill="#ffffff" stroke="#000000" style="fill-opacity: 1; stroke-width: 1;"></polygon></g><g><polygon points="254.1,235.95,326.7,235.95,326.7,308.54999999999995,254.1,308.54999999999995" fill="#ffffff" stroke="#000000" style="fill-opacity: 1; stroke-width: 1;"></polygon></g><g><polygon points="326.7,235.95,399.29999999999995,235.95,399.29999999999995,308.54999999999995,326.7,308.54999999999995" fill="#ffffff" stroke="#000000" style="fill-opacity: 1; stroke-width: 1;"></polygon></g><g><polygon points="399.3,235.95,471.9,235.95,471.9,308.54999999999995,399.3,308.54999999999995" fill="#ffffff" stroke="#000000" style="fill-opacity: 1; stroke-width: 1;"></polygon></g><g><polygon points="471.9,235.95,544.5,235.95,544.5,308.54999999999995,471.9,308.54999999999995" fill="#000000" stroke="#000000" style="fill-opacity: 1; stroke-width: 1;"></polygon></g><g><polygon points="544.5,235.95,617.1,235.95,617.1,308.54999999999995,544.5,308.54999999999995" fill="#ffffff" stroke="#000000" style="fill-opacity: 1; stroke-width: 1;"></polygon></g><g><polygon points="36.30000000000001,308.54999999999995,108.9,308.54999999999995,108.9,381.15,36.30000000000001,381.15" fill="#ffffff" stroke="#000000" style="fill-opacity: 1; stroke-width: 1;"></polygon></g><g><polygon points="108.9,308.54999999999995,181.5,308.54999999999995,181.5,381.15,108.9,381.15" fill="#000000" stroke="#000000" style="fill-opacity: 1; stroke-width: 1;"></polygon></g><g><polygon points="181.5,308.54999999999995,254.1,308.54999999999995,254.1,381.15,181.5,381.15" fill="#ffffff" stroke="#000000" style="fill-opacity: 1; stroke-width: 1;"></polygon></g><g><polygon points="254.1,308.54999999999995,326.7,308.54999999999995,326.7,381.15,254.1,381.15" fill="#000000" stroke="#000000" style="fill-opacity: 1; stroke-width: 1;"></polygon></g><g><polygon points="326.7,308.54999999999995,399.29999999999995,308.54999999999995,399.29999999999995,381.15,326.7,381.15" fill="#000000" stroke="#000000" style="fill-opacity: 1; stroke-width: 1;"></polygon></g><g><polygon points="399.3,308.54999999999995,471.9,308.54999999999995,471.9,381.15,399.3,381.15" fill="#ffffff" stroke="#000000" style="fill-opacity: 1; stroke-width: 1;"></polygon></g><g><polygon points="471.9,308.54999999999995,544.5,308.54999999999995,544.5,381.15,471.9,381.15" fill="#000000" stroke="#000000" style="fill-opacity: 1; stroke-width: 1;"></polygon></g><g><polygon points="544.5,308.54999999999995,617.1,308.54999999999995,617.1,381.15,544.5,381.15" fill="#ffffff" stroke="#000000" style="fill-opacity: 1; stroke-width: 1;"></polygon></g><g><polygon points="36.30000000000001,381.15,108.9,381.15,108.9,453.75,36.30000000000001,453.75" fill="#ffffff" stroke="#000000" style="fill-opacity: 1; stroke-width: 1;"></polygon></g><g><polygon points="108.9,381.15,181.5,381.15,181.5,453.75,108.9,453.75" fill="#ffffff" stroke="#000000" style="fill-opacity: 1; stroke-width: 1;"></polygon></g><g><polygon points="181.5,381.15,254.1,381.15,254.1,453.75,181.5,453.75" fill="#ffffff" stroke="#000000" style="fill-opacity: 1; stroke-width: 1;"></polygon></g><g><polygon points="254.1,381.15,326.7,381.15,326.7,453.75,254.1,453.75" fill="#ffffff" stroke="#000000" style="fill-opacity: 1; stroke-width: 1;"></polygon></g><g><polygon points="326.7,381.15,399.29999999999995,381.15,399.29999999999995,453.75,326.7,453.75" fill="#ffffff" stroke="#000000" style="fill-opacity: 1; stroke-width: 1;"></polygon></g><g><polygon points="399.3,381.15,471.9,381.15,471.9,453.75,399.3,453.75" fill="#ffffff" stroke="#000000" style="fill-opacity: 1; stroke-width: 1;"></polygon></g><g><polygon points="471.9,381.15,544.5,381.15,544.5,453.75,471.9,453.75" fill="#ffffff" stroke="#000000" style="fill-opacity: 1; stroke-width: 1;"></polygon></g><g><polygon points="544.5,381.15,617.1,381.15,617.1,453.75,544.5,453.75" fill="#ffffff" stroke="#000000" style="fill-opacity: 1; stroke-width: 1;"></polygon></g><g><polygon points="36.30000000000001,453.74999999999994,108.9,453.74999999999994,108.9,526.3499999999999,36.30000000000001,526.3499999999999" stroke="#000000" fill="#ffffff" style="fill-opacity: 0; stroke-width: 1;"></polygon></g><g><polygon points="108.9,453.74999999999994,181.5,453.74999999999994,181.5,526.3499999999999,108.9,526.3499999999999" stroke="#000000" fill="#ffffff" style="fill-opacity: 0; stroke-width: 1;"></polygon><text x="131.22449999999998" y="507.83699999999993" lengthAdjust="spacingAndGlyphs" textLength="27.950999999999997" fill="#88ddbb" style="font-family: sans-serif; font-weight: bold; font-size: 50.82px;">6</text></g><g><polygon points="181.5,453.74999999999994,254.1,453.74999999999994,254.1,526.3499999999999,181.5,526.3499999999999" stroke="#000000" fill="#ffffff" style="fill-opacity: 0; stroke-width: 1;"></polygon></g><g><polygon points="254.1,453.74999999999994,326.7,453.74999999999994,326.7,526.3499999999999,254.1,526.3499999999999" stroke="#000000" fill="#ffffff" style="fill-opacity: 0; stroke-width: 1;"></polygon></g><g><polygon points="326.7,453.74999999999994,399.29999999999995,453.74999999999994,399.29999999999995,526.3499999999999,326.7,526.3499999999999" stroke="#000000" fill="#ffffff" style="fill-opacity: 0; stroke-width: 1;"></polygon></g><g><polygon points="399.3,453.74999999999994,471.9,453.74999999999994,471.9,526.3499999999999,399.3,526.3499999999999" stroke="#000000" fill="#ffffff" style="fill-opacity: 0; stroke-width: 1;"></polygon></g><g><polygon points="471.9,453.74999999999994,544.5,453.74999999999994,544.5,526.3499999999999,471.9,526.3499999999999" stroke="#000000" fill="#ffffff" style="fill-opacity: 0; stroke-width: 1;"></polygon><text x="494.2245" y="507.83699999999993" lengthAdjust="spacingAndGlyphs" textLength="27.950999999999997" fill="#88ddbb" style="font-family: sans-serif; font-weight: bold; font-size: 50.82px;">8</text></g><g><polygon points="544.5,453.74999999999994,617.1,453.74999999999994,617.1,526.3499999999999,544.5,526.3499999999999" stroke="#000000" fill="#ffffff" style="fill-opacity: 0; stroke-width: 1;"></polygon></g><g><polygon points="617.0999999999999,18.15,689.6999999999999,18.15,689.6999999999999,90.75,617.0999999999999,90.75" stroke="#000000" fill="#ffffff" style="fill-opacity: 0; stroke-width: 1;"></polygon></g><g><polygon points="617.0999999999999,90.75,689.6999999999999,90.75,689.6999999999999,163.35,617.0999999999999,163.35" stroke="#000000" fill="#ffffff" style="fill-opacity: 0; stroke-width: 1;"></polygon><text x="627.9899999999999" y="144.837" lengthAdjust="spacingAndGlyphs" textLength="50.81999999999999" fill="#88ddbb" style="font-family: sans-serif; font-weight: bold; font-size: 50.82px;">11</text></g><g><polygon points="617.0999999999999,163.35,689.6999999999999,163.35,689.6999999999999,235.95,617.0999999999999,235.95" stroke="#000000" fill="#ffffff" style="fill-opacity: 0; stroke-width: 1;"></polygon></g><g><polygon points="617.0999999999999,235.95,689.6999999999999,235.95,689.6999999999999,308.54999999999995,617.0999999999999,308.54999999999995" stroke="#000000" fill="#ffffff" style="fill-opacity: 0; stroke-width: 1;"></polygon><text x="627.9899999999999" y="290.037" lengthAdjust="spacingAndGlyphs" textLength="50.81999999999999" fill="#88ddbb" style="font-family: sans-serif; font-weight: bold; font-size: 50.82px;">14</text></g><g><polygon points="617.0999999999999,308.54999999999995,689.6999999999999,308.54999999999995,689.6999999999999,381.15,617.0999999999999,381.15" stroke="#000000" fill="#ffffff" style="fill-opacity: 0; stroke-width: 1;"></polygon></g><g><polygon points="617.0999999999999,381.15,689.6999999999999,381.15,689.6999999999999,453.75,617.0999999999999,453.75" stroke="#000000" fill="#ffffff" style="fill-opacity: 0; stroke-width: 1;"></polygon></g><g><line x1="36.30000000000001" x2="108.9" y1="18.15" y2="18.15" stroke="#000000" style="stroke-width: 8; stroke-linecap: round;"></line></g><g></g><g><line x1="108.9" x2="36.30000000000001" y1="90.75" y2="90.75" stroke="#000000" style="stroke-width: 8; stroke-linecap: round;"></line></g><g><line x1="36.30000000000001" x2="36.30000000000001" y1="90.75" y2="18.15" stroke="#000000" style="stroke-width: 8; stroke-linecap: round;"></line></g><g><line x1="108.9" x2="181.5" y1="18.15" y2="18.15" stroke="#000000" style="stroke-width: 8; stroke-linecap: round;"></line></g><g><line x1="181.5" x2="181.5" y1="18.15" y2="90.75" stroke="#000000" style="stroke-width: 8; stroke-linecap: round;"></line></g><g></g><g><line x1="181.5" x2="254.1" y1="18.15" y2="18.15" stroke="#000000" style="stroke-width: 8; stroke-linecap: round;"></line></g><g><line x1="254.1" x2="254.1" y1="18.15" y2="90.75" stroke="#000000" style="stroke-width: 8; stroke-linecap: round;"></line></g><g></g><g><line x1="254.1" x2="326.7" y1="18.15" y2="18.15" stroke="#000000" style="stroke-width: 8; stroke-linecap: round;"></line></g><g></g><g></g><g><line x1="326.7" x2="399.29999999999995" y1="18.15" y2="18.15" stroke="#000000" style="stroke-width: 8; stroke-linecap: round;"></line></g><g><line x1="399.29999999999995" x2="399.29999999999995" y1="18.15" y2="90.75" stroke="#000000" style="stroke-width: 8; stroke-linecap: round;"></line></g><g></g><g><line x1="399.3" x2="471.9" y1="18.15" y2="18.15" stroke="#000000" style="stroke-width: 8; stroke-linecap: round;"></line></g><g><line x1="471.9" x2="471.9" y1="18.15" y2="90.75" stroke="#000000" style="stroke-width: 8; stroke-linecap: round;"></line></g><g></g><g><line x1="471.9" x2="544.5" y1="18.15" y2="18.15" stroke="#000000" style="stroke-width: 8; stroke-linecap: round;"></line></g><g><line x1="544.5" x2="544.5" y1="18.15" y2="90.75" stroke="#000000" style="stroke-width: 8; stroke-linecap: round;"></line></g><g></g><g><line x1="544.5" x2="617.1" y1="18.15" y2="18.15" stroke="#000000" style="stroke-width: 8; stroke-linecap: round;"></line></g><g><line x1="617.1" x2="617.1" y1="18.15" y2="90.75" stroke="#000000" style="stroke-width: 8; stroke-linecap: round;"></line></g><g><line x1="617.1" x2="544.5" y1="90.75" y2="90.75" stroke="#000000" style="stroke-width: 8; stroke-linecap: round;"></line></g><g><line x1="108.9" x2="108.9" y1="90.75" y2="163.35" stroke="#000000" style="stroke-width: 8; stroke-linecap: round;"></line></g><g></g><g><line x1="36.30000000000001" x2="36.30000000000001" y1="163.35" y2="90.75" stroke="#000000" style="stroke-width: 8; stroke-linecap: round;"></line></g><g><line x1="181.5" x2="181.5" y1="90.75" y2="163.35" stroke="#000000" style="stroke-width: 8; stroke-linecap: round;"></line></g><g><line x1="181.5" x2="108.9" y1="163.35" y2="163.35" stroke="#000000" style="stroke-width: 8; stroke-linecap: round;"></line></g><g><line x1="254.1" x2="254.1" y1="90.75" y2="163.35" stroke="#000000" style="stroke-width: 8; stroke-linecap: round;"></line></g><g><line x1="254.1" x2="181.5" y1="163.35" y2="163.35" stroke="#000000" style="stroke-width: 8; stroke-linecap: round;"></line></g><g></g><g></g><g><line x1="399.29999999999995" x2="399.29999999999995" y1="90.75" y2="163.35" stroke="#000000" style="stroke-width: 8; stroke-linecap: round;"></line></g><g></g><g><line x1="471.9" x2="471.9" y1="90.75" y2="163.35" stroke="#000000" style="stroke-width: 8; stroke-linecap: round;"></line></g><g><line x1="471.9" x2="399.3" y1="163.35" y2="163.35" stroke="#000000" style="stroke-width: 8; stroke-linecap: round;"></line></g><g><line x1="544.5" x2="544.5" y1="90.75" y2="163.35" stroke="#000000" style="stroke-width: 8; stroke-linecap: round;"></line></g><g><line x1="544.5" x2="471.9" y1="163.35" y2="163.35" stroke="#000000" style="stroke-width: 8; stroke-linecap: round;"></line></g><g><line x1="617.1" x2="617.1" y1="90.75" y2="163.35" stroke="#000000" style="stroke-width: 8; stroke-linecap: round;"></line></g><g></g><g><line x1="108.9" x2="108.9" y1="163.35" y2="235.95" stroke="#000000" style="stroke-width: 8; stroke-linecap: round;"></line></g><g><line x1="108.9" x2="36.30000000000001" y1="235.95" y2="235.95" stroke="#000000" style="stroke-width: 8; stroke-linecap: round;"></line></g><g><line x1="36.30000000000001" x2="36.30000000000001" y1="235.95" y2="163.35" stroke="#000000" style="stroke-width: 8; stroke-linecap: round;"></line></g><g></g><g><line x1="181.5" x2="108.9" y1="235.95" y2="235.95" stroke="#000000" style="stroke-width: 8; stroke-linecap: round;"></line></g><g><line x1="254.1" x2="254.1" y1="163.35" y2="235.95" stroke="#000000" style="stroke-width: 8; stroke-linecap: round;"></line></g><g><line x1="254.1" x2="181.5" y1="235.95" y2="235.95" stroke="#000000" style="stroke-width: 8; stroke-linecap: round;"></line></g><g></g><g><line x1="326.7" x2="254.1" y1="235.95" y2="235.95" stroke="#000000" style="stroke-width: 8; stroke-linecap: round;"></line></g><g><line x1="399.29999999999995" x2="399.29999999999995" y1="163.35" y2="235.95" stroke="#000000" style="stroke-width: 8; stroke-linecap: round;"></line></g><g><line x1="399.29999999999995" x2="326.7" y1="235.95" y2="235.95" stroke="#000000" style="stroke-width: 8; stroke-linecap: round;"></line></g><g></g><g><line x1="471.9" x2="399.3" y1="235.95" y2="235.95" stroke="#000000" style="stroke-width: 8; stroke-linecap: round;"></line></g><g><line x1="544.5" x2="544.5" y1="163.35" y2="235.95" stroke="#000000" style="stroke-width: 8; stroke-linecap: round;"></line></g><g><line x1="544.5" x2="471.9" y1="235.95" y2="235.95" stroke="#000000" style="stroke-width: 8; stroke-linecap: round;"></line></g><g><line x1="617.1" x2="617.1" y1="163.35" y2="235.95" stroke="#000000" style="stroke-width: 8; stroke-linecap: round;"></line></g><g><line x1="617.1" x2="544.5" y1="235.95" y2="235.95" stroke="#000000" style="stroke-width: 8; stroke-linecap: round;"></line></g><g><line x1="108.9" x2="108.9" y1="235.95" y2="308.54999999999995" stroke="#000000" style="stroke-width: 8; stroke-linecap: round;"></line></g><g></g><g><line x1="36.30000000000001" x2="36.30000000000001" y1="308.54999999999995" y2="235.95" stroke="#000000" style="stroke-width: 8; stroke-linecap: round;"></line></g><g><line x1="181.5" x2="181.5" y1="235.95" y2="308.54999999999995" stroke="#000000" style="stroke-width: 8; stroke-linecap: round;"></line></g><g></g><g></g><g><line x1="254.1" x2="181.5" y1="308.54999999999995" y2="308.54999999999995" stroke="#000000" style="stroke-width: 8; stroke-linecap: round;"></line></g><g><line x1="326.7" x2="326.7" y1="235.95" y2="308.54999999999995" stroke="#000000" style="stroke-width: 8; stroke-linecap: round;"></line></g><g><line x1="326.7" x2="254.1" y1="308.54999999999995" y2="308.54999999999995" stroke="#000000" style="stroke-width: 8; stroke-linecap: round;"></line></g><g></g><g><line x1="399.29999999999995" x2="326.7" y1="308.54999999999995" y2="308.54999999999995" stroke="#000000" style="stroke-width: 8; stroke-linecap: round;"></line></g><g><line x1="471.9" x2="471.9" y1="235.95" y2="308.54999999999995" stroke="#000000" style="stroke-width: 8; stroke-linecap: round;"></line></g><g><line x1="471.9" x2="399.3" y1="308.54999999999995" y2="308.54999999999995" stroke="#000000" style="stroke-width: 8; stroke-linecap: round;"></line></g><g><line x1="544.5" x2="544.5" y1="235.95" y2="308.54999999999995" stroke="#000000" style="stroke-width: 8; stroke-linecap: round;"></line></g><g></g><g><line x1="617.1" x2="617.1" y1="235.95" y2="308.54999999999995" stroke="#000000" style="stroke-width: 8; stroke-linecap: round;"></line></g><g></g><g><line x1="108.9" x2="108.9" y1="308.54999999999995" y2="381.15" stroke="#000000" style="stroke-width: 8; stroke-linecap: round;"></line></g><g><line x1="108.9" x2="36.30000000000001" y1="381.15" y2="381.15" stroke="#000000" style="stroke-width: 8; stroke-linecap: round;"></line></g><g><line x1="36.30000000000001" x2="36.30000000000001" y1="381.15" y2="308.54999999999995" stroke="#000000" style="stroke-width: 8; stroke-linecap: round;"></line></g><g><line x1="181.5" x2="181.5" y1="308.54999999999995" y2="381.15" stroke="#000000" style="stroke-width: 8; stroke-linecap: round;"></line></g><g><line x1="181.5" x2="108.9" y1="381.15" y2="381.15" stroke="#000000" style="stroke-width: 8; stroke-linecap: round;"></line></g><g><line x1="254.1" x2="254.1" y1="308.54999999999995" y2="381.15" stroke="#000000" style="stroke-width: 8; stroke-linecap: round;"></line></g><g></g><g></g><g><line x1="326.7" x2="254.1" y1="381.15" y2="381.15" stroke="#000000" style="stroke-width: 8; stroke-linecap: round;"></line></g><g><line x1="399.29999999999995" x2="399.29999999999995" y1="308.54999999999995" y2="381.15" stroke="#000000" style="stroke-width: 8; stroke-linecap: round;"></line></g><g><line x1="399.29999999999995" x2="326.7" y1="381.15" y2="381.15" stroke="#000000" style="stroke-width: 8; stroke-linecap: round;"></line></g><g><line x1="471.9" x2="471.9" y1="308.54999999999995" y2="381.15" stroke="#000000" style="stroke-width: 8; stroke-linecap: round;"></line></g><g></g><g><line x1="544.5" x2="544.5" y1="308.54999999999995" y2="381.15" stroke="#000000" style="stroke-width: 8; stroke-linecap: round;"></line></g><g><line x1="544.5" x2="471.9" y1="381.15" y2="381.15" stroke="#000000" style="stroke-width: 8; stroke-linecap: round;"></line></g><g><line x1="617.1" x2="617.1" y1="308.54999999999995" y2="381.15" stroke="#000000" style="stroke-width: 8; stroke-linecap: round;"></line></g><g><line x1="617.1" x2="544.5" y1="381.15" y2="381.15" stroke="#000000" style="stroke-width: 8; stroke-linecap: round;"></line></g><g></g><g><line x1="108.9" x2="36.30000000000001" y1="453.75" y2="453.75" stroke="#000000" style="stroke-width: 8; stroke-linecap: round;"></line></g><g><line x1="36.30000000000001" x2="36.30000000000001" y1="453.75" y2="381.15" stroke="#000000" style="stroke-width: 8; stroke-linecap: round;"></line></g><g><line x1="181.5" x2="181.5" y1="381.15" y2="453.75" stroke="#000000" style="stroke-width: 8; stroke-linecap: round;"></line></g><g><line x1="181.5" x2="108.9" y1="453.75" y2="453.75" stroke="#000000" style="stroke-width: 8; stroke-linecap: round;"></line></g><g><line x1="254.1" x2="254.1" y1="381.15" y2="453.75" stroke="#000000" style="stroke-width: 8; stroke-linecap: round;"></line></g><g><line x1="254.1" x2="181.5" y1="453.75" y2="453.75" stroke="#000000" style="stroke-width: 8; stroke-linecap: round;"></line></g><g></g><g><line x1="326.7" x2="254.1" y1="453.75" y2="453.75" stroke="#000000" style="stroke-width: 8; stroke-linecap: round;"></line></g><g><line x1="399.29999999999995" x2="399.29999999999995" y1="381.15" y2="453.75" stroke="#000000" style="stroke-width: 8; stroke-linecap: round;"></line></g><g><line x1="399.29999999999995" x2="326.7" y1="453.75" y2="453.75" stroke="#000000" style="stroke-width: 8; stroke-linecap: round;"></line></g><g><line x1="471.9" x2="471.9" y1="381.15" y2="453.75" stroke="#000000" style="stroke-width: 8; stroke-linecap: round;"></line></g><g><line x1="471.9" x2="399.3" y1="453.75" y2="453.75" stroke="#000000" style="stroke-width: 8; stroke-linecap: round;"></line></g><g></g><g><line x1="544.5" x2="471.9" y1="453.75" y2="453.75" stroke="#000000" style="stroke-width: 8; stroke-linecap: round;"></line></g><g><line x1="617.1" x2="617.1" y1="381.15" y2="453.75" stroke="#000000" style="stroke-width: 8; stroke-linecap: round;"></line></g><g><line x1="617.1" x2="544.5" y1="453.75" y2="453.75" stroke="#000000" style="stroke-width: 8; stroke-linecap: round;"></line></g><g></g><g></g><g></g><g></g><g></g><g></g><g></g><g></g><g></g><g></g><g></g><g></g><g></g><g></g><g></g><g></g><g></g><g></g><g></g><g></g><g></g><g></g><g></g><g></g><g></g><g></g><g></g><g></g><g></g><g></g><g></g><g></g><g></g><g></g><g></g><g></g><g></g><g></g><g></g><g></g><g></g><g></g><g></g><g></g><g></g><g></g><g></g><g></g><g></g><g></g><g></g><g></g><g></g><g></g><g></g><g></g><g></g><g></g><g></g><g></g><g></g><g></g><g></g></svg>