<svg class="pb-2" id="Grid" style="overflow: visible; z-index: 90;" xmlns="http://www.w3.org/2000/svg" xmlns:xlink="http://www.w3.org/1999/xlink" height="667.9345996015242" width="726" viewBox="0 0 726 667.9345996015242">
  Sorry, but your browser is not supported. Try to setup the new version.
<desc>Created with Snap</desc><defs><filter id="Smhdliitv79" filterUnits="userSpaceOnUse"><feColorMatrix type="matrix" values="1 0 0 0 0 0 1 0 0 0 0 0 1 0 0 0 0 0 0.7 0"></feColorMatrix></filter><filter id="Smhdliitv7b" filterUnits="userSpaceOnUse"><feColorMatrix type="matrix" values="-.17 -.17 -.17 0 1 -.22 -.22 -.22 0 1 -.33 -.33 -.33 0 1 0 0 0 1 0"></feColorMatrix></filter></defs><g><polygon points="98.8540039847578,138.25428571428571,151.68320318780624,138.25428571428571,178.09780278933047,184.00571428571428,151.68320318780624,229.75714285714287,98.8540039847578,229.75714285714287,72.43940438323358,184.00571428571428" fill="#ffffff" stroke="#000000" style="fill-opacity: 1; stroke-width: 1;"></polygon></g><g><polygon points="178.09780278933044,92.50285714285715,230.92700199237888,92.50285714285715,257.3416015939031,138.25428571428571,230.92700199237888,184.0057142857143,178.09780278933044,184.0057142857143,151.6832031878062,138.25428571428571" fill="#ffffff" stroke="#000000" style="fill-opacity: 1; stroke-width: 1;"></polygon><text x="189.98437261001635" y="156.74450543535266" lengthAdjust="spacingAndGlyphs" textLength="29.056059561676644" fill="#075466" style="font-family: sans-serif; font-weight: bold; font-size: 52.8292px;">1</text></g><g><polygon points="257.34160159390314,46.751428571428576,310.1708007969516,46.751428571428576,336.5854003984758,92.50285714285715,310.1708007969516,138.25428571428571,257.34160159390314,138.25428571428571,230.9270019923789,92.50285714285715" fill="#ffffff" stroke="#000000" style="fill-opacity: 1; stroke-width: 1;"></polygon></g><g><polygon points="336.58540039847577,1,389.41459960152423,1,415.82919920304846,46.75142857142857,389.41459960152423,92.50285714285714,336.58540039847577,92.50285714285714,310.17080079695154,46.75142857142857" fill="#ffffff" stroke="#000000" style="fill-opacity: 1; stroke-width: 1;"></polygon><text x="348.4719702191617" y="65.24164829249553" lengthAdjust="spacingAndGlyphs" textLength="29.056059561676644" fill="#075466" style="font-family: sans-serif; font-weight: bold; font-size: 52.8292px;">3</text></g><g><polygon points="98.8540039847578,229.75714285714287,151.68320318780624,229.75714285714287,178.09780278933047,275.50857142857143,151.68320318780624,321.26,98.8540039847578,321.26,72.43940438323358,275.50857142857143" fill="#ffffff" stroke="#000000" style="fill-opacity: 1; stroke-width: 1;"></polygon><text x="110.74057380544369" y="293.9987911496384" lengthAdjust="spacingAndGlyphs" textLength="29.056059561676644" fill="#075466" style="font-family: sans-serif; font-weight: bold; font-size: 52.8292px;">1</text></g><g><polygon points="178.09780278933044,184.0057142857143,230.92700199237888,184.0057142857143,257.3416015939031,229.75714285714287,230.92700199237888,275.50857142857143,178.09780278933044,275.50857142857143,151.6832031878062,229.75714285714287" fill="#ffffff" stroke="#000000" style="fill-opacity: 1; stroke-width: 1;"></polygon></g><g><polygon points="257.34160159390314,138.25428571428574,310.1708007969516,138.25428571428574,336.5854003984758,184.0057142857143,310.1708007969516,229.75714285714287,257.34160159390314,229.75714285714287,230.9270019923789,184.0057142857143" fill="#ffffff" stroke="#000000" style="fill-opacity: 1; stroke-width: 1;"></polygon></g><g><polygon points="336.58540039847577,92.50285714285715,389.41459960152423,92.50285714285715,415.82919920304846,138.25428571428571,389.41459960152423,184.0057142857143,336.58540039847577,184.0057142857143,310.17080079695154,138.25428571428571" fill="#ffffff" stroke="#000000" style="fill-opacity: 1; stroke-width: 1;"></polygon></g><g><polygon points="415.82919920304846,46.75142857142859,468.6583984060969,46.75142857142859,495.07299800762115,92.50285714285715,468.6583984060969,138.25428571428574,415.82919920304846,138.25428571428574,389.41459960152423,92.50285714285715" fill="#ffffff" stroke="#000000" style="fill-opacity: 1; stroke-width: 1;"></polygon></g><g><polygon points="98.8540039847578,321.26,151.68320318780624,321.26,178.09780278933047,367.01142857142855,151.68320318780624,412.7628571428571,98.8540039847578,412.7628571428571,72.43940438323358,367.01142857142855" fill="#ffffff" stroke="#000000" style="fill-opacity: 1; stroke-width: 1;"></polygon></g><g><polygon points="178.09780278933044,275.50857142857143,230.92700199237888,275.50857142857143,257.3416015939031,321.26,230.92700199237888,367.01142857142855,178.09780278933044,367.01142857142855,151.6832031878062,321.26" fill="#ffffff" stroke="#000000" style="fill-opacity: 1; stroke-width: 1;"></polygon></g><g><polygon points="257.34160159390314,229.75714285714287,310.1708007969516,229.75714285714287,336.5854003984758,275.50857142857143,310.1708007969516,321.26,257.34160159390314,321.26,230.9270019923789,275.50857142857143" fill="#ffffff" stroke="#000000" style="fill-opacity: 1; stroke-width: 1;"></polygon></g><g><polygon points="336.58540039847577,184.00571428571428,389.41459960152423,184.00571428571428,415.82919920304846,229.75714285714284,389.41459960152423,275.50857142857143,336.58540039847577,275.50857142857143,310.17080079695154,229.75714285714284" fill="#ffffff" stroke="#000000" style="fill-opacity: 1; stroke-width: 1;"></polygon><text x="348.4719702191617" y="248.2473625782098" lengthAdjust="spacingAndGlyphs" textLength="29.056059561676644" fill="#075466" style="font-family: sans-serif; font-weight: bold; font-size: 52.8292px;">1</text></g><g><polygon points="415.82919920304846,138.25428571428571,468.6583984060969,138.25428571428571,495.07299800762115,184.00571428571428,468.6583984060969,229.75714285714287,415.82919920304846,229.75714285714287,389.41459960152423,184.00571428571428" fill="#ffffff" stroke="#000000" style="fill-opacity: 1; stroke-width: 1;"></polygon></g><g><polygon points="495.0729980076211,92.50285714285715,547.9021972106696,92.50285714285715,574.3167968121937,138.25428571428571,547.9021972106696,184.0057142857143,495.0729980076211,184.0057142857143,468.65839840609686,138.25428571428571" fill="#ffffff" stroke="#000000" style="fill-opacity: 1; stroke-width: 1;"></polygon><text x="506.95956782830694" y="156.74450543535266" lengthAdjust="spacingAndGlyphs" textLength="29.056059561676644" fill="#075466" style="font-family: sans-serif; font-weight: bold; font-size: 52.8292px;">3</text></g><g><polygon points="98.8540039847578,412.7628571428571,151.68320318780624,412.7628571428571,178.09780278933047,458.5142857142857,151.68320318780624,504.26571428571424,98.8540039847578,504.26571428571424,72.43940438323358,458.5142857142857" fill="#ffffff" stroke="#000000" style="fill-opacity: 1; stroke-width: 1;"></polygon><text x="110.74057380544369" y="477.00450543535266" lengthAdjust="spacingAndGlyphs" textLength="29.056059561676644" fill="#075466" style="font-family: sans-serif; font-weight: bold; font-size: 52.8292px;">2</text></g><g><polygon points="178.09780278933044,367.01142857142855,230.92700199237888,367.01142857142855,257.3416015939031,412.7628571428571,230.92700199237888,458.5142857142857,178.09780278933044,458.5142857142857,151.6832031878062,412.7628571428571" fill="#ffffff" stroke="#000000" style="fill-opacity: 1; stroke-width: 1;"></polygon></g><g><polygon points="257.34160159390314,321.26,310.1708007969516,321.26,336.5854003984758,367.01142857142855,310.1708007969516,412.7628571428571,257.34160159390314,412.7628571428571,230.9270019923789,367.01142857142855" fill="#ffffff" stroke="#000000" style="fill-opacity: 1; stroke-width: 1;"></polygon><text x="269.22817141458904" y="385.50164829249553" lengthAdjust="spacingAndGlyphs" textLength="29.056059561676644" fill="#075466" style="font-family: sans-serif; font-weight: bold; font-size: 52.8292px;">2</text></g><g><polygon points="336.58540039847577,275.5085714285714,389.41459960152423,275.5085714285714,415.82919920304846,321.25999999999993,389.41459960152423,367.0114285714285,336.58540039847577,367.0114285714285,310.17080079695154,321.25999999999993" fill="#ffffff" stroke="#000000" style="fill-opacity: 1; stroke-width: 1;"></polygon></g><g><polygon points="415.82919920304846,229.75714285714284,468.6583984060969,229.75714285714284,495.07299800762115,275.50857142857143,468.6583984060969,321.26,415.82919920304846,321.26,389.41459960152423,275.50857142857143" fill="#ffffff" stroke="#000000" style="fill-opacity: 1; stroke-width: 1;"></polygon></g><g><polygon points="495.0729980076211,184.00571428571428,547.9021972106696,184.00571428571428,574.3167968121937,229.75714285714284,547.9021972106696,275.50857142857143,495.0729980076211,275.50857142857143,468.65839840609686,229.75714285714284" fill="#ffffff" stroke="#000000" style="fill-opacity: 1; stroke-width: 1;"></polygon></g><g><polygon points="574.3167968121937,138.2542857142857,627.1459960152422,138.2542857142857,653.5605956167664,184.00571428571425,627.1459960152422,229.7571428571428,574.3167968121937,229.7571428571428,547.9021972106696,184.00571428571425" fill="#ffffff" stroke="#000000" style="fill-opacity: 1; stroke-width: 1;"></polygon></g><g><polygon points="178.09780278933044,458.5142857142857,230.92700199237888,458.5142857142857,257.3416015939031,504.26571428571424,230.92700199237888,550.0171428571429,178.09780278933044,550.0171428571429,151.6832031878062,504.26571428571424" fill="#ffffff" stroke="#000000" style="fill-opacity: 1; stroke-width: 1;"></polygon></g><g><polygon points="257.34160159390314,412.7628571428571,310.1708007969516,412.7628571428571,336.5854003984758,458.5142857142857,310.1708007969516,504.26571428571424,257.34160159390314,504.26571428571424,230.9270019923789,458.5142857142857" fill="#ffffff" stroke="#000000" style="fill-opacity: 1; stroke-width: 1;"></polygon></g><g><polygon points="336.58540039847577,367.0114285714285,389.41459960152423,367.0114285714285,415.82919920304846,412.76285714285706,389.41459960152423,458.5142857142856,336.58540039847577,458.5142857142856,310.17080079695154,412.76285714285706" fill="#ffffff" stroke="#000000" style="fill-opacity: 1; stroke-width: 1;"></polygon></g><g><polygon points="415.82919920304846,321.26,468.6583984060969,321.26,495.07299800762115,367.01142857142855,468.6583984060969,412.7628571428571,415.82919920304846,412.7628571428571,389.41459960152423,367.01142857142855" fill="#ffffff" stroke="#000000" style="fill-opacity: 1; stroke-width: 1;"></polygon><text x="427.71576902373437" y="385.50164829249553" lengthAdjust="spacingAndGlyphs" textLength="29.056059561676644" fill="#075466" style="font-family: sans-serif; font-weight: bold; font-size: 52.8292px;">4</text></g><g><polygon points="495.0729980076211,275.5085714285714,547.9021972106696,275.5085714285714,574.3167968121937,321.25999999999993,547.9021972106696,367.0114285714285,495.0729980076211,367.0114285714285,468.65839840609686,321.25999999999993" fill="#ffffff" stroke="#000000" style="fill-opacity: 1; stroke-width: 1;"></polygon></g><g><polygon points="574.3167968121937,229.7571428571428,627.1459960152422,229.7571428571428,653.5605956167664,275.5085714285714,627.1459960152422,321.25999999999993,574.3167968121937,321.25999999999993,547.9021972106696,275.5085714285714" fill="#ffffff" stroke="#000000" style="fill-opacity: 1; stroke-width: 1;"></polygon><text x="586.2033666328796" y="293.99879114963835" lengthAdjust="spacingAndGlyphs" textLength="29.056059561676644" fill="#075466" style="font-family: sans-serif; font-weight: bold; font-size: 52.8292px;">3</text></g><g><polygon points="257.34160159390314,504.26571428571424,310.1708007969516,504.26571428571424,336.5854003984758,550.0171428571429,310.1708007969516,595.7685714285714,257.34160159390314,595.7685714285714,230.9270019923789,550.0171428571429" fill="#ffffff" stroke="#000000" style="fill-opacity: 1; stroke-width: 1;"></polygon><text x="269.22817141458904" y="568.5073625782098" lengthAdjust="spacingAndGlyphs" textLength="29.056059561676644" fill="#075466" style="font-family: sans-serif; font-weight: bold; font-size: 52.8292px;">2</text></g><g><polygon points="336.58540039847577,458.5142857142856,389.41459960152423,458.5142857142856,415.82919920304846,504.2657142857142,389.41459960152423,550.0171428571427,336.58540039847577,550.0171428571427,310.17080079695154,504.2657142857142" fill="#ffffff" stroke="#000000" style="fill-opacity: 1; stroke-width: 1;"></polygon></g><g><polygon points="415.82919920304846,412.7628571428571,468.6583984060969,412.7628571428571,495.07299800762115,458.5142857142857,468.6583984060969,504.26571428571424,415.82919920304846,504.26571428571424,389.41459960152423,458.5142857142857" fill="#ffffff" stroke="#000000" style="fill-opacity: 1; stroke-width: 1;"></polygon></g><g><polygon points="495.0729980076211,367.0114285714285,547.9021972106696,367.0114285714285,574.3167968121937,412.76285714285706,547.9021972106696,458.5142857142856,495.0729980076211,458.5142857142856,468.65839840609686,412.76285714285706" fill="#ffffff" stroke="#000000" style="fill-opacity: 1; stroke-width: 1;"></polygon></g><g><polygon points="574.3167968121937,321.25999999999993,627.1459960152422,321.25999999999993,653.5605956167664,367.0114285714285,627.1459960152422,412.76285714285706,574.3167968121937,412.76285714285706,547.9021972106696,367.0114285714285" fill="#ffffff" stroke="#000000" style="fill-opacity: 1; stroke-width: 1;"></polygon></g><g><polygon points="336.58540039847577,550.0171428571429,389.41459960152423,550.0171428571429,415.82919920304846,595.7685714285715,389.41459960152423,641.52,336.58540039847577,641.52,310.17080079695154,595.7685714285715" fill="#ffffff" stroke="#000000" style="fill-opacity: 1; stroke-width: 1;"></polygon></g><g><polygon points="415.82919920304846,504.26571428571435,468.6583984060969,504.26571428571435,495.07299800762115,550.017142857143,468.6583984060969,595.7685714285715,415.82919920304846,595.7685714285715,389.41459960152423,550.017142857143" fill="#ffffff" stroke="#000000" style="fill-opacity: 1; stroke-width: 1;"></polygon><text x="427.71576902373437" y="568.50736257821" lengthAdjust="spacingAndGlyphs" textLength="29.056059561676644" fill="#075466" style="font-family: sans-serif; font-weight: bold; font-size: 52.8292px;">2</text></g><g><polygon points="495.0729980076211,458.51428571428573,547.9021972106696,458.51428571428573,574.3167968121937,504.2657142857143,547.9021972106696,550.0171428571429,495.0729980076211,550.0171428571429,468.65839840609686,504.2657142857143" fill="#ffffff" stroke="#000000" style="fill-opacity: 1; stroke-width: 1;"></polygon></g><g><polygon points="574.3167968121937,412.7628571428572,627.1459960152422,412.7628571428572,653.5605956167664,458.51428571428573,627.1459960152422,504.2657142857143,574.3167968121937,504.2657142857143,547.9021972106696,458.51428571428573" fill="#ffffff" stroke="#000000" style="fill-opacity: 1; stroke-width: 1;"></polygon><text x="586.2033666328796" y="477.0045054353527" lengthAdjust="spacingAndGlyphs" textLength="29.056059561676644" fill="#075466" style="font-family: sans-serif; font-weight: bold; font-size: 52.8292px;">2</text></g><g><line x1="98.8540039847578" x2="151.68320318780624" y1="138.25428571428571" y2="138.25428571428571" stroke="#000000" style="stroke-width: 11; stroke-linecap: round;"></line></g><g></g><g></g><g></g><g><line x1="98.8540039847578" x2="72.43940438323358" y1="229.75714285714287" y2="184.00571428571428" stroke="#000000" style="stroke-width: 11; stroke-linecap: round;"></line></g><g><line x1="72.43940438323358" x2="98.8540039847578" y1="184.00571428571428" y2="138.25428571428571" stroke="#000000" style="stroke-width: 11; stroke-linecap: round;"></line></g><g><line x1="178.09780278933044" x2="230.92700199237888" y1="92.50285714285715" y2="92.50285714285715" stroke="#000000" style="stroke-width: 11; stroke-linecap: round;"></line></g><g></g><g></g><g></g><g><line x1="151.6832031878062" x2="178.09780278933044" y1="138.25428571428571" y2="92.50285714285715" stroke="#000000" style="stroke-width: 11; stroke-linecap: round;"></line></g><g><line x1="257.34160159390314" x2="310.1708007969516" y1="46.751428571428576" y2="46.751428571428576" stroke="#000000" style="stroke-width: 11; stroke-linecap: round;"></line></g><g></g><g></g><g></g><g><line x1="230.9270019923789" x2="257.34160159390314" y1="92.50285714285715" y2="46.751428571428576" stroke="#000000" style="stroke-width: 11; stroke-linecap: round;"></line></g><g><line x1="336.58540039847577" x2="389.41459960152423" y1="1" y2="1" stroke="#000000" style="stroke-width: 11; stroke-linecap: round;"></line></g><g><line x1="389.41459960152423" x2="415.82919920304846" y1="1" y2="46.75142857142857" stroke="#000000" style="stroke-width: 11; stroke-linecap: round;"></line></g><g></g><g></g><g><line x1="310.17080079695154" x2="336.58540039847577" y1="46.75142857142857" y2="1" stroke="#000000" style="stroke-width: 11; stroke-linecap: round;"></line></g><g></g><g></g><g></g><g><line x1="98.8540039847578" x2="72.43940438323358" y1="321.26" y2="275.50857142857143" stroke="#000000" style="stroke-width: 11; stroke-linecap: round;"></line></g><g><line x1="72.43940438323358" x2="98.8540039847578" y1="275.50857142857143" y2="229.75714285714287" stroke="#000000" style="stroke-width: 11; stroke-linecap: round;"></line></g><g></g><g></g><g></g><g></g><g></g><g></g><g></g><g></g><g></g><g><line x1="415.82919920304846" x2="468.6583984060969" y1="46.75142857142859" y2="46.75142857142859" stroke="#000000" style="stroke-width: 11; stroke-linecap: round;"></line></g><g><line x1="468.6583984060969" x2="495.07299800762115" y1="46.75142857142859" y2="92.50285714285715" stroke="#000000" style="stroke-width: 11; stroke-linecap: round;"></line></g><g></g><g></g><g></g><g></g><g></g><g><line x1="98.8540039847578" x2="72.43940438323358" y1="412.7628571428571" y2="367.01142857142855" stroke="#000000" style="stroke-width: 11; stroke-linecap: round;"></line></g><g><line x1="72.43940438323358" x2="98.8540039847578" y1="367.01142857142855" y2="321.26" stroke="#000000" style="stroke-width: 11; stroke-linecap: round;"></line></g><g></g><g></g><g></g><g></g><g></g><g></g><g></g><g></g><g></g><g></g><g></g><g></g><g><line x1="495.0729980076211" x2="547.9021972106696" y1="92.50285714285715" y2="92.50285714285715" stroke="#000000" style="stroke-width: 11; stroke-linecap: round;"></line></g><g><line x1="547.9021972106696" x2="574.3167968121937" y1="92.50285714285715" y2="138.25428571428571" stroke="#000000" style="stroke-width: 11; stroke-linecap: round;"></line></g><g></g><g></g><g></g><g></g><g><line x1="151.68320318780624" x2="98.8540039847578" y1="504.26571428571424" y2="504.26571428571424" stroke="#000000" style="stroke-width: 11; stroke-linecap: round;"></line></g><g><line x1="98.8540039847578" x2="72.43940438323358" y1="504.26571428571424" y2="458.5142857142857" stroke="#000000" style="stroke-width: 11; stroke-linecap: round;"></line></g><g><line x1="72.43940438323358" x2="98.8540039847578" y1="458.5142857142857" y2="412.7628571428571" stroke="#000000" style="stroke-width: 11; stroke-linecap: round;"></line></g><g></g><g></g><g></g><g></g><g></g><g></g><g></g><g></g><g></g><g></g><g></g><g></g><g></g><g></g><g></g><g><line x1="574.3167968121937" x2="627.1459960152422" y1="138.2542857142857" y2="138.2542857142857" stroke="#000000" style="stroke-width: 11; stroke-linecap: round;"></line></g><g><line x1="627.1459960152422" x2="653.5605956167664" y1="138.2542857142857" y2="184.00571428571425" stroke="#000000" style="stroke-width: 11; stroke-linecap: round;"></line></g><g><line x1="653.5605956167664" x2="627.1459960152422" y1="184.00571428571425" y2="229.7571428571428" stroke="#000000" style="stroke-width: 11; stroke-linecap: round;"></line></g><g></g><g></g><g></g><g><line x1="230.92700199237888" x2="178.09780278933044" y1="550.0171428571429" y2="550.0171428571429" stroke="#000000" style="stroke-width: 11; stroke-linecap: round;"></line></g><g><line x1="178.09780278933044" x2="151.6832031878062" y1="550.0171428571429" y2="504.26571428571424" stroke="#000000" style="stroke-width: 11; stroke-linecap: round;"></line></g><g></g><g></g><g></g><g></g><g></g><g></g><g></g><g></g><g></g><g></g><g></g><g></g><g><line x1="627.1459960152422" x2="653.5605956167664" y1="229.7571428571428" y2="275.5085714285714" stroke="#000000" style="stroke-width: 11; stroke-linecap: round;"></line></g><g><line x1="653.5605956167664" x2="627.1459960152422" y1="275.5085714285714" y2="321.25999999999993" stroke="#000000" style="stroke-width: 11; stroke-linecap: round;"></line></g><g></g><g></g><g></g><g><line x1="310.1708007969516" x2="257.34160159390314" y1="595.7685714285714" y2="595.7685714285714" stroke="#000000" style="stroke-width: 11; stroke-linecap: round;"></line></g><g><line x1="257.34160159390314" x2="230.9270019923789" y1="595.7685714285714" y2="550.0171428571429" stroke="#000000" style="stroke-width: 11; stroke-linecap: round;"></line></g><g></g><g></g><g></g><g></g><g></g><g></g><g></g><g></g><g></g><g><line x1="627.1459960152422" x2="653.5605956167664" y1="321.25999999999993" y2="367.0114285714285" stroke="#000000" style="stroke-width: 11; stroke-linecap: round;"></line></g><g><line x1="653.5605956167664" x2="627.1459960152422" y1="367.0114285714285" y2="412.76285714285706" stroke="#000000" style="stroke-width: 11; stroke-linecap: round;"></line></g><g></g><g></g><g><line x1="415.82919920304846" x2="389.41459960152423" y1="595.7685714285715" y2="641.52" stroke="#000000" style="stroke-width: 11; stroke-linecap: round;"></line></g><g><line x1="389.41459960152423" x2="336.58540039847577" y1="641.52" y2="641.52" stroke="#000000" style="stroke-width: 11; stroke-linecap: round;"></line></g><g><line x1="336.58540039847577" x2="310.17080079695154" y1="641.52" y2="595.7685714285715" stroke="#000000" style="stroke-width: 11; stroke-linecap: round;"></line></g><g></g><g><line x1="495.07299800762115" x2="468.6583984060969" y1="550.017142857143" y2="595.7685714285715" stroke="#000000" style="stroke-width: 11; stroke-linecap: round;"></line></g><g><line x1="468.6583984060969" x2="415.82919920304846" y1="595.7685714285715" y2="595.7685714285715" stroke="#000000" style="stroke-width: 11; stroke-linecap: round;"></line></g><g></g><g><line x1="574.3167968121937" x2="547.9021972106696" y1="504.2657142857143" y2="550.0171428571429" stroke="#000000" style="stroke-width: 11; stroke-linecap: round;"></line></g><g><line x1="547.9021972106696" x2="495.0729980076211" y1="550.0171428571429" y2="550.0171428571429" stroke="#000000" style="stroke-width: 11; stroke-linecap: round;"></line></g><g><line x1="627.1459960152422" x2="653.5605956167664" y1="412.7628571428572" y2="458.51428571428573" stroke="#000000" style="stroke-width: 11; stroke-linecap: round;"></line></g><g><line x1="653.5605956167664" x2="627.1459960152422" y1="458.51428571428573" y2="504.2657142857143" stroke="#000000" style="stroke-width: 11; stroke-linecap: round;"></line></g><g><line x1="627.1459960152422" x2="574.3167968121937" y1="504.2657142857143" y2="504.2657142857143" stroke="#000000" style="stroke-width: 11; stroke-linecap: round;"></line></g></svg>