<svg class="pb-2" id="Grid" style="overflow: visible; z-index: 90;" xmlns="http://www.w3.org/2000/svg" xmlns:xlink="http://www.w3.org/1999/xlink" height="584.15625" width="726" viewBox="0 0 726 584.15625">
  Sorry, but your browser is not supported. Try to setup the new version.
<desc>Created with Snap</desc><defs><filter id="Smhet6s885t" filterUnits="userSpaceOnUse"><feColorMatrix type="matrix" values="1 0 0 0 0 0 1 0 0 0 0 0 1 0 0 0 0 0 0.7 0"></feColorMatrix></filter><filter id="Smhet6s885v" filterUnits="userSpaceOnUse"><feColorMatrix type="matrix" values="-.17 -.17 -.17 0 1 -.22 -.22 -.22 0 1 -.33 -.33 -.33 0 1 0 0 0 1 0"></feColorMatrix></filter></defs><g><polygon points="103.375,21.635416666666668,189.91666666666669,21.635416666666668,189.91666666666669,108.17708333333334,103.375,108.17708333333334" fill="#808080" stroke="#000000" style="fill-opacity: 1; stroke-width: 1;"></polygon><text x="129.98656250000002" y="86.10895833333333" lengthAdjust="spacingAndGlyphs" textLength="33.31854166666667" fill="#075466" style="font-family: sans-serif; font-weight: bold; font-size: 60.5792px;">1</text></g><g><polygon points="189.91666666666669,21.635416666666668,276.45833333333337,21.635416666666668,276.45833333333337,108.17708333333334,189.91666666666669,108.17708333333334" fill="#808080" stroke="#000000" style="fill-opacity: 1; stroke-width: 1;"></polygon></g><g><polygon points="276.45833333333337,21.635416666666668,363.00000000000006,21.635416666666668,363.00000000000006,108.17708333333334,276.45833333333337,108.17708333333334" fill="#ffffff" stroke="#000000" style="fill-opacity: 1; stroke-width: 1;"></polygon></g><g><polygon points="363,21.635416666666668,449.5416666666667,21.635416666666668,449.5416666666667,108.17708333333334,363,108.17708333333334" fill="#ffffff" stroke="#000000" style="fill-opacity: 1; stroke-width: 1;"></polygon></g><g><polygon points="449.5416666666667,21.635416666666668,536.0833333333334,21.635416666666668,536.0833333333334,108.17708333333334,449.5416666666667,108.17708333333334" fill="#808080" stroke="#000000" style="fill-opacity: 1; stroke-width: 1;"></polygon></g><g><polygon points="536.0833333333334,21.635416666666668,622.625,21.635416666666668,622.625,108.17708333333334,536.0833333333334,108.17708333333334" fill="#808080" stroke="#000000" style="fill-opacity: 1; stroke-width: 1;"></polygon><text x="562.6948958333334" y="86.10895833333333" lengthAdjust="spacingAndGlyphs" textLength="33.31854166666667" fill="#075466" style="font-family: sans-serif; font-weight: bold; font-size: 60.5792px;">6</text></g><g><polygon points="103.375,108.17708333333334,189.91666666666669,108.17708333333334,189.91666666666669,194.71875,103.375,194.71875" fill="#808080" stroke="#000000" style="fill-opacity: 1; stroke-width: 1;"></polygon></g><g><polygon points="189.91666666666669,108.17708333333334,276.45833333333337,108.17708333333334,276.45833333333337,194.71875,189.91666666666669,194.71875" fill="#808080" stroke="#000000" style="fill-opacity: 1; stroke-width: 1;"></polygon></g><g><polygon points="276.45833333333337,108.17708333333334,363.00000000000006,108.17708333333334,363.00000000000006,194.71875,276.45833333333337,194.71875" fill="#ffffff" stroke="#000000" style="fill-opacity: 1; stroke-width: 1;"></polygon><text x="303.06989583333336" y="172.65062500000002" lengthAdjust="spacingAndGlyphs" textLength="33.31854166666667" fill="#075466" style="font-family: sans-serif; font-weight: bold; font-size: 60.5792px;">3</text></g><g><polygon points="363,108.17708333333334,449.5416666666667,108.17708333333334,449.5416666666667,194.71875,363,194.71875" fill="#ffffff" stroke="#000000" style="fill-opacity: 1; stroke-width: 1;"></polygon><text x="389.6115625" y="172.65062500000002" lengthAdjust="spacingAndGlyphs" textLength="33.31854166666667" fill="#075466" style="font-family: sans-serif; font-weight: bold; font-size: 60.5792px;">1</text></g><g><polygon points="449.5416666666667,108.17708333333334,536.0833333333334,108.17708333333334,536.0833333333334,194.71875,449.5416666666667,194.71875" fill="#808080" stroke="#000000" style="fill-opacity: 1; stroke-width: 1;"></polygon></g><g><polygon points="536.0833333333334,108.17708333333334,622.625,108.17708333333334,622.625,194.71875,536.0833333333334,194.71875" fill="#808080" stroke="#000000" style="fill-opacity: 1; stroke-width: 1;"></polygon></g><g><polygon points="103.375,194.71875,189.91666666666669,194.71875,189.91666666666669,281.2604166666667,103.375,281.2604166666667" fill="#808080" stroke="#000000" style="fill-opacity: 1; stroke-width: 1;"></polygon></g><g><polygon points="189.91666666666669,194.71875,276.45833333333337,194.71875,276.45833333333337,281.2604166666667,189.91666666666669,281.2604166666667" fill="#808080" stroke="#000000" style="fill-opacity: 1; stroke-width: 1;"></polygon><text x="216.5282291666667" y="259.1922916666667" lengthAdjust="spacingAndGlyphs" textLength="33.31854166666667" fill="#075466" style="font-family: sans-serif; font-weight: bold; font-size: 60.5792px;">2</text></g><g><polygon points="276.45833333333337,194.71875,363.00000000000006,194.71875,363.00000000000006,281.2604166666667,276.45833333333337,281.2604166666667" fill="#ffffff" stroke="#000000" style="fill-opacity: 1; stroke-width: 1;"></polygon></g><g><polygon points="363,194.71875,449.5416666666667,194.71875,449.5416666666667,281.2604166666667,363,281.2604166666667" fill="#ffffff" stroke="#000000" style="fill-opacity: 1; stroke-width: 1;"></polygon></g><g><polygon points="449.5416666666667,194.71875,536.0833333333334,194.71875,536.0833333333334,281.2604166666667,449.5416666666667,281.2604166666667" fill="#808080" stroke="#000000" style="fill-opacity: 1; stroke-width: 1;"></polygon><text x="476.1532291666667" y="259.1922916666667" lengthAdjust="spacingAndGlyphs" textLength="33.31854166666667" fill="#075466" style="font-family: sans-serif; font-weight: bold; font-size: 60.5792px;">5</text></g><g><polygon points="536.0833333333334,194.71875,622.625,194.71875,622.625,281.2604166666667,536.0833333333334,281.2604166666667" fill="#808080" stroke="#000000" style="fill-opacity: 1; stroke-width: 1;"></polygon></g><g><polygon points="103.375,281.2604166666667,189.91666666666669,281.2604166666667,189.91666666666669,367.80208333333337,103.375,367.80208333333337" fill="#ffffff" stroke="#000000" style="fill-opacity: 1; stroke-width: 1;"></polygon></g><g><polygon points="189.91666666666669,281.2604166666667,276.45833333333337,281.2604166666667,276.45833333333337,367.80208333333337,189.91666666666669,367.80208333333337" fill="#ffffff" stroke="#000000" style="fill-opacity: 1; stroke-width: 1;"></polygon><text x="216.5282291666667" y="345.7339583333333" lengthAdjust="spacingAndGlyphs" textLength="33.31854166666667" fill="#075466" style="font-family: sans-serif; font-weight: bold; font-size: 60.5792px;">1</text></g><g><polygon points="276.45833333333337,281.2604166666667,363.00000000000006,281.2604166666667,363.00000000000006,367.80208333333337,276.45833333333337,367.80208333333337" fill="#ffffff" stroke="#000000" style="fill-opacity: 1; stroke-width: 1;"></polygon></g><g><polygon points="363,281.2604166666667,449.5416666666667,281.2604166666667,449.5416666666667,367.80208333333337,363,367.80208333333337" fill="#ffffff" stroke="#000000" style="fill-opacity: 1; stroke-width: 1;"></polygon></g><g><polygon points="449.5416666666667,281.2604166666667,536.0833333333334,281.2604166666667,536.0833333333334,367.80208333333337,449.5416666666667,367.80208333333337" fill="#ffffff" stroke="#000000" style="fill-opacity: 1; stroke-width: 1;"></polygon><text x="476.1532291666667" y="345.7339583333333" lengthAdjust="spacingAndGlyphs" textLength="33.31854166666667" fill="#075466" style="font-family: sans-serif; font-weight: bold; font-size: 60.5792px;">4</text></g><g><polygon points="536.0833333333334,281.2604166666667,622.625,281.2604166666667,622.625,367.80208333333337,536.0833333333334,367.80208333333337" fill="#ffffff" stroke="#000000" style="fill-opacity: 1; stroke-width: 1;"></polygon></g><g><polygon points="103.375,367.80208333333337,189.91666666666669,367.80208333333337,189.91666666666669,454.34375000000006,103.375,454.34375000000006" fill="#ffffff" stroke="#000000" style="fill-opacity: 1; stroke-width: 1;"></polygon></g><g><polygon points="189.91666666666669,367.80208333333337,276.45833333333337,367.80208333333337,276.45833333333337,454.34375000000006,189.91666666666669,454.34375000000006" fill="#ffffff" stroke="#000000" style="fill-opacity: 1; stroke-width: 1;"></polygon></g><g><polygon points="276.45833333333337,367.80208333333337,363.00000000000006,367.80208333333337,363.00000000000006,454.34375000000006,276.45833333333337,454.34375000000006" fill="#808080" stroke="#000000" style="fill-opacity: 1; stroke-width: 1;"></polygon></g><g><polygon points="363,367.80208333333337,449.5416666666667,367.80208333333337,449.5416666666667,454.34375000000006,363,454.34375000000006" fill="#808080" stroke="#000000" style="fill-opacity: 1; stroke-width: 1;"></polygon></g><g><polygon points="449.5416666666667,367.80208333333337,536.0833333333334,367.80208333333337,536.0833333333334,454.34375000000006,449.5416666666667,454.34375000000006" fill="#ffffff" stroke="#000000" style="fill-opacity: 1; stroke-width: 1;"></polygon></g><g><polygon points="536.0833333333334,367.80208333333337,622.625,367.80208333333337,622.625,454.34375000000006,536.0833333333334,454.34375000000006" fill="#ffffff" stroke="#000000" style="fill-opacity: 1; stroke-width: 1;"></polygon></g><g><polygon points="103.375,454.34375000000006,189.91666666666669,454.34375000000006,189.91666666666669,540.8854166666667,103.375,540.8854166666667" fill="#ffffff" stroke="#000000" style="fill-opacity: 1; stroke-width: 1;"></polygon><text x="129.98656250000002" y="518.8172916666667" lengthAdjust="spacingAndGlyphs" textLength="33.31854166666667" fill="#075466" style="font-family: sans-serif; font-weight: bold; font-size: 60.5792px;">2</text></g><g><polygon points="189.91666666666669,454.34375000000006,276.45833333333337,454.34375000000006,276.45833333333337,540.8854166666667,189.91666666666669,540.8854166666667" fill="#808080" stroke="#000000" style="fill-opacity: 1; stroke-width: 1;"></polygon></g><g><polygon points="276.45833333333337,454.34375000000006,363.00000000000006,454.34375000000006,363.00000000000006,540.8854166666667,276.45833333333337,540.8854166666667" fill="#808080" stroke="#000000" style="fill-opacity: 1; stroke-width: 1;"></polygon></g><g><polygon points="363,454.34375000000006,449.5416666666667,454.34375000000006,449.5416666666667,540.8854166666667,363,540.8854166666667" fill="#808080" stroke="#000000" style="fill-opacity: 1; stroke-width: 1;"></polygon></g><g><polygon points="449.5416666666667,454.34375000000006,536.0833333333334,454.34375000000006,536.0833333333334,540.8854166666667,449.5416666666667,540.8854166666667" fill="#808080" stroke="#000000" style="fill-opacity: 1; stroke-width: 1;"></polygon></g><g><polygon points="536.0833333333334,454.34375000000006,622.625,454.34375000000006,622.625,540.8854166666667,536.0833333333334,540.8854166666667" fill="#ffffff" stroke="#000000" style="fill-opacity: 1; stroke-width: 1;"></polygon><text x="562.6948958333334" y="518.8172916666667" lengthAdjust="spacingAndGlyphs" textLength="33.31854166666667" fill="#075466" style="font-family: sans-serif; font-weight: bold; font-size: 60.5792px;">5</text></g><g><line x1="103.375" x2="189.91666666666669" y1="21.635416666666668" y2="21.635416666666668" stroke="#000000" style="stroke-width: 10; stroke-linecap: round;"></line></g><g></g><g></g><g><line x1="103.375" x2="103.375" y1="108.17708333333334" y2="21.635416666666668" stroke="#000000" style="stroke-width: 10; stroke-linecap: round;"></line></g><g><line x1="189.91666666666669" x2="276.45833333333337" y1="21.635416666666668" y2="21.635416666666668" stroke="#000000" style="stroke-width: 10; stroke-linecap: round;"></line></g><g></g><g></g><g><line x1="276.45833333333337" x2="363.00000000000006" y1="21.635416666666668" y2="21.635416666666668" stroke="#000000" style="stroke-width: 10; stroke-linecap: round;"></line></g><g><line x1="363.00000000000006" x2="363.00000000000006" y1="21.635416666666668" y2="108.17708333333334" stroke="#000000" style="stroke-width: 10; stroke-linecap: round;"></line></g><g></g><g><line x1="363" x2="449.5416666666667" y1="21.635416666666668" y2="21.635416666666668" stroke="#000000" style="stroke-width: 10; stroke-linecap: round;"></line></g><g></g><g></g><g><line x1="449.5416666666667" x2="536.0833333333334" y1="21.635416666666668" y2="21.635416666666668" stroke="#000000" style="stroke-width: 10; stroke-linecap: round;"></line></g><g></g><g></g><g><line x1="536.0833333333334" x2="622.625" y1="21.635416666666668" y2="21.635416666666668" stroke="#000000" style="stroke-width: 10; stroke-linecap: round;"></line></g><g><line x1="622.625" x2="622.625" y1="21.635416666666668" y2="108.17708333333334" stroke="#000000" style="stroke-width: 10; stroke-linecap: round;"></line></g><g></g><g></g><g><line x1="189.91666666666669" x2="103.375" y1="194.71875" y2="194.71875" stroke="#000000" style="stroke-width: 10; stroke-linecap: round;"></line></g><g><line x1="103.375" x2="103.375" y1="194.71875" y2="108.17708333333334" stroke="#000000" style="stroke-width: 10; stroke-linecap: round;"></line></g><g></g><g><line x1="276.45833333333337" x2="189.91666666666669" y1="194.71875" y2="194.71875" stroke="#000000" style="stroke-width: 10; stroke-linecap: round;"></line></g><g><line x1="363.00000000000006" x2="363.00000000000006" y1="108.17708333333334" y2="194.71875" stroke="#000000" style="stroke-width: 10; stroke-linecap: round;"></line></g><g><line x1="363.00000000000006" x2="276.45833333333337" y1="194.71875" y2="194.71875" stroke="#000000" style="stroke-width: 10; stroke-linecap: round;"></line></g><g></g><g><line x1="449.5416666666667" x2="363" y1="194.71875" y2="194.71875" stroke="#000000" style="stroke-width: 10; stroke-linecap: round;"></line></g><g></g><g><line x1="536.0833333333334" x2="449.5416666666667" y1="194.71875" y2="194.71875" stroke="#000000" style="stroke-width: 10; stroke-linecap: round;"></line></g><g><line x1="622.625" x2="622.625" y1="108.17708333333334" y2="194.71875" stroke="#000000" style="stroke-width: 10; stroke-linecap: round;"></line></g><g><line x1="622.625" x2="536.0833333333334" y1="194.71875" y2="194.71875" stroke="#000000" style="stroke-width: 10; stroke-linecap: round;"></line></g><g></g><g></g><g><line x1="103.375" x2="103.375" y1="281.2604166666667" y2="194.71875" stroke="#000000" style="stroke-width: 10; stroke-linecap: round;"></line></g><g></g><g></g><g><line x1="363.00000000000006" x2="363.00000000000006" y1="194.71875" y2="281.2604166666667" stroke="#000000" style="stroke-width: 10; stroke-linecap: round;"></line></g><g></g><g></g><g></g><g></g><g></g><g><line x1="622.625" x2="622.625" y1="194.71875" y2="281.2604166666667" stroke="#000000" style="stroke-width: 10; stroke-linecap: round;"></line></g><g></g><g></g><g><line x1="189.91666666666669" x2="103.375" y1="367.80208333333337" y2="367.80208333333337" stroke="#000000" style="stroke-width: 10; stroke-linecap: round;"></line></g><g><line x1="103.375" x2="103.375" y1="367.80208333333337" y2="281.2604166666667" stroke="#000000" style="stroke-width: 10; stroke-linecap: round;"></line></g><g></g><g><line x1="276.45833333333337" x2="189.91666666666669" y1="367.80208333333337" y2="367.80208333333337" stroke="#000000" style="stroke-width: 10; stroke-linecap: round;"></line></g><g><line x1="363.00000000000006" x2="363.00000000000006" y1="281.2604166666667" y2="367.80208333333337" stroke="#000000" style="stroke-width: 10; stroke-linecap: round;"></line></g><g><line x1="363.00000000000006" x2="276.45833333333337" y1="367.80208333333337" y2="367.80208333333337" stroke="#000000" style="stroke-width: 10; stroke-linecap: round;"></line></g><g></g><g><line x1="449.5416666666667" x2="363" y1="367.80208333333337" y2="367.80208333333337" stroke="#000000" style="stroke-width: 10; stroke-linecap: round;"></line></g><g></g><g><line x1="536.0833333333334" x2="449.5416666666667" y1="367.80208333333337" y2="367.80208333333337" stroke="#000000" style="stroke-width: 10; stroke-linecap: round;"></line></g><g><line x1="622.625" x2="622.625" y1="281.2604166666667" y2="367.80208333333337" stroke="#000000" style="stroke-width: 10; stroke-linecap: round;"></line></g><g><line x1="622.625" x2="536.0833333333334" y1="367.80208333333337" y2="367.80208333333337" stroke="#000000" style="stroke-width: 10; stroke-linecap: round;"></line></g><g></g><g></g><g><line x1="103.375" x2="103.375" y1="454.34375000000006" y2="367.80208333333337" stroke="#000000" style="stroke-width: 10; stroke-linecap: round;"></line></g><g></g><g></g><g><line x1="363.00000000000006" x2="363.00000000000006" y1="367.80208333333337" y2="454.34375000000006" stroke="#000000" style="stroke-width: 10; stroke-linecap: round;"></line></g><g></g><g></g><g></g><g></g><g></g><g><line x1="622.625" x2="622.625" y1="367.80208333333337" y2="454.34375000000006" stroke="#000000" style="stroke-width: 10; stroke-linecap: round;"></line></g><g></g><g></g><g><line x1="189.91666666666669" x2="103.375" y1="540.8854166666667" y2="540.8854166666667" stroke="#000000" style="stroke-width: 10; stroke-linecap: round;"></line></g><g><line x1="103.375" x2="103.375" y1="540.8854166666667" y2="454.34375000000006" stroke="#000000" style="stroke-width: 10; stroke-linecap: round;"></line></g><g></g><g><line x1="276.45833333333337" x2="189.91666666666669" y1="540.8854166666667" y2="540.8854166666667" stroke="#000000" style="stroke-width: 10; stroke-linecap: round;"></line></g><g><line x1="363.00000000000006" x2="363.00000000000006" y1="454.34375000000006" y2="540.8854166666667" stroke="#000000" style="stroke-width: 10; stroke-linecap: round;"></line></g><g><line x1="363.00000000000006" x2="276.45833333333337" y1="540.8854166666667" y2="540.8854166666667" stroke="#000000" style="stroke-width: 10; stroke-linecap: round;"></line></g><g></g><g><line x1="449.5416666666667" x2="363" y1="540.8854166666667" y2="540.8854166666667" stroke="#000000" style="stroke-width: 10; stroke-linecap: round;"></line></g><g></g><g><line x1="536.0833333333334" x2="449.5416666666667" y1="540.8854166666667" y2="540.8854166666667" stroke="#000000" style="stroke-width: 10; stroke-linecap: round;"></line></g><g><line x1="622.625" x2="622.625" y1="454.34375000000006" y2="540.8854166666667" stroke="#000000" style="stroke-width: 10; stroke-linecap: round;"></line></g><g><line x1="622.625" x2="536.0833333333334" y1="540.8854166666667" y2="540.8854166666667" stroke="#000000" style="stroke-width: 10; stroke-linecap: round;"></line></g></svg>