<svg class="pb-2" id="Grid" style="overflow: visible; z-index: 90;" xmlns="http://www.w3.org/2000/svg" xmlns:xlink="http://www.w3.org/1999/xlink" height="688.559" width="726" viewBox="0 0 726 688.559">
  Sorry, but your browser is not supported. Try to setup the new version.
<desc>Created with Snap</desc><defs><filter id="Smhdk3jwuo1" filterUnits="userSpaceOnUse"><feColorMatrix type="matrix" values="1 0 0 0 0 0 1 0 0 0 0 0 1 0 0 0 0 0 0.7 0"></feColorMatrix></filter><filter id="Smhdk3jwuo3" filterUnits="userSpaceOnUse"><feColorMatrix type="matrix" values="-.17 -.17 -.17 0 1 -.22 -.22 -.22 0 1 -.33 -.33 -.33 0 1 0 0 0 1 0"></feColorMatrix></filter><filter id="Smhdk3jwu4ei" filterUnits="userSpaceOnUse"><feColorMatrix type="matrix" values="1 0 0 0 0 0 1 0 0 0 0 0 1 0 0 0 0 0 0.7 0"></feColorMatrix></filter><filter id="Smhdk3jwu4ek" filterUnits="userSpaceOnUse"><feColorMatrix type="matrix" values="-.17 -.17 -.17 0 1 -.22 -.22 -.22 0 1 -.33 -.33 -.33 0 1 0 0 0 1 0"></feColorMatrix></filter></defs><g><polygon points="42.74000000000001,16.012999999999998,106.792,16.012999999999998,106.792,80.065,42.74000000000001,80.065" fill="#ffffff" stroke="#000000" style="fill-opacity: 1; stroke-width: 1;"></polygon></g><g><polygon points="106.792,16.012999999999998,170.844,16.012999999999998,170.844,80.065,106.792,80.065" fill="#ffffff" stroke="#000000" style="fill-opacity: 1; stroke-width: 1;"></polygon></g><g><polygon points="170.844,16.012999999999998,234.896,16.012999999999998,234.896,80.065,170.844,80.065" fill="#ffffff" stroke="#000000" style="fill-opacity: 1; stroke-width: 1;"></polygon></g><g><polygon points="234.896,16.012999999999998,298.948,16.012999999999998,298.948,80.065,234.896,80.065" fill="#ffffff" stroke="#000000" style="fill-opacity: 1; stroke-width: 1;"></polygon></g><g><polygon points="298.948,16.012999999999998,363,16.012999999999998,363,80.065,298.948,80.065" fill="#ffffff" stroke="#000000" style="fill-opacity: 1; stroke-width: 1;"></polygon></g><g><polygon points="363,16.012999999999998,427.052,16.012999999999998,427.052,80.065,363,80.065" fill="#ffffff" stroke="#000000" style="fill-opacity: 1; stroke-width: 1;"></polygon><text x="382.69599" y="63.73173999999999" lengthAdjust="spacingAndGlyphs" textLength="24.660019999999996" fill="#075466" style="font-family: sans-serif; font-weight: bold; font-size: 44.8364px;">L</text></g><g><polygon points="427.05199999999996,16.012999999999998,491.1039999999999,16.012999999999998,491.1039999999999,80.065,427.05199999999996,80.065" fill="#ffffff" stroke="#000000" style="fill-opacity: 1; stroke-width: 1;"></polygon></g><g><polygon points="491.1039999999999,16.012999999999998,555.156,16.012999999999998,555.156,80.065,491.1039999999999,80.065" fill="#ffffff" stroke="#000000" style="fill-opacity: 1; stroke-width: 1;"></polygon></g><g><polygon points="555.156,16.012999999999998,619.208,16.012999999999998,619.208,80.065,555.156,80.065" fill="#ffffff" stroke="#000000" style="fill-opacity: 1; stroke-width: 1;"></polygon></g><g><polygon points="619.208,16.012999999999998,683.26,16.012999999999998,683.26,80.065,619.208,80.065" fill="#ffffff" stroke="#000000" style="fill-opacity: 1; stroke-width: 1;"></polygon><text x="638.9039899999999" y="63.73173999999999" lengthAdjust="spacingAndGlyphs" textLength="24.660019999999996" fill="#075466" style="font-family: sans-serif; font-weight: bold; font-size: 44.8364px;">V</text></g><g><polygon points="42.74000000000001,80.065,106.792,80.065,106.792,144.117,42.74000000000001,144.117" fill="#ffffff" stroke="#000000" style="fill-opacity: 1; stroke-width: 1;"></polygon></g><g><polygon points="106.792,80.065,170.844,80.065,170.844,144.117,106.792,144.117" fill="#ffffff" stroke="#000000" style="fill-opacity: 1; stroke-width: 1;"></polygon></g><g><polygon points="170.844,80.065,234.896,80.065,234.896,144.117,170.844,144.117" fill="#ffffff" stroke="#000000" style="fill-opacity: 1; stroke-width: 1;"></polygon></g><g><polygon points="234.896,80.065,298.948,80.065,298.948,144.117,234.896,144.117" fill="#ffffff" stroke="#000000" style="fill-opacity: 1; stroke-width: 1;"></polygon></g><g><polygon points="298.948,80.065,363,80.065,363,144.117,298.948,144.117" fill="#ffffff" stroke="#000000" style="fill-opacity: 1; stroke-width: 1;"></polygon><text x="318.64399" y="127.78374" lengthAdjust="spacingAndGlyphs" textLength="24.660019999999996" fill="#075466" style="font-family: sans-serif; font-weight: bold; font-size: 44.8364px;">Y</text></g><g><polygon points="363,80.065,427.052,80.065,427.052,144.117,363,144.117" fill="#ffffff" stroke="#000000" style="fill-opacity: 1; stroke-width: 1;"></polygon></g><g><polygon points="427.05199999999996,80.065,491.1039999999999,80.065,491.1039999999999,144.117,427.05199999999996,144.117" fill="#ffffff" stroke="#000000" style="fill-opacity: 1; stroke-width: 1;"></polygon></g><g><polygon points="491.1039999999999,80.065,555.156,80.065,555.156,144.117,491.1039999999999,144.117" fill="#ffffff" stroke="#000000" style="fill-opacity: 1; stroke-width: 1;"></polygon></g><g><polygon points="555.156,80.065,619.208,80.065,619.208,144.117,555.156,144.117" fill="#ffffff" stroke="#000000" style="fill-opacity: 1; stroke-width: 1;"></polygon><text x="574.8519899999999" y="127.78374" lengthAdjust="spacingAndGlyphs" textLength="24.660019999999996" fill="#075466" style="font-family: sans-serif; font-weight: bold; font-size: 44.8364px;">T</text></g><g><polygon points="619.208,80.065,683.26,80.065,683.26,144.117,619.208,144.117" fill="#ffffff" stroke="#000000" style="fill-opacity: 1; stroke-width: 1;"></polygon></g><g><polygon points="42.74000000000001,144.117,106.792,144.117,106.792,208.16899999999998,42.74000000000001,208.16899999999998" fill="#ffffff" stroke="#000000" style="fill-opacity: 1; stroke-width: 1;"></polygon></g><g><polygon points="106.792,144.117,170.844,144.117,170.844,208.16899999999998,106.792,208.16899999999998" fill="#ffffff" stroke="#000000" style="fill-opacity: 1; stroke-width: 1;"></polygon></g><g><polygon points="170.844,144.117,234.896,144.117,234.896,208.16899999999998,170.844,208.16899999999998" fill="#ffffff" stroke="#000000" style="fill-opacity: 1; stroke-width: 1;"></polygon></g><g><polygon points="234.896,144.117,298.948,144.117,298.948,208.16899999999998,234.896,208.16899999999998" fill="#ffffff" stroke="#000000" style="fill-opacity: 1; stroke-width: 1;"></polygon></g><g><polygon points="298.948,144.117,363,144.117,363,208.16899999999998,298.948,208.16899999999998" fill="#ffffff" stroke="#000000" style="fill-opacity: 1; stroke-width: 1;"></polygon></g><g><polygon points="363,144.117,427.052,144.117,427.052,208.16899999999998,363,208.16899999999998" fill="#ffffff" stroke="#000000" style="fill-opacity: 1; stroke-width: 1;"></polygon></g><g><polygon points="427.05199999999996,144.117,491.1039999999999,144.117,491.1039999999999,208.16899999999998,427.05199999999996,208.16899999999998" fill="#ffffff" stroke="#000000" style="fill-opacity: 1; stroke-width: 1;"></polygon></g><g><polygon points="491.1039999999999,144.117,555.156,144.117,555.156,208.16899999999998,491.1039999999999,208.16899999999998" fill="#ffffff" stroke="#000000" style="fill-opacity: 1; stroke-width: 1;"></polygon><text x="510.79998999999987" y="191.83573999999996" lengthAdjust="spacingAndGlyphs" textLength="24.660019999999996" fill="#075466" style="font-family: sans-serif; font-weight: bold; font-size: 44.8364px;">P</text></g><g><polygon points="555.156,144.117,619.208,144.117,619.208,208.16899999999998,555.156,208.16899999999998" fill="#ffffff" stroke="#000000" style="fill-opacity: 1; stroke-width: 1;"></polygon></g><g><polygon points="619.208,144.117,683.26,144.117,683.26,208.16899999999998,619.208,208.16899999999998" fill="#ffffff" stroke="#000000" style="fill-opacity: 1; stroke-width: 1;"></polygon></g><g><polygon points="42.74000000000001,208.16899999999998,106.792,208.16899999999998,106.792,272.221,42.74000000000001,272.221" fill="#ffffff" stroke="#000000" style="fill-opacity: 1; stroke-width: 1;"></polygon></g><g><polygon points="106.792,208.16899999999998,170.844,208.16899999999998,170.844,272.221,106.792,272.221" fill="#ffffff" stroke="#000000" style="fill-opacity: 1; stroke-width: 1;"></polygon></g><g><polygon points="170.844,208.16899999999998,234.896,208.16899999999998,234.896,272.221,170.844,272.221" fill="#ffffff" stroke="#000000" style="fill-opacity: 1; stroke-width: 1;"></polygon></g><g><polygon points="234.896,208.16899999999998,298.948,208.16899999999998,298.948,272.221,234.896,272.221" fill="#ffffff" stroke="#000000" style="fill-opacity: 1; stroke-width: 1;"></polygon></g><g><polygon points="298.948,208.16899999999998,363,208.16899999999998,363,272.221,298.948,272.221" fill="#ffffff" stroke="#000000" style="fill-opacity: 1; stroke-width: 1;"></polygon></g><g><polygon points="363,208.16899999999998,427.052,208.16899999999998,427.052,272.221,363,272.221" fill="#ffffff" stroke="#000000" style="fill-opacity: 1; stroke-width: 1;"></polygon></g><g><polygon points="427.05199999999996,208.16899999999998,491.1039999999999,208.16899999999998,491.1039999999999,272.221,427.05199999999996,272.221" fill="#ffffff" stroke="#000000" style="fill-opacity: 1; stroke-width: 1;"></polygon><text x="446.74798999999996" y="255.88773999999998" lengthAdjust="spacingAndGlyphs" textLength="24.660019999999996" fill="#075466" style="font-family: sans-serif; font-weight: bold; font-size: 44.8364px;">W</text></g><g><polygon points="491.1039999999999,208.16899999999998,555.156,208.16899999999998,555.156,272.221,491.1039999999999,272.221" fill="#ffffff" stroke="#000000" style="fill-opacity: 1; stroke-width: 1;"></polygon></g><g><polygon points="555.156,208.16899999999998,619.208,208.16899999999998,619.208,272.221,555.156,272.221" fill="#ffffff" stroke="#000000" style="fill-opacity: 1; stroke-width: 1;"></polygon></g><g><polygon points="619.208,208.16899999999998,683.26,208.16899999999998,683.26,272.221,619.208,272.221" fill="#ffffff" stroke="#000000" style="fill-opacity: 1; stroke-width: 1;"></polygon></g><g><polygon points="42.74000000000001,272.22099999999995,106.792,272.22099999999995,106.792,336.2729999999999,42.74000000000001,336.2729999999999" fill="#ffffff" stroke="#000000" style="fill-opacity: 1; stroke-width: 1;"></polygon></g><g><polygon points="106.792,272.22099999999995,170.844,272.22099999999995,170.844,336.2729999999999,106.792,336.2729999999999" fill="#ffffff" stroke="#000000" style="fill-opacity: 1; stroke-width: 1;"></polygon><text x="126.48798999999998" y="319.93974" lengthAdjust="spacingAndGlyphs" textLength="24.660019999999996" fill="#075466" style="font-family: sans-serif; font-weight: bold; font-size: 44.8364px;">P</text></g><g><polygon points="170.844,272.22099999999995,234.896,272.22099999999995,234.896,336.2729999999999,170.844,336.2729999999999" fill="#ffffff" stroke="#000000" style="fill-opacity: 1; stroke-width: 1;"></polygon></g><g><polygon points="234.896,272.22099999999995,298.948,272.22099999999995,298.948,336.2729999999999,234.896,336.2729999999999" fill="#ffffff" stroke="#000000" style="fill-opacity: 1; stroke-width: 1;"></polygon></g><g><polygon points="298.948,272.22099999999995,363,272.22099999999995,363,336.2729999999999,298.948,336.2729999999999" fill="#ffffff" stroke="#000000" style="fill-opacity: 1; stroke-width: 1;"></polygon></g><g><polygon points="363,272.22099999999995,427.052,272.22099999999995,427.052,336.2729999999999,363,336.2729999999999" fill="#ffffff" stroke="#000000" style="fill-opacity: 1; stroke-width: 1;"></polygon><text x="382.69599" y="319.93974" lengthAdjust="spacingAndGlyphs" textLength="24.660019999999996" fill="#075466" style="font-family: sans-serif; font-weight: bold; font-size: 44.8364px;">T</text></g><g><polygon points="427.05199999999996,272.22099999999995,491.1039999999999,272.22099999999995,491.1039999999999,336.2729999999999,427.05199999999996,336.2729999999999" fill="#ffffff" stroke="#000000" style="fill-opacity: 1; stroke-width: 1;"></polygon></g><g><polygon points="491.1039999999999,272.22099999999995,555.156,272.22099999999995,555.156,336.2729999999999,491.1039999999999,336.2729999999999" fill="#ffffff" stroke="#000000" style="fill-opacity: 1; stroke-width: 1;"></polygon></g><g><polygon points="555.156,272.22099999999995,619.208,272.22099999999995,619.208,336.2729999999999,555.156,336.2729999999999" fill="#ffffff" stroke="#000000" style="fill-opacity: 1; stroke-width: 1;"></polygon></g><g><polygon points="619.208,272.22099999999995,683.26,272.22099999999995,683.26,336.2729999999999,619.208,336.2729999999999" fill="#ffffff" stroke="#000000" style="fill-opacity: 1; stroke-width: 1;"></polygon><text x="638.9039899999999" y="319.93974" lengthAdjust="spacingAndGlyphs" textLength="24.660019999999996" fill="#075466" style="font-family: sans-serif; font-weight: bold; font-size: 44.8364px;">L</text></g><g><polygon points="42.74000000000001,336.27299999999997,106.792,336.27299999999997,106.792,400.32499999999993,42.74000000000001,400.32499999999993" fill="#ffffff" stroke="#000000" style="fill-opacity: 1; stroke-width: 1;"></polygon><text x="62.435990000000004" y="383.99174" lengthAdjust="spacingAndGlyphs" textLength="24.660019999999996" fill="#075466" style="font-family: sans-serif; font-weight: bold; font-size: 44.8364px;">Z</text></g><g><polygon points="106.792,336.27299999999997,170.844,336.27299999999997,170.844,400.32499999999993,106.792,400.32499999999993" fill="#ffffff" stroke="#000000" style="fill-opacity: 1; stroke-width: 1;"></polygon></g><g><polygon points="170.844,336.27299999999997,234.896,336.27299999999997,234.896,400.32499999999993,170.844,400.32499999999993" fill="#ffffff" stroke="#000000" style="fill-opacity: 1; stroke-width: 1;"></polygon></g><g><polygon points="234.896,336.27299999999997,298.948,336.27299999999997,298.948,400.32499999999993,234.896,400.32499999999993" fill="#ffffff" stroke="#000000" style="fill-opacity: 1; stroke-width: 1;"></polygon></g><g><polygon points="298.948,336.27299999999997,363,336.27299999999997,363,400.32499999999993,298.948,400.32499999999993" fill="#ffffff" stroke="#000000" style="fill-opacity: 1; stroke-width: 1;"></polygon><text x="318.64399" y="383.99174" lengthAdjust="spacingAndGlyphs" textLength="24.660019999999996" fill="#075466" style="font-family: sans-serif; font-weight: bold; font-size: 44.8364px;">N</text></g><g><polygon points="363,336.27299999999997,427.052,336.27299999999997,427.052,400.32499999999993,363,400.32499999999993" fill="#ffffff" stroke="#000000" style="fill-opacity: 1; stroke-width: 1;"></polygon></g><g><polygon points="427.05199999999996,336.27299999999997,491.1039999999999,336.27299999999997,491.1039999999999,400.32499999999993,427.05199999999996,400.32499999999993" fill="#ffffff" stroke="#000000" style="fill-opacity: 1; stroke-width: 1;"></polygon></g><g><polygon points="491.1039999999999,336.27299999999997,555.156,336.27299999999997,555.156,400.32499999999993,491.1039999999999,400.32499999999993" fill="#ffffff" stroke="#000000" style="fill-opacity: 1; stroke-width: 1;"></polygon></g><g><polygon points="555.156,336.27299999999997,619.208,336.27299999999997,619.208,400.32499999999993,555.156,400.32499999999993" fill="#ffffff" stroke="#000000" style="fill-opacity: 1; stroke-width: 1;"></polygon><text x="574.8519899999999" y="383.99174" lengthAdjust="spacingAndGlyphs" textLength="24.660019999999996" fill="#075466" style="font-family: sans-serif; font-weight: bold; font-size: 44.8364px;">X</text></g><g><polygon points="619.208,336.27299999999997,683.26,336.27299999999997,683.26,400.32499999999993,619.208,400.32499999999993" fill="#ffffff" stroke="#000000" style="fill-opacity: 1; stroke-width: 1;"></polygon></g><g><polygon points="42.74000000000001,400.32499999999993,106.792,400.32499999999993,106.792,464.37699999999995,42.74000000000001,464.37699999999995" fill="#ffffff" stroke="#000000" style="fill-opacity: 1; stroke-width: 1;"></polygon></g><g><polygon points="106.792,400.32499999999993,170.844,400.32499999999993,170.844,464.37699999999995,106.792,464.37699999999995" fill="#ffffff" stroke="#000000" style="fill-opacity: 1; stroke-width: 1;"></polygon></g><g><polygon points="170.844,400.32499999999993,234.896,400.32499999999993,234.896,464.37699999999995,170.844,464.37699999999995" fill="#ffffff" stroke="#000000" style="fill-opacity: 1; stroke-width: 1;"></polygon></g><g><polygon points="234.896,400.32499999999993,298.948,400.32499999999993,298.948,464.37699999999995,234.896,464.37699999999995" fill="#ffffff" stroke="#000000" style="fill-opacity: 1; stroke-width: 1;"></polygon><text x="254.59198999999998" y="448.04373999999996" lengthAdjust="spacingAndGlyphs" textLength="24.660019999999996" fill="#075466" style="font-family: sans-serif; font-weight: bold; font-size: 44.8364px;">V</text></g><g><polygon points="298.948,400.32499999999993,363,400.32499999999993,363,464.37699999999995,298.948,464.37699999999995" fill="#ffffff" stroke="#000000" style="fill-opacity: 1; stroke-width: 1;"></polygon></g><g><polygon points="363,400.32499999999993,427.052,400.32499999999993,427.052,464.37699999999995,363,464.37699999999995" fill="#ffffff" stroke="#000000" style="fill-opacity: 1; stroke-width: 1;"></polygon></g><g><polygon points="427.05199999999996,400.32499999999993,491.1039999999999,400.32499999999993,491.1039999999999,464.37699999999995,427.05199999999996,464.37699999999995" fill="#ffffff" stroke="#000000" style="fill-opacity: 1; stroke-width: 1;"></polygon></g><g><polygon points="491.1039999999999,400.32499999999993,555.156,400.32499999999993,555.156,464.37699999999995,491.1039999999999,464.37699999999995" fill="#ffffff" stroke="#000000" style="fill-opacity: 1; stroke-width: 1;"></polygon></g><g><polygon points="555.156,400.32499999999993,619.208,400.32499999999993,619.208,464.37699999999995,555.156,464.37699999999995" fill="#ffffff" stroke="#000000" style="fill-opacity: 1; stroke-width: 1;"></polygon></g><g><polygon points="619.208,400.32499999999993,683.26,400.32499999999993,683.26,464.37699999999995,619.208,464.37699999999995" fill="#ffffff" stroke="#000000" style="fill-opacity: 1; stroke-width: 1;"></polygon></g><g><polygon points="42.74000000000001,464.3769999999999,106.792,464.3769999999999,106.792,528.4289999999999,42.74000000000001,528.4289999999999" fill="#ffffff" stroke="#000000" style="fill-opacity: 1; stroke-width: 1;"></polygon></g><g><polygon points="106.792,464.3769999999999,170.844,464.3769999999999,170.844,528.4289999999999,106.792,528.4289999999999" fill="#ffffff" stroke="#000000" style="fill-opacity: 1; stroke-width: 1;"></polygon></g><g><polygon points="170.844,464.3769999999999,234.896,464.3769999999999,234.896,528.4289999999999,170.844,528.4289999999999" fill="#ffffff" stroke="#000000" style="fill-opacity: 1; stroke-width: 1;"></polygon><text x="197.26545000000002" y="512.0957399999999" lengthAdjust="spacingAndGlyphs" textLength="11.209099999999998" fill="#075466" style="font-family: sans-serif; font-weight: bold; font-size: 44.8364px;">I</text></g><g><polygon points="234.896,464.3769999999999,298.948,464.3769999999999,298.948,528.4289999999999,234.896,528.4289999999999" fill="#ffffff" stroke="#000000" style="fill-opacity: 1; stroke-width: 1;"></polygon></g><g><polygon points="298.948,464.3769999999999,363,464.3769999999999,363,528.4289999999999,298.948,528.4289999999999" fill="#ffffff" stroke="#000000" style="fill-opacity: 1; stroke-width: 1;"></polygon></g><g><polygon points="363,464.3769999999999,427.052,464.3769999999999,427.052,528.4289999999999,363,528.4289999999999" fill="#ffffff" stroke="#000000" style="fill-opacity: 1; stroke-width: 1;"></polygon></g><g><polygon points="427.05199999999996,464.3769999999999,491.1039999999999,464.3769999999999,491.1039999999999,528.4289999999999,427.05199999999996,528.4289999999999" fill="#ffffff" stroke="#000000" style="fill-opacity: 1; stroke-width: 1;"></polygon></g><g><polygon points="491.1039999999999,464.3769999999999,555.156,464.3769999999999,555.156,528.4289999999999,491.1039999999999,528.4289999999999" fill="#ffffff" stroke="#000000" style="fill-opacity: 1; stroke-width: 1;"></polygon></g><g><polygon points="555.156,464.3769999999999,619.208,464.3769999999999,619.208,528.4289999999999,555.156,528.4289999999999" fill="#ffffff" stroke="#000000" style="fill-opacity: 1; stroke-width: 1;"></polygon></g><g><polygon points="619.208,464.3769999999999,683.26,464.3769999999999,683.26,528.4289999999999,619.208,528.4289999999999" fill="#ffffff" stroke="#000000" style="fill-opacity: 1; stroke-width: 1;"></polygon></g><g><polygon points="42.74000000000001,528.429,106.792,528.429,106.792,592.481,42.74000000000001,592.481" fill="#ffffff" stroke="#000000" style="fill-opacity: 1; stroke-width: 1;"></polygon></g><g><polygon points="106.792,528.429,170.844,528.429,170.844,592.481,106.792,592.481" fill="#ffffff" stroke="#000000" style="fill-opacity: 1; stroke-width: 1;"></polygon><text x="126.48798999999998" y="576.1477399999999" lengthAdjust="spacingAndGlyphs" textLength="24.660019999999996" fill="#075466" style="font-family: sans-serif; font-weight: bold; font-size: 44.8364px;">Z</text></g><g><polygon points="170.844,528.429,234.896,528.429,234.896,592.481,170.844,592.481" fill="#ffffff" stroke="#000000" style="fill-opacity: 1; stroke-width: 1;"></polygon></g><g><polygon points="234.896,528.429,298.948,528.429,298.948,592.481,234.896,592.481" fill="#ffffff" stroke="#000000" style="fill-opacity: 1; stroke-width: 1;"></polygon></g><g><polygon points="298.948,528.429,363,528.429,363,592.481,298.948,592.481" fill="#ffffff" stroke="#000000" style="fill-opacity: 1; stroke-width: 1;"></polygon></g><g><polygon points="363,528.429,427.052,528.429,427.052,592.481,363,592.481" fill="#ffffff" stroke="#000000" style="fill-opacity: 1; stroke-width: 1;"></polygon><text x="382.69599" y="576.1477399999999" lengthAdjust="spacingAndGlyphs" textLength="24.660019999999996" fill="#075466" style="font-family: sans-serif; font-weight: bold; font-size: 44.8364px;">Y</text></g><g><polygon points="427.05199999999996,528.429,491.1039999999999,528.429,491.1039999999999,592.481,427.05199999999996,592.481" fill="#ffffff" stroke="#000000" style="fill-opacity: 1; stroke-width: 1;"></polygon></g><g><polygon points="491.1039999999999,528.429,555.156,528.429,555.156,592.481,491.1039999999999,592.481" fill="#ffffff" stroke="#000000" style="fill-opacity: 1; stroke-width: 1;"></polygon></g><g><polygon points="555.156,528.429,619.208,528.429,619.208,592.481,555.156,592.481" fill="#ffffff" stroke="#000000" style="fill-opacity: 1; stroke-width: 1;"></polygon></g><g><polygon points="619.208,528.429,683.26,528.429,683.26,592.481,619.208,592.481" fill="#ffffff" stroke="#000000" style="fill-opacity: 1; stroke-width: 1;"></polygon></g><g><polygon points="42.74000000000001,592.481,106.792,592.481,106.792,656.533,42.74000000000001,656.533" fill="#ffffff" stroke="#000000" style="fill-opacity: 1; stroke-width: 1;"></polygon><text x="62.435990000000004" y="640.1997399999999" lengthAdjust="spacingAndGlyphs" textLength="24.660019999999996" fill="#075466" style="font-family: sans-serif; font-weight: bold; font-size: 44.8364px;">V</text></g><g><polygon points="106.792,592.481,170.844,592.481,170.844,656.533,106.792,656.533" fill="#ffffff" stroke="#000000" style="fill-opacity: 1; stroke-width: 1;"></polygon></g><g><polygon points="170.844,592.481,234.896,592.481,234.896,656.533,170.844,656.533" fill="#ffffff" stroke="#000000" style="fill-opacity: 1; stroke-width: 1;"></polygon></g><g><polygon points="234.896,592.481,298.948,592.481,298.948,656.533,234.896,656.533" fill="#ffffff" stroke="#000000" style="fill-opacity: 1; stroke-width: 1;"></polygon></g><g><polygon points="298.948,592.481,363,592.481,363,656.533,298.948,656.533" fill="#ffffff" stroke="#000000" style="fill-opacity: 1; stroke-width: 1;"></polygon><text x="318.64399" y="640.1997399999999" lengthAdjust="spacingAndGlyphs" textLength="24.660019999999996" fill="#075466" style="font-family: sans-serif; font-weight: bold; font-size: 44.8364px;">L</text></g><g><polygon points="363,592.481,427.052,592.481,427.052,656.533,363,656.533" fill="#ffffff" stroke="#000000" style="fill-opacity: 1; stroke-width: 1;"></polygon></g><g><polygon points="427.05199999999996,592.481,491.1039999999999,592.481,491.1039999999999,656.533,427.05199999999996,656.533" fill="#ffffff" stroke="#000000" style="fill-opacity: 1; stroke-width: 1;"></polygon></g><g><polygon points="491.1039999999999,592.481,555.156,592.481,555.156,656.533,491.1039999999999,656.533" fill="#ffffff" stroke="#000000" style="fill-opacity: 1; stroke-width: 1;"></polygon></g><g><polygon points="555.156,592.481,619.208,592.481,619.208,656.533,555.156,656.533" fill="#ffffff" stroke="#000000" style="fill-opacity: 1; stroke-width: 1;"></polygon></g><g><polygon points="619.208,592.481,683.26,592.481,683.26,656.533,619.208,656.533" fill="#ffffff" stroke="#000000" style="fill-opacity: 1; stroke-width: 1;"></polygon></g><g><line x1="42.74000000000001" x2="106.792" y1="16.012999999999998" y2="16.012999999999998" stroke="#000000" style="stroke-width: 7; stroke-linecap: round;"></line></g><g></g><g></g><g><line x1="42.74000000000001" x2="42.74000000000001" y1="80.065" y2="16.012999999999998" stroke="#000000" style="stroke-width: 7; stroke-linecap: round;"></line></g><g><line x1="106.792" x2="170.844" y1="16.012999999999998" y2="16.012999999999998" stroke="#000000" style="stroke-width: 7; stroke-linecap: round;"></line></g><g></g><g></g><g><line x1="170.844" x2="234.896" y1="16.012999999999998" y2="16.012999999999998" stroke="#000000" style="stroke-width: 7; stroke-linecap: round;"></line></g><g></g><g></g><g><line x1="234.896" x2="298.948" y1="16.012999999999998" y2="16.012999999999998" stroke="#000000" style="stroke-width: 7; stroke-linecap: round;"></line></g><g></g><g></g><g><line x1="298.948" x2="363" y1="16.012999999999998" y2="16.012999999999998" stroke="#000000" style="stroke-width: 7; stroke-linecap: round;"></line></g><g></g><g></g><g><line x1="363" x2="427.052" y1="16.012999999999998" y2="16.012999999999998" stroke="#000000" style="stroke-width: 7; stroke-linecap: round;"></line></g><g></g><g></g><g><line x1="427.05199999999996" x2="491.1039999999999" y1="16.012999999999998" y2="16.012999999999998" stroke="#000000" style="stroke-width: 7; stroke-linecap: round;"></line></g><g></g><g></g><g><line x1="491.1039999999999" x2="555.156" y1="16.012999999999998" y2="16.012999999999998" stroke="#000000" style="stroke-width: 7; stroke-linecap: round;"></line></g><g></g><g></g><g><line x1="555.156" x2="619.208" y1="16.012999999999998" y2="16.012999999999998" stroke="#000000" style="stroke-width: 7; stroke-linecap: round;"></line></g><g></g><g></g><g><line x1="619.208" x2="683.26" y1="16.012999999999998" y2="16.012999999999998" stroke="#000000" style="stroke-width: 7; stroke-linecap: round;"></line></g><g><line x1="683.26" x2="683.26" y1="16.012999999999998" y2="80.065" stroke="#000000" style="stroke-width: 7; stroke-linecap: round;"></line></g><g></g><g></g><g></g><g><line x1="42.74000000000001" x2="42.74000000000001" y1="144.117" y2="80.065" stroke="#000000" style="stroke-width: 7; stroke-linecap: round;"></line></g><g></g><g></g><g></g><g></g><g></g><g></g><g></g><g></g><g></g><g></g><g></g><g></g><g></g><g></g><g></g><g></g><g><line x1="683.26" x2="683.26" y1="80.065" y2="144.117" stroke="#000000" style="stroke-width: 7; stroke-linecap: round;"></line></g><g></g><g></g><g></g><g><line x1="42.74000000000001" x2="42.74000000000001" y1="208.16899999999998" y2="144.117" stroke="#000000" style="stroke-width: 7; stroke-linecap: round;"></line></g><g></g><g></g><g></g><g></g><g></g><g></g><g></g><g></g><g></g><g></g><g></g><g></g><g></g><g></g><g></g><g></g><g><line x1="683.26" x2="683.26" y1="144.117" y2="208.16899999999998" stroke="#000000" style="stroke-width: 7; stroke-linecap: round;"></line></g><g></g><g></g><g></g><g><line x1="42.74000000000001" x2="42.74000000000001" y1="272.221" y2="208.16899999999998" stroke="#000000" style="stroke-width: 7; stroke-linecap: round;"></line></g><g></g><g></g><g></g><g></g><g></g><g></g><g></g><g></g><g></g><g></g><g></g><g></g><g></g><g></g><g></g><g></g><g><line x1="683.26" x2="683.26" y1="208.16899999999998" y2="272.221" stroke="#000000" style="stroke-width: 7; stroke-linecap: round;"></line></g><g></g><g></g><g></g><g><line x1="42.74000000000001" x2="42.74000000000001" y1="336.2729999999999" y2="272.22099999999995" stroke="#000000" style="stroke-width: 7; stroke-linecap: round;"></line></g><g></g><g></g><g></g><g></g><g></g><g></g><g></g><g></g><g></g><g></g><g></g><g></g><g></g><g></g><g></g><g></g><g><line x1="683.26" x2="683.26" y1="272.22099999999995" y2="336.2729999999999" stroke="#000000" style="stroke-width: 7; stroke-linecap: round;"></line></g><g></g><g></g><g></g><g><line x1="42.74000000000001" x2="42.74000000000001" y1="400.32499999999993" y2="336.27299999999997" stroke="#000000" style="stroke-width: 7; stroke-linecap: round;"></line></g><g></g><g></g><g></g><g></g><g></g><g></g><g></g><g></g><g></g><g></g><g></g><g></g><g></g><g></g><g></g><g></g><g><line x1="683.26" x2="683.26" y1="336.27299999999997" y2="400.32499999999993" stroke="#000000" style="stroke-width: 7; stroke-linecap: round;"></line></g><g></g><g></g><g></g><g><line x1="42.74000000000001" x2="42.74000000000001" y1="464.37699999999995" y2="400.32499999999993" stroke="#000000" style="stroke-width: 7; stroke-linecap: round;"></line></g><g></g><g></g><g></g><g></g><g></g><g></g><g></g><g></g><g></g><g></g><g></g><g></g><g></g><g></g><g></g><g></g><g><line x1="683.26" x2="683.26" y1="400.32499999999993" y2="464.37699999999995" stroke="#000000" style="stroke-width: 7; stroke-linecap: round;"></line></g><g></g><g></g><g></g><g><line x1="42.74000000000001" x2="42.74000000000001" y1="528.4289999999999" y2="464.3769999999999" stroke="#000000" style="stroke-width: 7; stroke-linecap: round;"></line></g><g></g><g></g><g></g><g></g><g></g><g></g><g></g><g></g><g></g><g></g><g></g><g></g><g></g><g></g><g></g><g></g><g><line x1="683.26" x2="683.26" y1="464.3769999999999" y2="528.4289999999999" stroke="#000000" style="stroke-width: 7; stroke-linecap: round;"></line></g><g></g><g></g><g></g><g><line x1="42.74000000000001" x2="42.74000000000001" y1="592.481" y2="528.429" stroke="#000000" style="stroke-width: 7; stroke-linecap: round;"></line></g><g></g><g></g><g></g><g></g><g></g><g></g><g></g><g></g><g></g><g></g><g></g><g></g><g></g><g></g><g></g><g></g><g><line x1="683.26" x2="683.26" y1="528.429" y2="592.481" stroke="#000000" style="stroke-width: 7; stroke-linecap: round;"></line></g><g></g><g></g><g><line x1="106.792" x2="42.74000000000001" y1="656.533" y2="656.533" stroke="#000000" style="stroke-width: 7; stroke-linecap: round;"></line></g><g><line x1="42.74000000000001" x2="42.74000000000001" y1="656.533" y2="592.481" stroke="#000000" style="stroke-width: 7; stroke-linecap: round;"></line></g><g></g><g><line x1="170.844" x2="106.792" y1="656.533" y2="656.533" stroke="#000000" style="stroke-width: 7; stroke-linecap: round;"></line></g><g></g><g><line x1="234.896" x2="170.844" y1="656.533" y2="656.533" stroke="#000000" style="stroke-width: 7; stroke-linecap: round;"></line></g><g></g><g><line x1="298.948" x2="234.896" y1="656.533" y2="656.533" stroke="#000000" style="stroke-width: 7; stroke-linecap: round;"></line></g><g></g><g><line x1="363" x2="298.948" y1="656.533" y2="656.533" stroke="#000000" style="stroke-width: 7; stroke-linecap: round;"></line></g><g></g><g><line x1="427.052" x2="363" y1="656.533" y2="656.533" stroke="#000000" style="stroke-width: 7; stroke-linecap: round;"></line></g><g></g><g><line x1="491.1039999999999" x2="427.05199999999996" y1="656.533" y2="656.533" stroke="#000000" style="stroke-width: 7; stroke-linecap: round;"></line></g><g></g><g><line x1="555.156" x2="491.1039999999999" y1="656.533" y2="656.533" stroke="#000000" style="stroke-width: 7; stroke-linecap: round;"></line></g><g></g><g><line x1="619.208" x2="555.156" y1="656.533" y2="656.533" stroke="#000000" style="stroke-width: 7; stroke-linecap: round;"></line></g><g><line x1="683.26" x2="683.26" y1="592.481" y2="656.533" stroke="#000000" style="stroke-width: 7; stroke-linecap: round;"></line></g><g><line x1="683.26" x2="619.208" y1="656.533" y2="656.533" stroke="#000000" style="stroke-width: 7; stroke-linecap: round;"></line></g><g></g><g></g><g></g><g></g><g></g><g></g><g></g><g></g><g></g><g></g><g></g><g></g><g></g><g></g><g></g><g></g><g></g><g></g><g></g><g></g><g></g><g></g><g></g><g></g><g></g><g></g><g></g><g></g><g></g><g></g><g></g><g></g><g></g><g></g><g></g><g></g><g></g><g></g><g></g><g></g><g></g><g></g><g></g><g></g><g></g><g></g><g></g><g></g><g></g><g></g><g></g><g></g><g></g><g></g><g></g><g></g><g></g><g></g><g></g><g></g><g></g><g></g><g></g><g></g><g></g><g></g><g></g><g></g><g></g><g></g><g></g><g></g><g></g><g></g><g></g><g></g><g></g><g></g><g></g><g></g><g></g><g></g><g></g><g></g><g></g><g></g><g></g><g></g><g></g><g></g><g></g><g></g><g></g><g></g><g></g><g></g><g></g><g></g><g></g><g></g><g></g><g></g><g></g><g></g><g></g><g></g><g></g><g></g><g></g><g></g><g></g><g></g><g></g><g></g><g></g><g></g><g></g><g></g><g></g><g></g><g></g><g></g><g></g><g></g><g></g><g></g><g></g><g></g><g></g><g></g><g></g><g></g><g></g><g></g><g></g><g></g><g></g><g></g><g></g><g></g><g></g><g></g><g></g><g></g><g></g><g></g><g></g><g></g><g></g><g></g><g></g><g></g><g></g><g></g><g></g><g></g><g></g><g></g><g></g><g></g><g></g><g></g><g></g><g></g><g></g><g></g><g></g><g></g><g></g><g></g><g></g><g></g><g></g><g></g><g></g><g></g><g></g><g></g><g></g><g></g><g></g><g></g><g></g><g></g><g></g><g></g><g></g><g></g><g></g><g></g><g></g><g></g><g></g><g></g><g></g><g></g><g></g><g></g><g></g><g></g><g></g><g></g><g></g><g></g><g></g><g></g><g></g><g></g><g></g><g></g><g></g><g></g><g></g><g></g><g></g><g></g><g></g><g></g><g></g><g></g><g></g><g></g><g></g><g></g><g></g><g></g><g></g><g></g><g></g><g></g><g></g><g></g><g></g><g></g><g></g><g></g><g></g><g></g><g></g><g></g><g></g><g></g><g></g><g></g><g></g><g></g><g></g><g></g><g></g><g></g><g></g><g></g><g></g><g></g><g></g><g></g><g></g><g></g><g></g><g></g><g></g><g></g><g></g><g></g><g></g><g></g><g></g><g></g><g></g><g></g><g></g><g></g><g></g><g></g><g></g><g></g><g></g><g></g><g></g><g></g><g></g><g></g><g></g><g></g><g></g><g></g><g></g><g></g><g></g><g></g><g></g><g></g><g></g><g></g><g></g><g></g><g></g><g></g><g></g><g></g><g></g></svg>