<svg class="pb-2" id="Grid" style="overflow: visible; z-index: 90;" xmlns="http://www.w3.org/2000/svg" xmlns:xlink="http://www.w3.org/1999/xlink" height="709.1471428571429" width="726" viewBox="0 0 726 709.1471428571429">
  Sorry, but your browser is not supported. Try to setup the new version.
<desc>Created with Snap</desc><defs><filter id="Smhcemj6w5y" filterUnits="userSpaceOnUse"><feColorMatrix type="matrix" values="1 0 0 0 0 0 1 0 0 0 0 0 1 0 0 0 0 0 0.7 0"></feColorMatrix></filter><filter id="Smhcemj6w60" filterUnits="userSpaceOnUse"><feColorMatrix type="matrix" values="-.17 -.17 -.17 0 1 -.22 -.22 -.22 0 1 -.33 -.33 -.33 0 1 0 0 0 1 0"></feColorMatrix></filter><filter id="Smhcemj6wo9" filterUnits="userSpaceOnUse"><feColorMatrix type="matrix" values="1 0 0 0 0 0 1 0 0 0 0 0 1 0 0 0 0 0 0.7 0"></feColorMatrix></filter><filter id="Smhcemj6wob" filterUnits="userSpaceOnUse"><feColorMatrix type="matrix" values="-.17 -.17 -.17 0 1 -.22 -.22 -.22 0 1 -.33 -.33 -.33 0 1 0 0 0 1 0"></feColorMatrix></filter></defs><g><polygon points="88.49142857142857,22.875714285714285,179.9942857142857,22.875714285714285,179.9942857142857,114.37857142857142,88.49142857142857,114.37857142857142" fill="#ffffff" stroke="#000000" style="fill-opacity: 1; stroke-width: 1;"></polygon><text x="116.62855714285713" y="91.04534285714286" lengthAdjust="spacingAndGlyphs" textLength="35.2286" fill="#00121d" style="font-family: sans-serif; font-weight: bold; font-size: 64.052px;">2</text></g><g><polygon points="179.9942857142857,22.875714285714285,271.4971428571428,22.875714285714285,271.4971428571428,114.37857142857142,179.9942857142857,114.37857142857142" fill="#ffffff" stroke="#000000" style="fill-opacity: 1; stroke-width: 1;"></polygon></g><g><polygon points="271.4971428571429,22.875714285714285,363,22.875714285714285,363,114.37857142857142,271.4971428571429,114.37857142857142" fill="#ffffff" stroke="#000000" style="fill-opacity: 1; stroke-width: 1;"></polygon></g><g><polygon points="363,22.875714285714285,454.5028571428571,22.875714285714285,454.5028571428571,114.37857142857142,363,114.37857142857142" fill="#ffffff" stroke="#000000" style="fill-opacity: 1; stroke-width: 1;"></polygon></g><g><polygon points="454.5028571428571,22.875714285714285,546.0057142857142,22.875714285714285,546.0057142857142,114.37857142857142,454.5028571428571,114.37857142857142" fill="#ffffff" stroke="#000000" style="fill-opacity: 1; stroke-width: 1;"></polygon></g><g><polygon points="546.0057142857142,22.875714285714285,637.5085714285714,22.875714285714285,637.5085714285714,114.37857142857142,546.0057142857142,114.37857142857142" fill="#ffffff" stroke="#000000" style="fill-opacity: 1; stroke-width: 1;"></polygon><text x="574.1428428571429" y="91.04534285714286" lengthAdjust="spacingAndGlyphs" textLength="35.2286" fill="#00121d" style="font-family: sans-serif; font-weight: bold; font-size: 64.052px;">3</text></g><g><polygon points="88.49142857142857,114.37857142857142,179.9942857142857,114.37857142857142,179.9942857142857,205.88142857142856,88.49142857142857,205.88142857142856" fill="#ffffff" stroke="#000000" style="fill-opacity: 1; stroke-width: 1;"></polygon></g><g><polygon points="179.9942857142857,114.37857142857142,271.4971428571428,114.37857142857142,271.4971428571428,205.88142857142856,179.9942857142857,205.88142857142856" fill="#ffffff" stroke="#000000" style="fill-opacity: 1; stroke-width: 1;"></polygon><text x="208.13141428571424" y="182.54819999999998" lengthAdjust="spacingAndGlyphs" textLength="35.2286" fill="#00121d" style="font-family: sans-serif; font-weight: bold; font-size: 64.052px;">3</text></g><g><polygon points="271.4971428571429,114.37857142857142,363,114.37857142857142,363,205.88142857142856,271.4971428571429,205.88142857142856" fill="#ffffff" stroke="#000000" style="fill-opacity: 1; stroke-width: 1;"></polygon></g><g><polygon points="363,114.37857142857142,454.5028571428571,114.37857142857142,454.5028571428571,205.88142857142856,363,205.88142857142856" fill="#ffffff" stroke="#000000" style="fill-opacity: 1; stroke-width: 1;"></polygon></g><g><polygon points="454.5028571428571,114.37857142857142,546.0057142857142,114.37857142857142,546.0057142857142,205.88142857142856,454.5028571428571,205.88142857142856" fill="#ffffff" stroke="#000000" style="fill-opacity: 1; stroke-width: 1;"></polygon></g><g><polygon points="546.0057142857142,114.37857142857142,637.5085714285714,114.37857142857142,637.5085714285714,205.88142857142856,546.0057142857142,205.88142857142856" fill="#ffffff" stroke="#000000" style="fill-opacity: 1; stroke-width: 1;"></polygon></g><g><polygon points="88.49142857142857,205.88142857142856,179.9942857142857,205.88142857142856,179.9942857142857,297.3842857142857,88.49142857142857,297.3842857142857" fill="#ffffff" stroke="#000000" style="fill-opacity: 1; stroke-width: 1;"></polygon></g><g><polygon points="179.9942857142857,205.88142857142856,271.4971428571428,205.88142857142856,271.4971428571428,297.3842857142857,179.9942857142857,297.3842857142857" fill="#ffffff" stroke="#000000" style="fill-opacity: 1; stroke-width: 1;"></polygon></g><g><polygon points="271.4971428571429,205.88142857142856,363,205.88142857142856,363,297.3842857142857,271.4971428571429,297.3842857142857" fill="#ffffff" stroke="#000000" style="fill-opacity: 1; stroke-width: 1;"></polygon><text x="299.6342714285714" y="274.05105714285713" lengthAdjust="spacingAndGlyphs" textLength="35.2286" fill="#00121d" style="font-family: sans-serif; font-weight: bold; font-size: 64.052px;">4</text></g><g><polygon points="363,205.88142857142856,454.5028571428571,205.88142857142856,454.5028571428571,297.3842857142857,363,297.3842857142857" fill="#ffffff" stroke="#000000" style="fill-opacity: 1; stroke-width: 1;"></polygon></g><g><polygon points="454.5028571428571,205.88142857142856,546.0057142857142,205.88142857142856,546.0057142857142,297.3842857142857,454.5028571428571,297.3842857142857" fill="#ffffff" stroke="#000000" style="fill-opacity: 1; stroke-width: 1;"></polygon></g><g><polygon points="546.0057142857142,205.88142857142856,637.5085714285714,205.88142857142856,637.5085714285714,297.3842857142857,546.0057142857142,297.3842857142857" fill="#ffffff" stroke="#000000" style="fill-opacity: 1; stroke-width: 1;"></polygon></g><g><polygon points="88.49142857142857,297.38428571428574,179.9942857142857,297.38428571428574,179.9942857142857,388.88714285714286,88.49142857142857,388.88714285714286" fill="#ffffff" stroke="#000000" style="fill-opacity: 1; stroke-width: 1;"></polygon></g><g><polygon points="179.9942857142857,297.38428571428574,271.4971428571428,297.38428571428574,271.4971428571428,388.88714285714286,179.9942857142857,388.88714285714286" fill="#ffffff" stroke="#000000" style="fill-opacity: 1; stroke-width: 1;"></polygon></g><g><polygon points="271.4971428571429,297.38428571428574,363,297.38428571428574,363,388.88714285714286,271.4971428571429,388.88714285714286" fill="#ffffff" stroke="#000000" style="fill-opacity: 1; stroke-width: 1;"></polygon></g><g><polygon points="363,297.38428571428574,454.5028571428571,297.38428571428574,454.5028571428571,388.88714285714286,363,388.88714285714286" fill="#ffffff" stroke="#000000" style="fill-opacity: 1; stroke-width: 1;"></polygon><text x="391.13712857142855" y="365.5539142857143" lengthAdjust="spacingAndGlyphs" textLength="35.2286" fill="#00121d" style="font-family: sans-serif; font-weight: bold; font-size: 64.052px;">5</text></g><g><polygon points="454.5028571428571,297.38428571428574,546.0057142857142,297.38428571428574,546.0057142857142,388.88714285714286,454.5028571428571,388.88714285714286" fill="#ffffff" stroke="#000000" style="fill-opacity: 1; stroke-width: 1;"></polygon></g><g><polygon points="546.0057142857142,297.38428571428574,637.5085714285714,297.38428571428574,637.5085714285714,388.88714285714286,546.0057142857142,388.88714285714286" fill="#ffffff" stroke="#000000" style="fill-opacity: 1; stroke-width: 1;"></polygon></g><g><polygon points="88.49142857142857,388.88714285714286,179.9942857142857,388.88714285714286,179.9942857142857,480.39,88.49142857142857,480.39" fill="#ffffff" stroke="#000000" style="fill-opacity: 1; stroke-width: 1;"></polygon></g><g><polygon points="179.9942857142857,388.88714285714286,271.4971428571428,388.88714285714286,271.4971428571428,480.39,179.9942857142857,480.39" fill="#ffffff" stroke="#000000" style="fill-opacity: 1; stroke-width: 1;"></polygon></g><g><polygon points="271.4971428571429,388.88714285714286,363,388.88714285714286,363,480.39,271.4971428571429,480.39" fill="#ffffff" stroke="#000000" style="fill-opacity: 1; stroke-width: 1;"></polygon></g><g><polygon points="363,388.88714285714286,454.5028571428571,388.88714285714286,454.5028571428571,480.39,363,480.39" fill="#ffffff" stroke="#000000" style="fill-opacity: 1; stroke-width: 1;"></polygon></g><g><polygon points="454.5028571428571,388.88714285714286,546.0057142857142,388.88714285714286,546.0057142857142,480.39,454.5028571428571,480.39" fill="#ffffff" stroke="#000000" style="fill-opacity: 1; stroke-width: 1;"></polygon><text x="482.6399857142857" y="457.05677142857144" lengthAdjust="spacingAndGlyphs" textLength="35.2286" fill="#00121d" style="font-family: sans-serif; font-weight: bold; font-size: 64.052px;">6</text></g><g><polygon points="546.0057142857142,388.88714285714286,637.5085714285714,388.88714285714286,637.5085714285714,480.39,546.0057142857142,480.39" fill="#ffffff" stroke="#000000" style="fill-opacity: 1; stroke-width: 1;"></polygon></g><g><polygon points="88.49142857142857,480.39,179.9942857142857,480.39,179.9942857142857,571.8928571428571,88.49142857142857,571.8928571428571" fill="#ffffff" stroke="#000000" style="fill-opacity: 1; stroke-width: 1;"></polygon></g><g><polygon points="179.9942857142857,480.39,271.4971428571428,480.39,271.4971428571428,571.8928571428571,179.9942857142857,571.8928571428571" fill="#ffffff" stroke="#000000" style="fill-opacity: 1; stroke-width: 1;"></polygon></g><g><polygon points="271.4971428571429,480.39,363,480.39,363,571.8928571428571,271.4971428571429,571.8928571428571" fill="#ffffff" stroke="#000000" style="fill-opacity: 1; stroke-width: 1;"></polygon></g><g><polygon points="363,480.39,454.5028571428571,480.39,454.5028571428571,571.8928571428571,363,571.8928571428571" fill="#ffffff" stroke="#000000" style="fill-opacity: 1; stroke-width: 1;"></polygon></g><g><polygon points="454.5028571428571,480.39,546.0057142857142,480.39,546.0057142857142,571.8928571428571,454.5028571428571,571.8928571428571" fill="#ffffff" stroke="#000000" style="fill-opacity: 1; stroke-width: 1;"></polygon></g><g><polygon points="546.0057142857142,480.39,637.5085714285714,480.39,637.5085714285714,571.8928571428571,546.0057142857142,571.8928571428571" fill="#ffffff" stroke="#000000" style="fill-opacity: 1; stroke-width: 1;"></polygon></g><g><polygon points="88.49142857142857,571.8928571428571,179.9942857142857,571.8928571428571,179.9942857142857,663.3957142857142,88.49142857142857,663.3957142857142" fill="#ffffff" stroke="#000000" style="fill-opacity: 1; stroke-width: 1;"></polygon></g><g><polygon points="179.9942857142857,571.8928571428571,271.4971428571428,571.8928571428571,271.4971428571428,663.3957142857142,179.9942857142857,663.3957142857142" fill="#ffffff" stroke="#000000" style="fill-opacity: 1; stroke-width: 1;"></polygon></g><g><polygon points="271.4971428571429,571.8928571428571,363,571.8928571428571,363,663.3957142857142,271.4971428571429,663.3957142857142" fill="#ffffff" stroke="#000000" style="fill-opacity: 1; stroke-width: 1;"></polygon></g><g><polygon points="363,571.8928571428571,454.5028571428571,571.8928571428571,454.5028571428571,663.3957142857142,363,663.3957142857142" fill="#ffffff" stroke="#000000" style="fill-opacity: 1; stroke-width: 1;"></polygon></g><g><polygon points="454.5028571428571,571.8928571428571,546.0057142857142,571.8928571428571,546.0057142857142,663.3957142857142,454.5028571428571,663.3957142857142" fill="#ffffff" stroke="#000000" style="fill-opacity: 1; stroke-width: 1;"></polygon></g><g><polygon points="546.0057142857142,571.8928571428571,637.5085714285714,571.8928571428571,637.5085714285714,663.3957142857142,546.0057142857142,663.3957142857142" fill="#ffffff" stroke="#000000" style="fill-opacity: 1; stroke-width: 1;"></polygon></g><g><line x1="88.49142857142857" x2="179.9942857142857" y1="22.875714285714285" y2="22.875714285714285" stroke="#000000" style="stroke-width: 10; stroke-linecap: round;"></line></g><g></g><g></g><g><line x1="88.49142857142857" x2="88.49142857142857" y1="114.37857142857142" y2="22.875714285714285" stroke="#000000" style="stroke-width: 10; stroke-linecap: round;"></line></g><g><line x1="179.9942857142857" x2="271.4971428571428" y1="22.875714285714285" y2="22.875714285714285" stroke="#000000" style="stroke-width: 10; stroke-linecap: round;"></line></g><g></g><g></g><g><line x1="271.4971428571429" x2="363" y1="22.875714285714285" y2="22.875714285714285" stroke="#000000" style="stroke-width: 10; stroke-linecap: round;"></line></g><g></g><g></g><g><line x1="363" x2="454.5028571428571" y1="22.875714285714285" y2="22.875714285714285" stroke="#000000" style="stroke-width: 10; stroke-linecap: round;"></line></g><g></g><g></g><g><line x1="454.5028571428571" x2="546.0057142857142" y1="22.875714285714285" y2="22.875714285714285" stroke="#000000" style="stroke-width: 10; stroke-linecap: round;"></line></g><g></g><g></g><g><line x1="546.0057142857142" x2="637.5085714285714" y1="22.875714285714285" y2="22.875714285714285" stroke="#000000" style="stroke-width: 10; stroke-linecap: round;"></line></g><g><line x1="637.5085714285714" x2="637.5085714285714" y1="22.875714285714285" y2="114.37857142857142" stroke="#000000" style="stroke-width: 10; stroke-linecap: round;"></line></g><g></g><g></g><g></g><g><line x1="88.49142857142857" x2="88.49142857142857" y1="205.88142857142856" y2="114.37857142857142" stroke="#000000" style="stroke-width: 10; stroke-linecap: round;"></line></g><g></g><g></g><g></g><g></g><g></g><g></g><g></g><g></g><g><line x1="637.5085714285714" x2="637.5085714285714" y1="114.37857142857142" y2="205.88142857142856" stroke="#000000" style="stroke-width: 10; stroke-linecap: round;"></line></g><g></g><g></g><g></g><g><line x1="88.49142857142857" x2="88.49142857142857" y1="297.3842857142857" y2="205.88142857142856" stroke="#000000" style="stroke-width: 10; stroke-linecap: round;"></line></g><g></g><g></g><g></g><g></g><g></g><g></g><g></g><g></g><g><line x1="637.5085714285714" x2="637.5085714285714" y1="205.88142857142856" y2="297.3842857142857" stroke="#000000" style="stroke-width: 10; stroke-linecap: round;"></line></g><g></g><g></g><g></g><g><line x1="88.49142857142857" x2="88.49142857142857" y1="388.88714285714286" y2="297.38428571428574" stroke="#000000" style="stroke-width: 10; stroke-linecap: round;"></line></g><g></g><g></g><g></g><g></g><g></g><g></g><g></g><g></g><g><line x1="637.5085714285714" x2="637.5085714285714" y1="297.38428571428574" y2="388.88714285714286" stroke="#000000" style="stroke-width: 10; stroke-linecap: round;"></line></g><g></g><g></g><g></g><g><line x1="88.49142857142857" x2="88.49142857142857" y1="480.39" y2="388.88714285714286" stroke="#000000" style="stroke-width: 10; stroke-linecap: round;"></line></g><g></g><g></g><g></g><g></g><g></g><g></g><g></g><g></g><g><line x1="637.5085714285714" x2="637.5085714285714" y1="388.88714285714286" y2="480.39" stroke="#000000" style="stroke-width: 10; stroke-linecap: round;"></line></g><g></g><g></g><g></g><g><line x1="88.49142857142857" x2="88.49142857142857" y1="571.8928571428571" y2="480.39" stroke="#000000" style="stroke-width: 10; stroke-linecap: round;"></line></g><g></g><g></g><g></g><g></g><g></g><g></g><g></g><g></g><g><line x1="637.5085714285714" x2="637.5085714285714" y1="480.39" y2="571.8928571428571" stroke="#000000" style="stroke-width: 10; stroke-linecap: round;"></line></g><g></g><g></g><g><line x1="179.9942857142857" x2="88.49142857142857" y1="663.3957142857142" y2="663.3957142857142" stroke="#000000" style="stroke-width: 10; stroke-linecap: round;"></line></g><g><line x1="88.49142857142857" x2="88.49142857142857" y1="663.3957142857142" y2="571.8928571428571" stroke="#000000" style="stroke-width: 10; stroke-linecap: round;"></line></g><g></g><g><line x1="271.4971428571428" x2="179.9942857142857" y1="663.3957142857142" y2="663.3957142857142" stroke="#000000" style="stroke-width: 10; stroke-linecap: round;"></line></g><g></g><g><line x1="363" x2="271.4971428571429" y1="663.3957142857142" y2="663.3957142857142" stroke="#000000" style="stroke-width: 10; stroke-linecap: round;"></line></g><g></g><g><line x1="454.5028571428571" x2="363" y1="663.3957142857142" y2="663.3957142857142" stroke="#000000" style="stroke-width: 10; stroke-linecap: round;"></line></g><g></g><g><line x1="546.0057142857142" x2="454.5028571428571" y1="663.3957142857142" y2="663.3957142857142" stroke="#000000" style="stroke-width: 10; stroke-linecap: round;"></line></g><g><line x1="637.5085714285714" x2="637.5085714285714" y1="571.8928571428571" y2="663.3957142857142" stroke="#000000" style="stroke-width: 10; stroke-linecap: round;"></line></g><g><line x1="637.5085714285714" x2="546.0057142857142" y1="663.3957142857142" y2="663.3957142857142" stroke="#000000" style="stroke-width: 10; stroke-linecap: round;"></line></g></svg>