<svg class="pb-2" id="Grid" style="overflow: visible; z-index: 90;" xmlns="http://www.w3.org/2000/svg" xmlns:xlink="http://www.w3.org/1999/xlink" height="680.5525" width="726" viewBox="0 0 726 680.5525">
  Sorry, but your browser is not supported. Try to setup the new version.
<desc>Created with Snap</desc><defs><filter id="Smhdjzkfko9" filterUnits="userSpaceOnUse"><feColorMatrix type="matrix" values="1 0 0 0 0 0 1 0 0 0 0 0 1 0 0 0 0 0 0.7 0"></feColorMatrix></filter><filter id="Smhdjzkfkob" filterUnits="userSpaceOnUse"><feColorMatrix type="matrix" values="-.17 -.17 -.17 0 1 -.22 -.22 -.22 0 1 -.33 -.33 -.33 0 1 0 0 0 1 0"></feColorMatrix></filter></defs><g><polygon points="42.74000000000001,13.344166666666666,96.11666666666667,13.344166666666666,96.11666666666667,66.72083333333333,42.74000000000001,66.72083333333333" fill="#ffffff" stroke="#000000" style="fill-opacity: 1; stroke-width: 1;"></polygon><text x="59.15332500000001" y="53.109783333333326" lengthAdjust="spacingAndGlyphs" textLength="20.550016666666664" fill="#075466" style="font-family: sans-serif; font-weight: bold; font-size: 37.3637px;">2</text></g><g><polygon points="96.11666666666667,13.344166666666666,149.49333333333334,13.344166666666666,149.49333333333334,66.72083333333333,96.11666666666667,66.72083333333333" fill="#ffffff" stroke="#000000" style="fill-opacity: 1; stroke-width: 1;"></polygon><text x="112.52999166666667" y="53.109783333333326" lengthAdjust="spacingAndGlyphs" textLength="20.550016666666664" fill="#075466" style="font-family: sans-serif; font-weight: bold; font-size: 37.3637px;">1</text></g><g><polygon points="149.49333333333334,13.344166666666666,202.87,13.344166666666666,202.87,66.72083333333333,149.49333333333334,66.72083333333333" fill="#ffffff" stroke="#000000" style="fill-opacity: 1; stroke-width: 1;"></polygon></g><g><polygon points="202.87,13.344166666666666,256.24666666666667,13.344166666666666,256.24666666666667,66.72083333333333,202.87,66.72083333333333" fill="#ffffff" stroke="#000000" style="fill-opacity: 1; stroke-width: 1;"></polygon></g><g><polygon points="256.24666666666667,13.344166666666666,309.62333333333333,13.344166666666666,309.62333333333333,66.72083333333333,256.24666666666667,66.72083333333333" fill="#ffffff" stroke="#000000" style="fill-opacity: 1; stroke-width: 1;"></polygon></g><g><polygon points="309.62333333333333,13.344166666666666,363,13.344166666666666,363,66.72083333333333,309.62333333333333,66.72083333333333" fill="#ffffff" stroke="#000000" style="fill-opacity: 1; stroke-width: 1;"></polygon><text x="326.0366583333333" y="53.109783333333326" lengthAdjust="spacingAndGlyphs" textLength="20.550016666666664" fill="#075466" style="font-family: sans-serif; font-weight: bold; font-size: 37.3637px;">3</text></g><g><polygon points="363,13.344166666666666,416.37666666666667,13.344166666666666,416.37666666666667,66.72083333333333,363,66.72083333333333" fill="#ffffff" stroke="#000000" style="fill-opacity: 1; stroke-width: 1;"></polygon><text x="379.413325" y="53.109783333333326" lengthAdjust="spacingAndGlyphs" textLength="20.550016666666664" fill="#075466" style="font-family: sans-serif; font-weight: bold; font-size: 37.3637px;">1</text></g><g><polygon points="416.37666666666667,13.344166666666666,469.75333333333333,13.344166666666666,469.75333333333333,66.72083333333333,416.37666666666667,66.72083333333333" fill="#ffffff" stroke="#000000" style="fill-opacity: 1; stroke-width: 1;"></polygon></g><g><polygon points="469.75333333333333,13.344166666666666,523.13,13.344166666666666,523.13,66.72083333333333,469.75333333333333,66.72083333333333" fill="#ffffff" stroke="#000000" style="fill-opacity: 1; stroke-width: 1;"></polygon></g><g><polygon points="523.13,13.344166666666666,576.5066666666667,13.344166666666666,576.5066666666667,66.72083333333333,523.13,66.72083333333333" fill="#ffffff" stroke="#000000" style="fill-opacity: 1; stroke-width: 1;"></polygon></g><g><polygon points="576.5066666666667,13.344166666666666,629.8833333333333,13.344166666666666,629.8833333333333,66.72083333333333,576.5066666666667,66.72083333333333" fill="#ffffff" stroke="#000000" style="fill-opacity: 1; stroke-width: 1;"></polygon></g><g><polygon points="629.8833333333333,13.344166666666666,683.26,13.344166666666666,683.26,66.72083333333333,629.8833333333333,66.72083333333333" fill="#ffffff" stroke="#000000" style="fill-opacity: 1; stroke-width: 1;"></polygon></g><g><polygon points="42.74000000000001,66.72083333333333,96.11666666666667,66.72083333333333,96.11666666666667,120.0975,42.74000000000001,120.0975" fill="#ffffff" stroke="#000000" style="fill-opacity: 1; stroke-width: 1;"></polygon></g><g><polygon points="96.11666666666667,66.72083333333333,149.49333333333334,66.72083333333333,149.49333333333334,120.0975,96.11666666666667,120.0975" fill="#ffffff" stroke="#000000" style="fill-opacity: 1; stroke-width: 1;"></polygon></g><g><polygon points="149.49333333333334,66.72083333333333,202.87,66.72083333333333,202.87,120.0975,149.49333333333334,120.0975" fill="#ffffff" stroke="#000000" style="fill-opacity: 1; stroke-width: 1;"></polygon></g><g><polygon points="202.87,66.72083333333333,256.24666666666667,66.72083333333333,256.24666666666667,120.0975,202.87,120.0975" fill="#ffffff" stroke="#000000" style="fill-opacity: 1; stroke-width: 1;"></polygon></g><g><polygon points="256.24666666666667,66.72083333333333,309.62333333333333,66.72083333333333,309.62333333333333,120.0975,256.24666666666667,120.0975" fill="#ffffff" stroke="#000000" style="fill-opacity: 1; stroke-width: 1;"></polygon></g><g><polygon points="309.62333333333333,66.72083333333333,363,66.72083333333333,363,120.0975,309.62333333333333,120.0975" fill="#ffffff" stroke="#000000" style="fill-opacity: 1; stroke-width: 1;"></polygon></g><g><polygon points="363,66.72083333333333,416.37666666666667,66.72083333333333,416.37666666666667,120.0975,363,120.0975" fill="#ffffff" stroke="#000000" style="fill-opacity: 1; stroke-width: 1;"></polygon></g><g><polygon points="416.37666666666667,66.72083333333333,469.75333333333333,66.72083333333333,469.75333333333333,120.0975,416.37666666666667,120.0975" fill="#ffffff" stroke="#000000" style="fill-opacity: 1; stroke-width: 1;"></polygon></g><g><polygon points="469.75333333333333,66.72083333333333,523.13,66.72083333333333,523.13,120.0975,469.75333333333333,120.0975" fill="#ffffff" stroke="#000000" style="fill-opacity: 1; stroke-width: 1;"></polygon></g><g><polygon points="523.13,66.72083333333333,576.5066666666667,66.72083333333333,576.5066666666667,120.0975,523.13,120.0975" fill="#ffffff" stroke="#000000" style="fill-opacity: 1; stroke-width: 1;"></polygon></g><g><polygon points="576.5066666666667,66.72083333333333,629.8833333333333,66.72083333333333,629.8833333333333,120.0975,576.5066666666667,120.0975" fill="#ffffff" stroke="#000000" style="fill-opacity: 1; stroke-width: 1;"></polygon></g><g><polygon points="629.8833333333333,66.72083333333333,683.26,66.72083333333333,683.26,120.0975,629.8833333333333,120.0975" fill="#ffffff" stroke="#000000" style="fill-opacity: 1; stroke-width: 1;"></polygon></g><g><polygon points="42.74000000000001,120.0975,96.11666666666667,120.0975,96.11666666666667,173.47416666666666,42.74000000000001,173.47416666666666" fill="#ffffff" stroke="#000000" style="fill-opacity: 1; stroke-width: 1;"></polygon></g><g><polygon points="96.11666666666667,120.0975,149.49333333333334,120.0975,149.49333333333334,173.47416666666666,96.11666666666667,173.47416666666666" fill="#ffffff" stroke="#000000" style="fill-opacity: 1; stroke-width: 1;"></polygon></g><g><polygon points="149.49333333333334,120.0975,202.87,120.0975,202.87,173.47416666666666,149.49333333333334,173.47416666666666" fill="#ffffff" stroke="#000000" style="fill-opacity: 1; stroke-width: 1;"></polygon><text x="165.90665833333333" y="159.86311666666666" lengthAdjust="spacingAndGlyphs" textLength="20.550016666666664" fill="#075466" style="font-family: sans-serif; font-weight: bold; font-size: 37.3637px;">2</text></g><g><polygon points="202.87,120.0975,256.24666666666667,120.0975,256.24666666666667,173.47416666666666,202.87,173.47416666666666" fill="#ffffff" stroke="#000000" style="fill-opacity: 1; stroke-width: 1;"></polygon><text x="219.283325" y="159.86311666666666" lengthAdjust="spacingAndGlyphs" textLength="20.550016666666664" fill="#075466" style="font-family: sans-serif; font-weight: bold; font-size: 37.3637px;">2</text></g><g><polygon points="256.24666666666667,120.0975,309.62333333333333,120.0975,309.62333333333333,173.47416666666666,256.24666666666667,173.47416666666666" fill="#ffffff" stroke="#000000" style="fill-opacity: 1; stroke-width: 1;"></polygon></g><g><polygon points="309.62333333333333,120.0975,363,120.0975,363,173.47416666666666,309.62333333333333,173.47416666666666" fill="#ffffff" stroke="#000000" style="fill-opacity: 1; stroke-width: 1;"></polygon></g><g><polygon points="363,120.0975,416.37666666666667,120.0975,416.37666666666667,173.47416666666666,363,173.47416666666666" fill="#ffffff" stroke="#000000" style="fill-opacity: 1; stroke-width: 1;"></polygon></g><g><polygon points="416.37666666666667,120.0975,469.75333333333333,120.0975,469.75333333333333,173.47416666666666,416.37666666666667,173.47416666666666" fill="#ffffff" stroke="#000000" style="fill-opacity: 1; stroke-width: 1;"></polygon></g><g><polygon points="469.75333333333333,120.0975,523.13,120.0975,523.13,173.47416666666666,469.75333333333333,173.47416666666666" fill="#ffffff" stroke="#000000" style="fill-opacity: 1; stroke-width: 1;"></polygon><text x="486.1666583333333" y="159.86311666666666" lengthAdjust="spacingAndGlyphs" textLength="20.550016666666664" fill="#075466" style="font-family: sans-serif; font-weight: bold; font-size: 37.3637px;">3</text></g><g><polygon points="523.13,120.0975,576.5066666666667,120.0975,576.5066666666667,173.47416666666666,523.13,173.47416666666666" fill="#ffffff" stroke="#000000" style="fill-opacity: 1; stroke-width: 1;"></polygon><text x="539.5433250000001" y="159.86311666666666" lengthAdjust="spacingAndGlyphs" textLength="20.550016666666664" fill="#075466" style="font-family: sans-serif; font-weight: bold; font-size: 37.3637px;">2</text></g><g><polygon points="576.5066666666667,120.0975,629.8833333333333,120.0975,629.8833333333333,173.47416666666666,576.5066666666667,173.47416666666666" fill="#ffffff" stroke="#000000" style="fill-opacity: 1; stroke-width: 1;"></polygon></g><g><polygon points="629.8833333333333,120.0975,683.26,120.0975,683.26,173.47416666666666,629.8833333333333,173.47416666666666" fill="#ffffff" stroke="#000000" style="fill-opacity: 1; stroke-width: 1;"></polygon></g><g><polygon points="42.74000000000001,173.47416666666666,96.11666666666667,173.47416666666666,96.11666666666667,226.85083333333333,42.74000000000001,226.85083333333333" fill="#ffffff" stroke="#000000" style="fill-opacity: 1; stroke-width: 1;"></polygon></g><g><polygon points="96.11666666666667,173.47416666666666,149.49333333333334,173.47416666666666,149.49333333333334,226.85083333333333,96.11666666666667,226.85083333333333" fill="#ffffff" stroke="#000000" style="fill-opacity: 1; stroke-width: 1;"></polygon></g><g><polygon points="149.49333333333334,173.47416666666666,202.87,173.47416666666666,202.87,226.85083333333333,149.49333333333334,226.85083333333333" fill="#ffffff" stroke="#000000" style="fill-opacity: 1; stroke-width: 1;"></polygon></g><g><polygon points="202.87,173.47416666666666,256.24666666666667,173.47416666666666,256.24666666666667,226.85083333333333,202.87,226.85083333333333" fill="#ffffff" stroke="#000000" style="fill-opacity: 1; stroke-width: 1;"></polygon></g><g><polygon points="256.24666666666667,173.47416666666666,309.62333333333333,173.47416666666666,309.62333333333333,226.85083333333333,256.24666666666667,226.85083333333333" fill="#ffffff" stroke="#000000" style="fill-opacity: 1; stroke-width: 1;"></polygon></g><g><polygon points="309.62333333333333,173.47416666666666,363,173.47416666666666,363,226.85083333333333,309.62333333333333,226.85083333333333" fill="#ffffff" stroke="#000000" style="fill-opacity: 1; stroke-width: 1;"></polygon></g><g><polygon points="363,173.47416666666666,416.37666666666667,173.47416666666666,416.37666666666667,226.85083333333333,363,226.85083333333333" fill="#ffffff" stroke="#000000" style="fill-opacity: 1; stroke-width: 1;"></polygon></g><g><polygon points="416.37666666666667,173.47416666666666,469.75333333333333,173.47416666666666,469.75333333333333,226.85083333333333,416.37666666666667,226.85083333333333" fill="#ffffff" stroke="#000000" style="fill-opacity: 1; stroke-width: 1;"></polygon></g><g><polygon points="469.75333333333333,173.47416666666666,523.13,173.47416666666666,523.13,226.85083333333333,469.75333333333333,226.85083333333333" fill="#ffffff" stroke="#000000" style="fill-opacity: 1; stroke-width: 1;"></polygon></g><g><polygon points="523.13,173.47416666666666,576.5066666666667,173.47416666666666,576.5066666666667,226.85083333333333,523.13,226.85083333333333" fill="#ffffff" stroke="#000000" style="fill-opacity: 1; stroke-width: 1;"></polygon></g><g><polygon points="576.5066666666667,173.47416666666666,629.8833333333333,173.47416666666666,629.8833333333333,226.85083333333333,576.5066666666667,226.85083333333333" fill="#ffffff" stroke="#000000" style="fill-opacity: 1; stroke-width: 1;"></polygon></g><g><polygon points="629.8833333333333,173.47416666666666,683.26,173.47416666666666,683.26,226.85083333333333,629.8833333333333,226.85083333333333" fill="#ffffff" stroke="#000000" style="fill-opacity: 1; stroke-width: 1;"></polygon></g><g><polygon points="42.74000000000001,226.85083333333333,96.11666666666667,226.85083333333333,96.11666666666667,280.22749999999996,42.74000000000001,280.22749999999996" fill="#ffffff" stroke="#000000" style="fill-opacity: 1; stroke-width: 1;"></polygon><text x="59.15332500000001" y="266.61645" lengthAdjust="spacingAndGlyphs" textLength="20.550016666666664" fill="#075466" style="font-family: sans-serif; font-weight: bold; font-size: 37.3637px;">3</text></g><g><polygon points="96.11666666666667,226.85083333333333,149.49333333333334,226.85083333333333,149.49333333333334,280.22749999999996,96.11666666666667,280.22749999999996" fill="#ffffff" stroke="#000000" style="fill-opacity: 1; stroke-width: 1;"></polygon><text x="112.52999166666667" y="266.61645" lengthAdjust="spacingAndGlyphs" textLength="20.550016666666664" fill="#075466" style="font-family: sans-serif; font-weight: bold; font-size: 37.3637px;">1</text></g><g><polygon points="149.49333333333334,226.85083333333333,202.87,226.85083333333333,202.87,280.22749999999996,149.49333333333334,280.22749999999996" fill="#ffffff" stroke="#000000" style="fill-opacity: 1; stroke-width: 1;"></polygon></g><g><polygon points="202.87,226.85083333333333,256.24666666666667,226.85083333333333,256.24666666666667,280.22749999999996,202.87,280.22749999999996" fill="#ffffff" stroke="#000000" style="fill-opacity: 1; stroke-width: 1;"></polygon></g><g><polygon points="256.24666666666667,226.85083333333333,309.62333333333333,226.85083333333333,309.62333333333333,280.22749999999996,256.24666666666667,280.22749999999996" fill="#ffffff" stroke="#000000" style="fill-opacity: 1; stroke-width: 1;"></polygon></g><g><polygon points="309.62333333333333,226.85083333333333,363,226.85083333333333,363,280.22749999999996,309.62333333333333,280.22749999999996" fill="#ffffff" stroke="#000000" style="fill-opacity: 1; stroke-width: 1;"></polygon></g><g><polygon points="363,226.85083333333333,416.37666666666667,226.85083333333333,416.37666666666667,280.22749999999996,363,280.22749999999996" fill="#ffffff" stroke="#000000" style="fill-opacity: 1; stroke-width: 1;"></polygon></g><g><polygon points="416.37666666666667,226.85083333333333,469.75333333333333,226.85083333333333,469.75333333333333,280.22749999999996,416.37666666666667,280.22749999999996" fill="#ffffff" stroke="#000000" style="fill-opacity: 1; stroke-width: 1;"></polygon></g><g><polygon points="469.75333333333333,226.85083333333333,523.13,226.85083333333333,523.13,280.22749999999996,469.75333333333333,280.22749999999996" fill="#ffffff" stroke="#000000" style="fill-opacity: 1; stroke-width: 1;"></polygon><text x="486.1666583333333" y="266.61645" lengthAdjust="spacingAndGlyphs" textLength="20.550016666666664" fill="#075466" style="font-family: sans-serif; font-weight: bold; font-size: 37.3637px;">2</text></g><g><polygon points="523.13,226.85083333333333,576.5066666666667,226.85083333333333,576.5066666666667,280.22749999999996,523.13,280.22749999999996" fill="#ffffff" stroke="#000000" style="fill-opacity: 1; stroke-width: 1;"></polygon><text x="539.5433250000001" y="266.61645" lengthAdjust="spacingAndGlyphs" textLength="20.550016666666664" fill="#075466" style="font-family: sans-serif; font-weight: bold; font-size: 37.3637px;">2</text></g><g><polygon points="576.5066666666667,226.85083333333333,629.8833333333333,226.85083333333333,629.8833333333333,280.22749999999996,576.5066666666667,280.22749999999996" fill="#ffffff" stroke="#000000" style="fill-opacity: 1; stroke-width: 1;"></polygon></g><g><polygon points="629.8833333333333,226.85083333333333,683.26,226.85083333333333,683.26,280.22749999999996,629.8833333333333,280.22749999999996" fill="#ffffff" stroke="#000000" style="fill-opacity: 1; stroke-width: 1;"></polygon></g><g><polygon points="42.74000000000001,280.22749999999996,96.11666666666667,280.22749999999996,96.11666666666667,333.60416666666663,42.74000000000001,333.60416666666663" fill="#ffffff" stroke="#000000" style="fill-opacity: 1; stroke-width: 1;"></polygon></g><g><polygon points="96.11666666666667,280.22749999999996,149.49333333333334,280.22749999999996,149.49333333333334,333.60416666666663,96.11666666666667,333.60416666666663" fill="#ffffff" stroke="#000000" style="fill-opacity: 1; stroke-width: 1;"></polygon></g><g><polygon points="149.49333333333334,280.22749999999996,202.87,280.22749999999996,202.87,333.60416666666663,149.49333333333334,333.60416666666663" fill="#ffffff" stroke="#000000" style="fill-opacity: 1; stroke-width: 1;"></polygon></g><g><polygon points="202.87,280.22749999999996,256.24666666666667,280.22749999999996,256.24666666666667,333.60416666666663,202.87,333.60416666666663" fill="#ffffff" stroke="#000000" style="fill-opacity: 1; stroke-width: 1;"></polygon></g><g><polygon points="256.24666666666667,280.22749999999996,309.62333333333333,280.22749999999996,309.62333333333333,333.60416666666663,256.24666666666667,333.60416666666663" fill="#ffffff" stroke="#000000" style="fill-opacity: 1; stroke-width: 1;"></polygon></g><g><polygon points="309.62333333333333,280.22749999999996,363,280.22749999999996,363,333.60416666666663,309.62333333333333,333.60416666666663" fill="#ffffff" stroke="#000000" style="fill-opacity: 1; stroke-width: 1;"></polygon><text x="326.0366583333333" y="319.99311666666665" lengthAdjust="spacingAndGlyphs" textLength="20.550016666666664" fill="#075466" style="font-family: sans-serif; font-weight: bold; font-size: 37.3637px;">3</text></g><g><polygon points="363,280.22749999999996,416.37666666666667,280.22749999999996,416.37666666666667,333.60416666666663,363,333.60416666666663" fill="#ffffff" stroke="#000000" style="fill-opacity: 1; stroke-width: 1;"></polygon><text x="379.413325" y="319.99311666666665" lengthAdjust="spacingAndGlyphs" textLength="20.550016666666664" fill="#075466" style="font-family: sans-serif; font-weight: bold; font-size: 37.3637px;">3</text></g><g><polygon points="416.37666666666667,280.22749999999996,469.75333333333333,280.22749999999996,469.75333333333333,333.60416666666663,416.37666666666667,333.60416666666663" fill="#ffffff" stroke="#000000" style="fill-opacity: 1; stroke-width: 1;"></polygon></g><g><polygon points="469.75333333333333,280.22749999999996,523.13,280.22749999999996,523.13,333.60416666666663,469.75333333333333,333.60416666666663" fill="#ffffff" stroke="#000000" style="fill-opacity: 1; stroke-width: 1;"></polygon></g><g><polygon points="523.13,280.22749999999996,576.5066666666667,280.22749999999996,576.5066666666667,333.60416666666663,523.13,333.60416666666663" fill="#ffffff" stroke="#000000" style="fill-opacity: 1; stroke-width: 1;"></polygon></g><g><polygon points="576.5066666666667,280.22749999999996,629.8833333333333,280.22749999999996,629.8833333333333,333.60416666666663,576.5066666666667,333.60416666666663" fill="#ffffff" stroke="#000000" style="fill-opacity: 1; stroke-width: 1;"></polygon></g><g><polygon points="629.8833333333333,280.22749999999996,683.26,280.22749999999996,683.26,333.60416666666663,629.8833333333333,333.60416666666663" fill="#ffffff" stroke="#000000" style="fill-opacity: 1; stroke-width: 1;"></polygon></g><g><polygon points="42.74000000000001,333.60416666666663,96.11666666666667,333.60416666666663,96.11666666666667,386.9808333333333,42.74000000000001,386.9808333333333" fill="#ffffff" stroke="#000000" style="fill-opacity: 1; stroke-width: 1;"></polygon></g><g><polygon points="96.11666666666667,333.60416666666663,149.49333333333334,333.60416666666663,149.49333333333334,386.9808333333333,96.11666666666667,386.9808333333333" fill="#ffffff" stroke="#000000" style="fill-opacity: 1; stroke-width: 1;"></polygon><text x="112.52999166666667" y="373.3697833333333" lengthAdjust="spacingAndGlyphs" textLength="20.550016666666664" fill="#075466" style="font-family: sans-serif; font-weight: bold; font-size: 37.3637px;">3</text></g><g><polygon points="149.49333333333334,333.60416666666663,202.87,333.60416666666663,202.87,386.9808333333333,149.49333333333334,386.9808333333333" fill="#ffffff" stroke="#000000" style="fill-opacity: 1; stroke-width: 1;"></polygon><text x="165.90665833333333" y="373.3697833333333" lengthAdjust="spacingAndGlyphs" textLength="20.550016666666664" fill="#075466" style="font-family: sans-serif; font-weight: bold; font-size: 37.3637px;">2</text></g><g><polygon points="202.87,333.60416666666663,256.24666666666667,333.60416666666663,256.24666666666667,386.9808333333333,202.87,386.9808333333333" fill="#ffffff" stroke="#000000" style="fill-opacity: 1; stroke-width: 1;"></polygon></g><g><polygon points="256.24666666666667,333.60416666666663,309.62333333333333,333.60416666666663,309.62333333333333,386.9808333333333,256.24666666666667,386.9808333333333" fill="#ffffff" stroke="#000000" style="fill-opacity: 1; stroke-width: 1;"></polygon></g><g><polygon points="309.62333333333333,333.60416666666663,363,333.60416666666663,363,386.9808333333333,309.62333333333333,386.9808333333333" fill="#ffffff" stroke="#000000" style="fill-opacity: 1; stroke-width: 1;"></polygon></g><g><polygon points="363,333.60416666666663,416.37666666666667,333.60416666666663,416.37666666666667,386.9808333333333,363,386.9808333333333" fill="#ffffff" stroke="#000000" style="fill-opacity: 1; stroke-width: 1;"></polygon></g><g><polygon points="416.37666666666667,333.60416666666663,469.75333333333333,333.60416666666663,469.75333333333333,386.9808333333333,416.37666666666667,386.9808333333333" fill="#ffffff" stroke="#000000" style="fill-opacity: 1; stroke-width: 1;"></polygon></g><g><polygon points="469.75333333333333,333.60416666666663,523.13,333.60416666666663,523.13,386.9808333333333,469.75333333333333,386.9808333333333" fill="#ffffff" stroke="#000000" style="fill-opacity: 1; stroke-width: 1;"></polygon></g><g><polygon points="523.13,333.60416666666663,576.5066666666667,333.60416666666663,576.5066666666667,386.9808333333333,523.13,386.9808333333333" fill="#ffffff" stroke="#000000" style="fill-opacity: 1; stroke-width: 1;"></polygon></g><g><polygon points="576.5066666666667,333.60416666666663,629.8833333333333,333.60416666666663,629.8833333333333,386.9808333333333,576.5066666666667,386.9808333333333" fill="#ffffff" stroke="#000000" style="fill-opacity: 1; stroke-width: 1;"></polygon><text x="592.9199916666666" y="373.3697833333333" lengthAdjust="spacingAndGlyphs" textLength="20.550016666666664" fill="#075466" style="font-family: sans-serif; font-weight: bold; font-size: 37.3637px;">1</text></g><g><polygon points="629.8833333333333,333.60416666666663,683.26,333.60416666666663,683.26,386.9808333333333,629.8833333333333,386.9808333333333" fill="#ffffff" stroke="#000000" style="fill-opacity: 1; stroke-width: 1;"></polygon><text x="646.2966583333334" y="373.3697833333333" lengthAdjust="spacingAndGlyphs" textLength="20.550016666666664" fill="#075466" style="font-family: sans-serif; font-weight: bold; font-size: 37.3637px;">3</text></g><g><polygon points="42.74000000000001,386.9808333333333,96.11666666666667,386.9808333333333,96.11666666666667,440.35749999999996,42.74000000000001,440.35749999999996" fill="#ffffff" stroke="#000000" style="fill-opacity: 1; stroke-width: 1;"></polygon></g><g><polygon points="96.11666666666667,386.9808333333333,149.49333333333334,386.9808333333333,149.49333333333334,440.35749999999996,96.11666666666667,440.35749999999996" fill="#ffffff" stroke="#000000" style="fill-opacity: 1; stroke-width: 1;"></polygon></g><g><polygon points="149.49333333333334,386.9808333333333,202.87,386.9808333333333,202.87,440.35749999999996,149.49333333333334,440.35749999999996" fill="#ffffff" stroke="#000000" style="fill-opacity: 1; stroke-width: 1;"></polygon></g><g><polygon points="202.87,386.9808333333333,256.24666666666667,386.9808333333333,256.24666666666667,440.35749999999996,202.87,440.35749999999996" fill="#ffffff" stroke="#000000" style="fill-opacity: 1; stroke-width: 1;"></polygon></g><g><polygon points="256.24666666666667,386.9808333333333,309.62333333333333,386.9808333333333,309.62333333333333,440.35749999999996,256.24666666666667,440.35749999999996" fill="#ffffff" stroke="#000000" style="fill-opacity: 1; stroke-width: 1;"></polygon><text x="272.65999166666666" y="426.74645" lengthAdjust="spacingAndGlyphs" textLength="20.550016666666664" fill="#075466" style="font-family: sans-serif; font-weight: bold; font-size: 37.3637px;">2</text></g><g><polygon points="309.62333333333333,386.9808333333333,363,386.9808333333333,363,440.35749999999996,309.62333333333333,440.35749999999996" fill="#ffffff" stroke="#000000" style="fill-opacity: 1; stroke-width: 1;"></polygon><text x="326.0366583333333" y="426.74645" lengthAdjust="spacingAndGlyphs" textLength="20.550016666666664" fill="#075466" style="font-family: sans-serif; font-weight: bold; font-size: 37.3637px;">2</text></g><g><polygon points="363,386.9808333333333,416.37666666666667,386.9808333333333,416.37666666666667,440.35749999999996,363,440.35749999999996" fill="#ffffff" stroke="#000000" style="fill-opacity: 1; stroke-width: 1;"></polygon></g><g><polygon points="416.37666666666667,386.9808333333333,469.75333333333333,386.9808333333333,469.75333333333333,440.35749999999996,416.37666666666667,440.35749999999996" fill="#ffffff" stroke="#000000" style="fill-opacity: 1; stroke-width: 1;"></polygon></g><g><polygon points="469.75333333333333,386.9808333333333,523.13,386.9808333333333,523.13,440.35749999999996,469.75333333333333,440.35749999999996" fill="#ffffff" stroke="#000000" style="fill-opacity: 1; stroke-width: 1;"></polygon><text x="486.1666583333333" y="426.74645" lengthAdjust="spacingAndGlyphs" textLength="20.550016666666664" fill="#075466" style="font-family: sans-serif; font-weight: bold; font-size: 37.3637px;">3</text></g><g><polygon points="523.13,386.9808333333333,576.5066666666667,386.9808333333333,576.5066666666667,440.35749999999996,523.13,440.35749999999996" fill="#ffffff" stroke="#000000" style="fill-opacity: 1; stroke-width: 1;"></polygon><text x="539.5433250000001" y="426.74645" lengthAdjust="spacingAndGlyphs" textLength="20.550016666666664" fill="#075466" style="font-family: sans-serif; font-weight: bold; font-size: 37.3637px;">2</text></g><g><polygon points="576.5066666666667,386.9808333333333,629.8833333333333,386.9808333333333,629.8833333333333,440.35749999999996,576.5066666666667,440.35749999999996" fill="#ffffff" stroke="#000000" style="fill-opacity: 1; stroke-width: 1;"></polygon></g><g><polygon points="629.8833333333333,386.9808333333333,683.26,386.9808333333333,683.26,440.35749999999996,629.8833333333333,440.35749999999996" fill="#ffffff" stroke="#000000" style="fill-opacity: 1; stroke-width: 1;"></polygon></g><g><polygon points="42.74000000000001,440.35749999999996,96.11666666666667,440.35749999999996,96.11666666666667,493.7341666666666,42.74000000000001,493.7341666666666" fill="#ffffff" stroke="#000000" style="fill-opacity: 1; stroke-width: 1;"></polygon></g><g><polygon points="96.11666666666667,440.35749999999996,149.49333333333334,440.35749999999996,149.49333333333334,493.7341666666666,96.11666666666667,493.7341666666666" fill="#ffffff" stroke="#000000" style="fill-opacity: 1; stroke-width: 1;"></polygon></g><g><polygon points="149.49333333333334,440.35749999999996,202.87,440.35749999999996,202.87,493.7341666666666,149.49333333333334,493.7341666666666" fill="#ffffff" stroke="#000000" style="fill-opacity: 1; stroke-width: 1;"></polygon></g><g><polygon points="202.87,440.35749999999996,256.24666666666667,440.35749999999996,256.24666666666667,493.7341666666666,202.87,493.7341666666666" fill="#ffffff" stroke="#000000" style="fill-opacity: 1; stroke-width: 1;"></polygon></g><g><polygon points="256.24666666666667,440.35749999999996,309.62333333333333,440.35749999999996,309.62333333333333,493.7341666666666,256.24666666666667,493.7341666666666" fill="#ffffff" stroke="#000000" style="fill-opacity: 1; stroke-width: 1;"></polygon></g><g><polygon points="309.62333333333333,440.35749999999996,363,440.35749999999996,363,493.7341666666666,309.62333333333333,493.7341666666666" fill="#ffffff" stroke="#000000" style="fill-opacity: 1; stroke-width: 1;"></polygon></g><g><polygon points="363,440.35749999999996,416.37666666666667,440.35749999999996,416.37666666666667,493.7341666666666,363,493.7341666666666" fill="#ffffff" stroke="#000000" style="fill-opacity: 1; stroke-width: 1;"></polygon></g><g><polygon points="416.37666666666667,440.35749999999996,469.75333333333333,440.35749999999996,469.75333333333333,493.7341666666666,416.37666666666667,493.7341666666666" fill="#ffffff" stroke="#000000" style="fill-opacity: 1; stroke-width: 1;"></polygon></g><g><polygon points="469.75333333333333,440.35749999999996,523.13,440.35749999999996,523.13,493.7341666666666,469.75333333333333,493.7341666666666" fill="#ffffff" stroke="#000000" style="fill-opacity: 1; stroke-width: 1;"></polygon></g><g><polygon points="523.13,440.35749999999996,576.5066666666667,440.35749999999996,576.5066666666667,493.7341666666666,523.13,493.7341666666666" fill="#ffffff" stroke="#000000" style="fill-opacity: 1; stroke-width: 1;"></polygon></g><g><polygon points="576.5066666666667,440.35749999999996,629.8833333333333,440.35749999999996,629.8833333333333,493.7341666666666,576.5066666666667,493.7341666666666" fill="#ffffff" stroke="#000000" style="fill-opacity: 1; stroke-width: 1;"></polygon></g><g><polygon points="629.8833333333333,440.35749999999996,683.26,440.35749999999996,683.26,493.7341666666666,629.8833333333333,493.7341666666666" fill="#ffffff" stroke="#000000" style="fill-opacity: 1; stroke-width: 1;"></polygon></g><g><polygon points="42.74000000000001,493.7341666666666,96.11666666666667,493.7341666666666,96.11666666666667,547.1108333333333,42.74000000000001,547.1108333333333" fill="#ffffff" stroke="#000000" style="fill-opacity: 1; stroke-width: 1;"></polygon></g><g><polygon points="96.11666666666667,493.7341666666666,149.49333333333334,493.7341666666666,149.49333333333334,547.1108333333333,96.11666666666667,547.1108333333333" fill="#ffffff" stroke="#000000" style="fill-opacity: 1; stroke-width: 1;"></polygon></g><g><polygon points="149.49333333333334,493.7341666666666,202.87,493.7341666666666,202.87,547.1108333333333,149.49333333333334,547.1108333333333" fill="#ffffff" stroke="#000000" style="fill-opacity: 1; stroke-width: 1;"></polygon></g><g><polygon points="202.87,493.7341666666666,256.24666666666667,493.7341666666666,256.24666666666667,547.1108333333333,202.87,547.1108333333333" fill="#ffffff" stroke="#000000" style="fill-opacity: 1; stroke-width: 1;"></polygon></g><g><polygon points="256.24666666666667,493.7341666666666,309.62333333333333,493.7341666666666,309.62333333333333,547.1108333333333,256.24666666666667,547.1108333333333" fill="#ffffff" stroke="#000000" style="fill-opacity: 1; stroke-width: 1;"></polygon><text x="272.65999166666666" y="533.4997833333332" lengthAdjust="spacingAndGlyphs" textLength="20.550016666666664" fill="#075466" style="font-family: sans-serif; font-weight: bold; font-size: 37.3637px;">2</text></g><g><polygon points="309.62333333333333,493.7341666666666,363,493.7341666666666,363,547.1108333333333,309.62333333333333,547.1108333333333" fill="#ffffff" stroke="#000000" style="fill-opacity: 1; stroke-width: 1;"></polygon><text x="326.0366583333333" y="533.4997833333332" lengthAdjust="spacingAndGlyphs" textLength="20.550016666666664" fill="#075466" style="font-family: sans-serif; font-weight: bold; font-size: 37.3637px;">1</text></g><g><polygon points="363,493.7341666666666,416.37666666666667,493.7341666666666,416.37666666666667,547.1108333333333,363,547.1108333333333" fill="#ffffff" stroke="#000000" style="fill-opacity: 1; stroke-width: 1;"></polygon></g><g><polygon points="416.37666666666667,493.7341666666666,469.75333333333333,493.7341666666666,469.75333333333333,547.1108333333333,416.37666666666667,547.1108333333333" fill="#ffffff" stroke="#000000" style="fill-opacity: 1; stroke-width: 1;"></polygon></g><g><polygon points="469.75333333333333,493.7341666666666,523.13,493.7341666666666,523.13,547.1108333333333,469.75333333333333,547.1108333333333" fill="#ffffff" stroke="#000000" style="fill-opacity: 1; stroke-width: 1;"></polygon></g><g><polygon points="523.13,493.7341666666666,576.5066666666667,493.7341666666666,576.5066666666667,547.1108333333333,523.13,547.1108333333333" fill="#ffffff" stroke="#000000" style="fill-opacity: 1; stroke-width: 1;"></polygon></g><g><polygon points="576.5066666666667,493.7341666666666,629.8833333333333,493.7341666666666,629.8833333333333,547.1108333333333,576.5066666666667,547.1108333333333" fill="#ffffff" stroke="#000000" style="fill-opacity: 1; stroke-width: 1;"></polygon></g><g><polygon points="629.8833333333333,493.7341666666666,683.26,493.7341666666666,683.26,547.1108333333333,629.8833333333333,547.1108333333333" fill="#ffffff" stroke="#000000" style="fill-opacity: 1; stroke-width: 1;"></polygon></g><g><polygon points="42.74000000000001,547.1108333333333,96.11666666666667,547.1108333333333,96.11666666666667,600.4875,42.74000000000001,600.4875" fill="#ffffff" stroke="#000000" style="fill-opacity: 1; stroke-width: 1;"></polygon><text x="59.15332500000001" y="586.87645" lengthAdjust="spacingAndGlyphs" textLength="20.550016666666664" fill="#075466" style="font-family: sans-serif; font-weight: bold; font-size: 37.3637px;">3</text></g><g><polygon points="96.11666666666667,547.1108333333333,149.49333333333334,547.1108333333333,149.49333333333334,600.4875,96.11666666666667,600.4875" fill="#ffffff" stroke="#000000" style="fill-opacity: 1; stroke-width: 1;"></polygon><text x="112.52999166666667" y="586.87645" lengthAdjust="spacingAndGlyphs" textLength="20.550016666666664" fill="#075466" style="font-family: sans-serif; font-weight: bold; font-size: 37.3637px;">0</text></g><g><polygon points="149.49333333333334,547.1108333333333,202.87,547.1108333333333,202.87,600.4875,149.49333333333334,600.4875" fill="#ffffff" stroke="#000000" style="fill-opacity: 1; stroke-width: 1;"></polygon></g><g><polygon points="202.87,547.1108333333333,256.24666666666667,547.1108333333333,256.24666666666667,600.4875,202.87,600.4875" fill="#ffffff" stroke="#000000" style="fill-opacity: 1; stroke-width: 1;"></polygon></g><g><polygon points="256.24666666666667,547.1108333333333,309.62333333333333,547.1108333333333,309.62333333333333,600.4875,256.24666666666667,600.4875" fill="#ffffff" stroke="#000000" style="fill-opacity: 1; stroke-width: 1;"></polygon></g><g><polygon points="309.62333333333333,547.1108333333333,363,547.1108333333333,363,600.4875,309.62333333333333,600.4875" fill="#ffffff" stroke="#000000" style="fill-opacity: 1; stroke-width: 1;"></polygon></g><g><polygon points="363,547.1108333333333,416.37666666666667,547.1108333333333,416.37666666666667,600.4875,363,600.4875" fill="#ffffff" stroke="#000000" style="fill-opacity: 1; stroke-width: 1;"></polygon></g><g><polygon points="416.37666666666667,547.1108333333333,469.75333333333333,547.1108333333333,469.75333333333333,600.4875,416.37666666666667,600.4875" fill="#ffffff" stroke="#000000" style="fill-opacity: 1; stroke-width: 1;"></polygon></g><g><polygon points="469.75333333333333,547.1108333333333,523.13,547.1108333333333,523.13,600.4875,469.75333333333333,600.4875" fill="#ffffff" stroke="#000000" style="fill-opacity: 1; stroke-width: 1;"></polygon></g><g><polygon points="523.13,547.1108333333333,576.5066666666667,547.1108333333333,576.5066666666667,600.4875,523.13,600.4875" fill="#ffffff" stroke="#000000" style="fill-opacity: 1; stroke-width: 1;"></polygon><text x="539.5433250000001" y="586.87645" lengthAdjust="spacingAndGlyphs" textLength="20.550016666666664" fill="#075466" style="font-family: sans-serif; font-weight: bold; font-size: 37.3637px;">3</text></g><g><polygon points="576.5066666666667,547.1108333333333,629.8833333333333,547.1108333333333,629.8833333333333,600.4875,576.5066666666667,600.4875" fill="#ffffff" stroke="#000000" style="fill-opacity: 1; stroke-width: 1;"></polygon><text x="592.9199916666666" y="586.87645" lengthAdjust="spacingAndGlyphs" textLength="20.550016666666664" fill="#075466" style="font-family: sans-serif; font-weight: bold; font-size: 37.3637px;">2</text></g><g><polygon points="629.8833333333333,547.1108333333333,683.26,547.1108333333333,683.26,600.4875,629.8833333333333,600.4875" fill="#ffffff" stroke="#000000" style="fill-opacity: 1; stroke-width: 1;"></polygon></g><g><polygon points="42.74000000000001,600.4875,96.11666666666667,600.4875,96.11666666666667,653.8641666666666,42.74000000000001,653.8641666666666" fill="#ffffff" stroke="#000000" style="fill-opacity: 1; stroke-width: 1;"></polygon></g><g><polygon points="96.11666666666667,600.4875,149.49333333333334,600.4875,149.49333333333334,653.8641666666666,96.11666666666667,653.8641666666666" fill="#ffffff" stroke="#000000" style="fill-opacity: 1; stroke-width: 1;"></polygon></g><g><polygon points="149.49333333333334,600.4875,202.87,600.4875,202.87,653.8641666666666,149.49333333333334,653.8641666666666" fill="#ffffff" stroke="#000000" style="fill-opacity: 1; stroke-width: 1;"></polygon></g><g><polygon points="202.87,600.4875,256.24666666666667,600.4875,256.24666666666667,653.8641666666666,202.87,653.8641666666666" fill="#ffffff" stroke="#000000" style="fill-opacity: 1; stroke-width: 1;"></polygon></g><g><polygon points="256.24666666666667,600.4875,309.62333333333333,600.4875,309.62333333333333,653.8641666666666,256.24666666666667,653.8641666666666" fill="#ffffff" stroke="#000000" style="fill-opacity: 1; stroke-width: 1;"></polygon><text x="272.65999166666666" y="640.2531166666665" lengthAdjust="spacingAndGlyphs" textLength="20.550016666666664" fill="#075466" style="font-family: sans-serif; font-weight: bold; font-size: 37.3637px;">2</text></g><g><polygon points="309.62333333333333,600.4875,363,600.4875,363,653.8641666666666,309.62333333333333,653.8641666666666" fill="#ffffff" stroke="#000000" style="fill-opacity: 1; stroke-width: 1;"></polygon><text x="326.0366583333333" y="640.2531166666665" lengthAdjust="spacingAndGlyphs" textLength="20.550016666666664" fill="#075466" style="font-family: sans-serif; font-weight: bold; font-size: 37.3637px;">2</text></g><g><polygon points="363,600.4875,416.37666666666667,600.4875,416.37666666666667,653.8641666666666,363,653.8641666666666" fill="#ffffff" stroke="#000000" style="fill-opacity: 1; stroke-width: 1;"></polygon></g><g><polygon points="416.37666666666667,600.4875,469.75333333333333,600.4875,469.75333333333333,653.8641666666666,416.37666666666667,653.8641666666666" fill="#ffffff" stroke="#000000" style="fill-opacity: 1; stroke-width: 1;"></polygon></g><g><polygon points="469.75333333333333,600.4875,523.13,600.4875,523.13,653.8641666666666,469.75333333333333,653.8641666666666" fill="#ffffff" stroke="#000000" style="fill-opacity: 1; stroke-width: 1;"></polygon></g><g><polygon points="523.13,600.4875,576.5066666666667,600.4875,576.5066666666667,653.8641666666666,523.13,653.8641666666666" fill="#ffffff" stroke="#000000" style="fill-opacity: 1; stroke-width: 1;"></polygon></g><g><polygon points="576.5066666666667,600.4875,629.8833333333333,600.4875,629.8833333333333,653.8641666666666,576.5066666666667,653.8641666666666" fill="#ffffff" stroke="#000000" style="fill-opacity: 1; stroke-width: 1;"></polygon></g><g><polygon points="629.8833333333333,600.4875,683.26,600.4875,683.26,653.8641666666666,629.8833333333333,653.8641666666666" fill="#ffffff" stroke="#000000" style="fill-opacity: 1; stroke-width: 1;"></polygon></g><g></g><g></g><g></g><g></g><g></g><g></g><g></g><g></g><g></g><g></g><g></g><g></g><g></g><g></g><g></g><g></g><g></g><g></g><g></g><g></g><g></g><g></g><g></g><g></g><g></g><g></g><g></g><g></g><g></g><g></g><g></g><g></g><g></g><g></g><g></g><g></g><g></g><g></g><g></g><g></g><g></g><g></g><g></g><g></g><g></g><g></g><g></g><g></g><g></g><g></g><g></g><g></g><g></g><g></g><g></g><g></g><g></g><g></g><g></g><g></g><g></g><g></g><g></g><g></g><g></g><g></g><g></g><g></g><g></g><g></g><g></g><g></g><g></g><g></g><g></g><g></g><g></g><g></g><g></g><g></g><g></g><g></g><g></g><g></g><g></g><g></g><g></g><g></g><g></g><g></g><g></g><g></g><g></g><g></g><g></g><g></g><g></g><g></g><g></g><g></g><g></g><g></g><g></g><g></g><g></g><g></g><g></g><g></g><g></g><g></g><g></g><g></g><g></g><g></g><g></g><g></g><g></g><g></g><g></g><g></g><g></g><g></g><g></g><g></g><g></g><g></g><g></g><g></g><g></g><g></g><g></g><g></g><g></g><g></g><g></g><g></g><g></g><g></g><g></g><g></g><g></g><g></g><g></g><g></g><g></g><g></g><g></g><g></g><g></g><g></g><g></g><g></g><g></g><g></g><g></g><g></g><g></g><g></g><g></g><g></g><g></g><g></g><g></g><g></g><g></g><g></g><g></g><g></g><g></g><g></g><g></g><g></g><g></g><g></g><g></g><g></g><g></g><g></g><g></g><g></g><g></g><g></g><g></g><g></g><g></g><g></g><g></g><g></g><g></g><g></g><g></g><g></g><g></g><g></g><g></g><g></g><g></g><g></g><g></g><g></g><g></g><g></g><g></g><g></g><g></g><g></g><g></g><g></g><g></g><g></g><g></g><g></g><g></g><g></g><g></g><g></g><g></g><g></g><g></g><g></g><g></g><g></g><g></g><g></g><g></g><g></g><g></g><g></g><g></g><g></g><g></g><g></g><g></g><g></g><g></g><g></g><g></g><g></g><g></g><g></g><g></g><g></g><g></g><g></g><g></g><g></g><g></g><g></g><g></g><g></g><g></g><g></g><g></g><g></g><g></g><g></g><g></g><g></g><g></g><g></g><g></g><g></g><g></g><g></g><g></g><g></g><g></g><g></g><g></g><g></g><g></g><g></g><g></g><g></g><g></g><g></g><g></g><g></g><g></g><g></g><g></g><g></g><g></g><g></g><g></g><g></g><g></g><g></g><g></g><g></g><g></g><g></g><g></g><g></g><g></g><g></g><g></g><g></g><g></g><g></g><g></g><g></g><g></g><g></g><g></g><g></g><g></g><g></g><g></g><g></g><g></g><g></g><g></g><g></g><g></g><g></g><g></g><g></g><g></g><g></g><g></g><g></g><g></g><g></g><g></g><g></g><g></g><g></g><g></g><g></g><g></g><g></g><g></g><g></g><g></g><g></g><g></g><g></g><g></g><g></g><g></g><g></g><g></g><g></g><g></g><g></g><g></g><g></g><g></g><g></g><g></g><g></g><g></g><g></g><g></g><g></g><g></g><g></g><g></g><g></g><g></g><g></g><g></g><g></g><g></g><g></g><g></g><g></g><g></g><g></g><g></g><g></g><g></g><g></g><g></g><g></g><g></g><g></g><g></g><g></g><g></g><g></g><g></g><g></g><g></g><g></g><g></g><g></g><g></g><g></g><g></g><g></g><g></g><g></g><g></g><g></g><g></g><g></g><g></g><g></g><g></g><g></g><g></g><g></g><g></g><g></g><g></g><g></g><g></g><g></g><g></g><g></g><g></g><g></g><g></g><g></g><g></g><g></g><g></g><g></g><g></g><g></g><g></g><g></g><g></g><g></g><g></g><g></g><g></g><g></g><g></g><g></g><g></g><g></g><g></g><g></g><g></g><g></g><g></g><g></g><g></g><g></g><g></g><g></g><g></g><g></g><g></g><g></g><g></g><g></g><g></g><g></g><g></g><g></g><g></g><g></g><g></g><g></g><g></g><g></g><g></g><g></g><g></g><g></g><g></g><g></g><g></g><g></g><g></g><g></g><g></g><g></g><g></g><g></g><g></g><g></g><g></g><g></g><g></g><g></g><g></g></svg>