<svg class="pb-2" id="Grid" style="overflow: visible; z-index: 90;" xmlns="http://www.w3.org/2000/svg" xmlns:xlink="http://www.w3.org/1999/xlink" height="709.1471428571429" width="726" viewBox="0 0 726 709.1471428571429">
  Sorry, but your browser is not supported. Try to setup the new version.
<desc>Created with Snap</desc><defs><filter id="Smhceo0b86x" filterUnits="userSpaceOnUse"><feColorMatrix type="matrix" values="1 0 0 0 0 0 1 0 0 0 0 0 1 0 0 0 0 0 0.7 0"></feColorMatrix></filter><filter id="Smhceo0b86z" filterUnits="userSpaceOnUse"><feColorMatrix type="matrix" values="-.17 -.17 -.17 0 1 -.22 -.22 -.22 0 1 -.33 -.33 -.33 0 1 0 0 0 1 0"></feColorMatrix></filter></defs><g><polygon points="42.74000000000001,22.875714285714285,134.24285714285713,22.875714285714285,134.24285714285713,114.37857142857142,42.74000000000001,114.37857142857142" fill="#ffffff" stroke="#000000" style="fill-opacity: 1; stroke-width: 1;"></polygon><text x="70.87712857142857" y="91.04534285714286" lengthAdjust="spacingAndGlyphs" textLength="35.2286" fill="#075466" style="font-family: sans-serif; font-weight: bold; font-size: 64.052px;">6</text></g><g><polygon points="134.24285714285713,22.875714285714285,225.74571428571426,22.875714285714285,225.74571428571426,114.37857142857142,134.24285714285713,114.37857142857142" fill="#ffffff" stroke="#000000" style="fill-opacity: 1; stroke-width: 1;"></polygon></g><g><polygon points="225.74571428571429,22.875714285714285,317.24857142857144,22.875714285714285,317.24857142857144,114.37857142857142,225.74571428571429,114.37857142857142" fill="#ffffff" stroke="#000000" style="fill-opacity: 1; stroke-width: 1;"></polygon></g><g><polygon points="317.24857142857144,22.875714285714285,408.75142857142856,22.875714285714285,408.75142857142856,114.37857142857142,317.24857142857144,114.37857142857142" fill="#ffffff" stroke="#000000" style="fill-opacity: 1; stroke-width: 1;"></polygon></g><g><polygon points="408.75142857142856,22.875714285714285,500.2542857142857,22.875714285714285,500.2542857142857,114.37857142857142,408.75142857142856,114.37857142857142" fill="#ffffff" stroke="#000000" style="fill-opacity: 1; stroke-width: 1;"></polygon></g><g><polygon points="500.2542857142857,22.875714285714285,591.7571428571429,22.875714285714285,591.7571428571429,114.37857142857142,500.2542857142857,114.37857142857142" fill="#38585c" stroke="#000000" style="fill-opacity: 1; stroke-width: 1;"></polygon></g><g><polygon points="591.7571428571429,22.875714285714285,683.26,22.875714285714285,683.26,114.37857142857142,591.7571428571429,114.37857142857142" fill="#38585c" stroke="#000000" style="fill-opacity: 1; stroke-width: 1;"></polygon></g><g><polygon points="42.74000000000001,114.37857142857142,134.24285714285713,114.37857142857142,134.24285714285713,205.88142857142856,42.74000000000001,205.88142857142856" fill="#ffffff" stroke="#000000" style="fill-opacity: 1; stroke-width: 1;"></polygon></g><g><polygon points="134.24285714285713,114.37857142857142,225.74571428571426,114.37857142857142,225.74571428571426,205.88142857142856,134.24285714285713,205.88142857142856" fill="#ffffff" stroke="#000000" style="fill-opacity: 1; stroke-width: 1;"></polygon><text x="162.37998571428568" y="182.54819999999998" lengthAdjust="spacingAndGlyphs" textLength="35.2286" fill="#075466" style="font-family: sans-serif; font-weight: bold; font-size: 64.052px;">4</text></g><g><polygon points="225.74571428571429,114.37857142857142,317.24857142857144,114.37857142857142,317.24857142857144,205.88142857142856,225.74571428571429,205.88142857142856" fill="#38585c" stroke="#000000" style="fill-opacity: 1; stroke-width: 1;"></polygon></g><g><polygon points="317.24857142857144,114.37857142857142,408.75142857142856,114.37857142857142,408.75142857142856,205.88142857142856,317.24857142857144,205.88142857142856" fill="#38585c" stroke="#000000" style="fill-opacity: 1; stroke-width: 1;"></polygon></g><g><polygon points="408.75142857142856,114.37857142857142,500.2542857142857,114.37857142857142,500.2542857142857,205.88142857142856,408.75142857142856,205.88142857142856" fill="#ffffff" stroke="#000000" style="fill-opacity: 1; stroke-width: 1;"></polygon></g><g><polygon points="500.2542857142857,114.37857142857142,591.7571428571429,114.37857142857142,591.7571428571429,205.88142857142856,500.2542857142857,205.88142857142856" fill="#ffffff" stroke="#000000" style="fill-opacity: 1; stroke-width: 1;"></polygon><text x="528.3914142857143" y="182.54819999999998" lengthAdjust="spacingAndGlyphs" textLength="35.2286" fill="#075466" style="font-family: sans-serif; font-weight: bold; font-size: 64.052px;">3</text></g><g><polygon points="591.7571428571429,114.37857142857142,683.26,114.37857142857142,683.26,205.88142857142856,591.7571428571429,205.88142857142856" fill="#38585c" stroke="#000000" style="fill-opacity: 1; stroke-width: 1;"></polygon></g><g><polygon points="42.74000000000001,205.88142857142856,134.24285714285713,205.88142857142856,134.24285714285713,297.3842857142857,42.74000000000001,297.3842857142857" fill="#38585c" stroke="#000000" style="fill-opacity: 1; stroke-width: 1;"></polygon></g><g><polygon points="134.24285714285713,205.88142857142856,225.74571428571426,205.88142857142856,225.74571428571426,297.3842857142857,134.24285714285713,297.3842857142857" fill="#ffffff" stroke="#000000" style="fill-opacity: 1; stroke-width: 1;"></polygon></g><g><polygon points="225.74571428571429,205.88142857142856,317.24857142857144,205.88142857142856,317.24857142857144,297.3842857142857,225.74571428571429,297.3842857142857" fill="#ffffff" stroke="#000000" style="fill-opacity: 1; stroke-width: 1;"></polygon><text x="253.88284285714286" y="274.05105714285713" lengthAdjust="spacingAndGlyphs" textLength="35.2286" fill="#075466" style="font-family: sans-serif; font-weight: bold; font-size: 64.052px;">2</text></g><g><polygon points="317.24857142857144,205.88142857142856,408.75142857142856,205.88142857142856,408.75142857142856,297.3842857142857,317.24857142857144,297.3842857142857" fill="#38585c" stroke="#000000" style="fill-opacity: 1; stroke-width: 1;"></polygon></g><g><polygon points="408.75142857142856,205.88142857142856,500.2542857142857,205.88142857142856,500.2542857142857,297.3842857142857,408.75142857142856,297.3842857142857" fill="#ffffff" stroke="#000000" style="fill-opacity: 1; stroke-width: 1;"></polygon><text x="436.8885571428571" y="274.05105714285713" lengthAdjust="spacingAndGlyphs" textLength="35.2286" fill="#075466" style="font-family: sans-serif; font-weight: bold; font-size: 64.052px;">5</text></g><g><polygon points="500.2542857142857,205.88142857142856,591.7571428571429,205.88142857142856,591.7571428571429,297.3842857142857,500.2542857142857,297.3842857142857" fill="#ffffff" stroke="#000000" style="fill-opacity: 1; stroke-width: 1;"></polygon></g><g><polygon points="591.7571428571429,205.88142857142856,683.26,205.88142857142856,683.26,297.3842857142857,591.7571428571429,297.3842857142857" fill="#ffffff" stroke="#000000" style="fill-opacity: 1; stroke-width: 1;"></polygon></g><g><polygon points="42.74000000000001,297.38428571428574,134.24285714285713,297.38428571428574,134.24285714285713,388.88714285714286,42.74000000000001,388.88714285714286" fill="#38585c" stroke="#000000" style="fill-opacity: 1; stroke-width: 1;"></polygon></g><g><polygon points="134.24285714285713,297.38428571428574,225.74571428571426,297.38428571428574,225.74571428571426,388.88714285714286,134.24285714285713,388.88714285714286" fill="#38585c" stroke="#000000" style="fill-opacity: 1; stroke-width: 1;"></polygon></g><g><polygon points="225.74571428571429,297.38428571428574,317.24857142857144,297.38428571428574,317.24857142857144,388.88714285714286,225.74571428571429,388.88714285714286" fill="#38585c" stroke="#000000" style="fill-opacity: 1; stroke-width: 1;"></polygon></g><g><polygon points="317.24857142857144,297.38428571428574,408.75142857142856,297.38428571428574,408.75142857142856,388.88714285714286,317.24857142857144,388.88714285714286" fill="#38585c" stroke="#000000" style="fill-opacity: 1; stroke-width: 1;"></polygon></g><g><polygon points="408.75142857142856,297.38428571428574,500.2542857142857,297.38428571428574,500.2542857142857,388.88714285714286,408.75142857142856,388.88714285714286" fill="#38585c" stroke="#000000" style="fill-opacity: 1; stroke-width: 1;"></polygon></g><g><polygon points="500.2542857142857,297.38428571428574,591.7571428571429,297.38428571428574,591.7571428571429,388.88714285714286,500.2542857142857,388.88714285714286" fill="#38585c" stroke="#000000" style="fill-opacity: 1; stroke-width: 1;"></polygon></g><g><polygon points="591.7571428571429,297.38428571428574,683.26,297.38428571428574,683.26,388.88714285714286,591.7571428571429,388.88714285714286" fill="#ffffff" stroke="#000000" style="fill-opacity: 1; stroke-width: 1;"></polygon></g><g><polygon points="42.74000000000001,388.88714285714286,134.24285714285713,388.88714285714286,134.24285714285713,480.39,42.74000000000001,480.39" fill="#38585c" stroke="#000000" style="fill-opacity: 1; stroke-width: 1;"></polygon></g><g><polygon points="134.24285714285713,388.88714285714286,225.74571428571426,388.88714285714286,225.74571428571426,480.39,134.24285714285713,480.39" fill="#38585c" stroke="#000000" style="fill-opacity: 1; stroke-width: 1;"></polygon></g><g><polygon points="225.74571428571429,388.88714285714286,317.24857142857144,388.88714285714286,317.24857142857144,480.39,225.74571428571429,480.39" fill="#ffffff" stroke="#000000" style="fill-opacity: 1; stroke-width: 1;"></polygon><text x="253.88284285714286" y="457.05677142857144" lengthAdjust="spacingAndGlyphs" textLength="35.2286" fill="#075466" style="font-family: sans-serif; font-weight: bold; font-size: 64.052px;">6</text></g><g><polygon points="317.24857142857144,388.88714285714286,408.75142857142856,388.88714285714286,408.75142857142856,480.39,317.24857142857144,480.39" fill="#ffffff" stroke="#000000" style="fill-opacity: 1; stroke-width: 1;"></polygon></g><g><polygon points="408.75142857142856,388.88714285714286,500.2542857142857,388.88714285714286,500.2542857142857,480.39,408.75142857142856,480.39" fill="#ffffff" stroke="#000000" style="fill-opacity: 1; stroke-width: 1;"></polygon><text x="436.8885571428571" y="457.05677142857144" lengthAdjust="spacingAndGlyphs" textLength="35.2286" fill="#075466" style="font-family: sans-serif; font-weight: bold; font-size: 64.052px;">5</text></g><g><polygon points="500.2542857142857,388.88714285714286,591.7571428571429,388.88714285714286,591.7571428571429,480.39,500.2542857142857,480.39" fill="#ffffff" stroke="#000000" style="fill-opacity: 1; stroke-width: 1;"></polygon></g><g><polygon points="591.7571428571429,388.88714285714286,683.26,388.88714285714286,683.26,480.39,591.7571428571429,480.39" fill="#ffffff" stroke="#000000" style="fill-opacity: 1; stroke-width: 1;"></polygon></g><g><polygon points="42.74000000000001,480.39,134.24285714285713,480.39,134.24285714285713,571.8928571428571,42.74000000000001,571.8928571428571" fill="#38585c" stroke="#000000" style="fill-opacity: 1; stroke-width: 1;"></polygon></g><g><polygon points="134.24285714285713,480.39,225.74571428571426,480.39,225.74571428571426,571.8928571428571,134.24285714285713,571.8928571428571" fill="#ffffff" stroke="#000000" style="fill-opacity: 1; stroke-width: 1;"></polygon><text x="162.37998571428568" y="548.5596285714286" lengthAdjust="spacingAndGlyphs" textLength="35.2286" fill="#075466" style="font-family: sans-serif; font-weight: bold; font-size: 64.052px;">2</text></g><g><polygon points="225.74571428571429,480.39,317.24857142857144,480.39,317.24857142857144,571.8928571428571,225.74571428571429,571.8928571428571" fill="#ffffff" stroke="#000000" style="fill-opacity: 1; stroke-width: 1;"></polygon></g><g><polygon points="317.24857142857144,480.39,408.75142857142856,480.39,408.75142857142856,571.8928571428571,317.24857142857144,571.8928571428571" fill="#38585c" stroke="#000000" style="fill-opacity: 1; stroke-width: 1;"></polygon></g><g><polygon points="408.75142857142856,480.39,500.2542857142857,480.39,500.2542857142857,571.8928571428571,408.75142857142856,571.8928571428571" fill="#38585c" stroke="#000000" style="fill-opacity: 1; stroke-width: 1;"></polygon></g><g><polygon points="500.2542857142857,480.39,591.7571428571429,480.39,591.7571428571429,571.8928571428571,500.2542857142857,571.8928571428571" fill="#ffffff" stroke="#000000" style="fill-opacity: 1; stroke-width: 1;"></polygon><text x="528.3914142857143" y="548.5596285714286" lengthAdjust="spacingAndGlyphs" textLength="35.2286" fill="#075466" style="font-family: sans-serif; font-weight: bold; font-size: 64.052px;">3</text></g><g><polygon points="591.7571428571429,480.39,683.26,480.39,683.26,571.8928571428571,591.7571428571429,571.8928571428571" fill="#38585c" stroke="#000000" style="fill-opacity: 1; stroke-width: 1;"></polygon></g><g><polygon points="42.74000000000001,571.8928571428571,134.24285714285713,571.8928571428571,134.24285714285713,663.3957142857142,42.74000000000001,663.3957142857142" fill="#38585c" stroke="#000000" style="fill-opacity: 1; stroke-width: 1;"></polygon></g><g><polygon points="134.24285714285713,571.8928571428571,225.74571428571426,571.8928571428571,225.74571428571426,663.3957142857142,134.24285714285713,663.3957142857142" fill="#38585c" stroke="#000000" style="fill-opacity: 1; stroke-width: 1;"></polygon></g><g><polygon points="225.74571428571429,571.8928571428571,317.24857142857144,571.8928571428571,317.24857142857144,663.3957142857142,225.74571428571429,663.3957142857142" fill="#38585c" stroke="#000000" style="fill-opacity: 1; stroke-width: 1;"></polygon></g><g><polygon points="317.24857142857144,571.8928571428571,408.75142857142856,571.8928571428571,408.75142857142856,663.3957142857142,317.24857142857144,663.3957142857142" fill="#38585c" stroke="#000000" style="fill-opacity: 1; stroke-width: 1;"></polygon></g><g><polygon points="408.75142857142856,571.8928571428571,500.2542857142857,571.8928571428571,500.2542857142857,663.3957142857142,408.75142857142856,663.3957142857142" fill="#ffffff" stroke="#000000" style="fill-opacity: 1; stroke-width: 1;"></polygon></g><g><polygon points="500.2542857142857,571.8928571428571,591.7571428571429,571.8928571428571,591.7571428571429,663.3957142857142,500.2542857142857,663.3957142857142" fill="#ffffff" stroke="#000000" style="fill-opacity: 1; stroke-width: 1;"></polygon></g><g><polygon points="591.7571428571429,571.8928571428571,683.26,571.8928571428571,683.26,663.3957142857142,591.7571428571429,663.3957142857142" fill="#ffffff" stroke="#000000" style="fill-opacity: 1; stroke-width: 1;"></polygon><text x="619.8942714285715" y="640.0624857142857" lengthAdjust="spacingAndGlyphs" textLength="35.2286" fill="#075466" style="font-family: sans-serif; font-weight: bold; font-size: 64.052px;">3</text></g><g><line x1="42.74000000000001" x2="134.24285714285713" y1="22.875714285714285" y2="22.875714285714285" stroke="#000000" style="stroke-width: 10; stroke-linecap: round;"></line></g><g></g><g></g><g><line x1="42.74000000000001" x2="42.74000000000001" y1="114.37857142857142" y2="22.875714285714285" stroke="#000000" style="stroke-width: 10; stroke-linecap: round;"></line></g><g><line x1="134.24285714285713" x2="225.74571428571426" y1="22.875714285714285" y2="22.875714285714285" stroke="#000000" style="stroke-width: 10; stroke-linecap: round;"></line></g><g></g><g></g><g><line x1="225.74571428571429" x2="317.24857142857144" y1="22.875714285714285" y2="22.875714285714285" stroke="#000000" style="stroke-width: 10; stroke-linecap: round;"></line></g><g></g><g></g><g><line x1="317.24857142857144" x2="408.75142857142856" y1="22.875714285714285" y2="22.875714285714285" stroke="#000000" style="stroke-width: 10; stroke-linecap: round;"></line></g><g></g><g></g><g><line x1="408.75142857142856" x2="500.2542857142857" y1="22.875714285714285" y2="22.875714285714285" stroke="#000000" style="stroke-width: 10; stroke-linecap: round;"></line></g><g></g><g></g><g><line x1="500.2542857142857" x2="591.7571428571429" y1="22.875714285714285" y2="22.875714285714285" stroke="#000000" style="stroke-width: 10; stroke-linecap: round;"></line></g><g></g><g></g><g><line x1="591.7571428571429" x2="683.26" y1="22.875714285714285" y2="22.875714285714285" stroke="#000000" style="stroke-width: 10; stroke-linecap: round;"></line></g><g><line x1="683.26" x2="683.26" y1="22.875714285714285" y2="114.37857142857142" stroke="#000000" style="stroke-width: 10; stroke-linecap: round;"></line></g><g></g><g></g><g></g><g><line x1="42.74000000000001" x2="42.74000000000001" y1="205.88142857142856" y2="114.37857142857142" stroke="#000000" style="stroke-width: 10; stroke-linecap: round;"></line></g><g></g><g></g><g></g><g></g><g></g><g></g><g></g><g></g><g></g><g></g><g><line x1="683.26" x2="683.26" y1="114.37857142857142" y2="205.88142857142856" stroke="#000000" style="stroke-width: 10; stroke-linecap: round;"></line></g><g></g><g></g><g></g><g><line x1="42.74000000000001" x2="42.74000000000001" y1="297.3842857142857" y2="205.88142857142856" stroke="#000000" style="stroke-width: 10; stroke-linecap: round;"></line></g><g></g><g></g><g></g><g></g><g></g><g></g><g></g><g></g><g></g><g></g><g><line x1="683.26" x2="683.26" y1="205.88142857142856" y2="297.3842857142857" stroke="#000000" style="stroke-width: 10; stroke-linecap: round;"></line></g><g></g><g></g><g></g><g><line x1="42.74000000000001" x2="42.74000000000001" y1="388.88714285714286" y2="297.38428571428574" stroke="#000000" style="stroke-width: 10; stroke-linecap: round;"></line></g><g></g><g></g><g></g><g></g><g></g><g></g><g></g><g></g><g></g><g></g><g><line x1="683.26" x2="683.26" y1="297.38428571428574" y2="388.88714285714286" stroke="#000000" style="stroke-width: 10; stroke-linecap: round;"></line></g><g></g><g></g><g></g><g><line x1="42.74000000000001" x2="42.74000000000001" y1="480.39" y2="388.88714285714286" stroke="#000000" style="stroke-width: 10; stroke-linecap: round;"></line></g><g></g><g></g><g></g><g></g><g></g><g></g><g></g><g></g><g></g><g></g><g><line x1="683.26" x2="683.26" y1="388.88714285714286" y2="480.39" stroke="#000000" style="stroke-width: 10; stroke-linecap: round;"></line></g><g></g><g></g><g></g><g><line x1="42.74000000000001" x2="42.74000000000001" y1="571.8928571428571" y2="480.39" stroke="#000000" style="stroke-width: 10; stroke-linecap: round;"></line></g><g></g><g></g><g></g><g></g><g></g><g></g><g></g><g></g><g></g><g></g><g><line x1="683.26" x2="683.26" y1="480.39" y2="571.8928571428571" stroke="#000000" style="stroke-width: 10; stroke-linecap: round;"></line></g><g></g><g></g><g><line x1="134.24285714285713" x2="42.74000000000001" y1="663.3957142857142" y2="663.3957142857142" stroke="#000000" style="stroke-width: 10; stroke-linecap: round;"></line></g><g><line x1="42.74000000000001" x2="42.74000000000001" y1="663.3957142857142" y2="571.8928571428571" stroke="#000000" style="stroke-width: 10; stroke-linecap: round;"></line></g><g></g><g><line x1="225.74571428571426" x2="134.24285714285713" y1="663.3957142857142" y2="663.3957142857142" stroke="#000000" style="stroke-width: 10; stroke-linecap: round;"></line></g><g></g><g><line x1="317.24857142857144" x2="225.74571428571429" y1="663.3957142857142" y2="663.3957142857142" stroke="#000000" style="stroke-width: 10; stroke-linecap: round;"></line></g><g></g><g><line x1="408.75142857142856" x2="317.24857142857144" y1="663.3957142857142" y2="663.3957142857142" stroke="#000000" style="stroke-width: 10; stroke-linecap: round;"></line></g><g></g><g><line x1="500.2542857142857" x2="408.75142857142856" y1="663.3957142857142" y2="663.3957142857142" stroke="#000000" style="stroke-width: 10; stroke-linecap: round;"></line></g><g></g><g><line x1="591.7571428571429" x2="500.2542857142857" y1="663.3957142857142" y2="663.3957142857142" stroke="#000000" style="stroke-width: 10; stroke-linecap: round;"></line></g><g><line x1="683.26" x2="683.26" y1="571.8928571428571" y2="663.3957142857142" stroke="#000000" style="stroke-width: 10; stroke-linecap: round;"></line></g><g><line x1="683.26" x2="591.7571428571429" y1="663.3957142857142" y2="663.3957142857142" stroke="#000000" style="stroke-width: 10; stroke-linecap: round;"></line></g></svg>