<svg class="pb-2" id="Grid" style="overflow: visible; z-index: 90;" xmlns="http://www.w3.org/2000/svg" xmlns:xlink="http://www.w3.org/1999/xlink" height="678.5004394421339" width="726" viewBox="0 0 726 678.5004394421339">
  Sorry, but your browser is not supported. Try to setup the new version.
<desc>Created with Snap</desc><defs><filter id="Smhdjfluq4t" filterUnits="userSpaceOnUse"><feColorMatrix type="matrix" values="1 0 0 0 0 0 1 0 0 0 0 0 1 0 0 0 0 0 0.7 0"></feColorMatrix></filter><filter id="Smhdjfluq4v" filterUnits="userSpaceOnUse"><feColorMatrix type="matrix" values="-.17 -.17 -.17 0 1 -.22 -.22 -.22 0 1 -.33 -.33 -.33 0 1 0 0 0 1 0"></feColorMatrix></filter></defs><g><polygon points="104.1369239050626,129.104,178.09780278933044,129.104,215.07824223146434,193.156,178.09780278933044,257.208,104.1369239050626,257.208,67.15648446292869,193.156" fill="#ffffff" stroke="#000000" style="fill-opacity: 1; stroke-width: 1;"></polygon><text x="120.77812165402287" y="219.04230760949375" lengthAdjust="spacingAndGlyphs" textLength="40.67848338634731" fill="#075466" style="font-family: sans-serif; font-weight: bold; font-size: 73.9609px;">5</text></g><g><polygon points="215.07824223146434,65.052,289.0391211157322,65.052,326.0195605578661,129.104,289.0391211157322,193.156,215.07824223146434,193.156,178.09780278933044,129.104" fill="#ffffff" stroke="#000000" style="fill-opacity: 1; stroke-width: 1;"></polygon><text x="231.7194399804246" y="154.99030760949375" lengthAdjust="spacingAndGlyphs" textLength="40.67848338634731" fill="#075466" style="font-family: sans-serif; font-weight: bold; font-size: 73.9609px;">1</text></g><g><polygon points="326.0195605578661,1,399.98043944213396,1,436.96087888426786,65.052,399.98043944213396,129.104,326.0195605578661,129.104,289.0391211157322,65.052" fill="#ffffff" stroke="#000000" style="fill-opacity: 1; stroke-width: 1;"></polygon></g><g><polygon points="104.1369239050626,257.208,178.09780278933044,257.208,215.07824223146434,321.26000000000005,178.09780278933044,385.312,104.1369239050626,385.312,67.15648446292869,321.26000000000005" fill="#ffffff" stroke="#000000" style="fill-opacity: 1; stroke-width: 1;"></polygon></g><g><polygon points="215.07824223146434,193.156,289.0391211157322,193.156,326.0195605578661,257.208,289.0391211157322,321.26,215.07824223146434,321.26,178.09780278933044,257.208" fill="#ffffff" stroke="#000000" style="fill-opacity: 1; stroke-width: 1;"></polygon></g><g><polygon points="326.0195605578661,129.104,399.98043944213396,129.104,436.96087888426786,193.156,399.98043944213396,257.208,326.0195605578661,257.208,289.0391211157322,193.156" fill="#ffffff" stroke="#000000" style="fill-opacity: 1; stroke-width: 1;"></polygon></g><g><polygon points="436.9608788842678,65.05200000000002,510.9217577685356,65.05200000000002,547.9021972106696,129.10400000000004,510.9217577685356,193.15600000000003,436.9608788842678,193.15600000000003,399.9804394421339,129.10400000000004" fill="#ffffff" stroke="#000000" style="fill-opacity: 1; stroke-width: 1;"></polygon><text x="453.602076633228" y="154.99030760949378" lengthAdjust="spacingAndGlyphs" textLength="40.67848338634731" fill="#075466" style="font-family: sans-serif; font-weight: bold; font-size: 73.9609px;">2</text></g><g><polygon points="104.1369239050626,385.312,178.09780278933044,385.312,215.07824223146434,449.36400000000003,178.09780278933044,513.416,104.1369239050626,513.416,67.15648446292869,449.36400000000003" fill="#ffffff" stroke="#000000" style="fill-opacity: 1; stroke-width: 1;"></polygon><text x="120.77812165402287" y="475.25030760949375" lengthAdjust="spacingAndGlyphs" textLength="40.67848338634731" fill="#075466" style="font-family: sans-serif; font-weight: bold; font-size: 73.9609px;">2</text></g><g><polygon points="215.07824223146434,321.26,289.0391211157322,321.26,326.0195605578661,385.312,289.0391211157322,449.36400000000003,215.07824223146434,449.36400000000003,178.09780278933044,385.312" fill="#ffffff" stroke="#000000" style="fill-opacity: 1; stroke-width: 1;"></polygon></g><g><polygon points="326.0195605578661,257.20799999999997,399.98043944213396,257.20799999999997,436.96087888426786,321.26,399.98043944213396,385.312,326.0195605578661,385.312,289.0391211157322,321.26" fill="#ffffff" stroke="#000000" style="fill-opacity: 1; stroke-width: 1;"></polygon><text x="342.6607583068263" y="347.1463076094937" lengthAdjust="spacingAndGlyphs" textLength="40.67848338634731" fill="#075466" style="font-family: sans-serif; font-weight: bold; font-size: 73.9609px;">3</text></g><g><polygon points="436.9608788842678,193.156,510.9217577685356,193.156,547.9021972106696,257.208,510.9217577685356,321.26,436.9608788842678,321.26,399.9804394421339,257.208" fill="#ffffff" stroke="#000000" style="fill-opacity: 1; stroke-width: 1;"></polygon><text x="453.602076633228" y="283.09430760949374" lengthAdjust="spacingAndGlyphs" textLength="40.67848338634731" fill="#075466" style="font-family: sans-serif; font-weight: bold; font-size: 73.9609px;">2</text></g><g><polygon points="547.9021972106696,129.10399999999998,621.8630760949374,129.10399999999998,658.8435155370713,193.156,621.8630760949374,257.20799999999997,547.9021972106696,257.20799999999997,510.92175776853566,193.156" fill="#ffffff" stroke="#000000" style="fill-opacity: 1; stroke-width: 1;"></polygon></g><g><polygon points="215.07824223146434,449.36400000000003,289.0391211157322,449.36400000000003,326.0195605578661,513.416,289.0391211157322,577.4680000000001,215.07824223146434,577.4680000000001,178.09780278933044,513.416" fill="#ffffff" stroke="#000000" style="fill-opacity: 1; stroke-width: 1;"></polygon><text x="231.7194399804246" y="539.3023076094938" lengthAdjust="spacingAndGlyphs" textLength="40.67848338634731" fill="#075466" style="font-family: sans-serif; font-weight: bold; font-size: 73.9609px;">2</text></g><g><polygon points="326.0195605578661,385.312,399.98043944213396,385.312,436.96087888426786,449.36400000000003,399.98043944213396,513.416,326.0195605578661,513.416,289.0391211157322,449.36400000000003" fill="#ffffff" stroke="#000000" style="fill-opacity: 1; stroke-width: 1;"></polygon></g><g><polygon points="436.9608788842678,321.26000000000005,510.9217577685356,321.26000000000005,547.9021972106696,385.31200000000007,510.9217577685356,449.36400000000003,436.9608788842678,449.36400000000003,399.9804394421339,385.31200000000007" fill="#ffffff" stroke="#000000" style="fill-opacity: 1; stroke-width: 1;"></polygon></g><g><polygon points="547.9021972106696,257.208,621.8630760949374,257.208,658.8435155370713,321.26000000000005,621.8630760949374,385.312,547.9021972106696,385.312,510.92175776853566,321.26000000000005" fill="#ffffff" stroke="#000000" style="fill-opacity: 1; stroke-width: 1;"></polygon></g><g><polygon points="326.0195605578661,513.416,399.98043944213396,513.416,436.96087888426786,577.4680000000001,399.98043944213396,641.5200000000001,326.0195605578661,641.5200000000001,289.0391211157322,577.4680000000001" fill="#ffffff" stroke="#000000" style="fill-opacity: 1; stroke-width: 1;"></polygon></g><g><polygon points="436.9608788842678,449.3640000000001,510.9217577685356,449.3640000000001,547.9021972106696,513.416,510.9217577685356,577.4680000000001,436.9608788842678,577.4680000000001,399.9804394421339,513.416" fill="#ffffff" stroke="#000000" style="fill-opacity: 1; stroke-width: 1;"></polygon><text x="453.602076633228" y="539.3023076094938" lengthAdjust="spacingAndGlyphs" textLength="40.67848338634731" fill="#075466" style="font-family: sans-serif; font-weight: bold; font-size: 73.9609px;">3</text></g><g><polygon points="547.9021972106696,385.31200000000007,621.8630760949374,385.31200000000007,658.8435155370713,449.3640000000001,621.8630760949374,513.416,547.9021972106696,513.416,510.92175776853566,449.3640000000001" fill="#ffffff" stroke="#000000" style="fill-opacity: 1; stroke-width: 1;"></polygon></g><g><line x1="104.1369239050626" x2="178.09780278933044" y1="129.104" y2="129.104" stroke="#002436" style="stroke-width: 22.5; stroke-linecap: round;"></line></g><g><line x1="178.09780278933044" x2="215.07824223146434" y1="129.104" y2="193.156" stroke="#002436" style="stroke-width: 22.5; stroke-linecap: round;"></line></g><g><line x1="215.07824223146434" x2="178.09780278933044" y1="193.156" y2="257.208" stroke="#002436" style="stroke-width: 22.5; stroke-linecap: round;"></line></g><g></g><g><line x1="104.1369239050626" x2="67.15648446292869" y1="257.208" y2="193.156" stroke="#002436" style="stroke-width: 22.5; stroke-linecap: round;"></line></g><g><line x1="67.15648446292869" x2="104.1369239050626" y1="193.156" y2="129.104" stroke="#002436" style="stroke-width: 22.5; stroke-linecap: round;"></line></g><g></g><g></g><g></g><g></g><g></g><g></g><g></g><g></g><g></g><g></g><g><line x1="178.09780278933044" x2="215.07824223146434" y1="257.208" y2="321.26000000000005" stroke="#002436" style="stroke-width: 22.5; stroke-linecap: round;"></line></g><g></g><g><line x1="178.09780278933044" x2="104.1369239050626" y1="385.312" y2="385.312" stroke="#002436" style="stroke-width: 22.5; stroke-linecap: round;"></line></g><g><line x1="104.1369239050626" x2="67.15648446292869" y1="385.312" y2="321.26000000000005" stroke="#002436" style="stroke-width: 22.5; stroke-linecap: round;"></line></g><g><line x1="67.15648446292869" x2="104.1369239050626" y1="321.26000000000005" y2="257.208" stroke="#002436" style="stroke-width: 22.5; stroke-linecap: round;"></line></g><g></g><g><line x1="326.0195605578661" x2="289.0391211157322" y1="257.208" y2="321.26" stroke="#002436" style="stroke-width: 22.5; stroke-linecap: round;"></line></g><g><line x1="289.0391211157322" x2="215.07824223146434" y1="321.26" y2="321.26" stroke="#002436" style="stroke-width: 22.5; stroke-linecap: round;"></line></g><g></g><g><line x1="436.96087888426786" x2="399.98043944213396" y1="193.156" y2="257.208" stroke="#002436" style="stroke-width: 22.5; stroke-linecap: round;"></line></g><g><line x1="399.98043944213396" x2="326.0195605578661" y1="257.208" y2="257.208" stroke="#002436" style="stroke-width: 22.5; stroke-linecap: round;"></line></g><g></g><g></g><g><line x1="547.9021972106696" x2="510.9217577685356" y1="129.10400000000004" y2="193.15600000000003" stroke="#002436" style="stroke-width: 22.5; stroke-linecap: round;"></line></g><g><line x1="510.9217577685356" x2="436.9608788842678" y1="193.15600000000003" y2="193.15600000000003" stroke="#002436" style="stroke-width: 22.5; stroke-linecap: round;"></line></g><g><line x1="178.09780278933044" x2="215.07824223146434" y1="385.312" y2="449.36400000000003" stroke="#002436" style="stroke-width: 22.5; stroke-linecap: round;"></line></g><g></g><g></g><g></g><g></g><g></g><g><line x1="326.0195605578661" x2="289.0391211157322" y1="385.312" y2="449.36400000000003" stroke="#002436" style="stroke-width: 22.5; stroke-linecap: round;"></line></g><g><line x1="289.0391211157322" x2="215.07824223146434" y1="449.36400000000003" y2="449.36400000000003" stroke="#002436" style="stroke-width: 22.5; stroke-linecap: round;"></line></g><g></g><g></g><g><line x1="399.98043944213396" x2="326.0195605578661" y1="385.312" y2="385.312" stroke="#002436" style="stroke-width: 22.5; stroke-linecap: round;"></line></g><g></g><g></g><g></g><g><line x1="547.9021972106696" x2="621.8630760949374" y1="129.10399999999998" y2="129.10399999999998" stroke="#002436" style="stroke-width: 22.5; stroke-linecap: round;"></line></g><g><line x1="621.8630760949374" x2="658.8435155370713" y1="129.10399999999998" y2="193.156" stroke="#002436" style="stroke-width: 22.5; stroke-linecap: round;"></line></g><g><line x1="658.8435155370713" x2="621.8630760949374" y1="193.156" y2="257.20799999999997" stroke="#002436" style="stroke-width: 22.5; stroke-linecap: round;"></line></g><g></g><g></g><g><line x1="326.0195605578661" x2="289.0391211157322" y1="513.416" y2="577.4680000000001" stroke="#002436" style="stroke-width: 22.5; stroke-linecap: round;"></line></g><g></g><g></g><g><line x1="399.98043944213396" x2="436.96087888426786" y1="385.312" y2="449.36400000000003" stroke="#002436" style="stroke-width: 22.5; stroke-linecap: round;"></line></g><g><line x1="436.96087888426786" x2="399.98043944213396" y1="449.36400000000003" y2="513.416" stroke="#002436" style="stroke-width: 22.5; stroke-linecap: round;"></line></g><g><line x1="399.98043944213396" x2="326.0195605578661" y1="513.416" y2="513.416" stroke="#002436" style="stroke-width: 22.5; stroke-linecap: round;"></line></g><g></g><g></g><g></g><g><line x1="621.8630760949374" x2="658.8435155370713" y1="257.208" y2="321.26000000000005" stroke="#002436" style="stroke-width: 22.5; stroke-linecap: round;"></line></g><g><line x1="658.8435155370713" x2="621.8630760949374" y1="321.26000000000005" y2="385.312" stroke="#002436" style="stroke-width: 22.5; stroke-linecap: round;"></line></g><g></g><g></g><g><line x1="436.96087888426786" x2="399.98043944213396" y1="577.4680000000001" y2="641.5200000000001" stroke="#002436" style="stroke-width: 22.5; stroke-linecap: round;"></line></g><g><line x1="399.98043944213396" x2="326.0195605578661" y1="641.5200000000001" y2="641.5200000000001" stroke="#002436" style="stroke-width: 22.5; stroke-linecap: round;"></line></g><g><line x1="326.0195605578661" x2="289.0391211157322" y1="641.5200000000001" y2="577.4680000000001" stroke="#002436" style="stroke-width: 22.5; stroke-linecap: round;"></line></g><g></g><g><line x1="547.9021972106696" x2="510.9217577685356" y1="513.416" y2="577.4680000000001" stroke="#002436" style="stroke-width: 22.5; stroke-linecap: round;"></line></g><g><line x1="510.9217577685356" x2="436.9608788842678" y1="577.4680000000001" y2="577.4680000000001" stroke="#002436" style="stroke-width: 22.5; stroke-linecap: round;"></line></g><g><line x1="621.8630760949374" x2="658.8435155370713" y1="385.31200000000007" y2="449.3640000000001" stroke="#002436" style="stroke-width: 22.5; stroke-linecap: round;"></line></g><g><line x1="658.8435155370713" x2="621.8630760949374" y1="449.3640000000001" y2="513.416" stroke="#002436" style="stroke-width: 22.5; stroke-linecap: round;"></line></g><g><line x1="621.8630760949374" x2="547.9021972106696" y1="513.416" y2="513.416" stroke="#002436" style="stroke-width: 22.5; stroke-linecap: round;"></line></g><g></g><g></g><g></g><g></g><g></g><g></g><g></g><g></g><g></g><g></g><g></g><g></g><g></g><g></g><g></g><g></g><g></g><g></g><g></g><g></g><g></g><g></g><g></g><g></g><g></g><g></g><g></g><g></g><g></g><g></g><g></g><g></g><g></g><g></g><g></g><g></g><g></g><g></g><g></g><g></g><g></g><g></g><g></g><g></g><g></g><g></g><g></g><g></g><g></g><g></g><g></g><g></g><g></g><g></g></svg>