<svg class="pb-2" id="Grid" style="overflow: visible; z-index: 90;" xmlns="http://www.w3.org/2000/svg" xmlns:xlink="http://www.w3.org/1999/xlink" height="662.0646885789632" width="726" viewBox="0 0 726 662.0646885789632">
  Sorry, but your browser is not supported. Try to setup the new version.
<desc>Created with Snap</desc><defs><filter id="Smhcejl91ar" filterUnits="userSpaceOnUse"><feColorMatrix type="matrix" values="1 0 0 0 0 0 1 0 0 0 0 0 1 0 0 0 0 0 0.7 0"></feColorMatrix></filter><filter id="Smhcejl91at" filterUnits="userSpaceOnUse"><feColorMatrix type="matrix" values="-.17 -.17 -.17 0 1 -.22 -.22 -.22 0 1 -.33 -.33 -.33 0 1 0 0 0 1 0"></feColorMatrix></filter></defs><g><polygon points="95.91904847347728,143.33777777777777,137.00842563140384,143.33777777777777,157.5531142103671,178.92222222222222,137.00842563140384,214.50666666666666,95.91904847347728,214.50666666666666,75.37435989451399,178.92222222222222" fill="#ffffff" stroke="#000000" style="fill-opacity: 1; stroke-width: 1;"></polygon></g><g><polygon points="157.55311421036714,107.75333333333333,198.64249136829372,107.75333333333333,219.187179947257,143.33777777777777,198.64249136829372,178.92222222222222,157.55311421036714,178.92222222222222,137.00842563140387,143.33777777777777" fill="#ffffff" stroke="#000000" style="fill-opacity: 1; stroke-width: 1;"></polygon></g><g><polygon points="219.187179947257,72.16888888888889,260.27655710518354,72.16888888888889,280.82124568414685,107.75333333333333,260.27655710518354,143.33777777777777,219.187179947257,143.33777777777777,198.64249136829372,107.75333333333333" fill="#075466" stroke="#000000" style="fill-opacity: 1; stroke-width: 1;"></polygon></g><g><polygon points="280.82124568414685,36.58444444444444,321.9106228420734,36.58444444444444,342.4553114210367,72.16888888888889,321.9106228420734,107.75333333333333,280.82124568414685,107.75333333333333,260.27655710518354,72.16888888888889" fill="#ffffff" stroke="#000000" style="fill-opacity: 1; stroke-width: 1;"></polygon></g><g><polygon points="342.4553114210367,1,383.54468857896325,1,404.08937715792655,36.58444444444444,383.54468857896325,72.16888888888889,342.4553114210367,72.16888888888889,321.9106228420734,36.58444444444444" fill="#ffffff" stroke="#000000" style="fill-opacity: 1; stroke-width: 1;"></polygon></g><g><polygon points="95.91904847347728,214.50666666666666,137.00842563140384,214.50666666666666,157.5531142103671,250.0911111111111,137.00842563140384,285.67555555555555,95.91904847347728,285.67555555555555,75.37435989451399,250.0911111111111" fill="#ffffff" stroke="#000000" style="fill-opacity: 1; stroke-width: 1;"></polygon></g><g><polygon points="157.55311421036714,178.92222222222222,198.64249136829372,178.92222222222222,219.187179947257,214.50666666666666,198.64249136829372,250.0911111111111,157.55311421036714,250.0911111111111,137.00842563140387,214.50666666666666" fill="#ffffff" stroke="#000000" style="fill-opacity: 1; stroke-width: 1;"></polygon></g><g><polygon points="219.187179947257,143.33777777777777,260.27655710518354,143.33777777777777,280.82124568414685,178.92222222222222,260.27655710518354,214.50666666666666,219.187179947257,214.50666666666666,198.64249136829372,178.92222222222222" fill="#ffffff" stroke="#000000" style="fill-opacity: 1; stroke-width: 1;"></polygon></g><g><polygon points="280.82124568414685,107.75333333333333,321.9106228420734,107.75333333333333,342.4553114210367,143.33777777777777,321.9106228420734,178.92222222222222,280.82124568414685,178.92222222222222,260.27655710518354,143.33777777777777" fill="#075466" stroke="#000000" style="fill-opacity: 1; stroke-width: 1;"></polygon></g><g><polygon points="342.4553114210367,72.16888888888889,383.54468857896325,72.16888888888889,404.08937715792655,107.75333333333333,383.54468857896325,143.33777777777777,342.4553114210367,143.33777777777777,321.9106228420734,107.75333333333333" fill="#ffffff" stroke="#000000" style="fill-opacity: 1; stroke-width: 1;"></polygon></g><g><polygon points="404.08937715792655,36.58444444444444,445.1787543158531,36.58444444444444,465.7234428948164,72.16888888888889,445.1787543158531,107.75333333333333,404.08937715792655,107.75333333333333,383.54468857896325,72.16888888888889" fill="#ffffff" stroke="#000000" style="fill-opacity: 1; stroke-width: 1;"></polygon></g><g><polygon points="95.91904847347728,285.67555555555555,137.00842563140384,285.67555555555555,157.5531142103671,321.26,137.00842563140384,356.84444444444443,95.91904847347728,356.84444444444443,75.37435989451399,321.26" fill="#075466" stroke="#000000" style="fill-opacity: 1; stroke-width: 1;"></polygon></g><g><polygon points="157.55311421036714,250.0911111111111,198.64249136829372,250.0911111111111,219.187179947257,285.67555555555555,198.64249136829372,321.26,157.55311421036714,321.26,137.00842563140387,285.67555555555555" fill="#ffffff" stroke="#000000" style="fill-opacity: 1; stroke-width: 1;"></polygon></g><g><polygon points="219.187179947257,214.50666666666666,260.27655710518354,214.50666666666666,280.82124568414685,250.0911111111111,260.27655710518354,285.67555555555555,219.187179947257,285.67555555555555,198.64249136829372,250.0911111111111" fill="#075466" stroke="#000000" style="fill-opacity: 1; stroke-width: 1;"></polygon></g><g><polygon points="280.82124568414685,178.92222222222222,321.9106228420734,178.92222222222222,342.4553114210367,214.50666666666666,321.9106228420734,250.0911111111111,280.82124568414685,250.0911111111111,260.27655710518354,214.50666666666666" fill="#000000" stroke="#000000" style="fill-opacity: 1; stroke-width: 1;"></polygon></g><g><polygon points="342.4553114210367,143.33777777777777,383.54468857896325,143.33777777777777,404.08937715792655,178.92222222222222,383.54468857896325,214.50666666666666,342.4553114210367,214.50666666666666,321.9106228420734,178.92222222222222" fill="#000000" stroke="#000000" style="fill-opacity: 1; stroke-width: 1;"></polygon></g><g><polygon points="404.08937715792655,107.75333333333333,445.1787543158531,107.75333333333333,465.7234428948164,143.33777777777777,445.1787543158531,178.92222222222222,404.08937715792655,178.92222222222222,383.54468857896325,143.33777777777777" fill="#075466" stroke="#000000" style="fill-opacity: 1; stroke-width: 1;"></polygon></g><g><polygon points="465.7234428948164,72.16888888888889,506.81282005274295,72.16888888888889,527.3575086317062,107.75333333333333,506.81282005274295,143.33777777777777,465.7234428948164,143.33777777777777,445.1787543158531,107.75333333333333" fill="#ffffff" stroke="#000000" style="fill-opacity: 1; stroke-width: 1;"></polygon></g><g><polygon points="95.91904847347728,356.84444444444443,137.00842563140384,356.84444444444443,157.5531142103671,392.4288888888889,137.00842563140384,428.0133333333333,95.91904847347728,428.0133333333333,75.37435989451399,392.4288888888889" fill="#ffffff" stroke="#000000" style="fill-opacity: 1; stroke-width: 1;"></polygon></g><g><polygon points="157.55311421036714,321.26,198.64249136829372,321.26,219.187179947257,356.84444444444443,198.64249136829372,392.4288888888889,157.55311421036714,392.4288888888889,137.00842563140387,356.84444444444443" fill="#075466" stroke="#000000" style="fill-opacity: 1; stroke-width: 1;"></polygon></g><g><polygon points="219.187179947257,285.67555555555555,260.27655710518354,285.67555555555555,280.82124568414685,321.26,260.27655710518354,356.84444444444443,219.187179947257,356.84444444444443,198.64249136829372,321.26" fill="#000000" stroke="#000000" style="fill-opacity: 1; stroke-width: 1;"></polygon></g><g><polygon points="280.82124568414685,250.0911111111111,321.9106228420734,250.0911111111111,342.4553114210367,285.67555555555555,321.9106228420734,321.26,280.82124568414685,321.26,260.27655710518354,285.67555555555555" fill="#ffffff" stroke="#000000" style="fill-opacity: 1; stroke-width: 1;"></polygon></g><g><polygon points="342.4553114210367,214.50666666666666,383.54468857896325,214.50666666666666,404.08937715792655,250.0911111111111,383.54468857896325,285.67555555555555,342.4553114210367,285.67555555555555,321.9106228420734,250.0911111111111" fill="#ffffff" stroke="#000000" style="fill-opacity: 1; stroke-width: 1;"></polygon></g><g><polygon points="404.08937715792655,178.92222222222222,445.1787543158531,178.92222222222222,465.7234428948164,214.50666666666666,445.1787543158531,250.0911111111111,404.08937715792655,250.0911111111111,383.54468857896325,214.50666666666666" fill="#ffffff" stroke="#000000" style="fill-opacity: 1; stroke-width: 1;"></polygon></g><g><polygon points="465.7234428948164,143.33777777777777,506.81282005274295,143.33777777777777,527.3575086317062,178.92222222222222,506.81282005274295,214.50666666666666,465.7234428948164,214.50666666666666,445.1787543158531,178.92222222222222" fill="#000000" stroke="#000000" style="fill-opacity: 1; stroke-width: 1;"></polygon></g><g><polygon points="527.3575086317063,107.75333333333333,568.4468857896329,107.75333333333333,588.9915743685962,143.33777777777777,568.4468857896329,178.92222222222222,527.3575086317063,178.92222222222222,506.812820052743,143.33777777777777" fill="#ffffff" stroke="#000000" style="fill-opacity: 1; stroke-width: 1;"></polygon></g><g><polygon points="95.91904847347728,428.0133333333333,137.00842563140384,428.0133333333333,157.5531142103671,463.59777777777776,137.00842563140384,499.1822222222222,95.91904847347728,499.1822222222222,75.37435989451399,463.59777777777776" fill="#ffffff" stroke="#000000" style="fill-opacity: 1; stroke-width: 1;"></polygon></g><g><polygon points="157.55311421036714,392.4288888888889,198.64249136829372,392.4288888888889,219.187179947257,428.0133333333333,198.64249136829372,463.59777777777776,157.55311421036714,463.59777777777776,137.00842563140387,428.0133333333333" fill="#ffffff" stroke="#000000" style="fill-opacity: 1; stroke-width: 1;"></polygon></g><g><polygon points="219.187179947257,356.84444444444443,260.27655710518354,356.84444444444443,280.82124568414685,392.4288888888889,260.27655710518354,428.0133333333333,219.187179947257,428.0133333333333,198.64249136829372,392.4288888888889" fill="#000000" stroke="#000000" style="fill-opacity: 1; stroke-width: 1;"></polygon></g><g><polygon points="280.82124568414685,321.26,321.9106228420734,321.26,342.4553114210367,356.84444444444443,321.9106228420734,392.4288888888889,280.82124568414685,392.4288888888889,260.27655710518354,356.84444444444443" fill="#ffffff" stroke="#000000" style="fill-opacity: 1; stroke-width: 1;"></polygon></g><g><polygon points="342.4553114210367,285.67555555555555,383.54468857896325,285.67555555555555,404.08937715792655,321.26,383.54468857896325,356.84444444444443,342.4553114210367,356.84444444444443,321.9106228420734,321.26" fill="#075466" stroke="#000000" style="fill-opacity: 1; stroke-width: 1;"></polygon></g><g><polygon points="404.08937715792655,250.0911111111111,445.1787543158531,250.0911111111111,465.7234428948164,285.67555555555555,445.1787543158531,321.26,404.08937715792655,321.26,383.54468857896325,285.67555555555555" fill="#ffffff" stroke="#000000" style="fill-opacity: 1; stroke-width: 1;"></polygon></g><g><polygon points="465.7234428948164,214.50666666666666,506.81282005274295,214.50666666666666,527.3575086317062,250.0911111111111,506.81282005274295,285.67555555555555,465.7234428948164,285.67555555555555,445.1787543158531,250.0911111111111" fill="#ffffff" stroke="#000000" style="fill-opacity: 1; stroke-width: 1;"></polygon></g><g><polygon points="527.3575086317063,178.92222222222222,568.4468857896329,178.92222222222222,588.9915743685962,214.50666666666666,568.4468857896329,250.0911111111111,527.3575086317063,250.0911111111111,506.812820052743,214.50666666666666" fill="#075466" stroke="#000000" style="fill-opacity: 1; stroke-width: 1;"></polygon></g><g><polygon points="588.991574368596,143.33777777777777,630.0809515265227,143.33777777777777,650.6256401054859,178.92222222222222,630.0809515265227,214.50666666666666,588.991574368596,214.50666666666666,568.4468857896328,178.92222222222222" fill="#075466" stroke="#000000" style="fill-opacity: 1; stroke-width: 1;"></polygon></g><g><polygon points="157.55311421036714,463.59777777777776,198.64249136829372,463.59777777777776,219.187179947257,499.1822222222222,198.64249136829372,534.7666666666667,157.55311421036714,534.7666666666667,137.00842563140387,499.1822222222222" fill="#ffffff" stroke="#000000" style="fill-opacity: 1; stroke-width: 1;"></polygon></g><g><polygon points="219.187179947257,428.0133333333333,260.27655710518354,428.0133333333333,280.82124568414685,463.59777777777776,260.27655710518354,499.1822222222222,219.187179947257,499.1822222222222,198.64249136829372,463.59777777777776" fill="#ffffff" stroke="#000000" style="fill-opacity: 1; stroke-width: 1;"></polygon></g><g><polygon points="280.82124568414685,392.4288888888889,321.9106228420734,392.4288888888889,342.4553114210367,428.0133333333333,321.9106228420734,463.59777777777776,280.82124568414685,463.59777777777776,260.27655710518354,428.0133333333333" fill="#000000" stroke="#000000" style="fill-opacity: 1; stroke-width: 1;"></polygon></g><g><polygon points="342.4553114210367,356.84444444444443,383.54468857896325,356.84444444444443,404.08937715792655,392.4288888888889,383.54468857896325,428.0133333333333,342.4553114210367,428.0133333333333,321.9106228420734,392.4288888888889" fill="#075466" stroke="#000000" style="fill-opacity: 1; stroke-width: 1;"></polygon></g><g><polygon points="404.08937715792655,321.26,445.1787543158531,321.26,465.7234428948164,356.84444444444443,445.1787543158531,392.4288888888889,404.08937715792655,392.4288888888889,383.54468857896325,356.84444444444443" fill="#000000" stroke="#000000" style="fill-opacity: 1; stroke-width: 1;"></polygon></g><g><polygon points="465.7234428948164,285.67555555555555,506.81282005274295,285.67555555555555,527.3575086317062,321.26,506.81282005274295,356.84444444444443,465.7234428948164,356.84444444444443,445.1787543158531,321.26" fill="#075466" stroke="#000000" style="fill-opacity: 1; stroke-width: 1;"></polygon></g><g><polygon points="527.3575086317063,250.0911111111111,568.4468857896329,250.0911111111111,588.9915743685962,285.67555555555555,568.4468857896329,321.26,527.3575086317063,321.26,506.812820052743,285.67555555555555" fill="#000000" stroke="#000000" style="fill-opacity: 1; stroke-width: 1;"></polygon></g><g><polygon points="588.991574368596,214.50666666666666,630.0809515265227,214.50666666666666,650.6256401054859,250.0911111111111,630.0809515265227,285.67555555555555,588.991574368596,285.67555555555555,568.4468857896328,250.0911111111111" fill="#ffffff" stroke="#000000" style="fill-opacity: 1; stroke-width: 1;"></polygon></g><g><polygon points="219.187179947257,499.1822222222222,260.27655710518354,499.1822222222222,280.82124568414685,534.7666666666667,260.27655710518354,570.3511111111111,219.187179947257,570.3511111111111,198.64249136829372,534.7666666666667" fill="#ffffff" stroke="#000000" style="fill-opacity: 1; stroke-width: 1;"></polygon></g><g><polygon points="280.82124568414685,463.59777777777776,321.9106228420734,463.59777777777776,342.4553114210367,499.1822222222222,321.9106228420734,534.7666666666667,280.82124568414685,534.7666666666667,260.27655710518354,499.1822222222222" fill="#075466" stroke="#000000" style="fill-opacity: 1; stroke-width: 1;"></polygon></g><g><polygon points="342.4553114210367,428.0133333333333,383.54468857896325,428.0133333333333,404.08937715792655,463.59777777777776,383.54468857896325,499.1822222222222,342.4553114210367,499.1822222222222,321.9106228420734,463.59777777777776" fill="#ffffff" stroke="#000000" style="fill-opacity: 1; stroke-width: 1;"></polygon></g><g><polygon points="404.08937715792655,392.4288888888889,445.1787543158531,392.4288888888889,465.7234428948164,428.0133333333333,445.1787543158531,463.59777777777776,404.08937715792655,463.59777777777776,383.54468857896325,428.0133333333333" fill="#ffffff" stroke="#000000" style="fill-opacity: 1; stroke-width: 1;"></polygon></g><g><polygon points="465.7234428948164,356.84444444444443,506.81282005274295,356.84444444444443,527.3575086317062,392.4288888888889,506.81282005274295,428.0133333333333,465.7234428948164,428.0133333333333,445.1787543158531,392.4288888888889" fill="#000000" stroke="#000000" style="fill-opacity: 1; stroke-width: 1;"></polygon></g><g><polygon points="527.3575086317063,321.26,568.4468857896329,321.26,588.9915743685962,356.84444444444443,568.4468857896329,392.4288888888889,527.3575086317063,392.4288888888889,506.812820052743,356.84444444444443" fill="#ffffff" stroke="#000000" style="fill-opacity: 1; stroke-width: 1;"></polygon></g><g><polygon points="588.991574368596,285.67555555555555,630.0809515265227,285.67555555555555,650.6256401054859,321.26,630.0809515265227,356.84444444444443,588.991574368596,356.84444444444443,568.4468857896328,321.26" fill="#ffffff" stroke="#000000" style="fill-opacity: 1; stroke-width: 1;"></polygon></g><g><polygon points="280.82124568414685,534.7666666666667,321.9106228420734,534.7666666666667,342.4553114210367,570.3511111111111,321.9106228420734,605.9355555555555,280.82124568414685,605.9355555555555,260.27655710518354,570.3511111111111" fill="#075466" stroke="#000000" style="fill-opacity: 1; stroke-width: 1;"></polygon></g><g><polygon points="342.4553114210367,499.1822222222222,383.54468857896325,499.1822222222222,404.08937715792655,534.7666666666667,383.54468857896325,570.3511111111111,342.4553114210367,570.3511111111111,321.9106228420734,534.7666666666667" fill="#ffffff" stroke="#000000" style="fill-opacity: 1; stroke-width: 1;"></polygon></g><g><polygon points="404.08937715792655,463.59777777777776,445.1787543158531,463.59777777777776,465.7234428948164,499.1822222222222,445.1787543158531,534.7666666666667,404.08937715792655,534.7666666666667,383.54468857896325,499.1822222222222" fill="#ffffff" stroke="#000000" style="fill-opacity: 1; stroke-width: 1;"></polygon></g><g><polygon points="465.7234428948164,428.0133333333333,506.81282005274295,428.0133333333333,527.3575086317062,463.59777777777776,506.81282005274295,499.1822222222222,465.7234428948164,499.1822222222222,445.1787543158531,463.59777777777776" fill="#075466" stroke="#000000" style="fill-opacity: 1; stroke-width: 1;"></polygon></g><g><polygon points="527.3575086317063,392.4288888888889,568.4468857896329,392.4288888888889,588.9915743685962,428.0133333333333,568.4468857896329,463.59777777777776,527.3575086317063,463.59777777777776,506.812820052743,428.0133333333333" fill="#ffffff" stroke="#000000" style="fill-opacity: 1; stroke-width: 1;"></polygon></g><g><polygon points="588.991574368596,356.84444444444443,630.0809515265227,356.84444444444443,650.6256401054859,392.4288888888889,630.0809515265227,428.0133333333333,588.991574368596,428.0133333333333,568.4468857896328,392.4288888888889" fill="#ffffff" stroke="#000000" style="fill-opacity: 1; stroke-width: 1;"></polygon></g><g><polygon points="342.4553114210367,570.3511111111111,383.54468857896325,570.3511111111111,404.08937715792655,605.9355555555555,383.54468857896325,641.52,342.4553114210367,641.52,321.9106228420734,605.9355555555555" fill="#ffffff" stroke="#000000" style="fill-opacity: 1; stroke-width: 1;"></polygon></g><g><polygon points="404.08937715792655,534.7666666666667,445.1787543158531,534.7666666666667,465.7234428948164,570.3511111111111,445.1787543158531,605.9355555555555,404.08937715792655,605.9355555555555,383.54468857896325,570.3511111111111" fill="#075466" stroke="#000000" style="fill-opacity: 1; stroke-width: 1;"></polygon></g><g><polygon points="465.7234428948164,499.1822222222222,506.81282005274295,499.1822222222222,527.3575086317062,534.7666666666667,506.81282005274295,570.3511111111111,465.7234428948164,570.3511111111111,445.1787543158531,534.7666666666667" fill="#ffffff" stroke="#000000" style="fill-opacity: 1; stroke-width: 1;"></polygon></g><g><polygon points="527.3575086317063,463.59777777777776,568.4468857896329,463.59777777777776,588.9915743685962,499.1822222222222,568.4468857896329,534.7666666666667,527.3575086317063,534.7666666666667,506.812820052743,499.1822222222222" fill="#075466" stroke="#000000" style="fill-opacity: 1; stroke-width: 1;"></polygon></g><g><polygon points="588.991574368596,428.0133333333333,630.0809515265227,428.0133333333333,650.6256401054859,463.59777777777776,630.0809515265227,499.1822222222222,588.991574368596,499.1822222222222,568.4468857896328,463.59777777777776" fill="#ffffff" stroke="#000000" style="fill-opacity: 1; stroke-width: 1;"></polygon></g><g><line x1="95.91904847347728" x2="137.00842563140384" y1="143.33777777777777" y2="143.33777777777777" stroke="#000000" style="stroke-width: 8; stroke-linecap: round;"></line></g><g></g><g></g><g></g><g><line x1="95.91904847347728" x2="75.37435989451399" y1="214.50666666666666" y2="178.92222222222222" stroke="#000000" style="stroke-width: 8; stroke-linecap: round;"></line></g><g><line x1="75.37435989451399" x2="95.91904847347728" y1="178.92222222222222" y2="143.33777777777777" stroke="#000000" style="stroke-width: 8; stroke-linecap: round;"></line></g><g><line x1="157.55311421036714" x2="198.64249136829372" y1="107.75333333333333" y2="107.75333333333333" stroke="#000000" style="stroke-width: 8; stroke-linecap: round;"></line></g><g></g><g></g><g></g><g><line x1="137.00842563140387" x2="157.55311421036714" y1="143.33777777777777" y2="107.75333333333333" stroke="#000000" style="stroke-width: 8; stroke-linecap: round;"></line></g><g><line x1="219.187179947257" x2="260.27655710518354" y1="72.16888888888889" y2="72.16888888888889" stroke="#000000" style="stroke-width: 8; stroke-linecap: round;"></line></g><g></g><g></g><g></g><g><line x1="198.64249136829372" x2="219.187179947257" y1="107.75333333333333" y2="72.16888888888889" stroke="#000000" style="stroke-width: 8; stroke-linecap: round;"></line></g><g><line x1="280.82124568414685" x2="321.9106228420734" y1="36.58444444444444" y2="36.58444444444444" stroke="#000000" style="stroke-width: 8; stroke-linecap: round;"></line></g><g></g><g></g><g></g><g><line x1="260.27655710518354" x2="280.82124568414685" y1="72.16888888888889" y2="36.58444444444444" stroke="#000000" style="stroke-width: 8; stroke-linecap: round;"></line></g><g><line x1="342.4553114210367" x2="383.54468857896325" y1="1" y2="1" stroke="#000000" style="stroke-width: 8; stroke-linecap: round;"></line></g><g><line x1="383.54468857896325" x2="404.08937715792655" y1="1" y2="36.58444444444444" stroke="#000000" style="stroke-width: 8; stroke-linecap: round;"></line></g><g></g><g></g><g><line x1="321.9106228420734" x2="342.4553114210367" y1="36.58444444444444" y2="1" stroke="#000000" style="stroke-width: 8; stroke-linecap: round;"></line></g><g></g><g></g><g></g><g><line x1="95.91904847347728" x2="75.37435989451399" y1="285.67555555555555" y2="250.0911111111111" stroke="#000000" style="stroke-width: 8; stroke-linecap: round;"></line></g><g><line x1="75.37435989451399" x2="95.91904847347728" y1="250.0911111111111" y2="214.50666666666666" stroke="#000000" style="stroke-width: 8; stroke-linecap: round;"></line></g><g></g><g></g><g></g><g></g><g></g><g></g><g></g><g></g><g></g><g></g><g></g><g></g><g><line x1="404.08937715792655" x2="445.1787543158531" y1="36.58444444444444" y2="36.58444444444444" stroke="#000000" style="stroke-width: 8; stroke-linecap: round;"></line></g><g><line x1="445.1787543158531" x2="465.7234428948164" y1="36.58444444444444" y2="72.16888888888889" stroke="#000000" style="stroke-width: 8; stroke-linecap: round;"></line></g><g></g><g></g><g></g><g></g><g></g><g><line x1="95.91904847347728" x2="75.37435989451399" y1="356.84444444444443" y2="321.26" stroke="#000000" style="stroke-width: 8; stroke-linecap: round;"></line></g><g><line x1="75.37435989451399" x2="95.91904847347728" y1="321.26" y2="285.67555555555555" stroke="#000000" style="stroke-width: 8; stroke-linecap: round;"></line></g><g></g><g></g><g></g><g></g><g></g><g></g><g></g><g></g><g></g><g></g><g></g><g></g><g></g><g></g><g></g><g><line x1="465.7234428948164" x2="506.81282005274295" y1="72.16888888888889" y2="72.16888888888889" stroke="#000000" style="stroke-width: 8; stroke-linecap: round;"></line></g><g><line x1="506.81282005274295" x2="527.3575086317062" y1="72.16888888888889" y2="107.75333333333333" stroke="#000000" style="stroke-width: 8; stroke-linecap: round;"></line></g><g></g><g></g><g></g><g></g><g></g><g><line x1="95.91904847347728" x2="75.37435989451399" y1="428.0133333333333" y2="392.4288888888889" stroke="#000000" style="stroke-width: 8; stroke-linecap: round;"></line></g><g><line x1="75.37435989451399" x2="95.91904847347728" y1="392.4288888888889" y2="356.84444444444443" stroke="#000000" style="stroke-width: 8; stroke-linecap: round;"></line></g><g></g><g></g><g></g><g></g><g></g><g></g><g></g><g></g><g></g><g></g><g></g><g></g><g></g><g></g><g></g><g></g><g></g><g></g><g><line x1="527.3575086317063" x2="568.4468857896329" y1="107.75333333333333" y2="107.75333333333333" stroke="#000000" style="stroke-width: 8; stroke-linecap: round;"></line></g><g><line x1="568.4468857896329" x2="588.9915743685962" y1="107.75333333333333" y2="143.33777777777777" stroke="#000000" style="stroke-width: 8; stroke-linecap: round;"></line></g><g></g><g></g><g></g><g></g><g><line x1="137.00842563140384" x2="95.91904847347728" y1="499.1822222222222" y2="499.1822222222222" stroke="#000000" style="stroke-width: 8; stroke-linecap: round;"></line></g><g><line x1="95.91904847347728" x2="75.37435989451399" y1="499.1822222222222" y2="463.59777777777776" stroke="#000000" style="stroke-width: 8; stroke-linecap: round;"></line></g><g><line x1="75.37435989451399" x2="95.91904847347728" y1="463.59777777777776" y2="428.0133333333333" stroke="#000000" style="stroke-width: 8; stroke-linecap: round;"></line></g><g></g><g></g><g></g><g></g><g></g><g></g><g></g><g></g><g></g><g></g><g></g><g></g><g></g><g></g><g></g><g></g><g></g><g></g><g></g><g></g><g></g><g><line x1="588.991574368596" x2="630.0809515265227" y1="143.33777777777777" y2="143.33777777777777" stroke="#000000" style="stroke-width: 8; stroke-linecap: round;"></line></g><g><line x1="630.0809515265227" x2="650.6256401054859" y1="143.33777777777777" y2="178.92222222222222" stroke="#000000" style="stroke-width: 8; stroke-linecap: round;"></line></g><g><line x1="650.6256401054859" x2="630.0809515265227" y1="178.92222222222222" y2="214.50666666666666" stroke="#000000" style="stroke-width: 8; stroke-linecap: round;"></line></g><g></g><g></g><g></g><g><line x1="198.64249136829372" x2="157.55311421036714" y1="534.7666666666667" y2="534.7666666666667" stroke="#000000" style="stroke-width: 8; stroke-linecap: round;"></line></g><g><line x1="157.55311421036714" x2="137.00842563140387" y1="534.7666666666667" y2="499.1822222222222" stroke="#000000" style="stroke-width: 8; stroke-linecap: round;"></line></g><g></g><g></g><g></g><g></g><g></g><g></g><g></g><g></g><g></g><g></g><g></g><g></g><g></g><g></g><g></g><g></g><g></g><g></g><g><line x1="630.0809515265227" x2="650.6256401054859" y1="214.50666666666666" y2="250.0911111111111" stroke="#000000" style="stroke-width: 8; stroke-linecap: round;"></line></g><g><line x1="650.6256401054859" x2="630.0809515265227" y1="250.0911111111111" y2="285.67555555555555" stroke="#000000" style="stroke-width: 8; stroke-linecap: round;"></line></g><g></g><g></g><g></g><g><line x1="260.27655710518354" x2="219.187179947257" y1="570.3511111111111" y2="570.3511111111111" stroke="#000000" style="stroke-width: 8; stroke-linecap: round;"></line></g><g><line x1="219.187179947257" x2="198.64249136829372" y1="570.3511111111111" y2="534.7666666666667" stroke="#000000" style="stroke-width: 8; stroke-linecap: round;"></line></g><g></g><g></g><g></g><g></g><g></g><g></g><g></g><g></g><g></g><g></g><g></g><g></g><g></g><g></g><g></g><g><line x1="630.0809515265227" x2="650.6256401054859" y1="285.67555555555555" y2="321.26" stroke="#000000" style="stroke-width: 8; stroke-linecap: round;"></line></g><g><line x1="650.6256401054859" x2="630.0809515265227" y1="321.26" y2="356.84444444444443" stroke="#000000" style="stroke-width: 8; stroke-linecap: round;"></line></g><g></g><g></g><g></g><g><line x1="321.9106228420734" x2="280.82124568414685" y1="605.9355555555555" y2="605.9355555555555" stroke="#000000" style="stroke-width: 8; stroke-linecap: round;"></line></g><g><line x1="280.82124568414685" x2="260.27655710518354" y1="605.9355555555555" y2="570.3511111111111" stroke="#000000" style="stroke-width: 8; stroke-linecap: round;"></line></g><g></g><g></g><g></g><g></g><g></g><g></g><g></g><g></g><g></g><g></g><g></g><g></g><g><line x1="630.0809515265227" x2="650.6256401054859" y1="356.84444444444443" y2="392.4288888888889" stroke="#000000" style="stroke-width: 8; stroke-linecap: round;"></line></g><g><line x1="650.6256401054859" x2="630.0809515265227" y1="392.4288888888889" y2="428.0133333333333" stroke="#000000" style="stroke-width: 8; stroke-linecap: round;"></line></g><g></g><g></g><g><line x1="404.08937715792655" x2="383.54468857896325" y1="605.9355555555555" y2="641.52" stroke="#000000" style="stroke-width: 8; stroke-linecap: round;"></line></g><g><line x1="383.54468857896325" x2="342.4553114210367" y1="641.52" y2="641.52" stroke="#000000" style="stroke-width: 8; stroke-linecap: round;"></line></g><g><line x1="342.4553114210367" x2="321.9106228420734" y1="641.52" y2="605.9355555555555" stroke="#000000" style="stroke-width: 8; stroke-linecap: round;"></line></g><g></g><g><line x1="465.7234428948164" x2="445.1787543158531" y1="570.3511111111111" y2="605.9355555555555" stroke="#000000" style="stroke-width: 8; stroke-linecap: round;"></line></g><g><line x1="445.1787543158531" x2="404.08937715792655" y1="605.9355555555555" y2="605.9355555555555" stroke="#000000" style="stroke-width: 8; stroke-linecap: round;"></line></g><g></g><g><line x1="527.3575086317062" x2="506.81282005274295" y1="534.7666666666667" y2="570.3511111111111" stroke="#000000" style="stroke-width: 8; stroke-linecap: round;"></line></g><g><line x1="506.81282005274295" x2="465.7234428948164" y1="570.3511111111111" y2="570.3511111111111" stroke="#000000" style="stroke-width: 8; stroke-linecap: round;"></line></g><g></g><g><line x1="588.9915743685962" x2="568.4468857896329" y1="499.1822222222222" y2="534.7666666666667" stroke="#000000" style="stroke-width: 8; stroke-linecap: round;"></line></g><g><line x1="568.4468857896329" x2="527.3575086317063" y1="534.7666666666667" y2="534.7666666666667" stroke="#000000" style="stroke-width: 8; stroke-linecap: round;"></line></g><g><line x1="630.0809515265227" x2="650.6256401054859" y1="428.0133333333333" y2="463.59777777777776" stroke="#000000" style="stroke-width: 8; stroke-linecap: round;"></line></g><g><line x1="650.6256401054859" x2="630.0809515265227" y1="463.59777777777776" y2="499.1822222222222" stroke="#000000" style="stroke-width: 8; stroke-linecap: round;"></line></g><g><line x1="630.0809515265227" x2="588.991574368596" y1="499.1822222222222" y2="499.1822222222222" stroke="#000000" style="stroke-width: 8; stroke-linecap: round;"></line></g></svg>