<svg class="pb-2" id="Grid" style="overflow: visible; z-index: 90;" xmlns="http://www.w3.org/2000/svg" xmlns:xlink="http://www.w3.org/1999/xlink" height="630.0642857142857" width="726" viewBox="0 0 726 630.0642857142857">
  Sorry, but your browser is not supported. Try to setup the new version.
<desc>Created with Snap</desc><defs><filter id="Smhcetdcf8e" filterUnits="userSpaceOnUse"><feColorMatrix type="matrix" values="1 0 0 0 0 0 1 0 0 0 0 0 1 0 0 0 0 0 0.7 0"></feColorMatrix></filter><filter id="Smhcetdcf8g" filterUnits="userSpaceOnUse"><feColorMatrix type="matrix" values="-.17 -.17 -.17 0 1 -.22 -.22 -.22 0 1 -.33 -.33 -.33 0 1 0 0 0 1 0"></feColorMatrix></filter></defs><g><polygon points="36.30000000000001,23.335714285714285,129.64285714285717,23.335714285714285,129.64285714285717,116.67857142857143,36.30000000000001,116.67857142857143" fill="#38585c" stroke="#000000" style="fill-opacity: 1; stroke-width: 1;"></polygon><text x="46.45103571428574" y="56.82246428571428" lengthAdjust="spacingAndGlyphs" textLength="20.535428571428575" fill="#00121d" style="font-family: sans-serif; font-weight: bold; font-size: 37.3371px;">3</text></g><g><polygon points="129.64285714285717,23.335714285714285,222.98571428571432,23.335714285714285,222.98571428571432,116.67857142857143,129.64285714285717,116.67857142857143" fill="#38585c" stroke="#000000" style="fill-opacity: 1; stroke-width: 1;"></polygon></g><g><polygon points="222.9857142857143,23.335714285714285,316.3285714285714,23.335714285714285,316.3285714285714,116.67857142857143,222.9857142857143,116.67857142857143" fill="#38585c" stroke="#000000" style="fill-opacity: 1; stroke-width: 1;"></polygon><text x="233.13675" y="56.82246428571428" lengthAdjust="spacingAndGlyphs" textLength="20.535428571428575" fill="#00121d" style="font-family: sans-serif; font-weight: bold; font-size: 37.3371px;">2</text></g><g><polygon points="316.3285714285714,23.335714285714285,409.6714285714286,23.335714285714285,409.6714285714286,116.67857142857143,316.3285714285714,116.67857142857143" fill="#ffffff" stroke="#000000" style="fill-opacity: 1; stroke-width: 1;"></polygon></g><g><polygon points="409.6714285714286,23.335714285714285,503.01428571428573,23.335714285714285,503.01428571428573,116.67857142857143,409.6714285714286,116.67857142857143" fill="#38585c" stroke="#000000" style="fill-opacity: 1; stroke-width: 1;"></polygon></g><g><polygon points="503.01428571428573,23.335714285714285,596.3571428571429,23.335714285714285,596.3571428571429,116.67857142857143,503.01428571428573,116.67857142857143" fill="#38585c" stroke="#000000" style="fill-opacity: 1; stroke-width: 1;"></polygon><text x="513.1653214285715" y="56.82246428571428" lengthAdjust="spacingAndGlyphs" textLength="20.535428571428575" fill="#00121d" style="font-family: sans-serif; font-weight: bold; font-size: 37.3371px;">2</text></g><g><polygon points="596.3571428571429,23.335714285714285,689.7,23.335714285714285,689.7,116.67857142857143,596.3571428571429,116.67857142857143" fill="#38585c" stroke="#000000" style="fill-opacity: 1; stroke-width: 1;"></polygon></g><g><polygon points="36.30000000000001,116.67857142857143,129.64285714285717,116.67857142857143,129.64285714285717,210.02142857142857,36.30000000000001,210.02142857142857" fill="#38585c" stroke="#000000" style="fill-opacity: 1; stroke-width: 1;"></polygon></g><g><polygon points="129.64285714285717,116.67857142857143,222.98571428571432,116.67857142857143,222.98571428571432,210.02142857142857,129.64285714285717,210.02142857142857" fill="#ffffff" stroke="#000000" style="fill-opacity: 1; stroke-width: 1;"></polygon></g><g><polygon points="222.9857142857143,116.67857142857143,316.3285714285714,116.67857142857143,316.3285714285714,210.02142857142857,222.9857142857143,210.02142857142857" fill="#38585c" stroke="#000000" style="fill-opacity: 1; stroke-width: 1;"></polygon></g><g><polygon points="316.3285714285714,116.67857142857143,409.6714285714286,116.67857142857143,409.6714285714286,210.02142857142857,316.3285714285714,210.02142857142857" fill="#38585c" stroke="#000000" style="fill-opacity: 1; stroke-width: 1;"></polygon></g><g><polygon points="409.6714285714286,116.67857142857143,503.01428571428573,116.67857142857143,503.01428571428573,210.02142857142857,409.6714285714286,210.02142857142857" fill="#38585c" stroke="#000000" style="fill-opacity: 1; stroke-width: 1;"></polygon></g><g><polygon points="503.01428571428573,116.67857142857143,596.3571428571429,116.67857142857143,596.3571428571429,210.02142857142857,503.01428571428573,210.02142857142857" fill="#ffffff" stroke="#000000" style="fill-opacity: 1; stroke-width: 1;"></polygon></g><g><polygon points="596.3571428571429,116.67857142857143,689.7,116.67857142857143,689.7,210.02142857142857,596.3571428571429,210.02142857142857" fill="#ffffff" stroke="#000000" style="fill-opacity: 1; stroke-width: 1;"></polygon></g><g><polygon points="36.30000000000001,210.02142857142857,129.64285714285717,210.02142857142857,129.64285714285717,303.3642857142857,36.30000000000001,303.3642857142857" fill="#ffffff" stroke="#000000" style="fill-opacity: 1; stroke-width: 1;"></polygon><text x="46.45103571428574" y="243.50817857142857" lengthAdjust="spacingAndGlyphs" textLength="20.535428571428575" fill="#00121d" style="font-family: sans-serif; font-weight: bold; font-size: 37.3371px;">2</text></g><g><polygon points="129.64285714285717,210.02142857142857,222.98571428571432,210.02142857142857,222.98571428571432,303.3642857142857,129.64285714285717,303.3642857142857" fill="#38585c" stroke="#000000" style="fill-opacity: 1; stroke-width: 1;"></polygon></g><g><polygon points="222.9857142857143,210.02142857142857,316.3285714285714,210.02142857142857,316.3285714285714,303.3642857142857,222.9857142857143,303.3642857142857" fill="#38585c" stroke="#000000" style="fill-opacity: 1; stroke-width: 1;"></polygon></g><g><polygon points="316.3285714285714,210.02142857142857,409.6714285714286,210.02142857142857,409.6714285714286,303.3642857142857,316.3285714285714,303.3642857142857" fill="#ffffff" stroke="#000000" style="fill-opacity: 1; stroke-width: 1;"></polygon></g><g><polygon points="409.6714285714286,210.02142857142857,503.01428571428573,210.02142857142857,503.01428571428573,303.3642857142857,409.6714285714286,303.3642857142857" fill="#38585c" stroke="#000000" style="fill-opacity: 1; stroke-width: 1;"></polygon></g><g><polygon points="503.01428571428573,210.02142857142857,596.3571428571429,210.02142857142857,596.3571428571429,303.3642857142857,503.01428571428573,303.3642857142857" fill="#38585c" stroke="#000000" style="fill-opacity: 1; stroke-width: 1;"></polygon><text x="513.1653214285715" y="243.50817857142857" lengthAdjust="spacingAndGlyphs" textLength="20.535428571428575" fill="#00121d" style="font-family: sans-serif; font-weight: bold; font-size: 37.3371px;">2</text></g><g><polygon points="596.3571428571429,210.02142857142857,689.7,210.02142857142857,689.7,303.3642857142857,596.3571428571429,303.3642857142857" fill="#ffffff" stroke="#000000" style="fill-opacity: 1; stroke-width: 1;"></polygon></g><g><polygon points="36.30000000000001,303.3642857142857,129.64285714285717,303.3642857142857,129.64285714285717,396.70714285714286,36.30000000000001,396.70714285714286" fill="#ffffff" stroke="#000000" style="fill-opacity: 1; stroke-width: 1;"></polygon></g><g><polygon points="129.64285714285717,303.3642857142857,222.98571428571432,303.3642857142857,222.98571428571432,396.70714285714286,129.64285714285717,396.70714285714286" fill="#38585c" stroke="#000000" style="fill-opacity: 1; stroke-width: 1;"></polygon></g><g><polygon points="222.9857142857143,303.3642857142857,316.3285714285714,303.3642857142857,316.3285714285714,396.70714285714286,222.9857142857143,396.70714285714286" fill="#ffffff" stroke="#000000" style="fill-opacity: 1; stroke-width: 1;"></polygon><text x="233.13675" y="336.8510357142857" lengthAdjust="spacingAndGlyphs" textLength="20.535428571428575" fill="#00121d" style="font-family: sans-serif; font-weight: bold; font-size: 37.3371px;">2</text></g><g><polygon points="316.3285714285714,303.3642857142857,409.6714285714286,303.3642857142857,409.6714285714286,396.70714285714286,316.3285714285714,396.70714285714286" fill="#ffffff" stroke="#000000" style="fill-opacity: 1; stroke-width: 1;"></polygon></g><g><polygon points="409.6714285714286,303.3642857142857,503.01428571428573,303.3642857142857,503.01428571428573,396.70714285714286,409.6714285714286,396.70714285714286" fill="#ffffff" stroke="#000000" style="fill-opacity: 1; stroke-width: 1;"></polygon></g><g><polygon points="503.01428571428573,303.3642857142857,596.3571428571429,303.3642857142857,596.3571428571429,396.70714285714286,503.01428571428573,396.70714285714286" fill="#38585c" stroke="#000000" style="fill-opacity: 1; stroke-width: 1;"></polygon></g><g><polygon points="596.3571428571429,303.3642857142857,689.7,303.3642857142857,689.7,396.70714285714286,596.3571428571429,396.70714285714286" fill="#ffffff" stroke="#000000" style="fill-opacity: 1; stroke-width: 1;"></polygon></g><g><polygon points="36.30000000000001,396.70714285714286,129.64285714285717,396.70714285714286,129.64285714285717,490.05,36.30000000000001,490.05" fill="#38585c" stroke="#000000" style="fill-opacity: 1; stroke-width: 1;"></polygon><text x="46.45103571428574" y="430.1938928571428" lengthAdjust="spacingAndGlyphs" textLength="20.535428571428575" fill="#00121d" style="font-family: sans-serif; font-weight: bold; font-size: 37.3371px;">2</text></g><g><polygon points="129.64285714285717,396.70714285714286,222.98571428571432,396.70714285714286,222.98571428571432,490.05,129.64285714285717,490.05" fill="#38585c" stroke="#000000" style="fill-opacity: 1; stroke-width: 1;"></polygon></g><g><polygon points="222.9857142857143,396.70714285714286,316.3285714285714,396.70714285714286,316.3285714285714,490.05,222.9857142857143,490.05" fill="#38585c" stroke="#000000" style="fill-opacity: 1; stroke-width: 1;"></polygon></g><g><polygon points="316.3285714285714,396.70714285714286,409.6714285714286,396.70714285714286,409.6714285714286,490.05,316.3285714285714,490.05" fill="#ffffff" stroke="#000000" style="fill-opacity: 1; stroke-width: 1;"></polygon></g><g><polygon points="409.6714285714286,396.70714285714286,503.01428571428573,396.70714285714286,503.01428571428573,490.05,409.6714285714286,490.05" fill="#38585c" stroke="#000000" style="fill-opacity: 1; stroke-width: 1;"></polygon></g><g><polygon points="503.01428571428573,396.70714285714286,596.3571428571429,396.70714285714286,596.3571428571429,490.05,503.01428571428573,490.05" fill="#38585c" stroke="#000000" style="fill-opacity: 1; stroke-width: 1;"></polygon><text x="513.1653214285715" y="430.1938928571428" lengthAdjust="spacingAndGlyphs" textLength="20.535428571428575" fill="#00121d" style="font-family: sans-serif; font-weight: bold; font-size: 37.3371px;">3</text></g><g><polygon points="596.3571428571429,396.70714285714286,689.7,396.70714285714286,689.7,490.05,596.3571428571429,490.05" fill="#38585c" stroke="#000000" style="fill-opacity: 1; stroke-width: 1;"></polygon></g><g><polygon points="36.30000000000001,490.05,129.64285714285717,490.05,129.64285714285717,583.3928571428571,36.30000000000001,583.3928571428571" fill="#ffffff" stroke="#000000" style="fill-opacity: 1; stroke-width: 1;"></polygon></g><g><polygon points="129.64285714285717,490.05,222.98571428571432,490.05,222.98571428571432,583.3928571428571,129.64285714285717,583.3928571428571" fill="#ffffff" stroke="#000000" style="fill-opacity: 1; stroke-width: 1;"></polygon></g><g><polygon points="222.9857142857143,490.05,316.3285714285714,490.05,316.3285714285714,583.3928571428571,222.9857142857143,583.3928571428571" fill="#38585c" stroke="#000000" style="fill-opacity: 1; stroke-width: 1;"></polygon><text x="233.13675" y="523.53675" lengthAdjust="spacingAndGlyphs" textLength="20.535428571428575" fill="#00121d" style="font-family: sans-serif; font-weight: bold; font-size: 37.3371px;">3</text></g><g><polygon points="316.3285714285714,490.05,409.6714285714286,490.05,409.6714285714286,583.3928571428571,316.3285714285714,583.3928571428571" fill="#38585c" stroke="#000000" style="fill-opacity: 1; stroke-width: 1;"></polygon></g><g><polygon points="409.6714285714286,490.05,503.01428571428573,490.05,503.01428571428573,583.3928571428571,409.6714285714286,583.3928571428571" fill="#38585c" stroke="#000000" style="fill-opacity: 1; stroke-width: 1;"></polygon></g><g><polygon points="503.01428571428573,490.05,596.3571428571429,490.05,596.3571428571429,583.3928571428571,503.01428571428573,583.3928571428571" fill="#ffffff" stroke="#000000" style="fill-opacity: 1; stroke-width: 1;"></polygon></g><g><polygon points="596.3571428571429,490.05,689.7,490.05,689.7,583.3928571428571,596.3571428571429,583.3928571428571" fill="#38585c" stroke="#000000" style="fill-opacity: 1; stroke-width: 1;"></polygon></g><g><line x1="36.30000000000001" x2="129.64285714285717" y1="23.335714285714285" y2="23.335714285714285" stroke="#000000" style="stroke-width: 10; stroke-linecap: round;"></line></g><g></g><g></g><g><line x1="36.30000000000001" x2="36.30000000000001" y1="116.67857142857143" y2="23.335714285714285" stroke="#000000" style="stroke-width: 10; stroke-linecap: round;"></line></g><g><line x1="129.64285714285717" x2="222.98571428571432" y1="23.335714285714285" y2="23.335714285714285" stroke="#000000" style="stroke-width: 10; stroke-linecap: round;"></line></g><g><line x1="222.98571428571432" x2="222.98571428571432" y1="23.335714285714285" y2="116.67857142857143" stroke="#000000" style="stroke-width: 10; stroke-linecap: round;"></line></g><g></g><g><line x1="222.9857142857143" x2="316.3285714285714" y1="23.335714285714285" y2="23.335714285714285" stroke="#000000" style="stroke-width: 10; stroke-linecap: round;"></line></g><g></g><g><line x1="316.3285714285714" x2="222.9857142857143" y1="116.67857142857143" y2="116.67857142857143" stroke="#000000" style="stroke-width: 10; stroke-linecap: round;"></line></g><g><line x1="316.3285714285714" x2="409.6714285714286" y1="23.335714285714285" y2="23.335714285714285" stroke="#000000" style="stroke-width: 10; stroke-linecap: round;"></line></g><g></g><g><line x1="409.6714285714286" x2="316.3285714285714" y1="116.67857142857143" y2="116.67857142857143" stroke="#000000" style="stroke-width: 10; stroke-linecap: round;"></line></g><g><line x1="409.6714285714286" x2="503.01428571428573" y1="23.335714285714285" y2="23.335714285714285" stroke="#000000" style="stroke-width: 10; stroke-linecap: round;"></line></g><g><line x1="503.01428571428573" x2="503.01428571428573" y1="23.335714285714285" y2="116.67857142857143" stroke="#000000" style="stroke-width: 10; stroke-linecap: round;"></line></g><g><line x1="503.01428571428573" x2="409.6714285714286" y1="116.67857142857143" y2="116.67857142857143" stroke="#000000" style="stroke-width: 10; stroke-linecap: round;"></line></g><g><line x1="503.01428571428573" x2="596.3571428571429" y1="23.335714285714285" y2="23.335714285714285" stroke="#000000" style="stroke-width: 10; stroke-linecap: round;"></line></g><g></g><g></g><g><line x1="596.3571428571429" x2="689.7" y1="23.335714285714285" y2="23.335714285714285" stroke="#000000" style="stroke-width: 10; stroke-linecap: round;"></line></g><g><line x1="689.7" x2="689.7" y1="23.335714285714285" y2="116.67857142857143" stroke="#000000" style="stroke-width: 10; stroke-linecap: round;"></line></g><g></g><g></g><g><line x1="129.64285714285717" x2="36.30000000000001" y1="210.02142857142857" y2="210.02142857142857" stroke="#000000" style="stroke-width: 10; stroke-linecap: round;"></line></g><g><line x1="36.30000000000001" x2="36.30000000000001" y1="210.02142857142857" y2="116.67857142857143" stroke="#000000" style="stroke-width: 10; stroke-linecap: round;"></line></g><g><line x1="222.98571428571432" x2="222.98571428571432" y1="116.67857142857143" y2="210.02142857142857" stroke="#000000" style="stroke-width: 10; stroke-linecap: round;"></line></g><g><line x1="222.98571428571432" x2="129.64285714285717" y1="210.02142857142857" y2="210.02142857142857" stroke="#000000" style="stroke-width: 10; stroke-linecap: round;"></line></g><g></g><g></g><g></g><g></g><g><line x1="503.01428571428573" x2="503.01428571428573" y1="116.67857142857143" y2="210.02142857142857" stroke="#000000" style="stroke-width: 10; stroke-linecap: round;"></line></g><g></g><g></g><g><line x1="596.3571428571429" x2="503.01428571428573" y1="210.02142857142857" y2="210.02142857142857" stroke="#000000" style="stroke-width: 10; stroke-linecap: round;"></line></g><g><line x1="689.7" x2="689.7" y1="116.67857142857143" y2="210.02142857142857" stroke="#000000" style="stroke-width: 10; stroke-linecap: round;"></line></g><g><line x1="689.7" x2="596.3571428571429" y1="210.02142857142857" y2="210.02142857142857" stroke="#000000" style="stroke-width: 10; stroke-linecap: round;"></line></g><g></g><g></g><g><line x1="36.30000000000001" x2="36.30000000000001" y1="303.3642857142857" y2="210.02142857142857" stroke="#000000" style="stroke-width: 10; stroke-linecap: round;"></line></g><g><line x1="222.98571428571432" x2="222.98571428571432" y1="210.02142857142857" y2="303.3642857142857" stroke="#000000" style="stroke-width: 10; stroke-linecap: round;"></line></g><g></g><g></g><g><line x1="316.3285714285714" x2="222.9857142857143" y1="303.3642857142857" y2="303.3642857142857" stroke="#000000" style="stroke-width: 10; stroke-linecap: round;"></line></g><g></g><g><line x1="409.6714285714286" x2="316.3285714285714" y1="303.3642857142857" y2="303.3642857142857" stroke="#000000" style="stroke-width: 10; stroke-linecap: round;"></line></g><g><line x1="503.01428571428573" x2="503.01428571428573" y1="210.02142857142857" y2="303.3642857142857" stroke="#000000" style="stroke-width: 10; stroke-linecap: round;"></line></g><g><line x1="503.01428571428573" x2="409.6714285714286" y1="303.3642857142857" y2="303.3642857142857" stroke="#000000" style="stroke-width: 10; stroke-linecap: round;"></line></g><g></g><g></g><g><line x1="689.7" x2="689.7" y1="210.02142857142857" y2="303.3642857142857" stroke="#000000" style="stroke-width: 10; stroke-linecap: round;"></line></g><g></g><g></g><g><line x1="129.64285714285717" x2="36.30000000000001" y1="396.70714285714286" y2="396.70714285714286" stroke="#000000" style="stroke-width: 10; stroke-linecap: round;"></line></g><g><line x1="36.30000000000001" x2="36.30000000000001" y1="396.70714285714286" y2="303.3642857142857" stroke="#000000" style="stroke-width: 10; stroke-linecap: round;"></line></g><g><line x1="222.98571428571432" x2="222.98571428571432" y1="303.3642857142857" y2="396.70714285714286" stroke="#000000" style="stroke-width: 10; stroke-linecap: round;"></line></g><g><line x1="222.98571428571432" x2="129.64285714285717" y1="396.70714285714286" y2="396.70714285714286" stroke="#000000" style="stroke-width: 10; stroke-linecap: round;"></line></g><g></g><g></g><g></g><g></g><g><line x1="503.01428571428573" x2="503.01428571428573" y1="303.3642857142857" y2="396.70714285714286" stroke="#000000" style="stroke-width: 10; stroke-linecap: round;"></line></g><g></g><g></g><g><line x1="596.3571428571429" x2="503.01428571428573" y1="396.70714285714286" y2="396.70714285714286" stroke="#000000" style="stroke-width: 10; stroke-linecap: round;"></line></g><g><line x1="689.7" x2="689.7" y1="303.3642857142857" y2="396.70714285714286" stroke="#000000" style="stroke-width: 10; stroke-linecap: round;"></line></g><g><line x1="689.7" x2="596.3571428571429" y1="396.70714285714286" y2="396.70714285714286" stroke="#000000" style="stroke-width: 10; stroke-linecap: round;"></line></g><g></g><g></g><g><line x1="36.30000000000001" x2="36.30000000000001" y1="490.05" y2="396.70714285714286" stroke="#000000" style="stroke-width: 10; stroke-linecap: round;"></line></g><g><line x1="222.98571428571432" x2="222.98571428571432" y1="396.70714285714286" y2="490.05" stroke="#000000" style="stroke-width: 10; stroke-linecap: round;"></line></g><g></g><g></g><g><line x1="316.3285714285714" x2="222.9857142857143" y1="490.05" y2="490.05" stroke="#000000" style="stroke-width: 10; stroke-linecap: round;"></line></g><g></g><g><line x1="409.6714285714286" x2="316.3285714285714" y1="490.05" y2="490.05" stroke="#000000" style="stroke-width: 10; stroke-linecap: round;"></line></g><g><line x1="503.01428571428573" x2="503.01428571428573" y1="396.70714285714286" y2="490.05" stroke="#000000" style="stroke-width: 10; stroke-linecap: round;"></line></g><g><line x1="503.01428571428573" x2="409.6714285714286" y1="490.05" y2="490.05" stroke="#000000" style="stroke-width: 10; stroke-linecap: round;"></line></g><g></g><g></g><g><line x1="689.7" x2="689.7" y1="396.70714285714286" y2="490.05" stroke="#000000" style="stroke-width: 10; stroke-linecap: round;"></line></g><g></g><g></g><g><line x1="129.64285714285717" x2="36.30000000000001" y1="583.3928571428571" y2="583.3928571428571" stroke="#000000" style="stroke-width: 10; stroke-linecap: round;"></line></g><g><line x1="36.30000000000001" x2="36.30000000000001" y1="583.3928571428571" y2="490.05" stroke="#000000" style="stroke-width: 10; stroke-linecap: round;"></line></g><g><line x1="222.98571428571432" x2="222.98571428571432" y1="490.05" y2="583.3928571428571" stroke="#000000" style="stroke-width: 10; stroke-linecap: round;"></line></g><g><line x1="222.98571428571432" x2="129.64285714285717" y1="583.3928571428571" y2="583.3928571428571" stroke="#000000" style="stroke-width: 10; stroke-linecap: round;"></line></g><g></g><g><line x1="316.3285714285714" x2="222.9857142857143" y1="583.3928571428571" y2="583.3928571428571" stroke="#000000" style="stroke-width: 10; stroke-linecap: round;"></line></g><g></g><g><line x1="409.6714285714286" x2="316.3285714285714" y1="583.3928571428571" y2="583.3928571428571" stroke="#000000" style="stroke-width: 10; stroke-linecap: round;"></line></g><g><line x1="503.01428571428573" x2="503.01428571428573" y1="490.05" y2="583.3928571428571" stroke="#000000" style="stroke-width: 10; stroke-linecap: round;"></line></g><g><line x1="503.01428571428573" x2="409.6714285714286" y1="583.3928571428571" y2="583.3928571428571" stroke="#000000" style="stroke-width: 10; stroke-linecap: round;"></line></g><g></g><g><line x1="596.3571428571429" x2="503.01428571428573" y1="583.3928571428571" y2="583.3928571428571" stroke="#000000" style="stroke-width: 10; stroke-linecap: round;"></line></g><g><line x1="689.7" x2="689.7" y1="490.05" y2="583.3928571428571" stroke="#000000" style="stroke-width: 10; stroke-linecap: round;"></line></g><g><line x1="689.7" x2="596.3571428571429" y1="583.3928571428571" y2="583.3928571428571" stroke="#000000" style="stroke-width: 10; stroke-linecap: round;"></line></g><g></g><g></g><g></g><g></g><g></g><g></g><g></g><g></g><g></g><g></g><g></g><g></g><g></g><g></g><g></g><g></g><g></g><g></g><g></g><g></g><g></g><g></g><g></g><g></g><g></g><g></g><g></g><g></g><g></g><g></g><g></g><g></g><g></g><g></g><g></g><g></g><g></g><g></g><g></g><g></g><g></g><g></g><g></g><g></g><g></g><g></g><g></g><g></g><g></g><g></g><g></g><g></g><g></g><g></g><g></g><g></g></svg>