<svg class="pb-2" id="Grid" style="overflow: visible; z-index: 90;" xmlns="http://www.w3.org/2000/svg" xmlns:xlink="http://www.w3.org/1999/xlink" height="506.385" width="726" viewBox="0 0 726 506.385">
  Sorry, but your browser is not supported. Try to setup the new version.
<desc>Created with Snap</desc><defs><filter id="Smhdjtx3udk" filterUnits="userSpaceOnUse"><feColorMatrix type="matrix" values="1 0 0 0 0 0 1 0 0 0 0 0 1 0 0 0 0 0 0.7 0"></feColorMatrix></filter><filter id="Smhdjtx3udm" filterUnits="userSpaceOnUse"><feColorMatrix type="matrix" values="-.17 -.17 -.17 0 1 -.22 -.22 -.22 0 1 -.33 -.33 -.33 0 1 0 0 0 1 0"></feColorMatrix></filter></defs><g><polygon points="36.299999999999955,16.335,101.63999999999996,16.335,101.63999999999996,81.67500000000001,36.299999999999955,81.67500000000001" fill="#ffffff" stroke="#000000" style="fill-opacity: 1; stroke-width: 1;"></polygon></g><g><polygon points="101.63999999999996,16.335,166.97999999999996,16.335,166.97999999999996,81.67500000000001,101.63999999999996,81.67500000000001" fill="#38585c" stroke="#000000" style="fill-opacity: 1; stroke-width: 1;"></polygon></g><g><polygon points="166.97999999999996,16.335,232.31999999999996,16.335,232.31999999999996,81.67500000000001,166.97999999999996,81.67500000000001" fill="#ffffff" stroke="#000000" style="fill-opacity: 1; stroke-width: 1;"></polygon></g><g><polygon points="232.31999999999996,16.335,297.65999999999997,16.335,297.65999999999997,81.67500000000001,232.31999999999996,81.67500000000001" fill="#38585c" stroke="#000000" style="fill-opacity: 1; stroke-width: 1;"></polygon></g><g><polygon points="297.65999999999997,16.335,363,16.335,363,81.67500000000001,297.65999999999997,81.67500000000001" fill="#ffffff" stroke="#000000" style="fill-opacity: 1; stroke-width: 1;"></polygon></g><g><polygon points="363,16.335,428.34000000000003,16.335,428.34000000000003,81.67500000000001,363,81.67500000000001" fill="#ffffff" stroke="#000000" style="fill-opacity: 1; stroke-width: 1;"></polygon></g><g><polygon points="428.34,16.335,493.67999999999995,16.335,493.67999999999995,81.67500000000001,428.34,81.67500000000001" fill="#ffffff" stroke="#000000" style="fill-opacity: 1; stroke-width: 1;"></polygon></g><g><polygon points="493.67999999999995,16.335,559.02,16.335,559.02,81.67500000000001,493.67999999999995,81.67500000000001" fill="#38585c" stroke="#000000" style="fill-opacity: 1; stroke-width: 1;"></polygon></g><g><polygon points="559.02,16.335,624.36,16.335,624.36,81.67500000000001,559.02,81.67500000000001" fill="#38585c" stroke="#000000" style="fill-opacity: 1; stroke-width: 1;"></polygon></g><g><polygon points="624.36,16.335,689.7,16.335,689.7,81.67500000000001,624.36,81.67500000000001" fill="#ffffff" stroke="#000000" style="fill-opacity: 1; stroke-width: 1;"></polygon></g><g><polygon points="36.299999999999955,81.67500000000001,101.63999999999996,81.67500000000001,101.63999999999996,147.01500000000001,36.299999999999955,147.01500000000001" fill="#38585c" stroke="#000000" style="fill-opacity: 1; stroke-width: 1;"></polygon></g><g><polygon points="101.63999999999996,81.67500000000001,166.97999999999996,81.67500000000001,166.97999999999996,147.01500000000001,101.63999999999996,147.01500000000001" fill="#38585c" stroke="#000000" style="fill-opacity: 1; stroke-width: 1;"></polygon></g><g><polygon points="166.97999999999996,81.67500000000001,232.31999999999996,81.67500000000001,232.31999999999996,147.01500000000001,166.97999999999996,147.01500000000001" fill="#ffffff" stroke="#000000" style="fill-opacity: 1; stroke-width: 1;"></polygon></g><g><polygon points="232.31999999999996,81.67500000000001,297.65999999999997,81.67500000000001,297.65999999999997,147.01500000000001,232.31999999999996,147.01500000000001" fill="#38585c" stroke="#000000" style="fill-opacity: 1; stroke-width: 1;"></polygon></g><g><polygon points="297.65999999999997,81.67500000000001,363,81.67500000000001,363,147.01500000000001,297.65999999999997,147.01500000000001" fill="#38585c" stroke="#000000" style="fill-opacity: 1; stroke-width: 1;"></polygon></g><g><polygon points="363,81.67500000000001,428.34000000000003,81.67500000000001,428.34000000000003,147.01500000000001,363,147.01500000000001" fill="#38585c" stroke="#000000" style="fill-opacity: 1; stroke-width: 1;"></polygon></g><g><polygon points="428.34,81.67500000000001,493.67999999999995,81.67500000000001,493.67999999999995,147.01500000000001,428.34,147.01500000000001" fill="#ffffff" stroke="#000000" style="fill-opacity: 1; stroke-width: 1;"></polygon></g><g><polygon points="493.67999999999995,81.67500000000001,559.02,81.67500000000001,559.02,147.01500000000001,493.67999999999995,147.01500000000001" fill="#38585c" stroke="#000000" style="fill-opacity: 1; stroke-width: 1;"></polygon></g><g><polygon points="559.02,81.67500000000001,624.36,81.67500000000001,624.36,147.01500000000001,559.02,147.01500000000001" fill="#38585c" stroke="#000000" style="fill-opacity: 1; stroke-width: 1;"></polygon></g><g><polygon points="624.36,81.67500000000001,689.7,81.67500000000001,689.7,147.01500000000001,624.36,147.01500000000001" fill="#ffffff" stroke="#000000" style="fill-opacity: 1; stroke-width: 1;"></polygon></g><g><polygon points="36.299999999999955,147.01500000000001,101.63999999999996,147.01500000000001,101.63999999999996,212.35500000000002,36.299999999999955,212.35500000000002" fill="#38585c" stroke="#000000" style="fill-opacity: 1; stroke-width: 1;"></polygon></g><g><polygon points="101.63999999999996,147.01500000000001,166.97999999999996,147.01500000000001,166.97999999999996,212.35500000000002,101.63999999999996,212.35500000000002" fill="#ffffff" stroke="#000000" style="fill-opacity: 1; stroke-width: 1;"></polygon></g><g><polygon points="166.97999999999996,147.01500000000001,232.31999999999996,147.01500000000001,232.31999999999996,212.35500000000002,166.97999999999996,212.35500000000002" fill="#ffffff" stroke="#000000" style="fill-opacity: 1; stroke-width: 1;"></polygon></g><g><polygon points="232.31999999999996,147.01500000000001,297.65999999999997,147.01500000000001,297.65999999999997,212.35500000000002,232.31999999999996,212.35500000000002" fill="#ffffff" stroke="#000000" style="fill-opacity: 1; stroke-width: 1;"></polygon></g><g><polygon points="297.65999999999997,147.01500000000001,363,147.01500000000001,363,212.35500000000002,297.65999999999997,212.35500000000002" fill="#ffffff" stroke="#000000" style="fill-opacity: 1; stroke-width: 1;"></polygon></g><g><polygon points="363,147.01500000000001,428.34000000000003,147.01500000000001,428.34000000000003,212.35500000000002,363,212.35500000000002" fill="#ffffff" stroke="#000000" style="fill-opacity: 1; stroke-width: 1;"></polygon></g><g><polygon points="428.34,147.01500000000001,493.67999999999995,147.01500000000001,493.67999999999995,212.35500000000002,428.34,212.35500000000002" fill="#ffffff" stroke="#000000" style="fill-opacity: 1; stroke-width: 1;"></polygon></g><g><polygon points="493.67999999999995,147.01500000000001,559.02,147.01500000000001,559.02,212.35500000000002,493.67999999999995,212.35500000000002" fill="#ffffff" stroke="#000000" style="fill-opacity: 1; stroke-width: 1;"></polygon></g><g><polygon points="559.02,147.01500000000001,624.36,147.01500000000001,624.36,212.35500000000002,559.02,212.35500000000002" fill="#ffffff" stroke="#000000" style="fill-opacity: 1; stroke-width: 1;"></polygon></g><g><polygon points="624.36,147.01500000000001,689.7,147.01500000000001,689.7,212.35500000000002,624.36,212.35500000000002" fill="#ffffff" stroke="#000000" style="fill-opacity: 1; stroke-width: 1;"></polygon></g><g><polygon points="36.299999999999955,212.35500000000002,101.63999999999996,212.35500000000002,101.63999999999996,277.69500000000005,36.299999999999955,277.69500000000005" fill="#ffffff" stroke="#000000" style="fill-opacity: 1; stroke-width: 1;"></polygon></g><g><polygon points="101.63999999999996,212.35500000000002,166.97999999999996,212.35500000000002,166.97999999999996,277.69500000000005,101.63999999999996,277.69500000000005" fill="#ffffff" stroke="#000000" style="fill-opacity: 1; stroke-width: 1;"></polygon></g><g><polygon points="166.97999999999996,212.35500000000002,232.31999999999996,212.35500000000002,232.31999999999996,277.69500000000005,166.97999999999996,277.69500000000005" fill="#ffffff" stroke="#000000" style="fill-opacity: 1; stroke-width: 1;"></polygon></g><g><polygon points="232.31999999999996,212.35500000000002,297.65999999999997,212.35500000000002,297.65999999999997,277.69500000000005,232.31999999999996,277.69500000000005" fill="#ffffff" stroke="#000000" style="fill-opacity: 1; stroke-width: 1;"></polygon></g><g><polygon points="297.65999999999997,212.35500000000002,363,212.35500000000002,363,277.69500000000005,297.65999999999997,277.69500000000005" fill="#ffffff" stroke="#000000" style="fill-opacity: 1; stroke-width: 1;"></polygon></g><g><polygon points="363,212.35500000000002,428.34000000000003,212.35500000000002,428.34000000000003,277.69500000000005,363,277.69500000000005" fill="#ffffff" stroke="#000000" style="fill-opacity: 1; stroke-width: 1;"></polygon></g><g><polygon points="428.34,212.35500000000002,493.67999999999995,212.35500000000002,493.67999999999995,277.69500000000005,428.34,277.69500000000005" fill="#38585c" stroke="#000000" style="fill-opacity: 1; stroke-width: 1;"></polygon></g><g><polygon points="493.67999999999995,212.35500000000002,559.02,212.35500000000002,559.02,277.69500000000005,493.67999999999995,277.69500000000005" fill="#38585c" stroke="#000000" style="fill-opacity: 1; stroke-width: 1;"></polygon></g><g><polygon points="559.02,212.35500000000002,624.36,212.35500000000002,624.36,277.69500000000005,559.02,277.69500000000005" fill="#ffffff" stroke="#000000" style="fill-opacity: 1; stroke-width: 1;"></polygon></g><g><polygon points="624.36,212.35500000000002,689.7,212.35500000000002,689.7,277.69500000000005,624.36,277.69500000000005" fill="#ffffff" stroke="#000000" style="fill-opacity: 1; stroke-width: 1;"></polygon></g><g><polygon points="36.299999999999955,277.695,101.63999999999996,277.695,101.63999999999996,343.03499999999997,36.299999999999955,343.03499999999997" fill="#38585c" stroke="#000000" style="fill-opacity: 1; stroke-width: 1;"></polygon></g><g><polygon points="101.63999999999996,277.695,166.97999999999996,277.695,166.97999999999996,343.03499999999997,101.63999999999996,343.03499999999997" fill="#ffffff" stroke="#000000" style="fill-opacity: 1; stroke-width: 1;"></polygon></g><g><polygon points="166.97999999999996,277.695,232.31999999999996,277.695,232.31999999999996,343.03499999999997,166.97999999999996,343.03499999999997" fill="#ffffff" stroke="#000000" style="fill-opacity: 1; stroke-width: 1;"></polygon></g><g><polygon points="232.31999999999996,277.695,297.65999999999997,277.695,297.65999999999997,343.03499999999997,232.31999999999996,343.03499999999997" fill="#38585c" stroke="#000000" style="fill-opacity: 1; stroke-width: 1;"></polygon></g><g><polygon points="297.65999999999997,277.695,363,277.695,363,343.03499999999997,297.65999999999997,343.03499999999997" fill="#ffffff" stroke="#000000" style="fill-opacity: 1; stroke-width: 1;"></polygon></g><g><polygon points="363,277.695,428.34000000000003,277.695,428.34000000000003,343.03499999999997,363,343.03499999999997" fill="#38585c" stroke="#000000" style="fill-opacity: 1; stroke-width: 1;"></polygon></g><g><polygon points="428.34,277.695,493.67999999999995,277.695,493.67999999999995,343.03499999999997,428.34,343.03499999999997" fill="#38585c" stroke="#000000" style="fill-opacity: 1; stroke-width: 1;"></polygon></g><g><polygon points="493.67999999999995,277.695,559.02,277.695,559.02,343.03499999999997,493.67999999999995,343.03499999999997" fill="#ffffff" stroke="#000000" style="fill-opacity: 1; stroke-width: 1;"></polygon></g><g><polygon points="559.02,277.695,624.36,277.695,624.36,343.03499999999997,559.02,343.03499999999997" fill="#ffffff" stroke="#000000" style="fill-opacity: 1; stroke-width: 1;"></polygon></g><g><polygon points="624.36,277.695,689.7,277.695,689.7,343.03499999999997,624.36,343.03499999999997" fill="#ffffff" stroke="#000000" style="fill-opacity: 1; stroke-width: 1;"></polygon></g><g><polygon points="36.299999999999955,343.035,101.63999999999996,343.035,101.63999999999996,408.375,36.299999999999955,408.375" fill="#38585c" stroke="#000000" style="fill-opacity: 1; stroke-width: 1;"></polygon></g><g><polygon points="101.63999999999996,343.035,166.97999999999996,343.035,166.97999999999996,408.375,101.63999999999996,408.375" fill="#38585c" stroke="#000000" style="fill-opacity: 1; stroke-width: 1;"></polygon></g><g><polygon points="166.97999999999996,343.035,232.31999999999996,343.035,232.31999999999996,408.375,166.97999999999996,408.375" fill="#ffffff" stroke="#000000" style="fill-opacity: 1; stroke-width: 1;"></polygon></g><g><polygon points="232.31999999999996,343.035,297.65999999999997,343.035,297.65999999999997,408.375,232.31999999999996,408.375" fill="#38585c" stroke="#000000" style="fill-opacity: 1; stroke-width: 1;"></polygon></g><g><polygon points="297.65999999999997,343.035,363,343.035,363,408.375,297.65999999999997,408.375" fill="#ffffff" stroke="#000000" style="fill-opacity: 1; stroke-width: 1;"></polygon></g><g><polygon points="363,343.035,428.34000000000003,343.035,428.34000000000003,408.375,363,408.375" fill="#ffffff" stroke="#000000" style="fill-opacity: 1; stroke-width: 1;"></polygon></g><g><polygon points="428.34,343.035,493.67999999999995,343.035,493.67999999999995,408.375,428.34,408.375" fill="#ffffff" stroke="#000000" style="fill-opacity: 1; stroke-width: 1;"></polygon></g><g><polygon points="493.67999999999995,343.035,559.02,343.035,559.02,408.375,493.67999999999995,408.375" fill="#ffffff" stroke="#000000" style="fill-opacity: 1; stroke-width: 1;"></polygon></g><g><polygon points="559.02,343.035,624.36,343.035,624.36,408.375,559.02,408.375" fill="#ffffff" stroke="#000000" style="fill-opacity: 1; stroke-width: 1;"></polygon></g><g><polygon points="624.36,343.035,689.7,343.035,689.7,408.375,624.36,408.375" fill="#ffffff" stroke="#000000" style="fill-opacity: 1; stroke-width: 1;"></polygon></g><g><polygon points="36.299999999999955,408.375,101.63999999999996,408.375,101.63999999999996,473.71500000000003,36.299999999999955,473.71500000000003" fill="#38585c" stroke="#000000" style="fill-opacity: 1; stroke-width: 1;"></polygon></g><g><polygon points="101.63999999999996,408.375,166.97999999999996,408.375,166.97999999999996,473.71500000000003,101.63999999999996,473.71500000000003" fill="#ffffff" stroke="#000000" style="fill-opacity: 1; stroke-width: 1;"></polygon></g><g><polygon points="166.97999999999996,408.375,232.31999999999996,408.375,232.31999999999996,473.71500000000003,166.97999999999996,473.71500000000003" fill="#ffffff" stroke="#000000" style="fill-opacity: 1; stroke-width: 1;"></polygon></g><g><polygon points="232.31999999999996,408.375,297.65999999999997,408.375,297.65999999999997,473.71500000000003,232.31999999999996,473.71500000000003" fill="#38585c" stroke="#000000" style="fill-opacity: 1; stroke-width: 1;"></polygon></g><g><polygon points="297.65999999999997,408.375,363,408.375,363,473.71500000000003,297.65999999999997,473.71500000000003" fill="#38585c" stroke="#000000" style="fill-opacity: 1; stroke-width: 1;"></polygon></g><g><polygon points="363,408.375,428.34000000000003,408.375,428.34000000000003,473.71500000000003,363,473.71500000000003" fill="#ffffff" stroke="#000000" style="fill-opacity: 1; stroke-width: 1;"></polygon></g><g><polygon points="428.34,408.375,493.67999999999995,408.375,493.67999999999995,473.71500000000003,428.34,473.71500000000003" fill="#38585c" stroke="#000000" style="fill-opacity: 1; stroke-width: 1;"></polygon></g><g><polygon points="493.67999999999995,408.375,559.02,408.375,559.02,473.71500000000003,493.67999999999995,473.71500000000003" fill="#38585c" stroke="#000000" style="fill-opacity: 1; stroke-width: 1;"></polygon></g><g><polygon points="559.02,408.375,624.36,408.375,624.36,473.71500000000003,559.02,473.71500000000003" fill="#38585c" stroke="#000000" style="fill-opacity: 1; stroke-width: 1;"></polygon></g><g><polygon points="624.36,408.375,689.7,408.375,689.7,473.71500000000003,624.36,473.71500000000003" fill="#38585c" stroke="#000000" style="fill-opacity: 1; stroke-width: 1;"></polygon></g><g><line x1="36.299999999999955" x2="101.63999999999996" y1="16.335" y2="16.335" stroke="#000000" style="stroke-width: 7; stroke-linecap: round;"></line></g><g></g><g></g><g><line x1="36.299999999999955" x2="36.299999999999955" y1="81.67500000000001" y2="16.335" stroke="#000000" style="stroke-width: 7; stroke-linecap: round;"></line></g><g><line x1="101.63999999999996" x2="166.97999999999996" y1="16.335" y2="16.335" stroke="#000000" style="stroke-width: 7; stroke-linecap: round;"></line></g><g></g><g></g><g><line x1="166.97999999999996" x2="232.31999999999996" y1="16.335" y2="16.335" stroke="#000000" style="stroke-width: 7; stroke-linecap: round;"></line></g><g></g><g></g><g><line x1="232.31999999999996" x2="297.65999999999997" y1="16.335" y2="16.335" stroke="#000000" style="stroke-width: 7; stroke-linecap: round;"></line></g><g></g><g></g><g><line x1="297.65999999999997" x2="363" y1="16.335" y2="16.335" stroke="#000000" style="stroke-width: 7; stroke-linecap: round;"></line></g><g></g><g></g><g><line x1="363" x2="428.34000000000003" y1="16.335" y2="16.335" stroke="#000000" style="stroke-width: 7; stroke-linecap: round;"></line></g><g></g><g></g><g><line x1="428.34" x2="493.67999999999995" y1="16.335" y2="16.335" stroke="#000000" style="stroke-width: 7; stroke-linecap: round;"></line></g><g></g><g></g><g><line x1="493.67999999999995" x2="559.02" y1="16.335" y2="16.335" stroke="#000000" style="stroke-width: 7; stroke-linecap: round;"></line></g><g></g><g></g><g><line x1="559.02" x2="624.36" y1="16.335" y2="16.335" stroke="#000000" style="stroke-width: 7; stroke-linecap: round;"></line></g><g></g><g></g><g><line x1="624.36" x2="689.7" y1="16.335" y2="16.335" stroke="#000000" style="stroke-width: 7; stroke-linecap: round;"></line></g><g><line x1="689.7" x2="689.7" y1="16.335" y2="81.67500000000001" stroke="#000000" style="stroke-width: 7; stroke-linecap: round;"></line></g><g></g><g></g><g></g><g><line x1="36.299999999999955" x2="36.299999999999955" y1="147.01500000000001" y2="81.67500000000001" stroke="#000000" style="stroke-width: 7; stroke-linecap: round;"></line></g><g></g><g></g><g></g><g></g><g></g><g></g><g></g><g></g><g></g><g></g><g></g><g></g><g></g><g></g><g></g><g></g><g><line x1="689.7" x2="689.7" y1="81.67500000000001" y2="147.01500000000001" stroke="#000000" style="stroke-width: 7; stroke-linecap: round;"></line></g><g></g><g></g><g></g><g><line x1="36.299999999999955" x2="36.299999999999955" y1="212.35500000000002" y2="147.01500000000001" stroke="#000000" style="stroke-width: 7; stroke-linecap: round;"></line></g><g></g><g></g><g></g><g></g><g></g><g></g><g></g><g></g><g></g><g></g><g></g><g></g><g></g><g></g><g></g><g></g><g><line x1="689.7" x2="689.7" y1="147.01500000000001" y2="212.35500000000002" stroke="#000000" style="stroke-width: 7; stroke-linecap: round;"></line></g><g></g><g></g><g></g><g><line x1="36.299999999999955" x2="36.299999999999955" y1="277.69500000000005" y2="212.35500000000002" stroke="#000000" style="stroke-width: 7; stroke-linecap: round;"></line></g><g></g><g></g><g></g><g></g><g></g><g></g><g></g><g></g><g></g><g></g><g></g><g></g><g></g><g></g><g></g><g></g><g><line x1="689.7" x2="689.7" y1="212.35500000000002" y2="277.69500000000005" stroke="#000000" style="stroke-width: 7; stroke-linecap: round;"></line></g><g></g><g></g><g></g><g><line x1="36.299999999999955" x2="36.299999999999955" y1="343.03499999999997" y2="277.695" stroke="#000000" style="stroke-width: 7; stroke-linecap: round;"></line></g><g></g><g></g><g></g><g></g><g></g><g></g><g></g><g></g><g></g><g></g><g></g><g></g><g></g><g></g><g></g><g></g><g><line x1="689.7" x2="689.7" y1="277.695" y2="343.03499999999997" stroke="#000000" style="stroke-width: 7; stroke-linecap: round;"></line></g><g></g><g></g><g></g><g><line x1="36.299999999999955" x2="36.299999999999955" y1="408.375" y2="343.035" stroke="#000000" style="stroke-width: 7; stroke-linecap: round;"></line></g><g></g><g></g><g></g><g></g><g></g><g></g><g></g><g></g><g></g><g></g><g></g><g></g><g></g><g></g><g></g><g></g><g><line x1="689.7" x2="689.7" y1="343.035" y2="408.375" stroke="#000000" style="stroke-width: 7; stroke-linecap: round;"></line></g><g></g><g></g><g><line x1="101.63999999999996" x2="36.299999999999955" y1="473.71500000000003" y2="473.71500000000003" stroke="#000000" style="stroke-width: 7; stroke-linecap: round;"></line></g><g><line x1="36.299999999999955" x2="36.299999999999955" y1="473.71500000000003" y2="408.375" stroke="#000000" style="stroke-width: 7; stroke-linecap: round;"></line></g><g></g><g><line x1="166.97999999999996" x2="101.63999999999996" y1="473.71500000000003" y2="473.71500000000003" stroke="#000000" style="stroke-width: 7; stroke-linecap: round;"></line></g><g></g><g><line x1="232.31999999999996" x2="166.97999999999996" y1="473.71500000000003" y2="473.71500000000003" stroke="#000000" style="stroke-width: 7; stroke-linecap: round;"></line></g><g></g><g><line x1="297.65999999999997" x2="232.31999999999996" y1="473.71500000000003" y2="473.71500000000003" stroke="#000000" style="stroke-width: 7; stroke-linecap: round;"></line></g><g></g><g><line x1="363" x2="297.65999999999997" y1="473.71500000000003" y2="473.71500000000003" stroke="#000000" style="stroke-width: 7; stroke-linecap: round;"></line></g><g></g><g><line x1="428.34000000000003" x2="363" y1="473.71500000000003" y2="473.71500000000003" stroke="#000000" style="stroke-width: 7; stroke-linecap: round;"></line></g><g></g><g><line x1="493.67999999999995" x2="428.34" y1="473.71500000000003" y2="473.71500000000003" stroke="#000000" style="stroke-width: 7; stroke-linecap: round;"></line></g><g></g><g><line x1="559.02" x2="493.67999999999995" y1="473.71500000000003" y2="473.71500000000003" stroke="#000000" style="stroke-width: 7; stroke-linecap: round;"></line></g><g></g><g><line x1="624.36" x2="559.02" y1="473.71500000000003" y2="473.71500000000003" stroke="#000000" style="stroke-width: 7; stroke-linecap: round;"></line></g><g><line x1="689.7" x2="689.7" y1="408.375" y2="473.71500000000003" stroke="#000000" style="stroke-width: 7; stroke-linecap: round;"></line></g><g><line x1="689.7" x2="624.36" y1="473.71500000000003" y2="473.71500000000003" stroke="#000000" style="stroke-width: 7; stroke-linecap: round;"></line></g><g></g><g></g><g></g><g></g><g></g><g><circle cx="166.97999999999996" cy="81.67500000000001" r="13.068000000000001" fill="#000000" style=""></circle><text x="160.69102499999997" y="89.67915" lengthAdjust="spacingAndGlyphs" textLength="12.577950000000001" fill="#ffffff" style="font-family: sans-serif; font-weight: bold; font-size: 22.869px;">2</text></g><g></g><g></g><g></g><g><circle cx="297.65999999999997" cy="81.67500000000001" r="13.068000000000001" fill="#000000" style=""></circle><text x="291.371025" y="89.67915" lengthAdjust="spacingAndGlyphs" textLength="12.577950000000001" fill="#ffffff" style="font-family: sans-serif; font-weight: bold; font-size: 22.869px;">3</text></g><g></g><g><circle cx="363" cy="81.67500000000001" r="13.068000000000001" fill="#000000" style=""></circle><text x="356.711025" y="89.67915" lengthAdjust="spacingAndGlyphs" textLength="12.577950000000001" fill="#ffffff" style="font-family: sans-serif; font-weight: bold; font-size: 22.869px;">2</text></g><g></g><g><circle cx="428.34000000000003" cy="81.67500000000001" r="13.068000000000001" fill="#000000" style=""></circle><text x="422.05102500000004" y="89.67915" lengthAdjust="spacingAndGlyphs" textLength="12.577950000000001" fill="#ffffff" style="font-family: sans-serif; font-weight: bold; font-size: 22.869px;">1</text></g><g></g><g></g><g></g><g><circle cx="559.02" cy="81.67500000000001" r="13.068000000000001" fill="#000000" style=""></circle><text x="552.7310249999999" y="89.67915" lengthAdjust="spacingAndGlyphs" textLength="12.577950000000001" fill="#ffffff" style="font-family: sans-serif; font-weight: bold; font-size: 22.869px;">4</text></g><g></g><g></g><g></g><g></g><g></g><g></g><g></g><g></g><g></g><g></g><g></g><g></g><g></g><g></g><g></g><g></g><g></g><g><circle cx="166.97999999999996" cy="212.35500000000002" r="13.068000000000001" fill="#000000" style=""></circle><text x="160.69102499999997" y="220.35915000000003" lengthAdjust="spacingAndGlyphs" textLength="12.577950000000001" fill="#ffffff" style="font-family: sans-serif; font-weight: bold; font-size: 22.869px;">0</text></g><g></g><g></g><g><circle cx="363" cy="212.35500000000002" r="13.068000000000001" fill="#000000" style=""></circle><text x="356.711025" y="220.35915000000003" lengthAdjust="spacingAndGlyphs" textLength="12.577950000000001" fill="#ffffff" style="font-family: sans-serif; font-weight: bold; font-size: 22.869px;">0</text></g><g></g><g></g><g><circle cx="559.02" cy="212.35500000000002" r="13.068000000000001" fill="#000000" style=""></circle><text x="552.7310249999999" y="220.35915000000003" lengthAdjust="spacingAndGlyphs" textLength="12.577950000000001" fill="#ffffff" style="font-family: sans-serif; font-weight: bold; font-size: 22.869px;">1</text></g><g></g><g></g><g></g><g></g><g><circle cx="166.97999999999996" cy="277.69500000000005" r="13.068000000000001" fill="#000000" style=""></circle><text x="160.69102499999997" y="285.69915000000003" lengthAdjust="spacingAndGlyphs" textLength="12.577950000000001" fill="#ffffff" style="font-family: sans-serif; font-weight: bold; font-size: 22.869px;">0</text></g><g></g><g></g><g><circle cx="363" cy="277.69500000000005" r="13.068000000000001" fill="#000000" style=""></circle><text x="356.711025" y="285.69915000000003" lengthAdjust="spacingAndGlyphs" textLength="12.577950000000001" fill="#ffffff" style="font-family: sans-serif; font-weight: bold; font-size: 22.869px;">1</text></g><g></g><g></g><g><circle cx="559.02" cy="277.69500000000005" r="13.068000000000001" fill="#000000" style=""></circle><text x="552.7310249999999" y="285.69915000000003" lengthAdjust="spacingAndGlyphs" textLength="12.577950000000001" fill="#ffffff" style="font-family: sans-serif; font-weight: bold; font-size: 22.869px;">1</text></g><g></g><g></g><g></g><g></g><g></g><g></g><g></g><g></g><g></g><g></g><g></g><g></g><g></g><g></g><g></g><g><circle cx="166.97999999999996" cy="408.375" r="13.068000000000001" fill="#000000" style=""></circle><text x="160.69102499999997" y="416.37915" lengthAdjust="spacingAndGlyphs" textLength="12.577950000000001" fill="#ffffff" style="font-family: sans-serif; font-weight: bold; font-size: 22.869px;">1</text></g><g></g><g><circle cx="297.65999999999997" cy="408.375" r="13.068000000000001" fill="#000000" style=""></circle><text x="291.371025" y="416.37915" lengthAdjust="spacingAndGlyphs" textLength="12.577950000000001" fill="#ffffff" style="font-family: sans-serif; font-weight: bold; font-size: 22.869px;">3</text></g><g><circle cx="363" cy="408.375" r="13.068000000000001" fill="#000000" style=""></circle><text x="356.711025" y="416.37915" lengthAdjust="spacingAndGlyphs" textLength="12.577950000000001" fill="#ffffff" style="font-family: sans-serif; font-weight: bold; font-size: 22.869px;">1</text></g><g><circle cx="428.34000000000003" cy="408.375" r="13.068000000000001" fill="#000000" style=""></circle><text x="422.05102500000004" y="416.37915" lengthAdjust="spacingAndGlyphs" textLength="12.577950000000001" fill="#ffffff" style="font-family: sans-serif; font-weight: bold; font-size: 22.869px;">1</text></g><g></g><g><circle cx="559.02" cy="408.375" r="13.068000000000001" fill="#000000" style=""></circle><text x="552.7310249999999" y="416.37915" lengthAdjust="spacingAndGlyphs" textLength="12.577950000000001" fill="#ffffff" style="font-family: sans-serif; font-weight: bold; font-size: 22.869px;">2</text></g><g></g><g></g><g></g><g></g><g></g><g></g><g></g><g></g><g></g><g></g><g></g><g></g><g></g></svg>