<svg class="pb-2" id="Grid" style="overflow: visible; z-index: 90;" xmlns="http://www.w3.org/2000/svg" xmlns:xlink="http://www.w3.org/1999/xlink" height="700.56875" width="726" viewBox="0 0 726 700.56875">
  Sorry, but your browser is not supported. Try to setup the new version.
<desc>Created with Snap</desc><defs><filter id="Smhdifnscbu" filterUnits="userSpaceOnUse"><feColorMatrix type="matrix" values="1 0 0 0 0 0 1 0 0 0 0 0 1 0 0 0 0 0 0.7 0"></feColorMatrix></filter><filter id="Smhdifnscbw" filterUnits="userSpaceOnUse"><feColorMatrix type="matrix" values="-.17 -.17 -.17 0 1 -.22 -.22 -.22 0 1 -.33 -.33 -.33 0 1 0 0 0 1 0"></feColorMatrix></filter></defs><g><polygon points="42.74000000000001,20.01625,122.805,20.01625,122.805,100.08125,42.74000000000001,100.08125" fill="#ffffff" stroke="#000000" style="fill-opacity: 1; stroke-width: 1;"></polygon></g><g><polygon points="122.805,20.01625,202.87,20.01625,202.87,100.08125,122.805,100.08125" fill="#ffffff" stroke="#000000" style="fill-opacity: 1; stroke-width: 1;"></polygon></g><g><polygon points="202.87,20.01625,282.935,20.01625,282.935,100.08125,202.87,100.08125" fill="#ffffff" stroke="#000000" style="fill-opacity: 1; stroke-width: 1;"></polygon><text x="227.4899875" y="79.66467499999999" lengthAdjust="spacingAndGlyphs" textLength="30.825025" fill="#075466" style="font-family: sans-serif; font-weight: bold; font-size: 56.0455px;">3</text></g><g><polygon points="282.935,20.01625,363,20.01625,363,100.08125,282.935,100.08125" fill="#ffffff" stroke="#000000" style="fill-opacity: 1; stroke-width: 1;"></polygon></g><g><polygon points="363,20.01625,443.065,20.01625,443.065,100.08125,363,100.08125" fill="#ffffff" stroke="#000000" style="fill-opacity: 1; stroke-width: 1;"></polygon></g><g><polygon points="443.065,20.01625,523.13,20.01625,523.13,100.08125,443.065,100.08125" fill="#ffffff" stroke="#000000" style="fill-opacity: 1; stroke-width: 1;"></polygon><text x="467.6849875" y="79.66467499999999" lengthAdjust="spacingAndGlyphs" textLength="30.825025" fill="#075466" style="font-family: sans-serif; font-weight: bold; font-size: 56.0455px;">1</text></g><g><polygon points="523.13,20.01625,603.1949999999999,20.01625,603.1949999999999,100.08125,523.13,100.08125" fill="#ffffff" stroke="#000000" style="fill-opacity: 1; stroke-width: 1;"></polygon></g><g><polygon points="603.1949999999999,20.01625,683.26,20.01625,683.26,100.08125,603.1949999999999,100.08125" fill="#ffffff" stroke="#000000" style="fill-opacity: 1; stroke-width: 1;"></polygon></g><g><polygon points="42.74000000000001,100.08125,122.805,100.08125,122.805,180.14625,42.74000000000001,180.14625" fill="#ffffff" stroke="#000000" style="fill-opacity: 1; stroke-width: 1;"></polygon></g><g><polygon points="122.805,100.08125,202.87,100.08125,202.87,180.14625,122.805,180.14625" fill="#ffffff" stroke="#000000" style="fill-opacity: 1; stroke-width: 1;"></polygon></g><g><polygon points="202.87,100.08125,282.935,100.08125,282.935,180.14625,202.87,180.14625" fill="#ffffff" stroke="#000000" style="fill-opacity: 1; stroke-width: 1;"></polygon><text x="227.4899875" y="159.729675" lengthAdjust="spacingAndGlyphs" textLength="30.825025" fill="#075466" style="font-family: sans-serif; font-weight: bold; font-size: 56.0455px;">2</text></g><g><polygon points="282.935,100.08125,363,100.08125,363,180.14625,282.935,180.14625" fill="#ffffff" stroke="#000000" style="fill-opacity: 1; stroke-width: 1;"></polygon></g><g><polygon points="363,100.08125,443.065,100.08125,443.065,180.14625,363,180.14625" fill="#ffffff" stroke="#000000" style="fill-opacity: 1; stroke-width: 1;"></polygon></g><g><polygon points="443.065,100.08125,523.13,100.08125,523.13,180.14625,443.065,180.14625" fill="#ffffff" stroke="#000000" style="fill-opacity: 1; stroke-width: 1;"></polygon></g><g><polygon points="523.13,100.08125,603.1949999999999,100.08125,603.1949999999999,180.14625,523.13,180.14625" fill="#ffffff" stroke="#000000" style="fill-opacity: 1; stroke-width: 1;"></polygon></g><g><polygon points="603.1949999999999,100.08125,683.26,100.08125,683.26,180.14625,603.1949999999999,180.14625" fill="#ffffff" stroke="#000000" style="fill-opacity: 1; stroke-width: 1;"></polygon></g><g><polygon points="42.74000000000001,180.14625,122.805,180.14625,122.805,260.21125,42.74000000000001,260.21125" fill="#ffffff" stroke="#000000" style="fill-opacity: 1; stroke-width: 1;"></polygon></g><g><polygon points="122.805,180.14625,202.87,180.14625,202.87,260.21125,122.805,260.21125" fill="#ffffff" stroke="#000000" style="fill-opacity: 1; stroke-width: 1;"></polygon></g><g><polygon points="202.87,180.14625,282.935,180.14625,282.935,260.21125,202.87,260.21125" fill="#ffffff" stroke="#000000" style="fill-opacity: 1; stroke-width: 1;"></polygon></g><g><polygon points="282.935,180.14625,363,180.14625,363,260.21125,282.935,260.21125" fill="#ffffff" stroke="#000000" style="fill-opacity: 1; stroke-width: 1;"></polygon></g><g><polygon points="363,180.14625,443.065,180.14625,443.065,260.21125,363,260.21125" fill="#ffffff" stroke="#000000" style="fill-opacity: 1; stroke-width: 1;"></polygon></g><g><polygon points="443.065,180.14625,523.13,180.14625,523.13,260.21125,443.065,260.21125" fill="#ffffff" stroke="#000000" style="fill-opacity: 1; stroke-width: 1;"></polygon></g><g><polygon points="523.13,180.14625,603.1949999999999,180.14625,603.1949999999999,260.21125,523.13,260.21125" fill="#ffffff" stroke="#000000" style="fill-opacity: 1; stroke-width: 1;"></polygon><text x="547.7499875" y="239.794675" lengthAdjust="spacingAndGlyphs" textLength="30.825025" fill="#075466" style="font-family: sans-serif; font-weight: bold; font-size: 56.0455px;">6</text></g><g><polygon points="603.1949999999999,180.14625,683.26,180.14625,683.26,260.21125,603.1949999999999,260.21125" fill="#ffffff" stroke="#000000" style="fill-opacity: 1; stroke-width: 1;"></polygon></g><g><polygon points="42.74000000000001,260.21125,122.805,260.21125,122.805,340.27625,42.74000000000001,340.27625" fill="#ffffff" stroke="#000000" style="fill-opacity: 1; stroke-width: 1;"></polygon><text x="67.3599875" y="319.859675" lengthAdjust="spacingAndGlyphs" textLength="30.825025" fill="#075466" style="font-family: sans-serif; font-weight: bold; font-size: 56.0455px;">4</text></g><g><polygon points="122.805,260.21125,202.87,260.21125,202.87,340.27625,122.805,340.27625" fill="#ffffff" stroke="#000000" style="fill-opacity: 1; stroke-width: 1;"></polygon></g><g><polygon points="202.87,260.21125,282.935,260.21125,282.935,340.27625,202.87,340.27625" fill="#ffffff" stroke="#000000" style="fill-opacity: 1; stroke-width: 1;"></polygon></g><g><polygon points="282.935,260.21125,363,260.21125,363,340.27625,282.935,340.27625" fill="#ffffff" stroke="#000000" style="fill-opacity: 1; stroke-width: 1;"></polygon></g><g><polygon points="363,260.21125,443.065,260.21125,443.065,340.27625,363,340.27625" fill="#ffffff" stroke="#000000" style="fill-opacity: 1; stroke-width: 1;"></polygon></g><g><polygon points="443.065,260.21125,523.13,260.21125,523.13,340.27625,443.065,340.27625" fill="#ffffff" stroke="#000000" style="fill-opacity: 1; stroke-width: 1;"></polygon></g><g><polygon points="523.13,260.21125,603.1949999999999,260.21125,603.1949999999999,340.27625,523.13,340.27625" fill="#ffffff" stroke="#000000" style="fill-opacity: 1; stroke-width: 1;"></polygon><text x="547.7499875" y="319.859675" lengthAdjust="spacingAndGlyphs" textLength="30.825025" fill="#075466" style="font-family: sans-serif; font-weight: bold; font-size: 56.0455px;">6</text></g><g><polygon points="603.1949999999999,260.21125,683.26,260.21125,683.26,340.27625,603.1949999999999,340.27625" fill="#ffffff" stroke="#000000" style="fill-opacity: 1; stroke-width: 1;"></polygon></g><g><polygon points="42.74000000000001,340.27625,122.805,340.27625,122.805,420.34125,42.74000000000001,420.34125" fill="#ffffff" stroke="#000000" style="fill-opacity: 1; stroke-width: 1;"></polygon></g><g><polygon points="122.805,340.27625,202.87,340.27625,202.87,420.34125,122.805,420.34125" fill="#ffffff" stroke="#000000" style="fill-opacity: 1; stroke-width: 1;"></polygon></g><g><polygon points="202.87,340.27625,282.935,340.27625,282.935,420.34125,202.87,420.34125" fill="#ffffff" stroke="#000000" style="fill-opacity: 1; stroke-width: 1;"></polygon></g><g><polygon points="282.935,340.27625,363,340.27625,363,420.34125,282.935,420.34125" fill="#ffffff" stroke="#000000" style="fill-opacity: 1; stroke-width: 1;"></polygon></g><g><polygon points="363,340.27625,443.065,340.27625,443.065,420.34125,363,420.34125" fill="#ffffff" stroke="#000000" style="fill-opacity: 1; stroke-width: 1;"></polygon></g><g><polygon points="443.065,340.27625,523.13,340.27625,523.13,420.34125,443.065,420.34125" fill="#ffffff" stroke="#000000" style="fill-opacity: 1; stroke-width: 1;"></polygon></g><g><polygon points="523.13,340.27625,603.1949999999999,340.27625,603.1949999999999,420.34125,523.13,420.34125" fill="#ffffff" stroke="#000000" style="fill-opacity: 1; stroke-width: 1;"></polygon></g><g><polygon points="603.1949999999999,340.27625,683.26,340.27625,683.26,420.34125,603.1949999999999,420.34125" fill="#ffffff" stroke="#000000" style="fill-opacity: 1; stroke-width: 1;"></polygon></g><g><polygon points="42.74000000000001,420.34125,122.805,420.34125,122.805,500.40625,42.74000000000001,500.40625" fill="#ffffff" stroke="#000000" style="fill-opacity: 1; stroke-width: 1;"></polygon></g><g><polygon points="122.805,420.34125,202.87,420.34125,202.87,500.40625,122.805,500.40625" fill="#ffffff" stroke="#000000" style="fill-opacity: 1; stroke-width: 1;"></polygon></g><g><polygon points="202.87,420.34125,282.935,420.34125,282.935,500.40625,202.87,500.40625" fill="#ffffff" stroke="#000000" style="fill-opacity: 1; stroke-width: 1;"></polygon><text x="227.4899875" y="479.989675" lengthAdjust="spacingAndGlyphs" textLength="30.825025" fill="#075466" style="font-family: sans-serif; font-weight: bold; font-size: 56.0455px;">5</text></g><g><polygon points="282.935,420.34125,363,420.34125,363,500.40625,282.935,500.40625" fill="#ffffff" stroke="#000000" style="fill-opacity: 1; stroke-width: 1;"></polygon></g><g><polygon points="363,420.34125,443.065,420.34125,443.065,500.40625,363,500.40625" fill="#ffffff" stroke="#000000" style="fill-opacity: 1; stroke-width: 1;"></polygon></g><g><polygon points="443.065,420.34125,523.13,420.34125,523.13,500.40625,443.065,500.40625" fill="#ffffff" stroke="#000000" style="fill-opacity: 1; stroke-width: 1;"></polygon><text x="467.6849875" y="479.989675" lengthAdjust="spacingAndGlyphs" textLength="30.825025" fill="#075466" style="font-family: sans-serif; font-weight: bold; font-size: 56.0455px;">5</text></g><g><polygon points="523.13,420.34125,603.1949999999999,420.34125,603.1949999999999,500.40625,523.13,500.40625" fill="#ffffff" stroke="#000000" style="fill-opacity: 1; stroke-width: 1;"></polygon></g><g><polygon points="603.1949999999999,420.34125,683.26,420.34125,683.26,500.40625,603.1949999999999,500.40625" fill="#ffffff" stroke="#000000" style="fill-opacity: 1; stroke-width: 1;"></polygon><text x="627.8149874999999" y="479.989675" lengthAdjust="spacingAndGlyphs" textLength="30.825025" fill="#075466" style="font-family: sans-serif; font-weight: bold; font-size: 56.0455px;">1</text></g><g><polygon points="42.74000000000001,500.40625,122.805,500.40625,122.805,580.47125,42.74000000000001,580.47125" fill="#ffffff" stroke="#000000" style="fill-opacity: 1; stroke-width: 1;"></polygon></g><g><polygon points="122.805,500.40625,202.87,500.40625,202.87,580.47125,122.805,580.47125" fill="#ffffff" stroke="#000000" style="fill-opacity: 1; stroke-width: 1;"></polygon></g><g><polygon points="202.87,500.40625,282.935,500.40625,282.935,580.47125,202.87,580.47125" fill="#ffffff" stroke="#000000" style="fill-opacity: 1; stroke-width: 1;"></polygon></g><g><polygon points="282.935,500.40625,363,500.40625,363,580.47125,282.935,580.47125" fill="#ffffff" stroke="#000000" style="fill-opacity: 1; stroke-width: 1;"></polygon></g><g><polygon points="363,500.40625,443.065,500.40625,443.065,580.47125,363,580.47125" fill="#ffffff" stroke="#000000" style="fill-opacity: 1; stroke-width: 1;"></polygon></g><g><polygon points="443.065,500.40625,523.13,500.40625,523.13,580.47125,443.065,580.47125" fill="#ffffff" stroke="#000000" style="fill-opacity: 1; stroke-width: 1;"></polygon></g><g><polygon points="523.13,500.40625,603.1949999999999,500.40625,603.1949999999999,580.47125,523.13,580.47125" fill="#ffffff" stroke="#000000" style="fill-opacity: 1; stroke-width: 1;"></polygon></g><g><polygon points="603.1949999999999,500.40625,683.26,500.40625,683.26,580.47125,603.1949999999999,580.47125" fill="#ffffff" stroke="#000000" style="fill-opacity: 1; stroke-width: 1;"></polygon></g><g><polygon points="42.74000000000001,580.4712499999999,122.805,580.4712499999999,122.805,660.5362499999999,42.74000000000001,660.5362499999999" fill="#ffffff" stroke="#000000" style="fill-opacity: 1; stroke-width: 1;"></polygon></g><g><polygon points="122.805,580.4712499999999,202.87,580.4712499999999,202.87,660.5362499999999,122.805,660.5362499999999" fill="#ffffff" stroke="#000000" style="fill-opacity: 1; stroke-width: 1;"></polygon></g><g><polygon points="202.87,580.4712499999999,282.935,580.4712499999999,282.935,660.5362499999999,202.87,660.5362499999999" fill="#ffffff" stroke="#000000" style="fill-opacity: 1; stroke-width: 1;"></polygon></g><g><polygon points="282.935,580.4712499999999,363,580.4712499999999,363,660.5362499999999,282.935,660.5362499999999" fill="#ffffff" stroke="#000000" style="fill-opacity: 1; stroke-width: 1;"></polygon></g><g><polygon points="363,580.4712499999999,443.065,580.4712499999999,443.065,660.5362499999999,363,660.5362499999999" fill="#ffffff" stroke="#000000" style="fill-opacity: 1; stroke-width: 1;"></polygon></g><g><polygon points="443.065,580.4712499999999,523.13,580.4712499999999,523.13,660.5362499999999,443.065,660.5362499999999" fill="#ffffff" stroke="#000000" style="fill-opacity: 1; stroke-width: 1;"></polygon></g><g><polygon points="523.13,580.4712499999999,603.1949999999999,580.4712499999999,603.1949999999999,660.5362499999999,523.13,660.5362499999999" fill="#ffffff" stroke="#000000" style="fill-opacity: 1; stroke-width: 1;"></polygon></g><g><polygon points="603.1949999999999,580.4712499999999,683.26,580.4712499999999,683.26,660.5362499999999,603.1949999999999,660.5362499999999" fill="#ffffff" stroke="#000000" style="fill-opacity: 1; stroke-width: 1;"></polygon></g><g><line x1="42.74000000000001" x2="122.805" y1="20.01625" y2="20.01625" stroke="#000000" style="stroke-width: 9; stroke-linecap: round;"></line></g><g></g><g></g><g><line x1="42.74000000000001" x2="42.74000000000001" y1="100.08125" y2="20.01625" stroke="#000000" style="stroke-width: 9; stroke-linecap: round;"></line></g><g><line x1="122.805" x2="202.87" y1="20.01625" y2="20.01625" stroke="#000000" style="stroke-width: 9; stroke-linecap: round;"></line></g><g></g><g></g><g><line x1="202.87" x2="282.935" y1="20.01625" y2="20.01625" stroke="#000000" style="stroke-width: 9; stroke-linecap: round;"></line></g><g></g><g></g><g><line x1="282.935" x2="363" y1="20.01625" y2="20.01625" stroke="#000000" style="stroke-width: 9; stroke-linecap: round;"></line></g><g></g><g></g><g><line x1="363" x2="443.065" y1="20.01625" y2="20.01625" stroke="#000000" style="stroke-width: 9; stroke-linecap: round;"></line></g><g></g><g></g><g><line x1="443.065" x2="523.13" y1="20.01625" y2="20.01625" stroke="#000000" style="stroke-width: 9; stroke-linecap: round;"></line></g><g></g><g></g><g><line x1="523.13" x2="603.1949999999999" y1="20.01625" y2="20.01625" stroke="#000000" style="stroke-width: 9; stroke-linecap: round;"></line></g><g></g><g></g><g><line x1="603.1949999999999" x2="683.26" y1="20.01625" y2="20.01625" stroke="#000000" style="stroke-width: 9; stroke-linecap: round;"></line></g><g><line x1="683.26" x2="683.26" y1="20.01625" y2="100.08125" stroke="#000000" style="stroke-width: 9; stroke-linecap: round;"></line></g><g></g><g></g><g></g><g><line x1="42.74000000000001" x2="42.74000000000001" y1="180.14625" y2="100.08125" stroke="#000000" style="stroke-width: 9; stroke-linecap: round;"></line></g><g></g><g></g><g></g><g></g><g></g><g></g><g></g><g></g><g></g><g></g><g></g><g></g><g><line x1="683.26" x2="683.26" y1="100.08125" y2="180.14625" stroke="#000000" style="stroke-width: 9; stroke-linecap: round;"></line></g><g></g><g></g><g></g><g><line x1="42.74000000000001" x2="42.74000000000001" y1="260.21125" y2="180.14625" stroke="#000000" style="stroke-width: 9; stroke-linecap: round;"></line></g><g></g><g></g><g></g><g></g><g></g><g></g><g></g><g></g><g></g><g></g><g></g><g></g><g><line x1="683.26" x2="683.26" y1="180.14625" y2="260.21125" stroke="#000000" style="stroke-width: 9; stroke-linecap: round;"></line></g><g></g><g></g><g></g><g><line x1="42.74000000000001" x2="42.74000000000001" y1="340.27625" y2="260.21125" stroke="#000000" style="stroke-width: 9; stroke-linecap: round;"></line></g><g></g><g></g><g></g><g></g><g></g><g></g><g></g><g></g><g></g><g></g><g></g><g></g><g><line x1="683.26" x2="683.26" y1="260.21125" y2="340.27625" stroke="#000000" style="stroke-width: 9; stroke-linecap: round;"></line></g><g></g><g></g><g></g><g><line x1="42.74000000000001" x2="42.74000000000001" y1="420.34125" y2="340.27625" stroke="#000000" style="stroke-width: 9; stroke-linecap: round;"></line></g><g></g><g></g><g></g><g></g><g></g><g></g><g></g><g></g><g></g><g></g><g></g><g></g><g><line x1="683.26" x2="683.26" y1="340.27625" y2="420.34125" stroke="#000000" style="stroke-width: 9; stroke-linecap: round;"></line></g><g></g><g></g><g></g><g><line x1="42.74000000000001" x2="42.74000000000001" y1="500.40625" y2="420.34125" stroke="#000000" style="stroke-width: 9; stroke-linecap: round;"></line></g><g></g><g></g><g></g><g></g><g></g><g></g><g></g><g></g><g></g><g></g><g></g><g></g><g><line x1="683.26" x2="683.26" y1="420.34125" y2="500.40625" stroke="#000000" style="stroke-width: 9; stroke-linecap: round;"></line></g><g></g><g></g><g></g><g><line x1="42.74000000000001" x2="42.74000000000001" y1="580.47125" y2="500.40625" stroke="#000000" style="stroke-width: 9; stroke-linecap: round;"></line></g><g></g><g></g><g></g><g></g><g></g><g></g><g></g><g></g><g></g><g></g><g></g><g></g><g><line x1="683.26" x2="683.26" y1="500.40625" y2="580.47125" stroke="#000000" style="stroke-width: 9; stroke-linecap: round;"></line></g><g></g><g></g><g><line x1="122.805" x2="42.74000000000001" y1="660.5362499999999" y2="660.5362499999999" stroke="#000000" style="stroke-width: 9; stroke-linecap: round;"></line></g><g><line x1="42.74000000000001" x2="42.74000000000001" y1="660.5362499999999" y2="580.4712499999999" stroke="#000000" style="stroke-width: 9; stroke-linecap: round;"></line></g><g></g><g><line x1="202.87" x2="122.805" y1="660.5362499999999" y2="660.5362499999999" stroke="#000000" style="stroke-width: 9; stroke-linecap: round;"></line></g><g></g><g><line x1="282.935" x2="202.87" y1="660.5362499999999" y2="660.5362499999999" stroke="#000000" style="stroke-width: 9; stroke-linecap: round;"></line></g><g></g><g><line x1="363" x2="282.935" y1="660.5362499999999" y2="660.5362499999999" stroke="#000000" style="stroke-width: 9; stroke-linecap: round;"></line></g><g></g><g><line x1="443.065" x2="363" y1="660.5362499999999" y2="660.5362499999999" stroke="#000000" style="stroke-width: 9; stroke-linecap: round;"></line></g><g></g><g><line x1="523.13" x2="443.065" y1="660.5362499999999" y2="660.5362499999999" stroke="#000000" style="stroke-width: 9; stroke-linecap: round;"></line></g><g></g><g><line x1="603.1949999999999" x2="523.13" y1="660.5362499999999" y2="660.5362499999999" stroke="#000000" style="stroke-width: 9; stroke-linecap: round;"></line></g><g><line x1="683.26" x2="683.26" y1="580.4712499999999" y2="660.5362499999999" stroke="#000000" style="stroke-width: 9; stroke-linecap: round;"></line></g><g><line x1="683.26" x2="603.1949999999999" y1="660.5362499999999" y2="660.5362499999999" stroke="#000000" style="stroke-width: 9; stroke-linecap: round;"></line></g><g><line x1="82.77250000000001" x2="162.8375" y1="60.04875" y2="60.04875" stroke="#002436" style="stroke-width: 13.5; stroke-opacity: 0.5; stroke-linecap: round;"></line></g><g><line x1="82.77250000000001" x2="82.77250000000001" y1="60.04875" y2="140.11374999999998" stroke="#002436" style="stroke-width: 13.5; stroke-opacity: 0.5; stroke-linecap: round;"></line></g><g><line x1="162.8375" x2="242.9025" y1="60.04875" y2="60.04875" stroke="#002436" style="stroke-width: 13.5; stroke-opacity: 0.5; stroke-linecap: round;"></line></g><g></g><g><line x1="242.9025" x2="322.9675" y1="60.04875" y2="60.04875" stroke="#002436" style="stroke-width: 13.5; stroke-opacity: 0.5; stroke-linecap: round;"></line></g><g></g><g></g><g><line x1="322.9675" x2="322.9675" y1="60.04875" y2="140.11374999999998" stroke="#002436" style="stroke-width: 13.5; stroke-opacity: 0.5; stroke-linecap: round;"></line></g><g><line x1="403.0325" x2="483.0975" y1="60.04875" y2="60.04875" stroke="#002436" style="stroke-width: 13.5; stroke-opacity: 0.5; stroke-linecap: round;"></line></g><g><line x1="403.0325" x2="403.0325" y1="60.04875" y2="140.11374999999998" stroke="#002436" style="stroke-width: 13.5; stroke-opacity: 0.5; stroke-linecap: round;"></line></g><g><line x1="483.09749999999997" x2="563.1624999999999" y1="60.04875" y2="60.04875" stroke="#002436" style="stroke-width: 13.5; stroke-opacity: 0.5; stroke-linecap: round;"></line></g><g></g><g><line x1="563.1625" x2="643.2275" y1="60.04875" y2="60.04875" stroke="#002436" style="stroke-width: 13.5; stroke-opacity: 0.5; stroke-linecap: round;"></line></g><g></g><g><line x1="643.2275" x2="643.2275" y1="60.04875" y2="140.11374999999998" stroke="#002436" style="stroke-width: 13.5; stroke-opacity: 0.5; stroke-linecap: round;"></line></g><g></g><g><line x1="82.77250000000001" x2="82.77250000000001" y1="140.11374999999998" y2="220.17874999999998" stroke="#002436" style="stroke-width: 13.5; stroke-opacity: 0.5; stroke-linecap: round;"></line></g><g><line x1="162.8375" x2="242.9025" y1="140.11374999999998" y2="140.11374999999998" stroke="#002436" style="stroke-width: 13.5; stroke-opacity: 0.5; stroke-linecap: round;"></line></g><g><line x1="162.8375" x2="162.8375" y1="140.11374999999998" y2="220.17874999999998" stroke="#002436" style="stroke-width: 13.5; stroke-opacity: 0.5; stroke-linecap: round;"></line></g><g></g><g><line x1="242.9025" x2="242.9025" y1="140.11374999999998" y2="220.17874999999998" stroke="#002436" style="stroke-width: 13.5; stroke-opacity: 0.5; stroke-linecap: round;"></line></g><g></g><g><line x1="322.9675" x2="322.9675" y1="140.11374999999998" y2="220.17874999999998" stroke="#002436" style="stroke-width: 13.5; stroke-opacity: 0.5; stroke-linecap: round;"></line></g><g></g><g><line x1="403.0325" x2="403.0325" y1="140.11374999999998" y2="220.17874999999998" stroke="#002436" style="stroke-width: 13.5; stroke-opacity: 0.5; stroke-linecap: round;"></line></g><g><line x1="483.09749999999997" x2="563.1624999999999" y1="140.11374999999998" y2="140.11374999999998" stroke="#002436" style="stroke-width: 13.5; stroke-opacity: 0.5; stroke-linecap: round;"></line></g><g><line x1="483.09749999999997" x2="483.09749999999997" y1="140.11374999999998" y2="220.17874999999998" stroke="#002436" style="stroke-width: 13.5; stroke-opacity: 0.5; stroke-linecap: round;"></line></g><g></g><g><line x1="563.1625" x2="563.1625" y1="140.11374999999998" y2="220.17874999999998" stroke="#002436" style="stroke-width: 13.5; stroke-opacity: 0.5; stroke-linecap: round;"></line></g><g><line x1="643.2275" x2="643.2275" y1="140.11374999999998" y2="220.17874999999998" stroke="#002436" style="stroke-width: 13.5; stroke-opacity: 0.5; stroke-linecap: round;"></line></g><g><line x1="82.77250000000001" x2="162.8375" y1="220.17875" y2="220.17875" stroke="#002436" style="stroke-width: 13.5; stroke-opacity: 0.5; stroke-linecap: round;"></line></g><g></g><g><line x1="162.8375" x2="242.9025" y1="220.17875" y2="220.17875" stroke="#002436" style="stroke-width: 13.5; stroke-opacity: 0.5; stroke-linecap: round;"></line></g><g><line x1="162.8375" x2="162.8375" y1="220.17875" y2="300.24375" stroke="#002436" style="stroke-width: 13.5; stroke-opacity: 0.5; stroke-linecap: round;"></line></g><g><line x1="242.9025" x2="322.9675" y1="220.17875" y2="220.17875" stroke="#002436" style="stroke-width: 13.5; stroke-opacity: 0.5; stroke-linecap: round;"></line></g><g><line x1="242.9025" x2="242.9025" y1="220.17875" y2="300.24375" stroke="#002436" style="stroke-width: 13.5; stroke-opacity: 0.5; stroke-linecap: round;"></line></g><g></g><g></g><g></g><g><line x1="403.0325" x2="403.0325" y1="220.17875" y2="300.24375" stroke="#002436" style="stroke-width: 13.5; stroke-opacity: 0.5; stroke-linecap: round;"></line></g><g></g><g><line x1="483.09749999999997" x2="483.09749999999997" y1="220.17875" y2="300.24375" stroke="#002436" style="stroke-width: 13.5; stroke-opacity: 0.5; stroke-linecap: round;"></line></g><g></g><g><line x1="563.1625" x2="563.1625" y1="220.17875" y2="300.24375" stroke="#002436" style="stroke-width: 13.5; stroke-opacity: 0.5; stroke-linecap: round;"></line></g><g><line x1="643.2275" x2="643.2275" y1="220.17875" y2="300.24375" stroke="#002436" style="stroke-width: 13.5; stroke-opacity: 0.5; stroke-linecap: round;"></line></g><g><line x1="82.77250000000001" x2="162.8375" y1="300.24375" y2="300.24375" stroke="#002436" style="stroke-width: 13.5; stroke-opacity: 0.5; stroke-linecap: round;"></line></g><g><line x1="82.77250000000001" x2="82.77250000000001" y1="300.24375" y2="380.30875" stroke="#002436" style="stroke-width: 13.5; stroke-opacity: 0.5; stroke-linecap: round;"></line></g><g><line x1="162.8375" x2="242.9025" y1="300.24375" y2="300.24375" stroke="#002436" style="stroke-width: 13.5; stroke-opacity: 0.5; stroke-linecap: round;"></line></g><g><line x1="162.8375" x2="162.8375" y1="300.24375" y2="380.30875" stroke="#002436" style="stroke-width: 13.5; stroke-opacity: 0.5; stroke-linecap: round;"></line></g><g><line x1="242.9025" x2="322.9675" y1="300.24375" y2="300.24375" stroke="#002436" style="stroke-width: 13.5; stroke-opacity: 0.5; stroke-linecap: round;"></line></g><g><line x1="242.9025" x2="242.9025" y1="300.24375" y2="380.30875" stroke="#002436" style="stroke-width: 13.5; stroke-opacity: 0.5; stroke-linecap: round;"></line></g><g></g><g><line x1="322.9675" x2="322.9675" y1="300.24375" y2="380.30875" stroke="#002436" style="stroke-width: 13.5; stroke-opacity: 0.5; stroke-linecap: round;"></line></g><g></g><g><line x1="403.0325" x2="403.0325" y1="300.24375" y2="380.30875" stroke="#002436" style="stroke-width: 13.5; stroke-opacity: 0.5; stroke-linecap: round;"></line></g><g></g><g><line x1="483.09749999999997" x2="483.09749999999997" y1="300.24375" y2="380.30875" stroke="#002436" style="stroke-width: 13.5; stroke-opacity: 0.5; stroke-linecap: round;"></line></g><g></g><g><line x1="563.1625" x2="563.1625" y1="300.24375" y2="380.30875" stroke="#002436" style="stroke-width: 13.5; stroke-opacity: 0.5; stroke-linecap: round;"></line></g><g><line x1="643.2275" x2="643.2275" y1="300.24375" y2="380.30875" stroke="#002436" style="stroke-width: 13.5; stroke-opacity: 0.5; stroke-linecap: round;"></line></g><g></g><g><line x1="82.77250000000001" x2="82.77250000000001" y1="380.30875000000003" y2="460.37375000000003" stroke="#002436" style="stroke-width: 13.5; stroke-opacity: 0.5; stroke-linecap: round;"></line></g><g><line x1="162.8375" x2="242.9025" y1="380.30875000000003" y2="380.30875000000003" stroke="#002436" style="stroke-width: 13.5; stroke-opacity: 0.5; stroke-linecap: round;"></line></g><g></g><g></g><g></g><g></g><g><line x1="322.9675" x2="322.9675" y1="380.30875000000003" y2="460.37375000000003" stroke="#002436" style="stroke-width: 13.5; stroke-opacity: 0.5; stroke-linecap: round;"></line></g><g></g><g><line x1="403.0325" x2="403.0325" y1="380.30875000000003" y2="460.37375000000003" stroke="#002436" style="stroke-width: 13.5; stroke-opacity: 0.5; stroke-linecap: round;"></line></g><g><line x1="483.09749999999997" x2="563.1624999999999" y1="380.30875000000003" y2="380.30875000000003" stroke="#002436" style="stroke-width: 13.5; stroke-opacity: 0.5; stroke-linecap: round;"></line></g><g></g><g></g><g></g><g><line x1="643.2275" x2="643.2275" y1="380.30875000000003" y2="460.37375000000003" stroke="#002436" style="stroke-width: 13.5; stroke-opacity: 0.5; stroke-linecap: round;"></line></g><g></g><g><line x1="82.77250000000001" x2="82.77250000000001" y1="460.37375" y2="540.43875" stroke="#002436" style="stroke-width: 13.5; stroke-opacity: 0.5; stroke-linecap: round;"></line></g><g><line x1="162.8375" x2="242.9025" y1="460.37375" y2="460.37375" stroke="#002436" style="stroke-width: 13.5; stroke-opacity: 0.5; stroke-linecap: round;"></line></g><g><line x1="162.8375" x2="162.8375" y1="460.37375" y2="540.43875" stroke="#002436" style="stroke-width: 13.5; stroke-opacity: 0.5; stroke-linecap: round;"></line></g><g><line x1="242.9025" x2="322.9675" y1="460.37375" y2="460.37375" stroke="#002436" style="stroke-width: 13.5; stroke-opacity: 0.5; stroke-linecap: round;"></line></g><g></g><g><line x1="322.9675" x2="403.03249999999997" y1="460.37375" y2="460.37375" stroke="#002436" style="stroke-width: 13.5; stroke-opacity: 0.5; stroke-linecap: round;"></line></g><g><line x1="322.9675" x2="322.9675" y1="460.37375" y2="540.43875" stroke="#002436" style="stroke-width: 13.5; stroke-opacity: 0.5; stroke-linecap: round;"></line></g><g><line x1="403.0325" x2="483.0975" y1="460.37375" y2="460.37375" stroke="#002436" style="stroke-width: 13.5; stroke-opacity: 0.5; stroke-linecap: round;"></line></g><g><line x1="403.0325" x2="403.0325" y1="460.37375" y2="540.43875" stroke="#002436" style="stroke-width: 13.5; stroke-opacity: 0.5; stroke-linecap: round;"></line></g><g><line x1="483.09749999999997" x2="563.1624999999999" y1="460.37375" y2="460.37375" stroke="#002436" style="stroke-width: 13.5; stroke-opacity: 0.5; stroke-linecap: round;"></line></g><g></g><g></g><g><line x1="563.1625" x2="563.1625" y1="460.37375" y2="540.43875" stroke="#002436" style="stroke-width: 13.5; stroke-opacity: 0.5; stroke-linecap: round;"></line></g><g><line x1="643.2275" x2="643.2275" y1="460.37375" y2="540.43875" stroke="#002436" style="stroke-width: 13.5; stroke-opacity: 0.5; stroke-linecap: round;"></line></g><g></g><g><line x1="82.77250000000001" x2="82.77250000000001" y1="540.43875" y2="620.5037500000001" stroke="#002436" style="stroke-width: 13.5; stroke-opacity: 0.5; stroke-linecap: round;"></line></g><g><line x1="162.8375" x2="242.9025" y1="540.43875" y2="540.43875" stroke="#002436" style="stroke-width: 13.5; stroke-opacity: 0.5; stroke-linecap: round;"></line></g><g></g><g><line x1="242.9025" x2="322.9675" y1="540.43875" y2="540.43875" stroke="#002436" style="stroke-width: 13.5; stroke-opacity: 0.5; stroke-linecap: round;"></line></g><g></g><g><line x1="322.9675" x2="403.03249999999997" y1="540.43875" y2="540.43875" stroke="#002436" style="stroke-width: 13.5; stroke-opacity: 0.5; stroke-linecap: round;"></line></g><g><line x1="322.9675" x2="322.9675" y1="540.43875" y2="620.5037500000001" stroke="#002436" style="stroke-width: 13.5; stroke-opacity: 0.5; stroke-linecap: round;"></line></g><g><line x1="403.0325" x2="483.0975" y1="540.43875" y2="540.43875" stroke="#002436" style="stroke-width: 13.5; stroke-opacity: 0.5; stroke-linecap: round;"></line></g><g><line x1="403.0325" x2="403.0325" y1="540.43875" y2="620.5037500000001" stroke="#002436" style="stroke-width: 13.5; stroke-opacity: 0.5; stroke-linecap: round;"></line></g><g><line x1="483.09749999999997" x2="563.1624999999999" y1="540.43875" y2="540.43875" stroke="#002436" style="stroke-width: 13.5; stroke-opacity: 0.5; stroke-linecap: round;"></line></g><g></g><g></g><g></g><g><line x1="643.2275" x2="643.2275" y1="540.43875" y2="620.5037500000001" stroke="#002436" style="stroke-width: 13.5; stroke-opacity: 0.5; stroke-linecap: round;"></line></g><g><line x1="82.77250000000001" x2="162.8375" y1="620.50375" y2="620.50375" stroke="#002436" style="stroke-width: 13.5; stroke-opacity: 0.5; stroke-linecap: round;"></line></g><g><line x1="162.8375" x2="242.9025" y1="620.50375" y2="620.50375" stroke="#002436" style="stroke-width: 13.5; stroke-opacity: 0.5; stroke-linecap: round;"></line></g><g><line x1="242.9025" x2="322.9675" y1="620.50375" y2="620.50375" stroke="#002436" style="stroke-width: 13.5; stroke-opacity: 0.5; stroke-linecap: round;"></line></g><g></g><g><line x1="403.0325" x2="483.0975" y1="620.50375" y2="620.50375" stroke="#002436" style="stroke-width: 13.5; stroke-opacity: 0.5; stroke-linecap: round;"></line></g><g><line x1="483.09749999999997" x2="563.1624999999999" y1="620.50375" y2="620.50375" stroke="#002436" style="stroke-width: 13.5; stroke-opacity: 0.5; stroke-linecap: round;"></line></g><g><line x1="563.1625" x2="643.2275" y1="620.50375" y2="620.50375" stroke="#002436" style="stroke-width: 13.5; stroke-opacity: 0.5; stroke-linecap: round;"></line></g></svg>