<svg class="pb-2" id="Grid" style="overflow: visible; z-index: 90;" xmlns="http://www.w3.org/2000/svg" xmlns:xlink="http://www.w3.org/1999/xlink" height="693.8966666666666" width="726" viewBox="0 0 726 693.8966666666666">
  Sorry, but your browser is not supported. Try to setup the new version.
<desc>Created with Snap</desc><defs><filter id="Smhdlnzqr9t" filterUnits="userSpaceOnUse"><feColorMatrix type="matrix" values="1 0 0 0 0 0 1 0 0 0 0 0 1 0 0 0 0 0 0.7 0"></feColorMatrix></filter><filter id="Smhdlnzqr9v" filterUnits="userSpaceOnUse"><feColorMatrix type="matrix" values="-.17 -.17 -.17 0 1 -.22 -.22 -.22 0 1 -.33 -.33 -.33 0 1 0 0 0 1 0"></feColorMatrix></filter></defs><g><polygon points="42.74000000000001,17.79222222222222,113.9088888888889,17.79222222222222,113.9088888888889,88.96111111111111,42.74000000000001,88.96111111111111" fill="#ffffff" stroke="#000000" style="fill-opacity: 1; stroke-width: 1;"></polygon></g><g><polygon points="113.9088888888889,17.79222222222222,185.07777777777778,17.79222222222222,185.07777777777778,88.96111111111111,113.9088888888889,88.96111111111111" fill="#ffffff" stroke="#000000" style="fill-opacity: 1; stroke-width: 1;"></polygon></g><g><polygon points="185.07777777777778,17.79222222222222,256.24666666666667,17.79222222222222,256.24666666666667,88.96111111111111,185.07777777777778,88.96111111111111" fill="#ffffff" stroke="#000000" style="fill-opacity: 1; stroke-width: 1;"></polygon></g><g><polygon points="256.24666666666667,17.79222222222222,327.41555555555556,17.79222222222222,327.41555555555556,88.96111111111111,256.24666666666667,88.96111111111111" fill="#ffffff" stroke="#000000" style="fill-opacity: 1; stroke-width: 1;"></polygon></g><g><polygon points="327.41555555555556,17.79222222222222,398.58444444444444,17.79222222222222,398.58444444444444,88.96111111111111,327.41555555555556,88.96111111111111" fill="#000000" stroke="#000000" style="fill-opacity: 1; stroke-width: 1;"></polygon></g><g><polygon points="398.58444444444444,17.79222222222222,469.75333333333333,17.79222222222222,469.75333333333333,88.96111111111111,398.58444444444444,88.96111111111111" fill="#000000" stroke="#000000" style="fill-opacity: 1; stroke-width: 1;"></polygon></g><g><polygon points="469.75333333333333,17.79222222222222,540.9222222222222,17.79222222222222,540.9222222222222,88.96111111111111,469.75333333333333,88.96111111111111" fill="#000000" stroke="#000000" style="fill-opacity: 1; stroke-width: 1;"></polygon></g><g><polygon points="540.9222222222222,17.79222222222222,612.0911111111111,17.79222222222222,612.0911111111111,88.96111111111111,540.9222222222222,88.96111111111111" fill="#ffffff" stroke="#000000" style="fill-opacity: 1; stroke-width: 1;"></polygon></g><g><polygon points="42.74000000000001,88.96111111111111,113.9088888888889,88.96111111111111,113.9088888888889,160.13,42.74000000000001,160.13" fill="#000000" stroke="#000000" style="fill-opacity: 1; stroke-width: 1;"></polygon></g><g><polygon points="113.9088888888889,88.96111111111111,185.07777777777778,88.96111111111111,185.07777777777778,160.13,113.9088888888889,160.13" fill="#000000" stroke="#000000" style="fill-opacity: 1; stroke-width: 1;"></polygon></g><g><polygon points="185.07777777777778,88.96111111111111,256.24666666666667,88.96111111111111,256.24666666666667,160.13,185.07777777777778,160.13" fill="#000000" stroke="#000000" style="fill-opacity: 1; stroke-width: 1;"></polygon></g><g><polygon points="256.24666666666667,88.96111111111111,327.41555555555556,88.96111111111111,327.41555555555556,160.13,256.24666666666667,160.13" fill="#ffffff" stroke="#000000" style="fill-opacity: 1; stroke-width: 1;"></polygon></g><g><polygon points="327.41555555555556,88.96111111111111,398.58444444444444,88.96111111111111,398.58444444444444,160.13,327.41555555555556,160.13" fill="#000000" stroke="#000000" style="fill-opacity: 1; stroke-width: 1;"></polygon></g><g><polygon points="398.58444444444444,88.96111111111111,469.75333333333333,88.96111111111111,469.75333333333333,160.13,398.58444444444444,160.13" fill="#000000" stroke="#000000" style="fill-opacity: 1; stroke-width: 1;"></polygon></g><g><polygon points="469.75333333333333,88.96111111111111,540.9222222222222,88.96111111111111,540.9222222222222,160.13,469.75333333333333,160.13" fill="#000000" stroke="#000000" style="fill-opacity: 1; stroke-width: 1;"></polygon></g><g><polygon points="540.9222222222222,88.96111111111111,612.0911111111111,88.96111111111111,612.0911111111111,160.13,540.9222222222222,160.13" fill="#ffffff" stroke="#000000" style="fill-opacity: 1; stroke-width: 1;"></polygon></g><g><polygon points="42.74000000000001,160.13,113.9088888888889,160.13,113.9088888888889,231.29888888888888,42.74000000000001,231.29888888888888" fill="#000000" stroke="#000000" style="fill-opacity: 1; stroke-width: 1;"></polygon></g><g><polygon points="113.9088888888889,160.13,185.07777777777778,160.13,185.07777777777778,231.29888888888888,113.9088888888889,231.29888888888888" fill="#000000" stroke="#000000" style="fill-opacity: 1; stroke-width: 1;"></polygon></g><g><polygon points="185.07777777777778,160.13,256.24666666666667,160.13,256.24666666666667,231.29888888888888,185.07777777777778,231.29888888888888" fill="#000000" stroke="#000000" style="fill-opacity: 1; stroke-width: 1;"></polygon></g><g><polygon points="256.24666666666667,160.13,327.41555555555556,160.13,327.41555555555556,231.29888888888888,256.24666666666667,231.29888888888888" fill="#ffffff" stroke="#000000" style="fill-opacity: 1; stroke-width: 1;"></polygon></g><g><polygon points="327.41555555555556,160.13,398.58444444444444,160.13,398.58444444444444,231.29888888888888,327.41555555555556,231.29888888888888" fill="#ffffff" stroke="#000000" style="fill-opacity: 1; stroke-width: 1;"></polygon></g><g><polygon points="398.58444444444444,160.13,469.75333333333333,160.13,469.75333333333333,231.29888888888888,398.58444444444444,231.29888888888888" fill="#ffffff" stroke="#000000" style="fill-opacity: 1; stroke-width: 1;"></polygon></g><g><polygon points="469.75333333333333,160.13,540.9222222222222,160.13,540.9222222222222,231.29888888888888,469.75333333333333,231.29888888888888" fill="#ffffff" stroke="#000000" style="fill-opacity: 1; stroke-width: 1;"></polygon></g><g><polygon points="540.9222222222222,160.13,612.0911111111111,160.13,612.0911111111111,231.29888888888888,540.9222222222222,231.29888888888888" fill="#ffffff" stroke="#000000" style="fill-opacity: 1; stroke-width: 1;"></polygon></g><g><polygon points="42.74000000000001,231.29888888888888,113.9088888888889,231.29888888888888,113.9088888888889,302.46777777777777,42.74000000000001,302.46777777777777" fill="#000000" stroke="#000000" style="fill-opacity: 1; stroke-width: 1;"></polygon></g><g><polygon points="113.9088888888889,231.29888888888888,185.07777777777778,231.29888888888888,185.07777777777778,302.46777777777777,113.9088888888889,302.46777777777777" fill="#000000" stroke="#000000" style="fill-opacity: 1; stroke-width: 1;"></polygon></g><g><polygon points="185.07777777777778,231.29888888888888,256.24666666666667,231.29888888888888,256.24666666666667,302.46777777777777,185.07777777777778,302.46777777777777" fill="#000000" stroke="#000000" style="fill-opacity: 1; stroke-width: 1;"></polygon></g><g><polygon points="256.24666666666667,231.29888888888888,327.41555555555556,231.29888888888888,327.41555555555556,302.46777777777777,256.24666666666667,302.46777777777777" fill="#ffffff" stroke="#000000" style="fill-opacity: 1; stroke-width: 1;"></polygon></g><g><polygon points="327.41555555555556,231.29888888888888,398.58444444444444,231.29888888888888,398.58444444444444,302.46777777777777,327.41555555555556,302.46777777777777" fill="#ffffff" stroke="#000000" style="fill-opacity: 1; stroke-width: 1;"></polygon></g><g><polygon points="398.58444444444444,231.29888888888888,469.75333333333333,231.29888888888888,469.75333333333333,302.46777777777777,398.58444444444444,302.46777777777777" fill="#ffffff" stroke="#000000" style="fill-opacity: 1; stroke-width: 1;"></polygon></g><g><polygon points="469.75333333333333,231.29888888888888,540.9222222222222,231.29888888888888,540.9222222222222,302.46777777777777,469.75333333333333,302.46777777777777" fill="#000000" stroke="#000000" style="fill-opacity: 1; stroke-width: 1;"></polygon></g><g><polygon points="540.9222222222222,231.29888888888888,612.0911111111111,231.29888888888888,612.0911111111111,302.46777777777777,540.9222222222222,302.46777777777777" fill="#000000" stroke="#000000" style="fill-opacity: 1; stroke-width: 1;"></polygon></g><g><polygon points="42.74000000000001,302.46777777777777,113.9088888888889,302.46777777777777,113.9088888888889,373.63666666666666,42.74000000000001,373.63666666666666" fill="#ffffff" stroke="#000000" style="fill-opacity: 1; stroke-width: 1;"></polygon></g><g><polygon points="113.9088888888889,302.46777777777777,185.07777777777778,302.46777777777777,185.07777777777778,373.63666666666666,113.9088888888889,373.63666666666666" fill="#ffffff" stroke="#000000" style="fill-opacity: 1; stroke-width: 1;"></polygon></g><g><polygon points="185.07777777777778,302.46777777777777,256.24666666666667,302.46777777777777,256.24666666666667,373.63666666666666,185.07777777777778,373.63666666666666" fill="#ffffff" stroke="#000000" style="fill-opacity: 1; stroke-width: 1;"></polygon></g><g><polygon points="256.24666666666667,302.46777777777777,327.41555555555556,302.46777777777777,327.41555555555556,373.63666666666666,256.24666666666667,373.63666666666666" fill="#ffffff" stroke="#000000" style="fill-opacity: 1; stroke-width: 1;"></polygon></g><g><polygon points="327.41555555555556,302.46777777777777,398.58444444444444,302.46777777777777,398.58444444444444,373.63666666666666,327.41555555555556,373.63666666666666" fill="#ffffff" stroke="#000000" style="fill-opacity: 1; stroke-width: 1;"></polygon></g><g><polygon points="398.58444444444444,302.46777777777777,469.75333333333333,302.46777777777777,469.75333333333333,373.63666666666666,398.58444444444444,373.63666666666666" fill="#ffffff" stroke="#000000" style="fill-opacity: 1; stroke-width: 1;"></polygon></g><g><polygon points="469.75333333333333,302.46777777777777,540.9222222222222,302.46777777777777,540.9222222222222,373.63666666666666,469.75333333333333,373.63666666666666" fill="#000000" stroke="#000000" style="fill-opacity: 1; stroke-width: 1;"></polygon></g><g><polygon points="540.9222222222222,302.46777777777777,612.0911111111111,302.46777777777777,612.0911111111111,373.63666666666666,540.9222222222222,373.63666666666666" fill="#000000" stroke="#000000" style="fill-opacity: 1; stroke-width: 1;"></polygon></g><g><polygon points="42.74000000000001,373.63666666666666,113.9088888888889,373.63666666666666,113.9088888888889,444.80555555555554,42.74000000000001,444.80555555555554" fill="#000000" stroke="#000000" style="fill-opacity: 1; stroke-width: 1;"></polygon></g><g><polygon points="113.9088888888889,373.63666666666666,185.07777777777778,373.63666666666666,185.07777777777778,444.80555555555554,113.9088888888889,444.80555555555554" fill="#000000" stroke="#000000" style="fill-opacity: 1; stroke-width: 1;"></polygon></g><g><polygon points="185.07777777777778,373.63666666666666,256.24666666666667,373.63666666666666,256.24666666666667,444.80555555555554,185.07777777777778,444.80555555555554" fill="#ffffff" stroke="#000000" style="fill-opacity: 1; stroke-width: 1;"></polygon></g><g><polygon points="256.24666666666667,373.63666666666666,327.41555555555556,373.63666666666666,327.41555555555556,444.80555555555554,256.24666666666667,444.80555555555554" fill="#000000" stroke="#000000" style="fill-opacity: 1; stroke-width: 1;"></polygon></g><g><polygon points="327.41555555555556,373.63666666666666,398.58444444444444,373.63666666666666,398.58444444444444,444.80555555555554,327.41555555555556,444.80555555555554" fill="#000000" stroke="#000000" style="fill-opacity: 1; stroke-width: 1;"></polygon></g><g><polygon points="398.58444444444444,373.63666666666666,469.75333333333333,373.63666666666666,469.75333333333333,444.80555555555554,398.58444444444444,444.80555555555554" fill="#ffffff" stroke="#000000" style="fill-opacity: 1; stroke-width: 1;"></polygon></g><g><polygon points="469.75333333333333,373.63666666666666,540.9222222222222,373.63666666666666,540.9222222222222,444.80555555555554,469.75333333333333,444.80555555555554" fill="#000000" stroke="#000000" style="fill-opacity: 1; stroke-width: 1;"></polygon></g><g><polygon points="540.9222222222222,373.63666666666666,612.0911111111111,373.63666666666666,612.0911111111111,444.80555555555554,540.9222222222222,444.80555555555554" fill="#000000" stroke="#000000" style="fill-opacity: 1; stroke-width: 1;"></polygon></g><g><polygon points="42.74000000000001,444.80555555555554,113.9088888888889,444.80555555555554,113.9088888888889,515.9744444444444,42.74000000000001,515.9744444444444" fill="#000000" stroke="#000000" style="fill-opacity: 1; stroke-width: 1;"></polygon></g><g><polygon points="113.9088888888889,444.80555555555554,185.07777777777778,444.80555555555554,185.07777777777778,515.9744444444444,113.9088888888889,515.9744444444444" fill="#000000" stroke="#000000" style="fill-opacity: 1; stroke-width: 1;"></polygon></g><g><polygon points="185.07777777777778,444.80555555555554,256.24666666666667,444.80555555555554,256.24666666666667,515.9744444444444,185.07777777777778,515.9744444444444" fill="#ffffff" stroke="#000000" style="fill-opacity: 1; stroke-width: 1;"></polygon></g><g><polygon points="256.24666666666667,444.80555555555554,327.41555555555556,444.80555555555554,327.41555555555556,515.9744444444444,256.24666666666667,515.9744444444444" fill="#000000" stroke="#000000" style="fill-opacity: 1; stroke-width: 1;"></polygon></g><g><polygon points="327.41555555555556,444.80555555555554,398.58444444444444,444.80555555555554,398.58444444444444,515.9744444444444,327.41555555555556,515.9744444444444" fill="#000000" stroke="#000000" style="fill-opacity: 1; stroke-width: 1;"></polygon></g><g><polygon points="398.58444444444444,444.80555555555554,469.75333333333333,444.80555555555554,469.75333333333333,515.9744444444444,398.58444444444444,515.9744444444444" fill="#ffffff" stroke="#000000" style="fill-opacity: 1; stroke-width: 1;"></polygon></g><g><polygon points="469.75333333333333,444.80555555555554,540.9222222222222,444.80555555555554,540.9222222222222,515.9744444444444,469.75333333333333,515.9744444444444" fill="#000000" stroke="#000000" style="fill-opacity: 1; stroke-width: 1;"></polygon></g><g><polygon points="540.9222222222222,444.80555555555554,612.0911111111111,444.80555555555554,612.0911111111111,515.9744444444444,540.9222222222222,515.9744444444444" fill="#000000" stroke="#000000" style="fill-opacity: 1; stroke-width: 1;"></polygon></g><g><polygon points="42.74000000000001,515.9744444444444,113.9088888888889,515.9744444444444,113.9088888888889,587.1433333333333,42.74000000000001,587.1433333333333" fill="#000000" stroke="#000000" style="fill-opacity: 1; stroke-width: 1;"></polygon></g><g><polygon points="113.9088888888889,515.9744444444444,185.07777777777778,515.9744444444444,185.07777777777778,587.1433333333333,113.9088888888889,587.1433333333333" fill="#000000" stroke="#000000" style="fill-opacity: 1; stroke-width: 1;"></polygon></g><g><polygon points="185.07777777777778,515.9744444444444,256.24666666666667,515.9744444444444,256.24666666666667,587.1433333333333,185.07777777777778,587.1433333333333" fill="#ffffff" stroke="#000000" style="fill-opacity: 1; stroke-width: 1;"></polygon></g><g><polygon points="256.24666666666667,515.9744444444444,327.41555555555556,515.9744444444444,327.41555555555556,587.1433333333333,256.24666666666667,587.1433333333333" fill="#ffffff" stroke="#000000" style="fill-opacity: 1; stroke-width: 1;"></polygon></g><g><polygon points="327.41555555555556,515.9744444444444,398.58444444444444,515.9744444444444,398.58444444444444,587.1433333333333,327.41555555555556,587.1433333333333" fill="#ffffff" stroke="#000000" style="fill-opacity: 1; stroke-width: 1;"></polygon></g><g><polygon points="398.58444444444444,515.9744444444444,469.75333333333333,515.9744444444444,469.75333333333333,587.1433333333333,398.58444444444444,587.1433333333333" fill="#ffffff" stroke="#000000" style="fill-opacity: 1; stroke-width: 1;"></polygon></g><g><polygon points="469.75333333333333,515.9744444444444,540.9222222222222,515.9744444444444,540.9222222222222,587.1433333333333,469.75333333333333,587.1433333333333" fill="#ffffff" stroke="#000000" style="fill-opacity: 1; stroke-width: 1;"></polygon></g><g><polygon points="540.9222222222222,515.9744444444444,612.0911111111111,515.9744444444444,612.0911111111111,587.1433333333333,540.9222222222222,587.1433333333333" fill="#ffffff" stroke="#000000" style="fill-opacity: 1; stroke-width: 1;"></polygon></g><g><polygon points="42.74000000000001,587.1433333333333,113.9088888888889,587.1433333333333,113.9088888888889,658.3122222222222,42.74000000000001,658.3122222222222" stroke="#000000" fill="#ffffff" style="fill-opacity: 0; stroke-width: 1;"></polygon><text x="64.62443333333334" y="640.1641555555556" lengthAdjust="spacingAndGlyphs" textLength="27.400022222222223" fill="#88ddbb" style="font-family: sans-serif; font-weight: bold; font-size: 49.8182px;">6</text></g><g><polygon points="113.9088888888889,587.1433333333333,185.07777777777778,587.1433333333333,185.07777777777778,658.3122222222222,113.9088888888889,658.3122222222222" stroke="#000000" fill="#ffffff" style="fill-opacity: 0; stroke-width: 1;"></polygon><text x="135.79332222222223" y="640.1641555555556" lengthAdjust="spacingAndGlyphs" textLength="27.400022222222223" fill="#88ddbb" style="font-family: sans-serif; font-weight: bold; font-size: 49.8182px;">6</text></g><g><polygon points="185.07777777777778,587.1433333333333,256.24666666666667,587.1433333333333,256.24666666666667,658.3122222222222,185.07777777777778,658.3122222222222" stroke="#000000" fill="#ffffff" style="fill-opacity: 0; stroke-width: 1;"></polygon><text x="206.96221111111112" y="640.1641555555556" lengthAdjust="spacingAndGlyphs" textLength="27.400022222222223" fill="#88ddbb" style="font-family: sans-serif; font-weight: bold; font-size: 49.8182px;">3</text></g><g><polygon points="256.24666666666667,587.1433333333333,327.41555555555556,587.1433333333333,327.41555555555556,658.3122222222222,256.24666666666667,658.3122222222222" stroke="#000000" fill="#ffffff" style="fill-opacity: 0; stroke-width: 1;"></polygon><text x="278.1311" y="640.1641555555556" lengthAdjust="spacingAndGlyphs" textLength="27.400022222222223" fill="#88ddbb" style="font-family: sans-serif; font-weight: bold; font-size: 49.8182px;">2</text></g><g><polygon points="327.41555555555556,587.1433333333333,398.58444444444444,587.1433333333333,398.58444444444444,658.3122222222222,327.41555555555556,658.3122222222222" stroke="#000000" fill="#ffffff" style="fill-opacity: 0; stroke-width: 1;"></polygon><text x="349.2999888888889" y="640.1641555555556" lengthAdjust="spacingAndGlyphs" textLength="27.400022222222223" fill="#88ddbb" style="font-family: sans-serif; font-weight: bold; font-size: 49.8182px;">4</text></g><g><polygon points="398.58444444444444,587.1433333333333,469.75333333333333,587.1433333333333,469.75333333333333,658.3122222222222,398.58444444444444,658.3122222222222" stroke="#000000" fill="#ffffff" style="fill-opacity: 0; stroke-width: 1;"></polygon><text x="420.4688777777778" y="640.1641555555556" lengthAdjust="spacingAndGlyphs" textLength="27.400022222222223" fill="#88ddbb" style="font-family: sans-serif; font-weight: bold; font-size: 49.8182px;">2</text></g><g><polygon points="469.75333333333333,587.1433333333333,540.9222222222222,587.1433333333333,540.9222222222222,658.3122222222222,469.75333333333333,658.3122222222222" stroke="#000000" fill="#ffffff" style="fill-opacity: 0; stroke-width: 1;"></polygon><text x="491.63776666666666" y="640.1641555555556" lengthAdjust="spacingAndGlyphs" textLength="27.400022222222223" fill="#88ddbb" style="font-family: sans-serif; font-weight: bold; font-size: 49.8182px;">6</text></g><g><polygon points="540.9222222222222,587.1433333333333,612.0911111111111,587.1433333333333,612.0911111111111,658.3122222222222,540.9222222222222,658.3122222222222" stroke="#000000" fill="#ffffff" style="fill-opacity: 0; stroke-width: 1;"></polygon><text x="562.8066555555555" y="640.1641555555556" lengthAdjust="spacingAndGlyphs" textLength="27.400022222222223" fill="#88ddbb" style="font-family: sans-serif; font-weight: bold; font-size: 49.8182px;">4</text></g><g><polygon points="612.0911111111111,17.79222222222222,683.26,17.79222222222222,683.26,88.96111111111111,612.0911111111111,88.96111111111111" stroke="#000000" fill="#ffffff" style="fill-opacity: 0; stroke-width: 1;"></polygon><text x="633.9755444444444" y="70.81304444444444" lengthAdjust="spacingAndGlyphs" textLength="27.400022222222223" fill="#88ddbb" style="font-family: sans-serif; font-weight: bold; font-size: 49.8182px;">3</text></g><g><polygon points="612.0911111111111,88.96111111111111,683.26,88.96111111111111,683.26,160.13,612.0911111111111,160.13" stroke="#000000" fill="#ffffff" style="fill-opacity: 0; stroke-width: 1;"></polygon><text x="633.9755444444444" y="141.98193333333333" lengthAdjust="spacingAndGlyphs" textLength="27.400022222222223" fill="#88ddbb" style="font-family: sans-serif; font-weight: bold; font-size: 49.8182px;">6</text></g><g><polygon points="612.0911111111111,160.13,683.26,160.13,683.26,231.29888888888888,612.0911111111111,231.29888888888888" stroke="#000000" fill="#ffffff" style="fill-opacity: 0; stroke-width: 1;"></polygon><text x="633.9755444444444" y="213.15082222222222" lengthAdjust="spacingAndGlyphs" textLength="27.400022222222223" fill="#88ddbb" style="font-family: sans-serif; font-weight: bold; font-size: 49.8182px;">3</text></g><g><polygon points="612.0911111111111,231.29888888888888,683.26,231.29888888888888,683.26,302.46777777777777,612.0911111111111,302.46777777777777" stroke="#000000" fill="#ffffff" style="fill-opacity: 0; stroke-width: 1;"></polygon><text x="633.9755444444444" y="284.3197111111111" lengthAdjust="spacingAndGlyphs" textLength="27.400022222222223" fill="#88ddbb" style="font-family: sans-serif; font-weight: bold; font-size: 49.8182px;">5</text></g><g><polygon points="612.0911111111111,302.46777777777777,683.26,302.46777777777777,683.26,373.63666666666666,612.0911111111111,373.63666666666666" stroke="#000000" fill="#ffffff" style="fill-opacity: 0; stroke-width: 1;"></polygon><text x="633.9755444444444" y="355.48859999999996" lengthAdjust="spacingAndGlyphs" textLength="27.400022222222223" fill="#88ddbb" style="font-family: sans-serif; font-weight: bold; font-size: 49.8182px;">2</text></g><g><polygon points="612.0911111111111,373.63666666666666,683.26,373.63666666666666,683.26,444.80555555555554,612.0911111111111,444.80555555555554" stroke="#000000" fill="#ffffff" style="fill-opacity: 0; stroke-width: 1;"></polygon><text x="633.9755444444444" y="426.65748888888885" lengthAdjust="spacingAndGlyphs" textLength="27.400022222222223" fill="#88ddbb" style="font-family: sans-serif; font-weight: bold; font-size: 49.8182px;">6</text></g><g><polygon points="612.0911111111111,444.80555555555554,683.26,444.80555555555554,683.26,515.9744444444444,612.0911111111111,515.9744444444444" stroke="#000000" fill="#ffffff" style="fill-opacity: 0; stroke-width: 1;"></polygon><text x="633.9755444444444" y="497.82637777777774" lengthAdjust="spacingAndGlyphs" textLength="27.400022222222223" fill="#88ddbb" style="font-family: sans-serif; font-weight: bold; font-size: 49.8182px;">6</text></g><g><polygon points="612.0911111111111,515.9744444444444,683.26,515.9744444444444,683.26,587.1433333333333,612.0911111111111,587.1433333333333" stroke="#000000" fill="#ffffff" style="fill-opacity: 0; stroke-width: 1;"></polygon><text x="633.9755444444444" y="568.9952666666667" lengthAdjust="spacingAndGlyphs" textLength="27.400022222222223" fill="#88ddbb" style="font-family: sans-serif; font-weight: bold; font-size: 49.8182px;">2</text></g><g><line x1="42.74000000000001" x2="113.9088888888889" y1="17.79222222222222" y2="17.79222222222222" stroke="#000000" style="stroke-width: 8; stroke-linecap: round;"></line></g><g></g><g></g><g><line x1="42.74000000000001" x2="42.74000000000001" y1="88.96111111111111" y2="17.79222222222222" stroke="#000000" style="stroke-width: 8; stroke-linecap: round;"></line></g><g><line x1="113.9088888888889" x2="185.07777777777778" y1="17.79222222222222" y2="17.79222222222222" stroke="#000000" style="stroke-width: 8; stroke-linecap: round;"></line></g><g></g><g></g><g><line x1="185.07777777777778" x2="256.24666666666667" y1="17.79222222222222" y2="17.79222222222222" stroke="#000000" style="stroke-width: 8; stroke-linecap: round;"></line></g><g></g><g></g><g><line x1="256.24666666666667" x2="327.41555555555556" y1="17.79222222222222" y2="17.79222222222222" stroke="#000000" style="stroke-width: 8; stroke-linecap: round;"></line></g><g></g><g></g><g><line x1="327.41555555555556" x2="398.58444444444444" y1="17.79222222222222" y2="17.79222222222222" stroke="#000000" style="stroke-width: 8; stroke-linecap: round;"></line></g><g></g><g></g><g><line x1="398.58444444444444" x2="469.75333333333333" y1="17.79222222222222" y2="17.79222222222222" stroke="#000000" style="stroke-width: 8; stroke-linecap: round;"></line></g><g></g><g></g><g><line x1="469.75333333333333" x2="540.9222222222222" y1="17.79222222222222" y2="17.79222222222222" stroke="#000000" style="stroke-width: 8; stroke-linecap: round;"></line></g><g></g><g></g><g><line x1="540.9222222222222" x2="612.0911111111111" y1="17.79222222222222" y2="17.79222222222222" stroke="#000000" style="stroke-width: 8; stroke-linecap: round;"></line></g><g><line x1="612.0911111111111" x2="612.0911111111111" y1="17.79222222222222" y2="88.96111111111111" stroke="#000000" style="stroke-width: 8; stroke-linecap: round;"></line></g><g></g><g></g><g></g><g><line x1="42.74000000000001" x2="42.74000000000001" y1="160.13" y2="88.96111111111111" stroke="#000000" style="stroke-width: 8; stroke-linecap: round;"></line></g><g></g><g></g><g></g><g></g><g></g><g></g><g></g><g></g><g></g><g></g><g></g><g></g><g><line x1="612.0911111111111" x2="612.0911111111111" y1="88.96111111111111" y2="160.13" stroke="#000000" style="stroke-width: 8; stroke-linecap: round;"></line></g><g></g><g></g><g></g><g><line x1="42.74000000000001" x2="42.74000000000001" y1="231.29888888888888" y2="160.13" stroke="#000000" style="stroke-width: 8; stroke-linecap: round;"></line></g><g></g><g></g><g></g><g></g><g></g><g></g><g></g><g></g><g></g><g></g><g></g><g></g><g><line x1="612.0911111111111" x2="612.0911111111111" y1="160.13" y2="231.29888888888888" stroke="#000000" style="stroke-width: 8; stroke-linecap: round;"></line></g><g></g><g></g><g></g><g><line x1="42.74000000000001" x2="42.74000000000001" y1="302.46777777777777" y2="231.29888888888888" stroke="#000000" style="stroke-width: 8; stroke-linecap: round;"></line></g><g></g><g></g><g></g><g></g><g></g><g></g><g></g><g></g><g></g><g></g><g></g><g></g><g><line x1="612.0911111111111" x2="612.0911111111111" y1="231.29888888888888" y2="302.46777777777777" stroke="#000000" style="stroke-width: 8; stroke-linecap: round;"></line></g><g></g><g></g><g></g><g><line x1="42.74000000000001" x2="42.74000000000001" y1="373.63666666666666" y2="302.46777777777777" stroke="#000000" style="stroke-width: 8; stroke-linecap: round;"></line></g><g></g><g></g><g></g><g></g><g></g><g></g><g></g><g></g><g></g><g></g><g></g><g></g><g><line x1="612.0911111111111" x2="612.0911111111111" y1="302.46777777777777" y2="373.63666666666666" stroke="#000000" style="stroke-width: 8; stroke-linecap: round;"></line></g><g></g><g></g><g></g><g><line x1="42.74000000000001" x2="42.74000000000001" y1="444.80555555555554" y2="373.63666666666666" stroke="#000000" style="stroke-width: 8; stroke-linecap: round;"></line></g><g></g><g></g><g></g><g></g><g></g><g></g><g></g><g></g><g></g><g></g><g></g><g></g><g><line x1="612.0911111111111" x2="612.0911111111111" y1="373.63666666666666" y2="444.80555555555554" stroke="#000000" style="stroke-width: 8; stroke-linecap: round;"></line></g><g></g><g></g><g></g><g><line x1="42.74000000000001" x2="42.74000000000001" y1="515.9744444444444" y2="444.80555555555554" stroke="#000000" style="stroke-width: 8; stroke-linecap: round;"></line></g><g></g><g></g><g></g><g></g><g></g><g></g><g></g><g></g><g></g><g></g><g></g><g></g><g><line x1="612.0911111111111" x2="612.0911111111111" y1="444.80555555555554" y2="515.9744444444444" stroke="#000000" style="stroke-width: 8; stroke-linecap: round;"></line></g><g></g><g></g><g><line x1="113.9088888888889" x2="42.74000000000001" y1="587.1433333333333" y2="587.1433333333333" stroke="#000000" style="stroke-width: 8; stroke-linecap: round;"></line></g><g><line x1="42.74000000000001" x2="42.74000000000001" y1="587.1433333333333" y2="515.9744444444444" stroke="#000000" style="stroke-width: 8; stroke-linecap: round;"></line></g><g></g><g><line x1="185.07777777777778" x2="113.9088888888889" y1="587.1433333333333" y2="587.1433333333333" stroke="#000000" style="stroke-width: 8; stroke-linecap: round;"></line></g><g></g><g><line x1="256.24666666666667" x2="185.07777777777778" y1="587.1433333333333" y2="587.1433333333333" stroke="#000000" style="stroke-width: 8; stroke-linecap: round;"></line></g><g></g><g><line x1="327.41555555555556" x2="256.24666666666667" y1="587.1433333333333" y2="587.1433333333333" stroke="#000000" style="stroke-width: 8; stroke-linecap: round;"></line></g><g></g><g><line x1="398.58444444444444" x2="327.41555555555556" y1="587.1433333333333" y2="587.1433333333333" stroke="#000000" style="stroke-width: 8; stroke-linecap: round;"></line></g><g></g><g><line x1="469.75333333333333" x2="398.58444444444444" y1="587.1433333333333" y2="587.1433333333333" stroke="#000000" style="stroke-width: 8; stroke-linecap: round;"></line></g><g></g><g><line x1="540.9222222222222" x2="469.75333333333333" y1="587.1433333333333" y2="587.1433333333333" stroke="#000000" style="stroke-width: 8; stroke-linecap: round;"></line></g><g><line x1="612.0911111111111" x2="612.0911111111111" y1="515.9744444444444" y2="587.1433333333333" stroke="#000000" style="stroke-width: 8; stroke-linecap: round;"></line></g><g><line x1="612.0911111111111" x2="540.9222222222222" y1="587.1433333333333" y2="587.1433333333333" stroke="#000000" style="stroke-width: 8; stroke-linecap: round;"></line></g></svg>