<svg class="pb-2" id="Grid" style="overflow: visible; z-index: 90;" xmlns="http://www.w3.org/2000/svg" xmlns:xlink="http://www.w3.org/1999/xlink" height="567.9296875" width="726" viewBox="0 0 726 567.9296875">
  Sorry, but your browser is not supported. Try to setup the new version.
<desc>Created with Snap</desc><defs><filter id="Smhet4fun72" filterUnits="userSpaceOnUse"><feColorMatrix type="matrix" values="1 0 0 0 0 0 1 0 0 0 0 0 1 0 0 0 0 0 0.7 0"></feColorMatrix></filter><filter id="Smhet4fun74" filterUnits="userSpaceOnUse"><feColorMatrix type="matrix" values="-.17 -.17 -.17 0 1 -.22 -.22 -.22 0 1 -.33 -.33 -.33 0 1 0 0 0 1 0"></feColorMatrix></filter></defs><g><polygon points="168.28125,81.1328125,233.1875,81.1328125,233.1875,146.0390625,168.28125,146.0390625" fill="#ffffff" stroke="#000000" style="fill-opacity: 1; stroke-width: 1;"></polygon><text x="188.239921875" y="129.48796875" lengthAdjust="spacingAndGlyphs" textLength="24.98890625" fill="#00121d" style="font-family: sans-serif; font-weight: bold; font-size: 45.4344px;">3</text></g><g><polygon points="233.1875,81.1328125,298.09375,81.1328125,298.09375,146.0390625,233.1875,146.0390625" fill="#ffffff" stroke="#000000" style="fill-opacity: 1; stroke-width: 1;"></polygon><text x="253.146171875" y="129.48796875" lengthAdjust="spacingAndGlyphs" textLength="24.98890625" fill="#00121d" style="font-family: sans-serif; font-weight: bold; font-size: 45.4344px;">6</text></g><g><polygon points="298.09375,81.1328125,363,81.1328125,363,146.0390625,298.09375,146.0390625" fill="#ffffff" stroke="#000000" style="fill-opacity: 1; stroke-width: 1;"></polygon><text x="318.052421875" y="129.48796875" lengthAdjust="spacingAndGlyphs" textLength="24.98890625" fill="#00121d" style="font-family: sans-serif; font-weight: bold; font-size: 45.4344px;">1</text></g><g><polygon points="363,81.1328125,427.90625,81.1328125,427.90625,146.0390625,363,146.0390625" fill="#ffffff" stroke="#000000" style="fill-opacity: 1; stroke-width: 1;"></polygon><text x="382.958671875" y="129.48796875" lengthAdjust="spacingAndGlyphs" textLength="24.98890625" fill="#00121d" style="font-family: sans-serif; font-weight: bold; font-size: 45.4344px;">5</text></g><g><polygon points="427.90625,81.1328125,492.8125,81.1328125,492.8125,146.0390625,427.90625,146.0390625" fill="#ffffff" stroke="#000000" style="fill-opacity: 1; stroke-width: 1;"></polygon><text x="447.864921875" y="129.48796875" lengthAdjust="spacingAndGlyphs" textLength="24.98890625" fill="#00121d" style="font-family: sans-serif; font-weight: bold; font-size: 45.4344px;">4</text></g><g><polygon points="492.8125,81.1328125,557.71875,81.1328125,557.71875,146.0390625,492.8125,146.0390625" fill="#ffffff" stroke="#000000" style="fill-opacity: 1; stroke-width: 1;"></polygon><text x="512.771171875" y="129.48796875" lengthAdjust="spacingAndGlyphs" textLength="24.98890625" fill="#00121d" style="font-family: sans-serif; font-weight: bold; font-size: 45.4344px;">2</text></g><g><polygon points="168.28125,146.0390625,233.1875,146.0390625,233.1875,210.9453125,168.28125,210.9453125" fill="#ffffff" stroke="#000000" style="fill-opacity: 1; stroke-width: 1;"></polygon><text x="188.239921875" y="194.39421875" lengthAdjust="spacingAndGlyphs" textLength="24.98890625" fill="#00121d" style="font-family: sans-serif; font-weight: bold; font-size: 45.4344px;">4</text></g><g><polygon points="233.1875,146.0390625,298.09375,146.0390625,298.09375,210.9453125,233.1875,210.9453125" fill="#ffffff" stroke="#000000" style="fill-opacity: 1; stroke-width: 1;"></polygon><text x="253.146171875" y="194.39421875" lengthAdjust="spacingAndGlyphs" textLength="24.98890625" fill="#00121d" style="font-family: sans-serif; font-weight: bold; font-size: 45.4344px;">5</text></g><g><polygon points="298.09375,146.0390625,363,146.0390625,363,210.9453125,298.09375,210.9453125" fill="#ffffff" stroke="#000000" style="fill-opacity: 1; stroke-width: 1;"></polygon><text x="318.052421875" y="194.39421875" lengthAdjust="spacingAndGlyphs" textLength="24.98890625" fill="#00121d" style="font-family: sans-serif; font-weight: bold; font-size: 45.4344px;">2</text></g><g><polygon points="363,146.0390625,427.90625,146.0390625,427.90625,210.9453125,363,210.9453125" fill="#ffffff" stroke="#000000" style="fill-opacity: 1; stroke-width: 1;"></polygon><text x="382.958671875" y="194.39421875" lengthAdjust="spacingAndGlyphs" textLength="24.98890625" fill="#00121d" style="font-family: sans-serif; font-weight: bold; font-size: 45.4344px;">6</text></g><g><polygon points="427.90625,146.0390625,492.8125,146.0390625,492.8125,210.9453125,427.90625,210.9453125" fill="#ffffff" stroke="#000000" style="fill-opacity: 1; stroke-width: 1;"></polygon><text x="447.864921875" y="194.39421875" lengthAdjust="spacingAndGlyphs" textLength="24.98890625" fill="#00121d" style="font-family: sans-serif; font-weight: bold; font-size: 45.4344px;">1</text></g><g><polygon points="492.8125,146.0390625,557.71875,146.0390625,557.71875,210.9453125,492.8125,210.9453125" fill="#ffffff" stroke="#000000" style="fill-opacity: 1; stroke-width: 1;"></polygon><text x="512.771171875" y="194.39421875" lengthAdjust="spacingAndGlyphs" textLength="24.98890625" fill="#00121d" style="font-family: sans-serif; font-weight: bold; font-size: 45.4344px;">3</text></g><g><polygon points="168.28125,210.9453125,233.1875,210.9453125,233.1875,275.8515625,168.28125,275.8515625" fill="#ffffff" stroke="#000000" style="fill-opacity: 1; stroke-width: 1;"></polygon><text x="188.239921875" y="259.30046875" lengthAdjust="spacingAndGlyphs" textLength="24.98890625" fill="#00121d" style="font-family: sans-serif; font-weight: bold; font-size: 45.4344px;">6</text></g><g><polygon points="233.1875,210.9453125,298.09375,210.9453125,298.09375,275.8515625,233.1875,275.8515625" fill="#ffffff" stroke="#000000" style="fill-opacity: 1; stroke-width: 1;"></polygon><text x="253.146171875" y="259.30046875" lengthAdjust="spacingAndGlyphs" textLength="24.98890625" fill="#00121d" style="font-family: sans-serif; font-weight: bold; font-size: 45.4344px;">4</text></g><g><polygon points="298.09375,210.9453125,363,210.9453125,363,275.8515625,298.09375,275.8515625" fill="#ffffff" stroke="#000000" style="fill-opacity: 1; stroke-width: 1;"></polygon><text x="318.052421875" y="259.30046875" lengthAdjust="spacingAndGlyphs" textLength="24.98890625" fill="#00121d" style="font-family: sans-serif; font-weight: bold; font-size: 45.4344px;">5</text></g><g><polygon points="363,210.9453125,427.90625,210.9453125,427.90625,275.8515625,363,275.8515625" fill="#ffffff" stroke="#000000" style="fill-opacity: 1; stroke-width: 1;"></polygon><text x="382.958671875" y="259.30046875" lengthAdjust="spacingAndGlyphs" textLength="24.98890625" fill="#00121d" style="font-family: sans-serif; font-weight: bold; font-size: 45.4344px;">3</text></g><g><polygon points="427.90625,210.9453125,492.8125,210.9453125,492.8125,275.8515625,427.90625,275.8515625" fill="#ffffff" stroke="#000000" style="fill-opacity: 1; stroke-width: 1;"></polygon><text x="447.864921875" y="259.30046875" lengthAdjust="spacingAndGlyphs" textLength="24.98890625" fill="#00121d" style="font-family: sans-serif; font-weight: bold; font-size: 45.4344px;">2</text></g><g><polygon points="492.8125,210.9453125,557.71875,210.9453125,557.71875,275.8515625,492.8125,275.8515625" fill="#ffffff" stroke="#000000" style="fill-opacity: 1; stroke-width: 1;"></polygon><text x="512.771171875" y="259.30046875" lengthAdjust="spacingAndGlyphs" textLength="24.98890625" fill="#00121d" style="font-family: sans-serif; font-weight: bold; font-size: 45.4344px;">1</text></g><g><polygon points="168.28125,275.8515625,233.1875,275.8515625,233.1875,340.7578125,168.28125,340.7578125" fill="#ffffff" stroke="#000000" style="fill-opacity: 1; stroke-width: 1;"></polygon><text x="188.239921875" y="324.20671875" lengthAdjust="spacingAndGlyphs" textLength="24.98890625" fill="#00121d" style="font-family: sans-serif; font-weight: bold; font-size: 45.4344px;">1</text></g><g><polygon points="233.1875,275.8515625,298.09375,275.8515625,298.09375,340.7578125,233.1875,340.7578125" fill="#ffffff" stroke="#000000" style="fill-opacity: 1; stroke-width: 1;"></polygon><text x="253.146171875" y="324.20671875" lengthAdjust="spacingAndGlyphs" textLength="24.98890625" fill="#00121d" style="font-family: sans-serif; font-weight: bold; font-size: 45.4344px;">2</text></g><g><polygon points="298.09375,275.8515625,363,275.8515625,363,340.7578125,298.09375,340.7578125" fill="#ffffff" stroke="#000000" style="fill-opacity: 1; stroke-width: 1;"></polygon><text x="318.052421875" y="324.20671875" lengthAdjust="spacingAndGlyphs" textLength="24.98890625" fill="#00121d" style="font-family: sans-serif; font-weight: bold; font-size: 45.4344px;">3</text></g><g><polygon points="363,275.8515625,427.90625,275.8515625,427.90625,340.7578125,363,340.7578125" fill="#ffffff" stroke="#000000" style="fill-opacity: 1; stroke-width: 1;"></polygon><text x="382.958671875" y="324.20671875" lengthAdjust="spacingAndGlyphs" textLength="24.98890625" fill="#00121d" style="font-family: sans-serif; font-weight: bold; font-size: 45.4344px;">4</text></g><g><polygon points="427.90625,275.8515625,492.8125,275.8515625,492.8125,340.7578125,427.90625,340.7578125" fill="#ffffff" stroke="#000000" style="fill-opacity: 1; stroke-width: 1;"></polygon><text x="447.864921875" y="324.20671875" lengthAdjust="spacingAndGlyphs" textLength="24.98890625" fill="#00121d" style="font-family: sans-serif; font-weight: bold; font-size: 45.4344px;">5</text></g><g><polygon points="492.8125,275.8515625,557.71875,275.8515625,557.71875,340.7578125,492.8125,340.7578125" fill="#ffffff" stroke="#000000" style="fill-opacity: 1; stroke-width: 1;"></polygon><text x="512.771171875" y="324.20671875" lengthAdjust="spacingAndGlyphs" textLength="24.98890625" fill="#00121d" style="font-family: sans-serif; font-weight: bold; font-size: 45.4344px;">6</text></g><g><polygon points="168.28125,340.7578125,233.1875,340.7578125,233.1875,405.6640625,168.28125,405.6640625" fill="#ffffff" stroke="#000000" style="fill-opacity: 1; stroke-width: 1;"></polygon><text x="188.239921875" y="389.11296875" lengthAdjust="spacingAndGlyphs" textLength="24.98890625" fill="#00121d" style="font-family: sans-serif; font-weight: bold; font-size: 45.4344px;">2</text></g><g><polygon points="233.1875,340.7578125,298.09375,340.7578125,298.09375,405.6640625,233.1875,405.6640625" fill="#ffffff" stroke="#000000" style="fill-opacity: 1; stroke-width: 1;"></polygon><text x="253.146171875" y="389.11296875" lengthAdjust="spacingAndGlyphs" textLength="24.98890625" fill="#00121d" style="font-family: sans-serif; font-weight: bold; font-size: 45.4344px;">3</text></g><g><polygon points="298.09375,340.7578125,363,340.7578125,363,405.6640625,298.09375,405.6640625" fill="#ffffff" stroke="#000000" style="fill-opacity: 1; stroke-width: 1;"></polygon><text x="318.052421875" y="389.11296875" lengthAdjust="spacingAndGlyphs" textLength="24.98890625" fill="#00121d" style="font-family: sans-serif; font-weight: bold; font-size: 45.4344px;">4</text></g><g><polygon points="363,340.7578125,427.90625,340.7578125,427.90625,405.6640625,363,405.6640625" fill="#ffffff" stroke="#000000" style="fill-opacity: 1; stroke-width: 1;"></polygon><text x="382.958671875" y="389.11296875" lengthAdjust="spacingAndGlyphs" textLength="24.98890625" fill="#00121d" style="font-family: sans-serif; font-weight: bold; font-size: 45.4344px;">1</text></g><g><polygon points="427.90625,340.7578125,492.8125,340.7578125,492.8125,405.6640625,427.90625,405.6640625" fill="#ffffff" stroke="#000000" style="fill-opacity: 1; stroke-width: 1;"></polygon><text x="447.864921875" y="389.11296875" lengthAdjust="spacingAndGlyphs" textLength="24.98890625" fill="#00121d" style="font-family: sans-serif; font-weight: bold; font-size: 45.4344px;">6</text></g><g><polygon points="492.8125,340.7578125,557.71875,340.7578125,557.71875,405.6640625,492.8125,405.6640625" fill="#ffffff" stroke="#000000" style="fill-opacity: 1; stroke-width: 1;"></polygon><text x="512.771171875" y="389.11296875" lengthAdjust="spacingAndGlyphs" textLength="24.98890625" fill="#00121d" style="font-family: sans-serif; font-weight: bold; font-size: 45.4344px;">5</text></g><g><polygon points="168.28125,405.6640625,233.1875,405.6640625,233.1875,470.5703125,168.28125,470.5703125" fill="#ffffff" stroke="#000000" style="fill-opacity: 1; stroke-width: 1;"></polygon><text x="188.239921875" y="454.01921875" lengthAdjust="spacingAndGlyphs" textLength="24.98890625" fill="#00121d" style="font-family: sans-serif; font-weight: bold; font-size: 45.4344px;">5</text></g><g><polygon points="233.1875,405.6640625,298.09375,405.6640625,298.09375,470.5703125,233.1875,470.5703125" fill="#ffffff" stroke="#000000" style="fill-opacity: 1; stroke-width: 1;"></polygon><text x="253.146171875" y="454.01921875" lengthAdjust="spacingAndGlyphs" textLength="24.98890625" fill="#00121d" style="font-family: sans-serif; font-weight: bold; font-size: 45.4344px;">1</text></g><g><polygon points="298.09375,405.6640625,363,405.6640625,363,470.5703125,298.09375,470.5703125" fill="#ffffff" stroke="#000000" style="fill-opacity: 1; stroke-width: 1;"></polygon><text x="318.052421875" y="454.01921875" lengthAdjust="spacingAndGlyphs" textLength="24.98890625" fill="#00121d" style="font-family: sans-serif; font-weight: bold; font-size: 45.4344px;">6</text></g><g><polygon points="363,405.6640625,427.90625,405.6640625,427.90625,470.5703125,363,470.5703125" fill="#ffffff" stroke="#000000" style="fill-opacity: 1; stroke-width: 1;"></polygon><text x="382.958671875" y="454.01921875" lengthAdjust="spacingAndGlyphs" textLength="24.98890625" fill="#00121d" style="font-family: sans-serif; font-weight: bold; font-size: 45.4344px;">2</text></g><g><polygon points="427.90625,405.6640625,492.8125,405.6640625,492.8125,470.5703125,427.90625,470.5703125" fill="#ffffff" stroke="#000000" style="fill-opacity: 1; stroke-width: 1;"></polygon><text x="447.864921875" y="454.01921875" lengthAdjust="spacingAndGlyphs" textLength="24.98890625" fill="#00121d" style="font-family: sans-serif; font-weight: bold; font-size: 45.4344px;">3</text></g><g><polygon points="492.8125,405.6640625,557.71875,405.6640625,557.71875,470.5703125,492.8125,470.5703125" fill="#ffffff" stroke="#000000" style="fill-opacity: 1; stroke-width: 1;"></polygon><text x="512.771171875" y="454.01921875" lengthAdjust="spacingAndGlyphs" textLength="24.98890625" fill="#00121d" style="font-family: sans-serif; font-weight: bold; font-size: 45.4344px;">4</text></g><g><polygon points="168.28125,470.5703125,233.1875,470.5703125,233.1875,535.4765625,168.28125,535.4765625" stroke="#000000" fill="#ffffff" style="fill-opacity: 0; stroke-width: 1;"></polygon></g><g><polygon points="233.1875,470.5703125,298.09375,470.5703125,298.09375,535.4765625,233.1875,535.4765625" stroke="#000000" fill="#ffffff" style="fill-opacity: 0; stroke-width: 1;"></polygon><text x="253.146171875" y="518.92546875" lengthAdjust="spacingAndGlyphs" textLength="24.98890625" fill="#88ddbb" style="font-family: sans-serif; font-weight: bold; font-size: 45.4344px;">5</text></g><g><polygon points="298.09375,470.5703125,363,470.5703125,363,535.4765625,298.09375,535.4765625" stroke="#000000" fill="#ffffff" style="fill-opacity: 0; stroke-width: 1;"></polygon></g><g><polygon points="363,470.5703125,427.90625,470.5703125,427.90625,535.4765625,363,535.4765625" stroke="#000000" fill="#ffffff" style="fill-opacity: 0; stroke-width: 1;"></polygon></g><g><polygon points="427.90625,470.5703125,492.8125,470.5703125,492.8125,535.4765625,427.90625,535.4765625" stroke="#000000" fill="#ffffff" style="fill-opacity: 0; stroke-width: 1;"></polygon><text x="447.864921875" y="518.92546875" lengthAdjust="spacingAndGlyphs" textLength="24.98890625" fill="#88ddbb" style="font-family: sans-serif; font-weight: bold; font-size: 45.4344px;">2</text></g><g><polygon points="492.8125,470.5703125,557.71875,470.5703125,557.71875,535.4765625,492.8125,535.4765625" stroke="#000000" fill="#ffffff" style="fill-opacity: 0; stroke-width: 1;"></polygon></g><g><polygon points="557.71875,81.1328125,622.625,81.1328125,622.625,146.0390625,557.71875,146.0390625" stroke="#000000" fill="#ffffff" style="fill-opacity: 0; stroke-width: 1;"></polygon></g><g><polygon points="557.71875,146.0390625,622.625,146.0390625,622.625,210.9453125,557.71875,210.9453125" stroke="#000000" fill="#ffffff" style="fill-opacity: 0; stroke-width: 1;"></polygon></g><g><polygon points="557.71875,210.9453125,622.625,210.9453125,622.625,275.8515625,557.71875,275.8515625" stroke="#000000" fill="#ffffff" style="fill-opacity: 0; stroke-width: 1;"></polygon><text x="577.677421875" y="259.30046875" lengthAdjust="spacingAndGlyphs" textLength="24.98890625" fill="#88ddbb" style="font-family: sans-serif; font-weight: bold; font-size: 45.4344px;">5</text></g><g><polygon points="557.71875,275.8515625,622.625,275.8515625,622.625,340.7578125,557.71875,340.7578125" stroke="#000000" fill="#ffffff" style="fill-opacity: 0; stroke-width: 1;"></polygon></g><g><polygon points="557.71875,340.7578125,622.625,340.7578125,622.625,405.6640625,557.71875,405.6640625" stroke="#000000" fill="#ffffff" style="fill-opacity: 0; stroke-width: 1;"></polygon></g><g><polygon points="557.71875,405.6640625,622.625,405.6640625,622.625,470.5703125,557.71875,470.5703125" stroke="#000000" fill="#ffffff" style="fill-opacity: 0; stroke-width: 1;"></polygon><text x="577.677421875" y="454.01921875" lengthAdjust="spacingAndGlyphs" textLength="24.98890625" fill="#88ddbb" style="font-family: sans-serif; font-weight: bold; font-size: 45.4344px;">2</text></g><g><polygon points="168.28125,16.2265625,233.1875,16.2265625,233.1875,81.1328125,168.28125,81.1328125" stroke="#000000" fill="#ffffff" style="fill-opacity: 0; stroke-width: 1;"></polygon></g><g><polygon points="233.1875,16.2265625,298.09375,16.2265625,298.09375,81.1328125,233.1875,81.1328125" stroke="#000000" fill="#ffffff" style="fill-opacity: 0; stroke-width: 1;"></polygon></g><g><polygon points="298.09375,16.2265625,363,16.2265625,363,81.1328125,298.09375,81.1328125" stroke="#000000" fill="#ffffff" style="fill-opacity: 0; stroke-width: 1;"></polygon><text x="318.052421875" y="64.58171875" lengthAdjust="spacingAndGlyphs" textLength="24.98890625" fill="#88ddbb" style="font-family: sans-serif; font-weight: bold; font-size: 45.4344px;">4</text></g><g><polygon points="363,16.2265625,427.90625,16.2265625,427.90625,81.1328125,363,81.1328125" stroke="#000000" fill="#ffffff" style="fill-opacity: 0; stroke-width: 1;"></polygon></g><g><polygon points="427.90625,16.2265625,492.8125,16.2265625,492.8125,81.1328125,427.90625,81.1328125" stroke="#000000" fill="#ffffff" style="fill-opacity: 0; stroke-width: 1;"></polygon></g><g><polygon points="492.8125,16.2265625,557.71875,16.2265625,557.71875,81.1328125,492.8125,81.1328125" stroke="#000000" fill="#ffffff" style="fill-opacity: 0; stroke-width: 1;"></polygon></g><g><polygon points="103.375,81.1328125,168.28125,81.1328125,168.28125,146.0390625,103.375,146.0390625" stroke="#000000" fill="#ffffff" style="fill-opacity: 0; stroke-width: 1;"></polygon></g><g><polygon points="103.375,146.0390625,168.28125,146.0390625,168.28125,210.9453125,103.375,210.9453125" stroke="#000000" fill="#ffffff" style="fill-opacity: 0; stroke-width: 1;"></polygon></g><g><polygon points="103.375,210.9453125,168.28125,210.9453125,168.28125,275.8515625,103.375,275.8515625" stroke="#000000" fill="#ffffff" style="fill-opacity: 0; stroke-width: 1;"></polygon></g><g><polygon points="103.375,275.8515625,168.28125,275.8515625,168.28125,340.7578125,103.375,340.7578125" stroke="#000000" fill="#ffffff" style="fill-opacity: 0; stroke-width: 1;"></polygon><text x="123.333671875" y="324.20671875" lengthAdjust="spacingAndGlyphs" textLength="24.98890625" fill="#88ddbb" style="font-family: sans-serif; font-weight: bold; font-size: 45.4344px;">6</text></g><g><polygon points="103.375,340.7578125,168.28125,340.7578125,168.28125,405.6640625,103.375,405.6640625" stroke="#000000" fill="#ffffff" style="fill-opacity: 0; stroke-width: 1;"></polygon><text x="123.333671875" y="389.11296875" lengthAdjust="spacingAndGlyphs" textLength="24.98890625" fill="#88ddbb" style="font-family: sans-serif; font-weight: bold; font-size: 45.4344px;">4</text></g><g><polygon points="103.375,405.6640625,168.28125,405.6640625,168.28125,470.5703125,103.375,470.5703125" stroke="#000000" fill="#ffffff" style="fill-opacity: 0; stroke-width: 1;"></polygon></g><g><line x1="168.28125" x2="233.1875" y1="81.1328125" y2="81.1328125" stroke="#000000" style="stroke-width: 7; stroke-linecap: round;"></line></g><g></g><g></g><g><line x1="168.28125" x2="168.28125" y1="146.0390625" y2="81.1328125" stroke="#000000" style="stroke-width: 7; stroke-linecap: round;"></line></g><g><line x1="233.1875" x2="298.09375" y1="81.1328125" y2="81.1328125" stroke="#000000" style="stroke-width: 7; stroke-linecap: round;"></line></g><g></g><g></g><g><line x1="298.09375" x2="363" y1="81.1328125" y2="81.1328125" stroke="#000000" style="stroke-width: 7; stroke-linecap: round;"></line></g><g><line x1="363" x2="363" y1="81.1328125" y2="146.0390625" stroke="#000000" style="stroke-width: 7; stroke-linecap: round;"></line></g><g></g><g><line x1="363" x2="427.90625" y1="81.1328125" y2="81.1328125" stroke="#000000" style="stroke-width: 7; stroke-linecap: round;"></line></g><g></g><g></g><g><line x1="427.90625" x2="492.8125" y1="81.1328125" y2="81.1328125" stroke="#000000" style="stroke-width: 7; stroke-linecap: round;"></line></g><g></g><g></g><g><line x1="492.8125" x2="557.71875" y1="81.1328125" y2="81.1328125" stroke="#000000" style="stroke-width: 7; stroke-linecap: round;"></line></g><g><line x1="557.71875" x2="557.71875" y1="81.1328125" y2="146.0390625" stroke="#000000" style="stroke-width: 7; stroke-linecap: round;"></line></g><g></g><g></g><g><line x1="233.1875" x2="168.28125" y1="210.9453125" y2="210.9453125" stroke="#000000" style="stroke-width: 7; stroke-linecap: round;"></line></g><g><line x1="168.28125" x2="168.28125" y1="210.9453125" y2="146.0390625" stroke="#000000" style="stroke-width: 7; stroke-linecap: round;"></line></g><g></g><g><line x1="298.09375" x2="233.1875" y1="210.9453125" y2="210.9453125" stroke="#000000" style="stroke-width: 7; stroke-linecap: round;"></line></g><g><line x1="363" x2="363" y1="146.0390625" y2="210.9453125" stroke="#000000" style="stroke-width: 7; stroke-linecap: round;"></line></g><g><line x1="363" x2="298.09375" y1="210.9453125" y2="210.9453125" stroke="#000000" style="stroke-width: 7; stroke-linecap: round;"></line></g><g></g><g><line x1="427.90625" x2="363" y1="210.9453125" y2="210.9453125" stroke="#000000" style="stroke-width: 7; stroke-linecap: round;"></line></g><g></g><g><line x1="492.8125" x2="427.90625" y1="210.9453125" y2="210.9453125" stroke="#000000" style="stroke-width: 7; stroke-linecap: round;"></line></g><g><line x1="557.71875" x2="557.71875" y1="146.0390625" y2="210.9453125" stroke="#000000" style="stroke-width: 7; stroke-linecap: round;"></line></g><g><line x1="557.71875" x2="492.8125" y1="210.9453125" y2="210.9453125" stroke="#000000" style="stroke-width: 7; stroke-linecap: round;"></line></g><g></g><g></g><g><line x1="168.28125" x2="168.28125" y1="275.8515625" y2="210.9453125" stroke="#000000" style="stroke-width: 7; stroke-linecap: round;"></line></g><g></g><g></g><g><line x1="363" x2="363" y1="210.9453125" y2="275.8515625" stroke="#000000" style="stroke-width: 7; stroke-linecap: round;"></line></g><g></g><g></g><g></g><g></g><g></g><g><line x1="557.71875" x2="557.71875" y1="210.9453125" y2="275.8515625" stroke="#000000" style="stroke-width: 7; stroke-linecap: round;"></line></g><g></g><g></g><g><line x1="233.1875" x2="168.28125" y1="340.7578125" y2="340.7578125" stroke="#000000" style="stroke-width: 7; stroke-linecap: round;"></line></g><g><line x1="168.28125" x2="168.28125" y1="340.7578125" y2="275.8515625" stroke="#000000" style="stroke-width: 7; stroke-linecap: round;"></line></g><g></g><g><line x1="298.09375" x2="233.1875" y1="340.7578125" y2="340.7578125" stroke="#000000" style="stroke-width: 7; stroke-linecap: round;"></line></g><g><line x1="363" x2="363" y1="275.8515625" y2="340.7578125" stroke="#000000" style="stroke-width: 7; stroke-linecap: round;"></line></g><g><line x1="363" x2="298.09375" y1="340.7578125" y2="340.7578125" stroke="#000000" style="stroke-width: 7; stroke-linecap: round;"></line></g><g></g><g><line x1="427.90625" x2="363" y1="340.7578125" y2="340.7578125" stroke="#000000" style="stroke-width: 7; stroke-linecap: round;"></line></g><g></g><g><line x1="492.8125" x2="427.90625" y1="340.7578125" y2="340.7578125" stroke="#000000" style="stroke-width: 7; stroke-linecap: round;"></line></g><g><line x1="557.71875" x2="557.71875" y1="275.8515625" y2="340.7578125" stroke="#000000" style="stroke-width: 7; stroke-linecap: round;"></line></g><g><line x1="557.71875" x2="492.8125" y1="340.7578125" y2="340.7578125" stroke="#000000" style="stroke-width: 7; stroke-linecap: round;"></line></g><g></g><g></g><g><line x1="168.28125" x2="168.28125" y1="405.6640625" y2="340.7578125" stroke="#000000" style="stroke-width: 7; stroke-linecap: round;"></line></g><g></g><g></g><g><line x1="363" x2="363" y1="340.7578125" y2="405.6640625" stroke="#000000" style="stroke-width: 7; stroke-linecap: round;"></line></g><g></g><g></g><g></g><g></g><g></g><g><line x1="557.71875" x2="557.71875" y1="340.7578125" y2="405.6640625" stroke="#000000" style="stroke-width: 7; stroke-linecap: round;"></line></g><g></g><g></g><g><line x1="233.1875" x2="168.28125" y1="470.5703125" y2="470.5703125" stroke="#000000" style="stroke-width: 7; stroke-linecap: round;"></line></g><g><line x1="168.28125" x2="168.28125" y1="470.5703125" y2="405.6640625" stroke="#000000" style="stroke-width: 7; stroke-linecap: round;"></line></g><g></g><g><line x1="298.09375" x2="233.1875" y1="470.5703125" y2="470.5703125" stroke="#000000" style="stroke-width: 7; stroke-linecap: round;"></line></g><g><line x1="363" x2="363" y1="405.6640625" y2="470.5703125" stroke="#000000" style="stroke-width: 7; stroke-linecap: round;"></line></g><g><line x1="363" x2="298.09375" y1="470.5703125" y2="470.5703125" stroke="#000000" style="stroke-width: 7; stroke-linecap: round;"></line></g><g></g><g><line x1="427.90625" x2="363" y1="470.5703125" y2="470.5703125" stroke="#000000" style="stroke-width: 7; stroke-linecap: round;"></line></g><g></g><g><line x1="492.8125" x2="427.90625" y1="470.5703125" y2="470.5703125" stroke="#000000" style="stroke-width: 7; stroke-linecap: round;"></line></g><g><line x1="557.71875" x2="557.71875" y1="405.6640625" y2="470.5703125" stroke="#000000" style="stroke-width: 7; stroke-linecap: round;"></line></g><g><line x1="557.71875" x2="492.8125" y1="470.5703125" y2="470.5703125" stroke="#000000" style="stroke-width: 7; stroke-linecap: round;"></line></g></svg>