<svg class="pb-2" id="Grid" style="overflow: visible; z-index: 90;" xmlns="http://www.w3.org/2000/svg" xmlns:xlink="http://www.w3.org/1999/xlink" height="736.598" width="726" viewBox="0 0 726 736.598">
  Sorry, but your browser is not supported. Try to setup the new version.
<desc>Created with Snap</desc><defs><filter id="Smhdhxsc34c" filterUnits="userSpaceOnUse"><feColorMatrix type="matrix" values="1 0 0 0 0 0 1 0 0 0 0 0 1 0 0 0 0 0 0.7 0"></feColorMatrix></filter><filter id="Smhdhxsc34e" filterUnits="userSpaceOnUse"><feColorMatrix type="matrix" values="-.17 -.17 -.17 0 1 -.22 -.22 -.22 0 1 -.33 -.33 -.33 0 1 0 0 0 1 0"></feColorMatrix></filter></defs><g><polygon points="42.74000000000001,32.025999999999996,170.844,32.025999999999996,170.844,160.13,42.74000000000001,160.13" fill="#ffffff" stroke="#000000" style="fill-opacity: 1; stroke-width: 1;"></polygon></g><g><polygon points="170.844,32.025999999999996,298.948,32.025999999999996,298.948,160.13,170.844,160.13" fill="#ffffff" stroke="#000000" style="fill-opacity: 1; stroke-width: 1;"></polygon><text x="210.23597999999998" y="127.46347999999998" lengthAdjust="spacingAndGlyphs" textLength="49.32003999999999" fill="#075466" style="font-family: sans-serif; font-weight: bold; font-size: 89.6728px;">4</text></g><g><polygon points="298.948,32.025999999999996,427.05199999999996,32.025999999999996,427.05199999999996,160.13,298.948,160.13" fill="#ffffff" stroke="#000000" style="fill-opacity: 1; stroke-width: 1;"></polygon></g><g><polygon points="427.05199999999996,32.025999999999996,555.156,32.025999999999996,555.156,160.13,427.05199999999996,160.13" fill="#ffffff" stroke="#000000" style="fill-opacity: 1; stroke-width: 1;"></polygon><text x="466.44397999999995" y="127.46347999999998" lengthAdjust="spacingAndGlyphs" textLength="49.32003999999999" fill="#075466" style="font-family: sans-serif; font-weight: bold; font-size: 89.6728px;">1</text></g><g><polygon points="555.156,32.025999999999996,683.26,32.025999999999996,683.26,160.13,555.156,160.13" fill="#ffffff" stroke="#000000" style="fill-opacity: 1; stroke-width: 1;"></polygon></g><g><polygon points="42.74000000000001,160.13,170.844,160.13,170.844,288.234,42.74000000000001,288.234" fill="#ffffff" stroke="#000000" style="fill-opacity: 1; stroke-width: 1;"></polygon><text x="82.13198" y="255.56748" lengthAdjust="spacingAndGlyphs" textLength="49.32003999999999" fill="#075466" style="font-family: sans-serif; font-weight: bold; font-size: 89.6728px;">3</text></g><g><polygon points="170.844,160.13,298.948,160.13,298.948,288.234,170.844,288.234" fill="#ffffff" stroke="#000000" style="fill-opacity: 1; stroke-width: 1;"></polygon></g><g><polygon points="298.948,160.13,427.05199999999996,160.13,427.05199999999996,288.234,298.948,288.234" fill="#ffffff" stroke="#000000" style="fill-opacity: 1; stroke-width: 1;"></polygon></g><g><polygon points="427.05199999999996,160.13,555.156,160.13,555.156,288.234,427.05199999999996,288.234" fill="#ffffff" stroke="#000000" style="fill-opacity: 1; stroke-width: 1;"></polygon></g><g><polygon points="555.156,160.13,683.26,160.13,683.26,288.234,555.156,288.234" fill="#ffffff" stroke="#000000" style="fill-opacity: 1; stroke-width: 1;"></polygon><text x="594.5479799999999" y="255.56748" lengthAdjust="spacingAndGlyphs" textLength="49.32003999999999" fill="#075466" style="font-family: sans-serif; font-weight: bold; font-size: 89.6728px;">4</text></g><g><polygon points="42.74000000000001,288.234,170.844,288.234,170.844,416.33799999999997,42.74000000000001,416.33799999999997" fill="#ffffff" stroke="#000000" style="fill-opacity: 1; stroke-width: 1;"></polygon></g><g><polygon points="170.844,288.234,298.948,288.234,298.948,416.33799999999997,170.844,416.33799999999997" fill="#ffffff" stroke="#000000" style="fill-opacity: 1; stroke-width: 1;"></polygon></g><g><polygon points="298.948,288.234,427.05199999999996,288.234,427.05199999999996,416.33799999999997,298.948,416.33799999999997" fill="#ffffff" stroke="#000000" style="fill-opacity: 1; stroke-width: 1;"></polygon><text x="338.33998" y="383.6714799999999" lengthAdjust="spacingAndGlyphs" textLength="49.32003999999999" fill="#075466" style="font-family: sans-serif; font-weight: bold; font-size: 89.6728px;">3</text></g><g><polygon points="427.05199999999996,288.234,555.156,288.234,555.156,416.33799999999997,427.05199999999996,416.33799999999997" fill="#ffffff" stroke="#000000" style="fill-opacity: 1; stroke-width: 1;"></polygon></g><g><polygon points="555.156,288.234,683.26,288.234,683.26,416.33799999999997,555.156,416.33799999999997" fill="#ffffff" stroke="#000000" style="fill-opacity: 1; stroke-width: 1;"></polygon></g><g><polygon points="42.74000000000001,416.33799999999997,170.844,416.33799999999997,170.844,544.442,42.74000000000001,544.442" fill="#ffffff" stroke="#000000" style="fill-opacity: 1; stroke-width: 1;"></polygon><text x="82.13198" y="511.77547999999996" lengthAdjust="spacingAndGlyphs" textLength="49.32003999999999" fill="#075466" style="font-family: sans-serif; font-weight: bold; font-size: 89.6728px;">0</text></g><g><polygon points="170.844,416.33799999999997,298.948,416.33799999999997,298.948,544.442,170.844,544.442" fill="#ffffff" stroke="#000000" style="fill-opacity: 1; stroke-width: 1;"></polygon></g><g><polygon points="298.948,416.33799999999997,427.05199999999996,416.33799999999997,427.05199999999996,544.442,298.948,544.442" fill="#ffffff" stroke="#000000" style="fill-opacity: 1; stroke-width: 1;"></polygon></g><g><polygon points="427.05199999999996,416.33799999999997,555.156,416.33799999999997,555.156,544.442,427.05199999999996,544.442" fill="#ffffff" stroke="#000000" style="fill-opacity: 1; stroke-width: 1;"></polygon></g><g><polygon points="555.156,416.33799999999997,683.26,416.33799999999997,683.26,544.442,555.156,544.442" fill="#ffffff" stroke="#000000" style="fill-opacity: 1; stroke-width: 1;"></polygon><text x="594.5479799999999" y="511.77547999999996" lengthAdjust="spacingAndGlyphs" textLength="49.32003999999999" fill="#075466" style="font-family: sans-serif; font-weight: bold; font-size: 89.6728px;">1</text></g><g><polygon points="42.74000000000001,544.4419999999999,170.844,544.4419999999999,170.844,672.5459999999998,42.74000000000001,672.5459999999998" fill="#ffffff" stroke="#000000" style="fill-opacity: 1; stroke-width: 1;"></polygon></g><g><polygon points="170.844,544.4419999999999,298.948,544.4419999999999,298.948,672.5459999999998,170.844,672.5459999999998" fill="#ffffff" stroke="#000000" style="fill-opacity: 1; stroke-width: 1;"></polygon><text x="210.23597999999998" y="639.87948" lengthAdjust="spacingAndGlyphs" textLength="49.32003999999999" fill="#075466" style="font-family: sans-serif; font-weight: bold; font-size: 89.6728px;">2</text></g><g><polygon points="298.948,544.4419999999999,427.05199999999996,544.4419999999999,427.05199999999996,672.5459999999998,298.948,672.5459999999998" fill="#ffffff" stroke="#000000" style="fill-opacity: 1; stroke-width: 1;"></polygon></g><g><polygon points="427.05199999999996,544.4419999999999,555.156,544.4419999999999,555.156,672.5459999999998,427.05199999999996,672.5459999999998" fill="#ffffff" stroke="#000000" style="fill-opacity: 1; stroke-width: 1;"></polygon><text x="466.44397999999995" y="639.87948" lengthAdjust="spacingAndGlyphs" textLength="49.32003999999999" fill="#075466" style="font-family: sans-serif; font-weight: bold; font-size: 89.6728px;">3</text></g><g><polygon points="555.156,544.4419999999999,683.26,544.4419999999999,683.26,672.5459999999998,555.156,672.5459999999998" fill="#ffffff" stroke="#000000" style="fill-opacity: 1; stroke-width: 1;"></polygon></g><g><line x1="42.74000000000001" x2="170.844" y1="32.025999999999996" y2="32.025999999999996" stroke="#002436" style="stroke-width: 21; stroke-linecap: round;"></line></g><g><line x1="170.844" x2="170.844" y1="32.025999999999996" y2="160.13" stroke="#002436" style="stroke-width: 21; stroke-linecap: round;"></line></g><g></g><g><line x1="42.74000000000001" x2="42.74000000000001" y1="160.13" y2="32.025999999999996" stroke="#002436" style="stroke-width: 21; stroke-linecap: round;"></line></g><g></g><g><line x1="298.948" x2="298.948" y1="32.025999999999996" y2="160.13" stroke="#002436" style="stroke-width: 21; stroke-linecap: round;"></line></g><g><line x1="298.948" x2="170.844" y1="160.13" y2="160.13" stroke="#002436" style="stroke-width: 21; stroke-linecap: round;"></line></g><g><line x1="298.948" x2="427.05199999999996" y1="32.025999999999996" y2="32.025999999999996" stroke="#002436" style="stroke-width: 21; stroke-linecap: round;"></line></g><g></g><g></g><g><line x1="427.05199999999996" x2="555.156" y1="32.025999999999996" y2="32.025999999999996" stroke="#002436" style="stroke-width: 21; stroke-linecap: round;"></line></g><g></g><g></g><g><line x1="555.156" x2="683.26" y1="32.025999999999996" y2="32.025999999999996" stroke="#002436" style="stroke-width: 21; stroke-linecap: round;"></line></g><g><line x1="683.26" x2="683.26" y1="32.025999999999996" y2="160.13" stroke="#002436" style="stroke-width: 21; stroke-linecap: round;"></line></g><g><line x1="683.26" x2="555.156" y1="160.13" y2="160.13" stroke="#002436" style="stroke-width: 21; stroke-linecap: round;"></line></g><g></g><g><line x1="170.844" x2="42.74000000000001" y1="288.234" y2="288.234" stroke="#002436" style="stroke-width: 21; stroke-linecap: round;"></line></g><g><line x1="42.74000000000001" x2="42.74000000000001" y1="288.234" y2="160.13" stroke="#002436" style="stroke-width: 21; stroke-linecap: round;"></line></g><g></g><g></g><g></g><g><line x1="427.05199999999996" x2="298.948" y1="288.234" y2="288.234" stroke="#002436" style="stroke-width: 21; stroke-linecap: round;"></line></g><g><line x1="555.156" x2="555.156" y1="160.13" y2="288.234" stroke="#002436" style="stroke-width: 21; stroke-linecap: round;"></line></g><g></g><g></g><g><line x1="683.26" x2="555.156" y1="288.234" y2="288.234" stroke="#002436" style="stroke-width: 21; stroke-linecap: round;"></line></g><g><line x1="170.844" x2="170.844" y1="288.234" y2="416.33799999999997" stroke="#002436" style="stroke-width: 21; stroke-linecap: round;"></line></g><g></g><g></g><g><line x1="298.948" x2="298.948" y1="288.234" y2="416.33799999999997" stroke="#002436" style="stroke-width: 21; stroke-linecap: round;"></line></g><g></g><g><line x1="427.05199999999996" x2="427.05199999999996" y1="288.234" y2="416.33799999999997" stroke="#002436" style="stroke-width: 21; stroke-linecap: round;"></line></g><g></g><g></g><g><line x1="555.156" x2="427.05199999999996" y1="416.33799999999997" y2="416.33799999999997" stroke="#002436" style="stroke-width: 21; stroke-linecap: round;"></line></g><g><line x1="683.26" x2="683.26" y1="288.234" y2="416.33799999999997" stroke="#002436" style="stroke-width: 21; stroke-linecap: round;"></line></g><g></g><g><line x1="170.844" x2="170.844" y1="416.33799999999997" y2="544.442" stroke="#002436" style="stroke-width: 21; stroke-linecap: round;"></line></g><g></g><g></g><g><line x1="298.948" x2="298.948" y1="416.33799999999997" y2="544.442" stroke="#002436" style="stroke-width: 21; stroke-linecap: round;"></line></g><g></g><g></g><g><line x1="427.05199999999996" x2="298.948" y1="544.442" y2="544.442" stroke="#002436" style="stroke-width: 21; stroke-linecap: round;"></line></g><g><line x1="555.156" x2="555.156" y1="416.33799999999997" y2="544.442" stroke="#002436" style="stroke-width: 21; stroke-linecap: round;"></line></g><g></g><g><line x1="683.26" x2="683.26" y1="416.33799999999997" y2="544.442" stroke="#002436" style="stroke-width: 21; stroke-linecap: round;"></line></g><g></g><g><line x1="170.844" x2="170.844" y1="544.4419999999999" y2="672.5459999999998" stroke="#002436" style="stroke-width: 21; stroke-linecap: round;"></line></g><g></g><g></g><g></g><g><line x1="298.948" x2="170.844" y1="672.5459999999998" y2="672.5459999999998" stroke="#002436" style="stroke-width: 21; stroke-linecap: round;"></line></g><g><line x1="427.05199999999996" x2="427.05199999999996" y1="544.4419999999999" y2="672.5459999999998" stroke="#002436" style="stroke-width: 21; stroke-linecap: round;"></line></g><g><line x1="427.05199999999996" x2="298.948" y1="672.5459999999998" y2="672.5459999999998" stroke="#002436" style="stroke-width: 21; stroke-linecap: round;"></line></g><g><line x1="555.156" x2="555.156" y1="544.4419999999999" y2="672.5459999999998" stroke="#002436" style="stroke-width: 21; stroke-linecap: round;"></line></g><g></g><g><line x1="683.26" x2="683.26" y1="544.4419999999999" y2="672.5459999999998" stroke="#002436" style="stroke-width: 21; stroke-linecap: round;"></line></g><g><line x1="683.26" x2="555.156" y1="672.5459999999998" y2="672.5459999999998" stroke="#002436" style="stroke-width: 21; stroke-linecap: round;"></line></g><g></g><g></g><g></g><g></g><g></g><g></g><g></g><g></g><g></g><g></g><g></g><g></g><g></g><g></g><g></g><g></g><g></g><g></g><g></g><g></g><g></g><g></g><g></g><g></g><g></g><g></g><g></g><g></g><g></g><g></g><g></g><g></g><g></g><g></g><g></g><g></g></svg>